<svg width="92" height="27" viewBox="0 0 92 27" fill="none" xmlns="http://www.w3.org/2000/svg">
<path d="M12.794 8.136H25.366V9.83H12.794V8.136ZM17.876 9.662H19.682V20.232H17.876V9.662ZM18.828 13.05L19.976 11.72C21.502 12.476 23.7 13.694 24.778 14.562L23.532 16.102C22.538 15.22 20.41 13.904 18.828 13.05ZM30.532 12.63H43.496V14.464H30.532V12.63ZM52.19 17.334H59.834V18.44H52.19V17.334ZM50.762 12.126H60.114V15.038H50.762V13.918H58.532V13.26H50.762V12.126ZM51.406 15.542H59.82V16.718H52.904V20.288H51.406V15.542ZM59.008 15.542H60.576V18.944C60.576 19.574 60.464 19.882 60.058 20.092C59.666 20.288 59.092 20.274 58.378 20.274C58.322 19.91 58.14 19.434 57.986 19.084C58.35 19.112 58.714 19.112 58.84 19.098C58.966 19.098 59.008 19.07 59.008 18.93V15.542ZM53.982 15.934H55.368V20.19H53.982V15.934ZM56.488 15.934H57.86V20.19H56.488V15.934ZM50.3 8.08H54.71V9.326H50.3V8.08ZM55.858 8.08H61.234V9.326H55.858V8.08ZM50.356 7.002L51.924 7.436C51.378 8.612 50.482 9.816 49.656 10.586C49.334 10.306 48.676 9.872 48.298 9.662C49.138 9.018 49.922 7.996 50.356 7.002ZM56.054 7.002L57.65 7.394C57.146 8.626 56.236 9.802 55.396 10.53C55.046 10.292 54.332 9.914 53.926 9.746C54.822 9.088 55.634 8.052 56.054 7.002ZM50.818 9.046L52.232 8.654C52.54 9.046 52.862 9.606 53.002 9.97L51.49 10.404C51.392 10.04 51.098 9.466 50.818 9.046ZM57.076 9.032L58.574 8.626C58.924 9.018 59.33 9.564 59.526 9.956L57.944 10.39C57.79 10.026 57.412 9.452 57.076 9.032ZM50.02 10.376L51.938 10.796C51.924 10.936 51.826 11.006 51.574 11.048V13.204C51.574 15.122 51.308 18.104 49.586 20.12C49.362 19.77 48.774 19.238 48.396 19.056C49.852 17.306 50.02 14.912 50.02 13.162V10.376ZM58.994 9.998L60.072 11.076C57.51 11.524 53.898 11.734 50.832 11.762C50.79 11.454 50.622 10.922 50.496 10.628C53.492 10.572 56.964 10.348 58.994 9.998Z" fill="#E9BD53"/>
<path d="M84 9.3V6.5H86.6667V9.3H84ZM86.6667 17.7V14.9H74V12.1H86.6667V9.3H89.3333V12.1H92V14.9H89.3333V17.7H86.6667ZM86.6667 17.7V20.5H84V17.7H86.6667Z" fill="#E9BD53"/>
</svg>
