<?xml version="1.0" encoding="utf-8"?>
<!-- Generator: Adobe Illustrator 27.7.0, SVG Export Plug-In . SVG Version: 6.00 Build 0)  -->
<svg version="1.1" xmlns="http://www.w3.org/2000/svg" xmlns:xlink="http://www.w3.org/1999/xlink" x="0px" y="0px"
	 viewBox="0 0 399.7 600" style="enable-background:new 0 0 399.7 600;" xml:space="preserve">
<style type="text/css">
	.st0{display:none;}
	.st1{display:inline;fill:#EFD29E;}
	.st2{display:inline;fill:url(#SVGID_1_);}
	.st3{display:inline;fill:url(#SVGID_00000108301834032288934780000015476015015184986020_);}
	.st4{display:inline;}
	.st5{fill:#E1B654;}
	.st6{fill:#F1C977;}
	.st7{fill:#C69D4C;}
	.st8{fill:none;stroke:#75B059;stroke-width:6;stroke-miterlimit:10;}
	.st9{display:inline;fill:#C9481B;}
	.st10{display:inline;fill:#373838;}
	.st11{display:inline;fill:#E1B654;}
	.st12{display:inline;fill:url(#SVGID_00000152238897383879097870000000971231478717992085_);}
	.st13{display:inline;fill:url(#SVGID_00000134247010144115825420000009218046528574643594_);}
	.st14{display:inline;fill:none;stroke:#EF843E;stroke-width:6;stroke-miterlimit:10;}
	.st15{display:inline;fill:none;stroke:#F2F2F2;stroke-width:3;stroke-miterlimit:10;}
	.st16{fill:#F4F4F4;}
	.st17{display:inline;fill:url(#SVGID_00000139273603445561462830000014766735386461233844_);}
	.st18{display:inline;fill:url(#SVGID_00000170960764587896714420000006777297883133857430_);}
	.st19{display:inline;fill:url(#SVGID_00000047779520664526297000000005709677441255574656_);}
	.st20{display:inline;fill:#F9F9FA;}
	.st21{display:inline;fill:#F9F9FA;stroke:url(#SVGID_00000021118121274292643830000002038955932646761641_);stroke-miterlimit:10;}
	.st22{display:inline;fill:#F4F4F4;}
	.st23{display:inline;fill:#848484;}
	.st24{display:inline;fill:url(#SVGID_00000009585960327892249750000016036607606775414447_);}
	.st25{display:inline;fill:url(#SVGID_00000016059507718648310930000009005800725885792655_);}
	.st26{display:inline;fill:none;stroke:#DB8D7D;stroke-width:4;stroke-miterlimit:10;}
	.st27{display:inline;fill:none;stroke:#848484;stroke-width:3;stroke-miterlimit:10;}
	.st28{display:inline;fill:#C1912F;}
	.st29{display:inline;fill:#2E6637;}
	.st30{display:inline;fill:#FFF9F0;}
	.st31{display:inline;fill:#F4EBE1;}
	.st32{display:inline;fill:#FFDE52;}
	.st33{display:inline;fill:#6D5016;}
	.st34{fill:#848484;}
	.st35{fill:none;stroke:#FFFFFF;stroke-width:3;stroke-miterlimit:10;}
	.st36{display:inline;fill:url(#SVGID_00000008136270172168985850000000077011339979324818_);}
	.st37{fill:#FFF2E1;}
	.st38{fill:#F4EBE1;}
	.st39{fill:#EFDCC7;}
	.st40{fill:#B56340;}
	.st41{display:inline;fill:url(#SVGID_00000021079297016246065740000017341690133474669753_);}
	.st42{display:inline;fill:#FFE6B3;}
	.st43{display:inline;fill:none;stroke:#C69D4C;stroke-width:5;stroke-miterlimit:10;}
	.st44{display:inline;fill:url(#SVGID_00000151535384485249423430000009608734924825331636_);}
	.st45{display:inline;fill:url(#SVGID_00000039837392651086969150000003746850684029697459_);}
	.st46{display:inline;fill:url(#SVGID_00000083794522138352100400000010964480903863859856_);}
	.st47{display:inline;fill:url(#SVGID_00000071531842219716337510000000927257791749313947_);}
	.st48{display:inline;fill:url(#SVGID_00000111165440685596597760000008617543839957701022_);}
	.st49{display:inline;fill:#F9F9FA;stroke:url(#SVGID_00000097463746091078475700000006287643650810334142_);stroke-miterlimit:10;}
	.st50{display:inline;fill:url(#SVGID_00000001639748041506159560000011378940659121657267_);}
	.st51{display:inline;fill:url(#SVGID_00000173127900701499165350000001896706168316111032_);}
	.st52{display:inline;fill:#E9BD53;}
	.st53{display:inline;fill:#F2E1C9;}
	.st54{display:inline;fill:#B9CDCD;}
	.st55{display:inline;fill:#F0EFE6;}
	.st56{display:inline;fill:none;stroke:#E5A398;stroke-width:3;stroke-miterlimit:10;}
	.st57{display:inline;fill:none;stroke:#373838;stroke-width:4;stroke-miterlimit:10;}
	.st58{display:inline;fill:none;stroke:#E9BD53;stroke-width:2;stroke-miterlimit:10;}
	.st59{display:inline;fill:#B9CDCD;stroke:#373838;stroke-width:4;stroke-miterlimit:10;}
	.st60{display:inline;fill:#89C9C7;}
	.st61{display:inline;fill:none;stroke:#373838;stroke-width:5;stroke-miterlimit:10;}
	.st62{display:inline;opacity:0.5;fill:#E9BD53;}
	.st63{fill:#CCAE79;}
	.st64{fill:#6D5021;}
	.st65{fill:#F4AB92;}
	.st66{opacity:0.72;fill:#FCE6E0;}
	.st67{opacity:0.3;fill:#DD9987;}
	.st68{fill:#EA755E;}
	.st69{fill:#809967;}
	.st70{fill:#6B844E;}
	.st71{fill:#A4B21F;}
	.st72{fill:#E4E5C6;}
	.st73{fill:none;stroke:#A4B21F;stroke-width:4;stroke-miterlimit:10;}
	.st74{fill:#C9C00E;}
	.st75{fill:none;stroke:#C9C00E;stroke-width:4;stroke-miterlimit:10;}
	.st76{fill:#AFAF12;}
	.st77{fill:none;stroke:#AFAF12;stroke-width:4;stroke-miterlimit:10;}
	.st78{display:inline;fill:none;stroke:#C69D4C;stroke-width:10;stroke-miterlimit:10;}
</style>
<g id="圖層_1" class="st0">
	<path class="st1" d="M-443.3,461.77c-3.24,3.29-8.74,2.54-10.97-1.51c-5.74-10.4-15.02-23.87-29.61-36.23
		c-19.64-16.64-40.18-23.9-53.93-27.2c-4.59-1.1-6.76-6.36-4.27-10.38c12.46-20.14,27.09-41.6,44.22-63.71
		c13.58-17.52,27.12-33.37,40.24-47.63c3-3.26,8.26-2.89,10.77,0.77c7.53,10.94,18.92,24.71,35.43,37.51
		c18.06,14,35.81,21.86,49.05,26.34c4.11,1.39,5.92,6.2,3.77,9.98c-9.59,16.91-21.18,35.2-35.18,54.14
		C-410.53,426.53-427.5,445.74-443.3,461.77z"/>
	
		<linearGradient id="SVGID_1_" gradientUnits="userSpaceOnUse" x1="43.6289" y1="595.8607" x2="56.8248" y2="456.1756" gradientTransform="matrix(0.5615 0.6687 -0.7091 0.0854 412.4316 386.2512)">
		<stop  offset="0" style="stop-color:#EFD5B6"/>
		<stop  offset="0.9926" style="stop-color:#E2BEA6"/>
	</linearGradient>
	<path class="st2" d="M28.64,505.79L28.64,505.79c-13.45-7.77-18.06-24.97-10.29-38.42l26.57-46.02l48.72,28.13L67.06,495.5
		C59.29,508.95,42.09,513.56,28.64,505.79z"/>
	
		<linearGradient id="SVGID_00000031175961401351932390000003181036573848256178_" gradientUnits="userSpaceOnUse" x1="89.2899" y1="238.3643" x2="102.4858" y2="98.6792" gradientTransform="matrix(-0.5615 0.6687 0.7091 0.0854 258.2621 386.2512)">
		<stop  offset="0" style="stop-color:#EFD5B6"/>
		<stop  offset="0.9926" style="stop-color:#E2BEA6"/>
	</linearGradient>
	<path style="display:inline;fill:url(#SVGID_00000031175961401351932390000003181036573848256178_);" d="M362.91,505.79
		L362.91,505.79c13.45-7.77,18.06-24.97,10.29-38.42l-26.57-46.02l-48.72,28.13l26.57,46.02
		C332.25,508.95,349.46,513.56,362.91,505.79z"/>
	<g id="_x31__00000034075049636515347750000010563476437515070631_" class="st4">
		<g>
			<path class="st5" d="M-768.64,189.48c0.3-5.55-0.2-11.19-1.5-16.67c-0.81-3.41-2.04-6.94-4.62-9.26c-2.34-2.1-5.45-2.9-8.42-3.62
				c-2.26-0.55-4.52-1.1-6.78-1.65c-1.01-0.25-2.19-0.45-2.93,0.25c-0.68,0.64-0.67,1.76-0.61,2.74c0.41,7.12,1.15,14.99,6.16,20.08
				c3,3.05,7.06,4.56,10.97,5.97c2.58,0.94,5.17,1.87,7.75,2.81"/>
		</g>
		<g>
			<path class="st6" d="M-758.02,186.17c4.42-3.37,8.38-7.42,11.7-11.96c2.07-2.83,3.96-6.06,4.04-9.53
				c0.08-3.15-1.34-6.02-2.71-8.75c-1.05-2.08-2.1-4.15-3.15-6.23c-0.47-0.93-1.08-1.96-2.09-2.07c-0.93-0.1-1.77,0.63-2.48,1.31
				c-5.14,4.94-10.65,10.61-11.27,17.72c-0.37,4.26,1.12,8.33,2.58,12.22c0.97,2.57,1.93,5.15,2.9,7.72"/>
		</g>
		<g>
			<path class="st5" d="M-749.68,219.71c5.52-0.65,10.99-2.12,16.16-4.34c3.22-1.38,6.49-3.2,8.33-6.15
				c1.67-2.67,1.92-5.87,2.12-8.91c0.15-2.32,0.31-4.64,0.46-6.96c0.07-1.04,0.07-2.24-0.75-2.85c-0.75-0.56-1.85-0.36-2.8-0.13
				c-6.94,1.63-14.57,3.71-18.72,9.52c-2.48,3.48-3.27,7.74-4,11.83c-0.48,2.71-0.96,5.41-1.43,8.12"/>
		</g>
		<g>
			<path class="st5" d="M-756.84,245.1c5.48,0.94,11.14,1.08,16.73,0.42c3.48-0.41,7.13-1.23,9.73-3.53
				c2.36-2.09,3.5-5.08,4.56-7.95c0.81-2.18,1.61-4.36,2.42-6.55c0.36-0.97,0.7-2.13,0.09-2.94c-0.56-0.75-1.67-0.87-2.65-0.92
				c-7.12-0.41-15.03-0.58-20.66,3.81c-3.37,2.63-5.34,6.49-7.19,10.21c-1.23,2.46-2.45,4.92-3.68,7.38"/>
		</g>
		<g>
			<path class="st5" d="M-749.84,223.1c-0.43-5.54-1.67-11.07-3.67-16.33c-1.25-3.27-2.93-6.61-5.8-8.58
				c-2.6-1.78-5.78-2.16-8.82-2.48c-2.31-0.25-4.63-0.5-6.94-0.75c-1.03-0.11-2.23-0.16-2.87,0.63c-0.59,0.73-0.43,1.83-0.25,2.8
				c1.34,7,3.11,14.71,8.74,19.1c3.37,2.63,7.6,3.59,11.66,4.48c2.68,0.59,5.37,1.18,8.05,1.77"/>
		</g>
		<g>
			<path class="st5" d="M-771.36,225.98c-0.43-5.54-1.67-11.07-3.67-16.33c-1.25-3.27-2.93-6.61-5.8-8.58
				c-2.6-1.78-5.78-2.16-8.82-2.48c-2.31-0.25-4.63-0.5-6.94-0.75c-1.03-0.11-2.23-0.16-2.87,0.63c-0.59,0.73-0.43,1.83-0.25,2.8
				c1.34,7,3.11,14.71,8.74,19.1c3.37,2.63,7.6,3.59,11.66,4.48c2.68,0.59,5.37,1.18,8.06,1.77"/>
		</g>
		<g>
			<path class="st7" d="M-764.15,262.88c-0.43-5.54-1.67-11.07-3.67-16.33c-1.25-3.27-2.93-6.61-5.8-8.58
				c-2.6-1.78-5.78-2.16-8.82-2.48c-2.31-0.25-4.63-0.5-6.94-0.75c-1.03-0.11-2.23-0.16-2.87,0.63c-0.59,0.73-0.43,1.83-0.25,2.8
				c1.34,7,3.11,14.71,8.74,19.1c3.37,2.63,7.6,3.59,11.66,4.48c2.68,0.59,5.37,1.18,8.06,1.77"/>
		</g>
		<line class="st8" x1="-766.22" y1="365.94" x2="-770.88" y2="186.78"/>
		<path class="st8" d="M-758.98,361.65c2.85-26.13,4.78-55,5.01-86.22c0.25-33.86-1.53-65.03-4.38-93.01"/>
		<g>
			<path class="st5" d="M-769.8,265.88c5.46-1.02,10.82-2.86,15.83-5.42c3.12-1.6,6.26-3.63,7.9-6.69c1.48-2.78,1.52-5.98,1.51-9.04
				c0-2.33-0.01-4.65-0.01-6.98c0-1.04-0.08-2.24-0.94-2.79c-0.79-0.51-1.87-0.23-2.81,0.06c-6.81,2.09-14.29,4.68-18.04,10.76
				c-2.25,3.64-2.75,7.94-3.19,12.08c-0.29,2.73-0.59,5.47-0.88,8.2"/>
		</g>
		<g>
			<path class="st7" d="M-769.8,235.35c5.46-1.02,10.82-2.86,15.83-5.42c3.12-1.6,6.26-3.63,7.9-6.69c1.48-2.78,1.52-5.98,1.51-9.04
				c0-2.33-0.01-4.65-0.01-6.98c0-1.04-0.08-2.24-0.94-2.79c-0.79-0.51-1.87-0.23-2.81,0.06c-6.81,2.09-14.29,4.68-18.04,10.76
				c-2.25,3.64-2.75,7.94-3.19,12.08c-0.29,2.73-0.59,5.47-0.88,8.2"/>
		</g>
	</g>
	<path class="st9" d="M321.96,574.01H69.59V407.6c0-51,41.34-92.34,92.34-92.34h67.69c51,0,92.34,41.34,92.34,92.34V574.01z"/>
	<path class="st10" d="M-295.14,447.86c0,0-37.47,108.07-103.03,149.86c0,0,55.48,33.14,46.11,83.57s-113.11,21.37-80.69-105.67
		S-233.9,429.85-233.9,429.85s159.49,57.01,110.85,150.81c-0.72,1.4-2.8,0.84-2.81-0.73c-0.06-19.56-2.85-58.57-46.09-72.98
		C-171.94,506.94-254.07,480.28-295.14,447.86z"/>
	<path class="st11" d="M-387.15,159.14c0,0,110.85-177.73,285.66-146.93c0,0-70.15-93.96-188.74-13.8
		C-290.23-1.59-410.83,13.9-387.15,159.14z"/>
	
		<linearGradient id="SVGID_00000063600582082146107190000011061424439026291102_" gradientUnits="userSpaceOnUse" x1="-421.7413" y1="103.9548" x2="-351.6673" y2="103.9548" gradientTransform="matrix(0.9385 0.3453 -0.3453 0.9385 124.4091 13.2052)">
		<stop  offset="0" style="stop-color:#F8D481"/>
		<stop  offset="1" style="stop-color:#EFEDE5"/>
	</linearGradient>
	<path style="display:inline;fill:url(#SVGID_00000063600582082146107190000011061424439026291102_);" d="M-241.86-9.75
		c-0.64-23.07-16.96-41.41-36.65-41.06c-19.69,0.36-35.33,19.28-35.13,42.36c5.9-3.46,20.15-10.73,39.43-10.1
		C-259.12-18.05-247.76-12.94-241.86-9.75z"/>
	
		<linearGradient id="SVGID_00000116217686840995002820000000076308313155807619_" gradientUnits="userSpaceOnUse" x1="-521.5718" y1="140.6879" x2="-451.4978" y2="140.6879" gradientTransform="matrix(0.9385 0.3453 -0.3453 0.9385 124.4091 13.2052)">
		<stop  offset="0" style="stop-color:#F8D481"/>
		<stop  offset="1" style="stop-color:#EFEDE5"/>
	</linearGradient>
	<path style="display:inline;fill:url(#SVGID_00000116217686840995002820000000076308313155807619_);" d="M-348.24-9.75
		c-0.64-23.07-16.96-41.41-36.65-41.06c-19.69,0.36-35.33,19.28-35.13,42.36c5.06-3.37,17.09-10.38,33.97-11.12
		C-367.14-20.4-353.35-12.88-348.24-9.75z"/>
	<path class="st10" d="M106.78,330.86c0,0-58.86,48.52-88.14,97.06l52.4,20.8c0,0-2.54-40.39,55.44-105.49L106.78,330.86z"/>
	<path class="st10" d="M286.74,329.88c0,0,58.86,48.52,88.14,97.06l-52.4,20.8c0,0,2.54-40.39-55.44-105.49L286.74,329.88z"/>
	<polygon class="st10" points="131.69,342.4 153.38,379.59 192.67,361.02 236.45,380.25 257.79,343.19 	"/>
	<path class="st14" d="M172.72,272.31c13.49,11.59,33.01,5.45,39.89-0.6"/>
	<path class="st15" d="M71.04,448.73c0,0,2.84-55.88,55.44-105.49"/>
	<path class="st15" d="M320.96,448.73c0,0-2.84-55.88-55.44-105.49"/>
	<g class="st4">
		<polygon class="st16" points="284.99,393.84 262.44,397.39 254.36,333.99 273.19,331.02 		"/>
		<polygon class="st16" points="129.5,397.39 106.78,395.18 114.65,333.67 133.63,335.52 		"/>
		<polygon class="st16" points="302.42,574.01 89.12,574.01 106.67,392.81 284.88,392.81 		"/>
	</g>
	
		<linearGradient id="SVGID_00000056410449530617375380000017202905452111831186_" gradientUnits="userSpaceOnUse" x1="18.6471" y1="233.6134" x2="89.5515" y2="233.6134">
		<stop  offset="0" style="stop-color:#EFD5B6"/>
		<stop  offset="0.9926" style="stop-color:#E2BEA6"/>
	</linearGradient>
	
		<ellipse style="display:inline;fill:url(#SVGID_00000056410449530617375380000017202905452111831186_);" cx="54.1" cy="233.61" rx="35.45" ry="41.66"/>
	
		<linearGradient id="SVGID_00000068658359470084164540000017847492285509513122_" gradientUnits="userSpaceOnUse" x1="271.0143" y1="235.9261" x2="341.9187" y2="235.9261" gradientTransform="matrix(-1 0 0 -1 643.9126 465.0806)">
		<stop  offset="0" style="stop-color:#EFD5B6"/>
		<stop  offset="0.9926" style="stop-color:#E2BEA6"/>
	</linearGradient>
	
		<ellipse style="display:inline;fill:url(#SVGID_00000068658359470084164540000017847492285509513122_);" cx="337.45" cy="229.15" rx="35.45" ry="41.66"/>
	
		<linearGradient id="SVGID_00000004541032637244670820000016214801474451678892_" gradientUnits="userSpaceOnUse" x1="317.9453" y1="295.9489" x2="73.0227" y2="126.7077">
		<stop  offset="0" style="stop-color:#EFD5B6"/>
		<stop  offset="0.9926" style="stop-color:#E2BEA6"/>
	</linearGradient>
	
		<circle style="display:inline;fill:url(#SVGID_00000004541032637244670820000016214801474451678892_);" cx="195.48" cy="211.33" r="148.84"/>
	<ellipse class="st20" cx="251.55" cy="222.24" rx="35.45" ry="41.66"/>
	
		<linearGradient id="SVGID_00000120543738263899144550000006963279702057992324_" gradientUnits="userSpaceOnUse" x1="108.7121" y1="222.2434" x2="180.6165" y2="222.2434">
		<stop  offset="0" style="stop-color:#EFD5B6"/>
		<stop  offset="0.9926" style="stop-color:#E2BEA6"/>
	</linearGradient>
	
		<ellipse style="display:inline;fill:#F9F9FA;stroke:url(#SVGID_00000120543738263899144550000006963279702057992324_);stroke-miterlimit:10;" cx="144.66" cy="222.24" rx="35.45" ry="41.66"/>
	<ellipse class="st10" cx="244.85" cy="240.32" rx="8.53" ry="11.37"/>
	<ellipse class="st10" cx="148.95" cy="240.32" rx="8.53" ry="11.37"/>
	<path class="st22" d="M322.51,117.69l-254.06-1.95l16.08-48.57c9.02-27.26,37.87-45.82,70.82-45.57l78.78,0.61
		c32.95,0.25,62.09,19.26,71.54,46.67L322.51,117.69z"/>
	<path class="st23" d="M47.48,227.17c0,0-8.96-36.65,13.37-80.73s63.66-92.7,111.87-88.28s182.69,36.2,171.06,165.79
		c0,0-9.42-130.75-155.27-130.59S47.48,227.17,47.48,227.17z"/>
	<path class="st22" d="M337.36,160.26c-41.05-5.62-87.74-9.53-139.14-9.66c-53.52-0.13-102.01,3.86-144.4,9.66
		c-3.56-13.64-7.09-32.53-7.18-55.18c-0.06-15.35,1.48-29.03,3.59-40.6C52,54.82,59.57,47.6,68.77,46.67
		c38.23-3.86,80.03-6.33,124.94-6.39c46.86-0.07,90.38,2.48,130,6.53c8.66,0.88,15.91,7.34,18.2,16.26
		c2.69,10.44,4.92,23.36,5.19,38.23C347.57,127.16,341.87,147.74,337.36,160.26z"/>
	
		<linearGradient id="SVGID_00000122678410973008755810000005989900588938678950_" gradientUnits="userSpaceOnUse" x1="-158.5393" y1="616.9865" x2="-88.7974" y2="616.9865" gradientTransform="matrix(0.9302 0.3672 -0.3672 0.9302 84.9407 -57.1417)">
		<stop  offset="0" style="stop-color:#EFD5B6"/>
		<stop  offset="0.9926" style="stop-color:#E2BEA6"/>
	</linearGradient>
	<path style="display:inline;fill:url(#SVGID_00000122678410973008755810000005989900588938678950_);" d="M-224.55,485.06
		c-0.1-22.97-15.91-41.6-35.51-41.7c-19.6-0.1-35.6,18.36-35.94,41.33L-224.55,485.06z"/>
	
		<linearGradient id="SVGID_00000088826121344565888610000015629073648693810078_" gradientUnits="userSpaceOnUse" x1="-257.8002" y1="656.0178" x2="-188.9499" y2="656.0178" gradientTransform="matrix(0.9302 0.3672 -0.3672 0.9302 84.9407 -57.1417)">
		<stop  offset="0" style="stop-color:#EFD5B6"/>
		<stop  offset="0.9926" style="stop-color:#E2BEA6"/>
	</linearGradient>
	<path style="display:inline;fill:url(#SVGID_00000088826121344565888610000015629073648693810078_);" d="M-331.89,484.21
		c-0.5-22.38-16.02-40.39-35.21-40.48c-19.19-0.1-34.9,17.74-35.63,40.12L-331.89,484.21z"/>
	<path class="st26" d="M146.76,285.87c10.72,3.45,26.14,7.12,44.93,7.41c21.1,0.32,38.28-3.75,49.65-7.41"/>
	<line class="st27" x1="290.8" y1="238.24" x2="308.32" y2="229.15"/>
	<line class="st27" x1="293.24" y1="245.45" x2="318.29" y2="240.32"/>
	<line class="st27" x1="106.78" y1="238.24" x2="89.26" y2="229.15"/>
	<line class="st27" x1="104.34" y1="245.45" x2="79.29" y2="240.32"/>
	<path class="st28" d="M591.07,713.01h-70.65c-6.6,0-12-5.4-12-12v-19.46c0-1.72,1.41-3.13,3.13-3.13h88.39
		c1.72,0,3.13,1.41,3.13,3.13v19.46C603.07,707.61,597.67,713.01,591.07,713.01z"/>
	<circle class="st29" cx="187.27" cy="666.46" r="49.04"/>
	<circle class="st30" cx="187.27" cy="666.46" r="36.76"/>
	<ellipse class="st31" cx="172.72" cy="654.09" rx="10.68" ry="5.86"/>
	<ellipse class="st31" cx="197.18" cy="655.97" rx="10.68" ry="5.86"/>
	<ellipse class="st31" cx="180.37" cy="692.04" rx="10.68" ry="5.86"/>
	<circle class="st32" cx="173.77" cy="673.56" r="11.73"/>
	<path class="st33" d="M196.79,657.25h-17.14c-3.82,0-6.92-3.1-6.92-6.92v-2.91c0-3.82,3.1-6.92,6.92-6.92h17.14
		c3.82,0,6.92,3.1,6.92,6.92v2.91C203.71,654.15,200.61,657.25,196.79,657.25z"/>
	<g class="st4">
		<ellipse class="st34" cx="708.09" cy="407.84" rx="65.94" ry="64.6"/>
		<ellipse class="st35" cx="708.09" cy="408.16" rx="56.67" ry="55.52"/>
	</g>
	
		<linearGradient id="SVGID_00000042696997378495941320000008099897268456816808_" gradientUnits="userSpaceOnUse" x1="224.2395" y1="699.7267" x2="234.1573" y2="594.7415" gradientTransform="matrix(0.477 -0.9816 1.1475 0.2781 -787.7733 517.9532)">
		<stop  offset="0" style="stop-color:#EFD5B6"/>
		<stop  offset="0.9926" style="stop-color:#E2BEA6"/>
	</linearGradient>
	<path style="display:inline;fill:url(#SVGID_00000042696997378495941320000008099897268456816808_);" d="M154.44,459.53
		L154.44,459.53c4.1,14.98-4.71,30.45-19.69,34.56l-89.08,24.41c-14.98,4.1-30.45-4.71-34.56-19.69l0,0
		c-4.1-14.98,4.71-30.45,19.69-34.56l89.08-24.41C134.86,435.73,150.33,444.54,154.44,459.53z"/>
	<g class="st4">
		<path class="st37" d="M225.04,489.39h-63.36c-6.6,0-12-5.4-12-12v-22.81c0-6.6,5.4-12,12-12h63.36c6.6,0,12,5.4,12,12v22.81
			C237.04,483.99,231.64,489.39,225.04,489.39z"/>
		<ellipse class="st38" cx="163.1" cy="452.84" rx="10.68" ry="5.86"/>
		<ellipse class="st38" cx="187.56" cy="454.72" rx="10.68" ry="5.86"/>
		<ellipse class="st38" cx="208.63" cy="442.93" rx="10.68" ry="5.86"/>
		
			<ellipse transform="matrix(0.8544 -0.5197 0.5197 0.8544 -219.4666 146.9281)" class="st39" cx="152.42" cy="465.05" rx="5.68" ry="9.53"/>
		
			<ellipse transform="matrix(0.9989 -0.0479 0.0479 0.9989 -21.8889 10.3658)" class="st39" cx="205.37" cy="461.96" rx="5.86" ry="10.68"/>
		
			<ellipse transform="matrix(0.5105 -0.8599 0.8599 0.5105 -329.9651 382.5345)" class="st39" cx="170.99" cy="481.07" rx="5.31" ry="10.2"/>
		
			<ellipse transform="matrix(0.9645 -0.2643 0.2643 0.9645 -113.8112 75.105)" class="st39" cx="222.26" cy="460.58" rx="5.86" ry="10.68"/>
		
			<ellipse transform="matrix(0.9132 -0.4076 0.4076 0.9132 -176.7145 119.7362)" class="st39" cx="192.67" cy="474.62" rx="10.36" ry="5.22"/>
		
			<ellipse transform="matrix(0.866 -0.5 0.5 0.866 -211.2186 151.3856)" class="st39" cx="176.88" cy="469.83" rx="10.68" ry="5.86"/>
		
			<ellipse transform="matrix(0.9132 -0.4076 0.4076 0.9132 -175.597 130.1932)" class="st39" cx="217.77" cy="477.23" rx="10.36" ry="5.22"/>
		<path class="st40" d="M147.1,437.72c10.1-3.55,25.9-7.78,45.59-7.78c19.67,0,35.45,4.23,45.54,7.78c0.81,0,5.05,0.1,8.47,3.53
			c2.17,2.17,3.53,5.17,3.53,8.47v19.46c0,1.72-1.41,3.13-3.13,3.13c-12.7-3.76-30.26-7.52-51.36-7.86
			c-24.05-0.39-43.86,3.83-57.51,7.86c-0.21,0-1.32-0.02-2.21-0.92c-0.57-0.57-0.92-1.35-0.92-2.21v-19.46
			C135.1,443.12,140.5,437.72,147.1,437.72z"/>
	</g>
	
		<linearGradient id="SVGID_00000160884734435364457880000005684602006773056139_" gradientUnits="userSpaceOnUse" x1="270.1562" y1="867.7447" x2="280.074" y2="762.7595" gradientTransform="matrix(0.8112 -0.7301 0.9586 0.6893 -717.5101 107.2192)">
		<stop  offset="0" style="stop-color:#EFD5B6"/>
		<stop  offset="0.9926" style="stop-color:#E2BEA6"/>
	</linearGradient>
	<path style="display:inline;fill:url(#SVGID_00000160884734435364457880000005684602006773056139_);" d="M375.78,489.84
		L375.78,489.84c-1.83,15.42-15.82,26.44-31.25,24.61l-91.72-10.9c-15.42-1.83-26.44-15.82-24.61-31.25v0
		c1.83-15.42,15.82-26.44,31.25-24.61l91.72,10.9C366.59,460.42,377.61,474.41,375.78,489.84z"/>
	<g id="_x32__00000005972895034982406640000012779558941295396018_" class="st4">
		<g>
			<path class="st5" d="M-667.97,197.09c1.26-5.41,1.73-11.06,1.4-16.67c-0.21-3.5-0.81-7.19-2.96-9.92
				c-1.95-2.48-4.87-3.79-7.66-5.02c-2.13-0.93-4.26-1.86-6.39-2.8c-0.95-0.42-2.08-0.82-2.93-0.26c-0.78,0.52-0.96,1.62-1.08,2.59
				c-0.82,7.08-1.45,14.97,2.6,20.84c2.43,3.52,6.17,5.71,9.78,7.78c2.38,1.37,4.77,2.74,7.15,4.1"/>
		</g>
		<g>
			<path class="st6" d="M-649.45,202.87c5.37-1.42,10.58-3.65,15.39-6.57c2.99-1.82,5.97-4.08,7.38-7.26
				c1.28-2.88,1.07-6.08,0.84-9.12c-0.17-2.32-0.35-4.64-0.52-6.96c-0.08-1.04-0.25-2.22-1.14-2.71c-0.82-0.45-1.88-0.09-2.8,0.26
				c-6.64,2.59-13.9,5.73-17.2,12.06c-1.97,3.79-2.15,8.12-2.29,12.28c-0.09,2.75-0.18,5.49-0.28,8.24"/>
		</g>
		<g>
			<path class="st6" d="M-656.84,227.75c5.43,1.16,11.08,1.54,16.7,1.11c3.49-0.27,7.17-0.93,9.87-3.13
				c2.44-1.99,3.71-4.93,4.88-7.75c0.89-2.15,1.79-4.29,2.68-6.44c0.4-0.96,0.79-2.09,0.21-2.94c-0.53-0.77-1.63-0.93-2.61-1.03
				c-7.09-0.7-14.99-1.19-20.79,2.97c-3.47,2.49-5.6,6.27-7.6,9.91c-1.33,2.41-2.65,4.82-3.98,7.22"/>
		</g>
		<g>
			<path class="st5" d="M-664.5,248.52c5.01,2.41,10.41,4.1,15.97,5.01c3.46,0.56,7.19,0.78,10.33-0.72
				c2.84-1.36,4.76-3.92,6.57-6.38c1.38-1.88,2.75-3.75,4.13-5.63c0.61-0.84,1.26-1.85,0.89-2.8c-0.33-0.87-1.37-1.29-2.3-1.62
				c-6.73-2.35-14.29-4.69-20.91-2.01c-3.96,1.6-6.91,4.77-9.72,7.84c-1.86,2.03-3.71,4.06-5.57,6.08"/>
		</g>
		<g>
			<path class="st7" d="M-659.16,241.39c1.11-5.44,1.44-11.1,0.96-16.71c-0.3-3.49-1-7.17-3.22-9.84c-2.01-2.42-4.97-3.66-7.8-4.81
				c-2.16-0.88-4.31-1.75-6.47-2.63c-0.96-0.39-2.1-0.77-2.94-0.18c-0.77,0.54-0.92,1.64-1.01,2.62c-0.63,7.1-1.06,15,3.15,20.77
				c2.52,3.45,6.32,5.54,9.98,7.52c2.42,1.3,4.84,2.61,7.26,3.91"/>
		</g>
		<g>
			<path class="st5" d="M-680.12,232.48c0.9-5.48,1-11.15,0.29-16.73c-0.44-3.48-1.28-7.12-3.61-9.7c-2.11-2.34-5.11-3.46-7.98-4.5
				c-2.19-0.79-4.38-1.58-6.57-2.37c-0.98-0.35-2.13-0.68-2.94-0.06c-0.74,0.57-0.85,1.68-0.9,2.66
				c-0.35,7.12-0.46,15.03,3.98,20.62c2.65,3.35,6.53,5.28,10.27,7.11c2.47,1.21,4.94,2.41,7.41,3.62"/>
		</g>
		<g>
			<path class="st7" d="M-684.55,269.96c1.11-5.44,1.44-11.1,0.96-16.71c-0.3-3.49-1-7.17-3.22-9.84c-2.01-2.42-4.97-3.66-7.8-4.81
				c-2.16-0.88-4.31-1.75-6.47-2.63c-0.96-0.39-2.1-0.77-2.94-0.18c-0.77,0.54-0.92,1.64-1.01,2.62c-0.63,7.1-1.06,15,3.15,20.77
				c2.52,3.45,6.32,5.54,9.98,7.52c2.42,1.3,4.84,2.61,7.26,3.91"/>
		</g>
		<path class="st8" d="M-715.14,366.99c10.1-25.58,20.09-55.1,28.5-88.27c7.83-30.85,12.95-59.54,16.28-85.27"/>
		<path class="st8" d="M-709.61,368.36c13.04-27.12,26.07-57.62,38.07-91.38c9.61-27.03,17.35-52.8,23.63-76.89"/>
		<g>
			<path class="st5" d="M-686.53,275.09c5.55,0.32,11.19-0.17,16.67-1.45c3.41-0.8,6.95-2.01,9.28-4.59
				c2.11-2.34,2.91-5.44,3.65-8.4c0.56-2.26,1.12-4.52,1.67-6.78c0.25-1.01,0.46-2.19-0.24-2.93c-0.64-0.68-1.76-0.68-2.74-0.62
				c-7.12,0.39-15,1.1-20.1,6.1c-3.05,2.99-4.58,7.04-6.01,10.95c-0.94,2.58-1.89,5.16-2.83,7.74"/>
		</g>
		<g>
			<path class="st5" d="M-676.15,238.62c5.54-0.47,11.05-1.75,16.3-3.79c3.26-1.27,6.59-2.98,8.53-5.86
				c1.76-2.61,2.11-5.8,2.42-8.84c0.23-2.31,0.46-4.63,0.7-6.94c0.1-1.03,0.14-2.23-0.65-2.87c-0.73-0.58-1.83-0.42-2.8-0.23
				c-6.99,1.4-14.69,3.22-19.03,8.88c-2.6,3.39-3.53,7.62-4.4,11.69c-0.57,2.69-1.14,5.38-1.71,8.07"/>
		</g>
	</g>
	<path class="st42" d="M-475.61,477.47c-3.24,3.29-8.74,2.54-10.97-1.51c-5.74-10.4-15.02-23.87-29.61-36.23
		c-19.64-16.64-40.18-23.9-53.93-27.2c-4.59-1.1-6.76-6.36-4.27-10.38c12.46-20.14,27.09-41.6,44.22-63.71
		c13.58-17.52,27.12-33.37,40.24-47.63c3-3.26,8.26-2.89,10.77,0.77c7.53,10.94,18.92,24.71,35.43,37.52
		c18.06,14,35.81,21.86,49.05,26.34c4.11,1.39,5.92,6.2,3.77,9.98c-9.59,16.91-21.18,35.2-35.18,54.14
		C-442.83,442.23-459.8,461.44-475.61,477.47z"/>
	<g class="st4">
		<g>
			<path class="st5" d="M-572.34,273.33c0.91-5.48,1.01-11.15,0.32-16.73c-0.43-3.48-1.27-7.12-3.59-9.71
				c-2.1-2.34-5.1-3.47-7.97-4.51c-2.19-0.79-4.37-1.58-6.56-2.38c-0.98-0.35-2.13-0.69-2.94-0.07c-0.74,0.57-0.86,1.68-0.91,2.66
				c-0.36,7.12-0.48,15.03,3.95,20.63c2.65,3.35,6.52,5.29,10.26,7.13c2.47,1.21,4.94,2.42,7.4,3.63"/>
		</g>
		<g>
			<path class="st5" d="M-549.59,271.6c4.76-2.87,9.13-6.47,12.93-10.62c2.36-2.59,4.59-5.59,5.05-9.04
				c0.42-3.12-0.67-6.13-1.75-8.99c-0.82-2.18-1.64-4.36-2.45-6.53c-0.37-0.97-0.86-2.07-1.86-2.28c-0.91-0.2-1.83,0.44-2.61,1.04
				c-5.65,4.35-11.74,9.39-13.13,16.4c-0.83,4.19,0.21,8.4,1.24,12.43c0.68,2.66,1.36,5.33,2.04,7.99"/>
		</g>
		<g>
			<path class="st6" d="M-545.8,303c5.56-0.05,11.15-0.92,16.54-2.56c3.35-1.02,6.8-2.48,8.95-5.21c1.95-2.47,2.54-5.62,3.07-8.63
				c0.4-2.29,0.81-4.58,1.21-6.87c0.18-1.02,0.31-2.22-0.44-2.91c-0.69-0.64-1.8-0.56-2.77-0.44c-7.07,0.87-14.89,2.11-19.65,7.43
				c-2.85,3.19-4.09,7.34-5.26,11.33c-0.77,2.64-1.54,5.28-2.31,7.92"/>
		</g>
		<g>
			<path class="st5" d="M-555.68,327.46c5.34,1.53,10.96,2.29,16.58,2.24c3.5-0.03,7.22-0.45,10.06-2.45
				c2.57-1.82,4.03-4.67,5.4-7.4c1.04-2.08,2.08-4.16,3.11-6.25c0.46-0.93,0.93-2.04,0.41-2.91c-0.48-0.8-1.57-1.04-2.54-1.21
				c-7.03-1.17-14.88-2.2-20.95,1.55c-3.63,2.25-6.01,5.87-8.26,9.37c-1.49,2.31-2.97,4.62-4.46,6.94"/>
		</g>
		<g>
			<path class="st7" d="M-546.33,306.35c0.18-5.55-0.46-11.18-1.88-16.63c-0.89-3.39-2.19-6.89-4.83-9.15
				c-2.39-2.05-5.51-2.77-8.5-3.43c-2.27-0.5-4.54-1-6.82-1.5c-1.01-0.22-2.2-0.4-2.93,0.32c-0.66,0.66-0.63,1.77-0.55,2.75
				c0.58,7.1,1.49,14.96,6.62,19.94c3.07,2.98,7.16,4.39,11.1,5.72c2.61,0.88,5.21,1.75,7.82,2.63"/>
		</g>
		<g>
			<path class="st5" d="M-567.65,299.75c-2.01-5.18-4.79-10.11-8.23-14.57c-2.14-2.77-4.71-5.49-8.03-6.54
				c-3-0.95-6.16-0.4-9.16,0.17c-2.29,0.43-4.57,0.86-6.86,1.29c-1.02,0.19-2.18,0.49-2.57,1.43c-0.35,0.87,0.11,1.88,0.57,2.75
				c3.31,6.31,7.22,13.19,13.88,15.76c3.99,1.54,8.31,1.25,12.46,0.93c2.74-0.21,5.48-0.42,8.22-0.63"/>
		</g>
		<g>
			<path class="st7" d="M-562.26,328.86c-3.03-4.66-6.76-8.92-11.04-12.57c-2.66-2.28-5.74-4.4-9.2-4.75
				c-3.13-0.31-6.11,0.88-8.93,2.04c-2.15,0.89-4.3,1.78-6.45,2.67c-0.96,0.4-2.04,0.93-2.22,1.93c-0.17,0.92,0.5,1.81,1.12,2.57
				c4.53,5.5,9.77,11.43,16.82,12.58c4.22,0.69,8.39-0.48,12.38-1.65c2.64-0.77,5.28-1.54,7.92-2.31"/>
		</g>
		<path class="st8" d="M-576.84,442.98c5.59-24.7,10.46-56.31,10.64-93.12c0.16-33.58-3.62-62.74-8.25-86.09"/>
		<path class="st8" d="M-571.15,443c9.13-21.15,19.87-52.51,23.74-91.77c3.47-35.18,0.28-64.97-3.68-86.32"/>
		<g>
			<path class="st5" d="M-567.49,340.99c5.52,0.66,11.18,0.52,16.73-0.42c3.45-0.59,7.06-1.58,9.54-4.02
				c2.25-2.2,3.24-5.25,4.15-8.16c0.7-2.22,1.39-4.44,2.09-6.66c0.31-0.99,0.59-2.16-0.06-2.94c-0.6-0.72-1.71-0.78-2.69-0.79
				c-7.13-0.05-15.04,0.18-20.44,4.85c-3.23,2.79-5,6.75-6.67,10.56c-1.1,2.52-2.2,5.04-3.3,7.56"/>
		</g>
		<g>
			<path class="st5" d="M-567.5,310.55c5.54-0.43,11.07-1.67,16.32-3.67c3.27-1.25,6.61-2.93,8.57-5.8c1.78-2.6,2.16-5.78,2.48-8.82
				c0.25-2.31,0.5-4.63,0.75-6.94c0.11-1.03,0.16-2.23-0.63-2.87c-0.73-0.59-1.83-0.43-2.8-0.25c-7,1.34-14.71,3.11-19.1,8.74
				c-2.63,3.37-3.59,7.6-4.48,11.66c-0.59,2.69-1.18,5.37-1.77,8.06"/>
		</g>
	</g>
	<path class="st43" d="M-507.58,363.64c5.72,3.23,12.06,7.29,18.65,12.35c5.84,4.49,10.85,8.97,15.09,13.17"/>
	<path class="st43" d="M-473.43,351.72c-4.6,7.53-9.64,15.33-15.17,23.32c-6.51,9.39-13.01,18.07-19.38,26.04"/>
	<line class="st43" x1="-496.1" y1="347.23" x2="-493.18" y2="360.92"/>
	<line class="st43" x1="-475.68" y1="373.79" x2="-460.64" y2="373.79"/>
	<line class="st43" x1="-504.4" y1="376.4" x2="-520.7" y2="376.4"/>
	<line class="st43" x1="-486.44" y1="390.76" x2="-484.19" y2="404.9"/>
</g>
<g id="圖層_2" class="st0">
	
		<linearGradient id="SVGID_00000137111916718649983340000004931447865315554472_" gradientUnits="userSpaceOnUse" x1="43.6289" y1="595.8607" x2="56.8248" y2="456.1756" gradientTransform="matrix(0.5615 0.6687 -0.7091 0.0854 412.4316 386.2512)">
		<stop  offset="0" style="stop-color:#EFD5B6"/>
		<stop  offset="0.9926" style="stop-color:#E2BEA6"/>
	</linearGradient>
	<path style="display:inline;fill:url(#SVGID_00000137111916718649983340000004931447865315554472_);" d="M28.64,505.79
		L28.64,505.79c-13.45-7.77-18.06-24.97-10.29-38.42l26.57-46.02l48.72,28.13L67.06,495.5C59.29,508.95,42.09,513.56,28.64,505.79z"
		/>
	
		<linearGradient id="SVGID_00000032645047010117658150000018133922007112350382_" gradientUnits="userSpaceOnUse" x1="89.2899" y1="238.3643" x2="102.4858" y2="98.6792" gradientTransform="matrix(-0.5615 0.6687 0.7091 0.0854 258.2621 386.2512)">
		<stop  offset="0" style="stop-color:#EFD5B6"/>
		<stop  offset="0.9926" style="stop-color:#E2BEA6"/>
	</linearGradient>
	<path style="display:inline;fill:url(#SVGID_00000032645047010117658150000018133922007112350382_);" d="M362.91,505.79
		L362.91,505.79c13.45-7.77,18.06-24.97,10.29-38.42l-26.57-46.02l-48.72,28.13l26.57,46.02
		C332.25,508.95,349.46,513.56,362.91,505.79z"/>
	<path class="st9" d="M321.96,574.01H69.59V407.6c0-51,41.34-92.34,92.34-92.34h67.69c51,0,92.34,41.34,92.34,92.34V574.01z"/>
	<path class="st10" d="M106.78,330.86c0,0-58.86,48.52-88.14,97.06l52.4,20.8c0,0-2.54-40.39,55.44-105.49L106.78,330.86z"/>
	<path class="st10" d="M286.74,329.88c0,0,58.86,48.52,88.14,97.06l-52.4,20.8c0,0,2.54-40.39-55.44-105.49L286.74,329.88z"/>
	<polygon class="st10" points="131.69,342.4 153.38,379.59 192.67,361.02 236.45,380.25 257.79,343.19 	"/>
	<path class="st14" d="M172.72,272.31c13.49,11.59,33.01,5.45,39.89-0.6"/>
	<path class="st15" d="M71.04,448.73c0,0,2.84-55.88,55.44-105.49"/>
	<path class="st15" d="M320.96,448.73c0,0-2.84-55.88-55.44-105.49"/>
	<g class="st4">
		<polygon class="st16" points="284.99,393.84 262.44,397.39 254.36,333.99 273.19,331.02 		"/>
		<polygon class="st16" points="129.5,397.39 106.78,395.18 114.65,333.67 133.63,335.52 		"/>
		<polygon class="st16" points="302.42,574.01 89.12,574.01 106.67,392.81 284.88,392.81 		"/>
	</g>
	
		<linearGradient id="SVGID_00000137093815884619177040000017106200058144610441_" gradientUnits="userSpaceOnUse" x1="18.6471" y1="233.6134" x2="89.5515" y2="233.6134">
		<stop  offset="0" style="stop-color:#EFD5B6"/>
		<stop  offset="0.9926" style="stop-color:#E2BEA6"/>
	</linearGradient>
	
		<ellipse style="display:inline;fill:url(#SVGID_00000137093815884619177040000017106200058144610441_);" cx="54.1" cy="233.61" rx="35.45" ry="41.66"/>
	
		<linearGradient id="SVGID_00000133516619925165365290000010502988990106120077_" gradientUnits="userSpaceOnUse" x1="271.0143" y1="235.9261" x2="341.9187" y2="235.9261" gradientTransform="matrix(-1 0 0 -1 643.9126 465.0806)">
		<stop  offset="0" style="stop-color:#EFD5B6"/>
		<stop  offset="0.9926" style="stop-color:#E2BEA6"/>
	</linearGradient>
	
		<ellipse style="display:inline;fill:url(#SVGID_00000133516619925165365290000010502988990106120077_);" cx="337.45" cy="229.15" rx="35.45" ry="41.66"/>
	
		<linearGradient id="SVGID_00000003075624415620528160000006266229153875917445_" gradientUnits="userSpaceOnUse" x1="317.9453" y1="295.9489" x2="73.0227" y2="126.7077">
		<stop  offset="0" style="stop-color:#EFD5B6"/>
		<stop  offset="0.9926" style="stop-color:#E2BEA6"/>
	</linearGradient>
	
		<circle style="display:inline;fill:url(#SVGID_00000003075624415620528160000006266229153875917445_);" cx="195.48" cy="211.33" r="148.84"/>
	<ellipse class="st20" cx="251.55" cy="222.24" rx="35.45" ry="41.66"/>
	
		<linearGradient id="SVGID_00000152984562341516457570000008217945150863504560_" gradientUnits="userSpaceOnUse" x1="108.7121" y1="222.2434" x2="180.6165" y2="222.2434">
		<stop  offset="0" style="stop-color:#EFD5B6"/>
		<stop  offset="0.9926" style="stop-color:#E2BEA6"/>
	</linearGradient>
	
		<ellipse style="display:inline;fill:#F9F9FA;stroke:url(#SVGID_00000152984562341516457570000008217945150863504560_);stroke-miterlimit:10;" cx="144.66" cy="222.24" rx="35.45" ry="41.66"/>
	<ellipse class="st10" cx="244.85" cy="240.32" rx="8.53" ry="11.37"/>
	<ellipse class="st10" cx="148.95" cy="240.32" rx="8.53" ry="11.37"/>
	<path class="st22" d="M322.51,117.69l-254.06-1.95l16.08-48.57c9.02-27.26,37.87-45.82,70.82-45.57l78.78,0.61
		c32.95,0.25,62.09,19.26,71.54,46.67L322.51,117.69z"/>
	<path class="st23" d="M47.48,227.17c0,0-8.96-36.65,13.37-80.73s63.66-92.7,111.87-88.28s182.69,36.2,171.06,165.79
		c0,0-9.42-130.75-155.27-130.59S47.48,227.17,47.48,227.17z"/>
	<path class="st22" d="M337.36,160.26c-41.05-5.62-87.74-9.53-139.14-9.66c-53.52-0.13-102.01,3.86-144.4,9.66
		c-3.56-13.64-7.09-32.53-7.18-55.18c-0.06-15.35,1.48-29.03,3.59-40.6C52,54.82,59.57,47.6,68.77,46.67
		c38.23-3.86,80.03-6.33,124.94-6.39c46.86-0.07,90.38,2.48,130,6.53c8.66,0.88,15.91,7.34,18.2,16.26
		c2.69,10.44,4.92,23.36,5.19,38.23C347.57,127.16,341.87,147.74,337.36,160.26z"/>
	<path class="st26" d="M146.76,285.87c10.72,3.45,26.14,7.12,44.93,7.41c21.1,0.32,38.28-3.75,49.65-7.41"/>
	<line class="st27" x1="290.8" y1="238.24" x2="308.32" y2="229.15"/>
	<line class="st27" x1="293.24" y1="245.45" x2="318.29" y2="240.32"/>
	<line class="st27" x1="106.78" y1="238.24" x2="89.26" y2="229.15"/>
	<line class="st27" x1="104.34" y1="245.45" x2="79.29" y2="240.32"/>
	
		<linearGradient id="SVGID_00000051363612090411443670000008046838598300889271_" gradientUnits="userSpaceOnUse" x1="224.2395" y1="699.7267" x2="234.1573" y2="594.7415" gradientTransform="matrix(0.477 -0.9816 1.1475 0.2781 -787.7733 517.9532)">
		<stop  offset="0" style="stop-color:#EFD5B6"/>
		<stop  offset="0.9926" style="stop-color:#E2BEA6"/>
	</linearGradient>
	<path style="display:inline;fill:url(#SVGID_00000051363612090411443670000008046838598300889271_);" d="M154.44,459.53
		L154.44,459.53c4.1,14.98-4.71,30.45-19.69,34.56l-89.08,24.41c-14.98,4.1-30.45-4.71-34.56-19.69l0,0
		c-4.1-14.98,4.71-30.45,19.69-34.56l89.08-24.41C134.86,435.73,150.33,444.54,154.44,459.53z"/>
	<g class="st4">
		<path class="st37" d="M225.04,489.39h-63.36c-6.6,0-12-5.4-12-12v-22.81c0-6.6,5.4-12,12-12h63.36c6.6,0,12,5.4,12,12v22.81
			C237.04,483.99,231.64,489.39,225.04,489.39z"/>
		<ellipse class="st38" cx="163.1" cy="452.84" rx="10.68" ry="5.86"/>
		<ellipse class="st38" cx="187.56" cy="454.72" rx="10.68" ry="5.86"/>
		<ellipse class="st38" cx="208.63" cy="442.93" rx="10.68" ry="5.86"/>
		
			<ellipse transform="matrix(0.8544 -0.5197 0.5197 0.8544 -219.4666 146.9281)" class="st39" cx="152.42" cy="465.05" rx="5.68" ry="9.53"/>
		
			<ellipse transform="matrix(0.9989 -0.0479 0.0479 0.9989 -21.8889 10.3658)" class="st39" cx="205.37" cy="461.96" rx="5.86" ry="10.68"/>
		
			<ellipse transform="matrix(0.5105 -0.8599 0.8599 0.5105 -329.9651 382.5345)" class="st39" cx="170.99" cy="481.07" rx="5.31" ry="10.2"/>
		
			<ellipse transform="matrix(0.9645 -0.2643 0.2643 0.9645 -113.8112 75.105)" class="st39" cx="222.26" cy="460.58" rx="5.86" ry="10.68"/>
		
			<ellipse transform="matrix(0.9132 -0.4076 0.4076 0.9132 -176.7145 119.7362)" class="st39" cx="192.67" cy="474.62" rx="10.36" ry="5.22"/>
		
			<ellipse transform="matrix(0.866 -0.5 0.5 0.866 -211.2186 151.3856)" class="st39" cx="176.88" cy="469.83" rx="10.68" ry="5.86"/>
		
			<ellipse transform="matrix(0.9132 -0.4076 0.4076 0.9132 -175.597 130.1932)" class="st39" cx="217.77" cy="477.23" rx="10.36" ry="5.22"/>
		<path class="st40" d="M147.1,437.72c10.1-3.55,25.9-7.78,45.59-7.78c19.67,0,35.45,4.23,45.54,7.78c0.81,0,5.05,0.1,8.47,3.53
			c2.17,2.17,3.53,5.17,3.53,8.47v19.46c0,1.72-1.41,3.13-3.13,3.13c-12.7-3.76-30.26-7.52-51.36-7.86
			c-24.05-0.39-43.86,3.83-57.51,7.86c-0.21,0-1.32-0.02-2.21-0.92c-0.57-0.57-0.92-1.35-0.92-2.21v-19.46
			C135.1,443.12,140.5,437.72,147.1,437.72z"/>
	</g>
	
		<linearGradient id="SVGID_00000078031643929319707290000002886754525623416233_" gradientUnits="userSpaceOnUse" x1="270.1562" y1="867.7447" x2="280.074" y2="762.7595" gradientTransform="matrix(0.8112 -0.7301 0.9586 0.6893 -717.5101 107.2192)">
		<stop  offset="0" style="stop-color:#EFD5B6"/>
		<stop  offset="0.9926" style="stop-color:#E2BEA6"/>
	</linearGradient>
	<path style="display:inline;fill:url(#SVGID_00000078031643929319707290000002886754525623416233_);" d="M375.78,489.84
		L375.78,489.84c-1.83,15.42-15.82,26.44-31.25,24.61l-91.72-10.9c-15.42-1.83-26.44-15.82-24.61-31.25v0
		c1.83-15.42,15.82-26.44,31.25-24.61l91.72,10.9C366.59,460.42,377.61,474.41,375.78,489.84z"/>
</g>
<g id="圖層_4" class="st0">
	<ellipse class="st52" cx="85.18" cy="331.02" rx="61.58" ry="68.33"/>
	<ellipse class="st52" cx="311.81" cy="331.02" rx="61.58" ry="68.33"/>
	<path class="st53" d="M28.64,505.79L28.64,505.79c-13.45-7.77-18.06-24.97-10.29-38.42l26.57-46.02l48.72,28.13L67.06,495.5
		C59.29,508.95,42.09,513.56,28.64,505.79z"/>
	<path class="st53" d="M362.91,505.79L362.91,505.79c13.45-7.77,18.06-24.97,10.29-38.42l-26.57-46.02l-48.72,28.13l26.57,46.02
		C332.25,508.95,349.46,513.56,362.91,505.79z"/>
	<path class="st54" d="M321.96,574.01H69.59V407.6c0-51,41.34-92.34,92.34-92.34h67.69c51,0,92.34,41.34,92.34,92.34V574.01z"/>
	<path class="st55" d="M106.78,330.86c0,0-58.86,48.52-88.14,97.06l52.4,20.8c0,0-2.54-40.39,55.44-105.49L106.78,330.86z"/>
	<path class="st55" d="M286.74,329.88c0,0,58.86,48.52,88.14,97.06l-52.4,20.8c0,0,2.54-40.39-55.44-105.49L286.74,329.88z"/>
	<path class="st15" d="M71.04,448.73c0,0,2.84-55.88,55.44-105.49"/>
	<path class="st15" d="M320.96,448.73c0,0-2.84-55.88-55.44-105.49"/>
	<path class="st55" d="M229.33,301.98c-15.55,0-28.8,9.86-33.83,23.68c-5.03-13.81-18.28-23.68-33.83-23.68c-19.88,0-36,16.12-36,36
		s16.12,36,36,36c15.55,0,28.8-9.86,33.83-23.68c5.03,13.81,18.28,23.68,33.83,23.68c19.88,0,36-16.12,36-36
		S249.21,301.98,229.33,301.98z"/>
	<circle class="st52" cx="192.67" cy="194.36" r="161.67"/>
	<path class="st14" d="M172.72,272.31c13.49,11.59,33.01,5.45,39.89-0.6"/>
	<ellipse class="st53" cx="54.1" cy="233.61" rx="35.45" ry="41.66"/>
	<ellipse class="st53" cx="337.45" cy="229.15" rx="35.45" ry="41.66"/>
	<circle class="st53" cx="195.48" cy="211.33" r="148.84"/>
	<ellipse class="st20" cx="251.55" cy="222.24" rx="35.45" ry="41.66"/>
	<ellipse class="st20" cx="144.66" cy="222.24" rx="35.45" ry="41.66"/>
	<line class="st56" x1="290.8" y1="238.24" x2="308.32" y2="229.15"/>
	<line class="st56" x1="293.24" y1="245.45" x2="318.29" y2="240.32"/>
	<line class="st56" x1="106.78" y1="238.24" x2="89.26" y2="229.15"/>
	<line class="st56" x1="104.34" y1="245.45" x2="79.29" y2="240.32"/>
	<path class="st52" d="M345.15,138.44c-4.98-3.31-10.22-5.51-15.41-6.64c-3.52-27.35-26.06-59.77-59.89-82.25
		C224.01,19.08,174.82,18.39,159.97,48c-2.94,5.87-4.31,12.5-4.26,19.58c-19.16-12.08-45.57-9.71-66.76,8.22
		c-19.97,16.9-29.87,43.02-27.36,66.6c-14.18-0.38-28.7,9.55-36.38,26.61c-10.32,22.92-4.4,50.01,13.21,60.52
		c17.61,10.51,40.25,0.45,50.57-22.47c2.81-6.24,4.4-12.79,4.9-19.22c18.09,7.12,40.39,3.27,58.76-12.28
		c15.73-13.31,25.2-32.33,27.3-51.33c9.66,11.86,21.9,23.08,36.13,32.55c25.69,17.08,52.44,24.79,73.6,23.07
		c3.33,10.88,10.52,21.06,20.74,27.86c20.01,13.3,44.01,8.58,53.6-10.54S365.16,151.74,345.15,138.44z"/>
	<path class="st57" d="M187.56,233.7c2.01-0.81,5.41-1.89,9.74-1.9c4.39-0.01,7.84,1.09,9.86,1.9"/>
	<path class="st10" d="M140.67,243.08l-8.15-1.85c-0.96-0.22-1.97,0.05-2.7,0.72l-6.14,5.67c-1.83,1.69-4.8,0.55-5.02-1.93
		l-0.76-8.33c-0.09-0.98-0.66-1.86-1.52-2.34l-7.29-4.09c-2.17-1.22-2-4.39,0.28-5.37l7.68-3.3c0.91-0.39,1.57-1.2,1.76-2.17
		l1.64-8.2c0.49-2.44,3.56-3.26,5.2-1.39l5.51,6.29c0.65,0.74,1.63,1.12,2.61,1l8.3-0.98c2.47-0.29,4.2,2.38,2.93,4.52l-4.28,7.18
		c-0.51,0.85-0.56,1.89-0.15,2.79l3.49,7.6C145.1,241.16,143.1,243.63,140.67,243.08z"/>
	<path class="st58" d="M131.53,233.38l-2.72-0.62c-0.32-0.07-0.66,0.02-0.9,0.24l-2.05,1.89c-0.61,0.56-1.6,0.18-1.68-0.65
		l-0.25-2.78c-0.03-0.33-0.22-0.62-0.51-0.78l-2.44-1.37c-0.72-0.41-0.67-1.47,0.1-1.8l2.57-1.1c0.3-0.13,0.52-0.4,0.59-0.73
		l0.55-2.74c0.16-0.82,1.19-1.09,1.74-0.46l1.84,2.1c0.22,0.25,0.54,0.37,0.87,0.33l2.77-0.33c0.83-0.1,1.4,0.79,0.98,1.51
		l-1.43,2.4c-0.17,0.28-0.19,0.63-0.05,0.93l1.17,2.54C133.01,232.73,132.34,233.56,131.53,233.38z"/>
	<path class="st10" d="M248.93,243.2l-8.15-1.85c-0.96-0.22-1.97,0.05-2.7,0.72l-6.14,5.67c-1.83,1.69-4.8,0.55-5.02-1.93
		l-0.76-8.33c-0.09-0.98-0.66-1.86-1.52-2.34l-7.29-4.09c-2.17-1.22-2-4.39,0.28-5.37l7.68-3.3c0.91-0.39,1.57-1.2,1.76-2.17
		l1.64-8.2c0.49-2.44,3.56-3.26,5.2-1.39l5.51,6.29c0.65,0.74,1.63,1.12,2.61,1l8.3-0.98c2.47-0.29,4.2,2.38,2.93,4.52l-4.28,7.18
		c-0.51,0.85-0.56,1.89-0.15,2.79l3.49,7.6C253.36,241.27,251.36,243.74,248.93,243.2z"/>
	<path class="st10" d="M289.71,130.51l-10.32-2.34c-1.22-0.28-2.5,0.07-3.42,0.91l-7.78,7.18c-2.31,2.14-6.07,0.69-6.36-2.45
		l-0.97-10.54c-0.11-1.25-0.83-2.36-1.92-2.97l-9.23-5.18c-2.75-1.54-2.53-5.56,0.36-6.81l9.73-4.18c1.15-0.49,1.98-1.52,2.23-2.75
		l2.07-10.38c0.62-3.09,4.51-4.13,6.58-1.76l6.98,7.96c0.82,0.94,2.06,1.42,3.3,1.27l10.51-1.24c3.13-0.37,5.32,3.01,3.71,5.72
		l-5.41,9.1c-0.64,1.07-0.71,2.4-0.19,3.53l4.42,9.62C295.32,128.08,292.78,131.21,289.71,130.51z"/>
	<path class="st59" d="M317.72,158.52l-10.32-2.34c-1.22-0.28-2.5,0.07-3.42,0.91l-7.78,7.18c-2.31,2.14-6.07,0.69-6.36-2.45
		l-0.97-10.54c-0.11-1.25-0.83-2.36-1.92-2.97l-9.23-5.18c-2.75-1.54-2.53-5.56,0.36-6.81l9.73-4.18c1.15-0.49,1.98-1.52,2.23-2.75
		l2.07-10.38c0.62-3.09,4.51-4.13,6.58-1.76l6.98,7.96c0.82,0.94,2.06,1.42,3.3,1.27l10.51-1.24c3.13-0.37,5.32,3.01,3.71,5.72
		l-5.41,9.1c-0.64,1.07-0.71,2.4-0.19,3.53l4.42,9.62C323.33,156.09,320.8,159.22,317.72,158.52z"/>
	<path class="st60" d="M213.25,322.68H178.3c-19.05,0-34.64-14.56-34.64-32.36v0c0-10.24,8.97-18.62,19.93-18.62
		c7.78,2.19,19.1,4.52,32.88,4.44c13.11-0.08,23.92-2.3,31.5-4.44c1.34,0,8.38,0.15,14.08,5.47c3.61,3.37,5.85,8.03,5.85,13.15v0
		C247.89,308.12,232.3,322.68,213.25,322.68z"/>
	<path class="st58" d="M237.98,235.78l-2.72-0.62c-0.32-0.07-0.66,0.02-0.9,0.24l-2.05,1.89c-0.61,0.56-1.6,0.18-1.68-0.65
		l-0.25-2.78c-0.03-0.33-0.22-0.62-0.51-0.78l-2.44-1.37c-0.72-0.41-0.67-1.47,0.1-1.8l2.57-1.1c0.3-0.13,0.52-0.4,0.59-0.72
		l0.55-2.74c0.16-0.82,1.19-1.09,1.74-0.46l1.84,2.1c0.22,0.25,0.54,0.37,0.87,0.33l2.77-0.33c0.83-0.1,1.4,0.79,0.98,1.51
		l-1.43,2.4c-0.17,0.28-0.19,0.63-0.05,0.93l1.17,2.54C239.46,235.13,238.79,235.96,237.98,235.78z"/>
	<circle class="st61" cx="143.16" cy="231.61" r="44.4"/>
	<circle class="st61" cx="251.55" cy="231.61" r="44.4"/>
	<path class="st60" d="M170.99,333.49L170.99,333.49c-3.96,0-7.2-3.24-7.2-7.2v-14.56c0-3.96,3.24-7.2,7.2-7.2h0
		c3.96,0,7.2,3.24,7.2,7.2v14.56C178.2,330.25,174.96,333.49,170.99,333.49z"/>
	<path class="st60" d="M187.56,347.39L187.56,347.39c-5.11,0-9.28-4.18-9.28-9.28v-30.85c0-5.11,4.18-9.28,9.28-9.28h0
		c5.11,0,9.28,4.18,9.28,9.28v30.85C196.84,343.21,192.66,347.39,187.56,347.39z"/>
	<path class="st60" d="M221.22,329.88h-0.6c-3.13,0-5.69-2.56-5.69-5.69v-12.67c0-3.13,2.56-5.69,5.69-5.69h0.6
		c3.13,0,5.69,2.56,5.69,5.69v12.67C226.91,327.32,224.35,329.88,221.22,329.88z"/>
	<path class="st62" d="M215.01,502.24H166c-18.09,0-32.88-14.8-32.88-32.88v-12.67c0-18.09,14.8-32.88,32.88-32.88h49.01
		c18.09,0,32.88,14.8,32.88,32.88v12.67C247.89,487.44,233.09,502.24,215.01,502.24z"/>
	<path class="st53" d="M154.44,459.53L154.44,459.53c4.1,14.98-4.71,30.45-19.69,34.56l-89.08,24.41
		c-14.98,4.1-30.45-4.71-34.56-19.69l0,0c-4.1-14.98,4.71-30.45,19.69-34.56l89.08-24.41C134.86,435.73,150.33,444.54,154.44,459.53
		z"/>
	<path class="st53" d="M375.78,489.84L375.78,489.84c-1.83,15.42-15.82,26.44-31.25,24.61l-91.72-10.9
		c-15.42-1.83-26.44-15.82-24.61-31.25v0c1.83-15.42,15.82-26.44,31.25-24.61l91.72,10.9C366.59,460.42,377.61,474.41,375.78,489.84
		z"/>
</g>
<g id="圖層_6">
	<g>
		<path class="st63" d="M348.32,425.14H46.69c-19.22,0-34.79-15.58-34.79-34.79V197.57c0-19.22,15.58-34.79,34.79-34.79h301.63
			c19.22,0,34.79,15.58,34.79,34.79v192.78C383.12,409.57,367.54,425.14,348.32,425.14z"/>
		<path class="st64" d="M323.06,408.47H64.33c-19.22,0-34.79-15.58-34.79-34.79V211.21c0-19.22,15.58-34.79,34.79-34.79h258.74
			c19.22,0,34.79,15.58,34.79,34.79v162.46C357.86,392.89,342.28,408.47,323.06,408.47z"/>
		<path class="st37" d="M74.84,356.17c-1.46-8.81-2.55-19.88-2.12-32.61c0.28-8.05,1.11-15.3,2.17-21.57
			c0.1-1.27,0.59-5.55,3.64-9.08c0.67-0.77,2.73-2.99,6.01-3.88c0.92-0.25,1.88-0.38,2.87-0.38h17.33c6.91,0,12.57,6.53,12.57,14.5
			c0.49,7.52,0.8,15.44,0.86,23.75c0.07,10.34-0.26,20.11-0.86,29.26c0.04,0.89,0.07,5.91-3.69,10.24
			c-2.28,2.63-5.42,4.26-8.88,4.26H87.41C80.5,370.68,74.84,364.15,74.84,356.17z"/>
		<g>
			<path class="st37" d="M242.87,251.26c-1.52-7.98-2.67-18.01-2.21-29.54c0.29-7.3,1.17-13.86,2.27-19.55
				c0.11-1.15,0.61-5.03,3.81-8.23c0.7-0.7,2.86-2.7,6.28-3.51c0.96-0.23,1.97-0.35,3-0.35h18.11c7.23,0,13.14,5.91,13.14,13.14
				v48.03c0,7.23-5.91,13.14-13.14,13.14h-18.11C248.78,264.41,242.87,258.49,242.87,251.26z"/>
			<ellipse class="st38" cx="282.9" cy="201.51" rx="6.42" ry="9.08"/>
			<ellipse class="st38" cx="280.84" cy="222.31" rx="6.42" ry="9.08"/>
			
				<ellipse transform="matrix(0.9358 -0.3525 0.3525 0.9358 -50.5241 107.3479)" class="st39" cx="269.53" cy="192.42" rx="9.96" ry="5.07"/>
			
				<ellipse transform="matrix(0.9995 -0.0318 0.0318 0.9995 -7.4075 8.7919)" class="st39" cx="272.92" cy="237.46" rx="11.69" ry="4.99"/>
			
				<ellipse transform="matrix(0.687 -0.7266 0.7266 0.687 -72.4368 248.259)" class="st39" cx="251.98" cy="208.22" rx="9.5" ry="5.31"/>
			
				<ellipse transform="matrix(0.9841 -0.1779 0.1779 0.9841 -40.4192 52.83)" class="st39" cx="274.42" cy="251.83" rx="11.55" ry="5.05"/>
			
				<ellipse transform="matrix(0.8153 -0.579 0.579 0.8153 -83.3949 191.8388)" class="st39" cx="259.05" cy="226.66" rx="5.38" ry="9.37"/>
			
				<ellipse transform="matrix(0.7233 -0.6905 0.6905 0.7233 -74.1112 241.5071)" class="st39" cx="264.29" cy="213.23" rx="5.87" ry="9.94"/>
			
				<ellipse transform="matrix(0.8153 -0.579 0.579 0.8153 -96.2853 194.1298)" class="st39" cx="256.19" cy="248.01" rx="5.38" ry="9.37"/>
			<path class="st40" d="M290.28,190.85c3.89,8.17,8.52,20.96,8.52,36.9c0,15.91-4.63,28.69-8.52,36.86c0,0.65-0.11,4.08-3.86,6.86
				c-2.38,1.76-5.67,2.85-9.28,2.85h-21.31c-1.89,0-3.43-1.14-3.43-2.53c-1.53-4.9-3.29-11.49-4.52-19.41
				c-0.37-2.36-1.95-13.01-1.32-28.84c0.4-10.12,1.77-23.83,5.84-39.85c0-0.17,0.03-1.07,1.01-1.79c0.62-0.46,1.48-0.74,2.42-0.74
				l21.31,0C284.37,181.14,290.28,185.51,290.28,190.85z"/>
		</g>
		
			<ellipse transform="matrix(0.9358 -0.3525 0.3525 0.9358 -97.4379 54.3608)" class="st39" cx="100.57" cy="294.76" rx="10.99" ry="5.59"/>
		<ellipse class="st38" cx="111.15" cy="327.75" rx="7.09" ry="10.03"/>
		
			<ellipse transform="matrix(0.9995 -0.0318 0.0318 0.9995 -10.8928 3.4881)" class="st39" cx="104.3" cy="344.47" rx="12.9" ry="5.51"/>
		
			<ellipse transform="matrix(0.687 -0.7266 0.7266 0.687 -201.438 156.7021)" class="st39" cx="81.19" cy="312.2" rx="10.49" ry="5.86"/>
		
			<ellipse transform="matrix(0.9841 -0.1779 0.1779 0.9841 -62.359 24.5389)" class="st39" cx="105.67" cy="360.04" rx="12.75" ry="5.57"/>
		
			<ellipse transform="matrix(0.8153 -0.579 0.579 0.8153 -176.105 112.9329)" class="st39" cx="88.99" cy="332.55" rx="5.94" ry="10.34"/>
		
			<ellipse transform="matrix(0.7233 -0.6905 0.6905 0.7233 -193.1759 153.3669)" class="st39" cx="94.78" cy="317.72" rx="6.48" ry="10.97"/>
		
			<ellipse transform="matrix(0.8153 -0.579 0.579 0.8153 -190.3315 115.4613)" class="st39" cx="85.84" cy="356.11" rx="5.94" ry="10.34"/>
		<g>
			<path class="st37" d="M124.75,200.14c1.52,7.98,2.67,18.01,2.21,29.54c-0.29,7.3-1.17,13.86-2.27,19.55
				c-0.11,1.15-0.61,5.03-3.81,8.23c-0.7,0.7-2.86,2.7-6.28,3.51c-0.96,0.23-1.97,0.35-3,0.35H93.5c-7.23,0-13.14-5.91-13.14-13.14
				v-48.03c0-7.23,5.91-13.14,13.14-13.14h18.11C118.84,187,124.75,192.91,124.75,200.14z"/>
			<ellipse class="st38" cx="84.72" cy="249.9" rx="6.42" ry="9.08"/>
			<ellipse class="st38" cx="86.78" cy="229.09" rx="6.42" ry="9.08"/>
			
				<ellipse transform="matrix(0.9358 -0.3525 0.3525 0.9358 -84.9867 51.1906)" class="st39" cx="98.08" cy="258.98" rx="9.96" ry="5.07"/>
			
				<ellipse transform="matrix(0.9995 -0.0318 0.0318 0.9995 -6.7503 3.1171)" class="st39" cx="94.7" cy="213.94" rx="11.69" ry="4.99"/>
			
				<ellipse transform="matrix(0.687 -0.7266 0.7266 0.687 -140.5131 160.1308)" class="st39" cx="115.64" cy="243.18" rx="9.5" ry="5.31"/>
			
				<ellipse transform="matrix(0.9841 -0.1779 0.1779 0.9841 -34.0142 19.7611)" class="st39" cx="93.2" cy="199.58" rx="11.55" ry="5.05"/>
			
				<ellipse transform="matrix(0.8153 -0.579 0.579 0.8153 -110.0766 104.3633)" class="st39" cx="108.57" cy="224.75" rx="5.38" ry="9.37"/>
			
				<ellipse transform="matrix(0.7233 -0.6905 0.6905 0.7233 -135.8803 137.2574)" class="st39" cx="103.33" cy="238.18" rx="5.87" ry="9.94"/>
			
				<ellipse transform="matrix(0.8153 -0.579 0.579 0.8153 -97.1862 102.0724)" class="st39" cx="111.43" cy="203.39" rx="5.38" ry="9.37"/>
		</g>
		<path class="st40" d="M117.09,188.89c2.3,9.69,4.38,22.48,4.32,37.54c-0.06,14.46-2.08,26.77-4.32,36.21
			c0,0.65-0.11,4.08-3.86,6.86c-2.38,1.76-5.67,2.85-9.28,2.85H82.63c-1.89,0-3.43-1.14-3.43-2.53c-2.21-4.72-4.82-11.19-6.88-19.12
			c-1.23-4.75-3.9-15.33-3.54-28.63c0.46-17.43,5.91-31.44,10.42-40.36c0-0.17,0.03-1.07,1.01-1.79c0.62-0.46,1.48-0.74,2.42-0.74
			h21.31C111.17,179.18,117.09,183.55,117.09,188.89z"/>
		<g>
			<path class="st37" d="M187.12,251.74c-1.52-7.98-2.67-18.01-2.21-29.54c0.29-7.3,1.17-13.86,2.27-19.55
				c0.11-1.15,0.61-5.03,3.81-8.23c0.7-0.7,2.86-2.7,6.28-3.51c0.96-0.23,1.97-0.35,3-0.35h18.11c7.23,0,13.14,5.91,13.14,13.14
				v48.03c0,7.23-5.91,13.14-13.14,13.14h-18.11C193.03,264.88,187.12,258.97,187.12,251.74z"/>
			<ellipse class="st38" cx="227.15" cy="201.98" rx="6.42" ry="9.08"/>
			<ellipse class="st38" cx="225.09" cy="222.79" rx="6.42" ry="9.08"/>
			
				<ellipse transform="matrix(0.9358 -0.3525 0.3525 0.9358 -54.2693 87.7291)" class="st39" cx="213.78" cy="192.9" rx="9.96" ry="5.07"/>
			
				<ellipse transform="matrix(0.9995 -0.0318 0.0318 0.9995 -7.4507 7.0207)" class="st39" cx="217.17" cy="237.94" rx="11.69" ry="4.99"/>
			
				<ellipse transform="matrix(0.687 -0.7266 0.7266 0.687 -90.2294 207.8995)" class="st39" cx="196.23" cy="208.7" rx="9.5" ry="5.31"/>
			
				<ellipse transform="matrix(0.9841 -0.1779 0.1779 0.9841 -41.3928 42.9209)" class="st39" cx="218.67" cy="252.31" rx="11.55" ry="5.05"/>
			
				<ellipse transform="matrix(0.8153 -0.579 0.579 0.8153 -93.9649 159.6488)" class="st39" cx="203.3" cy="227.13" rx="5.38" ry="9.37"/>
			
				<ellipse transform="matrix(0.7233 -0.6905 0.6905 0.7233 -89.8659 203.1416)" class="st39" cx="208.54" cy="213.7" rx="5.87" ry="9.94"/>
			
				<ellipse transform="matrix(0.8153 -0.579 0.579 0.8153 -106.8553 161.9398)" class="st39" cx="200.44" cy="248.49" rx="5.38" ry="9.37"/>
			<path class="st40" d="M234.54,191.32c3.89,8.17,8.52,20.96,8.52,36.9c0,15.91-4.63,28.69-8.52,36.86c0,0.65-0.11,4.08-3.86,6.86
				c-2.38,1.76-5.67,2.85-9.28,2.85h-21.31c-1.89,0-3.43-1.14-3.43-2.53c-1.53-4.9-3.29-11.49-4.52-19.41
				c-0.37-2.36-1.95-13.01-1.32-28.84c0.4-10.12,1.77-23.83,5.84-39.85c0-0.17,0.03-1.07,1.01-1.79c0.62-0.46,1.48-0.74,2.42-0.74
				h21.31C228.62,181.61,234.54,185.98,234.54,191.32z"/>
		</g>
		<g>
			<path class="st37" d="M178.88,200.14c1.52,7.98,2.67,18.01,2.21,29.54c-0.29,7.3-1.17,13.86-2.27,19.55
				c-0.11,1.15-0.61,5.03-3.81,8.23c-0.7,0.7-2.86,2.7-6.28,3.51c-0.96,0.23-1.97,0.35-3,0.35h-18.11
				c-7.23,0-13.14-5.91-13.14-13.14v-48.03c0-7.23,5.91-13.14,13.14-13.14h18.11C172.97,187,178.88,192.91,178.88,200.14z"/>
			<ellipse class="st38" cx="138.84" cy="249.9" rx="6.42" ry="9.08"/>
			<ellipse class="st38" cx="140.91" cy="229.09" rx="6.42" ry="9.08"/>
			
				<ellipse transform="matrix(0.9358 -0.3525 0.3525 0.9358 -81.513 70.269)" class="st39" cx="152.21" cy="258.98" rx="9.96" ry="5.07"/>
			
				<ellipse transform="matrix(0.9995 -0.0318 0.0318 0.9995 -6.7229 4.8371)" class="st39" cx="148.83" cy="213.94" rx="11.69" ry="4.99"/>
			
				<ellipse transform="matrix(0.687 -0.7266 0.7266 0.687 -123.5728 199.4622)" class="st39" cx="169.77" cy="243.18" rx="9.5" ry="5.31"/>
			
				<ellipse transform="matrix(0.9841 -0.1779 0.1779 0.9841 -33.151 29.3897)" class="st39" cx="147.33" cy="199.58" rx="11.55" ry="5.05"/>
			
				<ellipse transform="matrix(0.8153 -0.579 0.579 0.8153 -100.081 135.7034)" class="st39" cx="162.7" cy="224.75" rx="5.38" ry="9.37"/>
			
				<ellipse transform="matrix(0.7233 -0.6905 0.6905 0.7233 -120.9022 174.6362)" class="st39" cx="157.46" cy="238.18" rx="5.87" ry="9.94"/>
			
				<ellipse transform="matrix(0.8153 -0.579 0.579 0.8153 -87.1906 133.4124)" class="st39" cx="165.55" cy="203.39" rx="5.38" ry="9.37"/>
		</g>
		<path class="st40" d="M173.36,188.89c2.3,9.69,4.38,22.48,4.32,37.54c-0.06,14.46-2.08,26.77-4.32,36.21
			c0,0.65-0.11,4.08-3.86,6.86c-2.38,1.76-5.67,2.85-9.28,2.85H138.9c-1.89,0-3.43-1.14-3.43-2.53c-2.21-4.72-4.82-11.19-6.88-19.12
			c-1.23-4.75-3.9-15.33-3.54-28.63c0.46-17.43,5.91-31.44,10.42-40.36c0-0.17,0.03-1.07,1.01-1.79c0.62-0.46,1.48-0.74,2.42-0.74
			h21.31C167.45,179.18,173.36,183.55,173.36,188.89z"/>
		<path class="st40" d="M107.53,259.43"/>
		<path class="st65" d="M96.08,378.32h-1.5c-5.61,0-16.26-11.7-16.5-17.33l-3.02-64.05c-0.27-6.44,5.24-11.52,11.61-10.83
			c2.35,0.25,4.85,0.42,7.49,0.46c3.53,0.05,6.83-0.13,9.86-0.46c6.37-0.69,11.84,4.48,11.57,10.91
			c-1.01,23.74-2.01,40.23-3.02,63.97C112.35,366.62,101.69,378.32,96.08,378.32z"/>
		<path class="st66" d="M96.08,313.75h-1.5c-2.58,0.05-6.17-0.16-10.26-1.31c-3.6-1-6.46-2.41-8.52-3.63
			c-0.12-1.08-0.24-2.18-0.33-3.3c-0.24-2.78-0.37-5.46-0.4-8.01c0.72-0.48,1.79-1.33,3.31-1.61c3.72-0.69,6.85-0.76,8.29-0.55
			c2.61,0.39,4.15,1.04,7.59,1.16c0.57,0.02,0.97,0.03,1.53,0c2.47-0.15,3.41-0.91,5.63-1.16c0.59-0.07,0.59-0.02,2.61,0
			c9.86,0.12,10.8,1.16,11.15,1.65c0.61,0.87,0.45,3.33,0.06,8.29c-0.13,1.73-0.2,2.59-0.3,2.95
			C113.5,313.19,100.12,313.68,96.08,313.75z"/>
		<path class="st66" d="M95.92,335.19H94.5c-2.44,0.05-5.85-0.15-9.74-1.24c-3.41-0.95-6.13-2.29-8.08-3.44
			c-0.12-1.02-0.22-2.06-0.31-3.13c-0.23-2.64-0.35-5.18-0.38-7.6c0.69-0.45,1.7-1.26,3.14-1.53c3.53-0.66,6.5-0.72,7.87-0.52
			c2.47,0.37,3.94,0.98,7.2,1.1c0.55,0.02,0.92,0.03,1.45,0c2.35-0.14,3.24-0.87,5.34-1.1c0.56-0.06,0.56-0.02,2.48,0
			c9.36,0.11,10.25,1.1,10.58,1.57c0.58,0.82,0.43,3.16,0.06,7.86c-0.13,1.64-0.19,2.46-0.29,2.79
			C112.45,334.66,99.75,335.12,95.92,335.19z"/>
		<path class="st66" d="M95.7,360.04h-1.34c-2.29,0.04-5.49-0.15-9.13-1.16c-3.2-0.89-5.75-2.15-7.58-3.23
			c-0.11-0.96-0.21-1.94-0.29-2.93c-0.21-2.48-0.33-4.86-0.36-7.12c0.64-0.42,1.59-1.18,2.95-1.44c3.31-0.61,6.1-0.68,7.38-0.49
			c2.32,0.35,3.69,0.92,6.76,1.03c0.51,0.02,0.86,0.03,1.36,0c2.2-0.13,3.04-0.81,5.01-1.04c0.52-0.06,0.53-0.02,2.32,0
			c8.77,0.1,9.61,1.03,9.92,1.47c0.54,0.77,0.4,2.96,0.06,7.37c-0.12,1.54-0.18,2.3-0.27,2.62
			C111.2,359.54,99.29,359.97,95.7,360.04z"/>
		<path class="st67" d="M94.88,372.39H94.7c-0.24,0-0.43-0.19-0.43-0.43v-81.53c0-0.24,0.19-0.43,0.43-0.43h0.18
			c0.24,0,0.43,0.19,0.43,0.43v81.53C95.31,372.2,95.12,372.39,94.88,372.39z"/>
		
			<ellipse transform="matrix(0.5 -0.866 0.866 0.5 -293.8628 271.5351)" class="st68" cx="88.22" cy="390.26" rx="14.29" ry="5.96"/>
		
			<ellipse transform="matrix(0.8153 -0.579 0.579 0.8153 -206.7743 131.5009)" class="st68" cx="102.77" cy="389.91" rx="5.96" ry="14.29"/>
		<g>
			<path class="st37" d="M130.38,356.17c-1.46-8.81-2.55-19.88-2.12-32.61c0.28-8.05,1.11-15.3,2.17-21.57
				c0.1-1.27,0.59-5.55,3.64-9.08c0.67-0.77,2.73-2.99,6.01-3.88c0.92-0.25,1.88-0.38,2.87-0.38h17.33c6.91,0,12.57,6.53,12.57,14.5
				c0.49,7.52,0.8,15.44,0.86,23.75c0.07,10.34-0.26,20.11-0.86,29.26c0.04,0.89,0.07,5.91-3.69,10.24
				c-2.28,2.63-5.42,4.26-8.88,4.26h-17.33C136.03,370.68,130.38,364.15,130.38,356.17z"/>
			
				<ellipse transform="matrix(0.9358 -0.3525 0.3525 0.9358 -93.8743 73.9352)" class="st39" cx="156.1" cy="294.76" rx="10.99" ry="5.59"/>
			<ellipse class="st38" cx="166.69" cy="327.75" rx="7.09" ry="10.03"/>
			
				<ellipse transform="matrix(0.9995 -0.0318 0.0318 0.9995 -10.8648 5.2528)" class="st39" cx="159.84" cy="344.47" rx="12.9" ry="5.51"/>
			
				<ellipse transform="matrix(0.687 -0.7266 0.7266 0.687 -184.0581 197.0562)" class="st39" cx="136.73" cy="312.2" rx="10.49" ry="5.86"/>
			
				<ellipse transform="matrix(0.9841 -0.1779 0.1779 0.9841 -61.4734 34.4177)" class="st39" cx="161.21" cy="360.04" rx="12.75" ry="5.57"/>
			
				<ellipse transform="matrix(0.8153 -0.579 0.579 0.8153 -165.8502 145.0878)" class="st39" cx="144.53" cy="332.55" rx="5.94" ry="10.34"/>
			
				<ellipse transform="matrix(0.7233 -0.6905 0.6905 0.7233 -177.8091 191.7175)" class="st39" cx="150.32" cy="317.73" rx="6.48" ry="10.97"/>
			
				<ellipse transform="matrix(0.8153 -0.579 0.579 0.8153 -180.0767 147.6162)" class="st39" cx="141.38" cy="356.11" rx="5.94" ry="10.34"/>
			<path class="st65" d="M151.62,378.32h-1.5c-5.61,0-16.26-11.7-16.5-17.33l-3.02-64.05c-0.27-6.44,5.24-11.52,11.61-10.83
				c2.35,0.25,4.85,0.42,7.49,0.46c3.53,0.05,6.83-0.13,9.86-0.46c6.37-0.69,11.84,4.48,11.57,10.91
				c-1.01,23.74-2.01,40.23-3.02,63.97C167.88,366.62,157.23,378.32,151.62,378.32z"/>
			<path class="st66" d="M151.62,313.75h-1.5c-2.58,0.05-6.17-0.16-10.26-1.31c-3.6-1-6.46-2.41-8.52-3.63
				c-0.12-1.08-0.24-2.18-0.33-3.3c-0.24-2.78-0.37-5.46-0.4-8.01c0.72-0.48,1.79-1.33,3.31-1.61c3.72-0.69,6.85-0.76,8.29-0.55
				c2.61,0.39,4.15,1.04,7.59,1.16c0.57,0.02,0.97,0.03,1.53,0c2.47-0.15,3.41-0.91,5.63-1.16c0.59-0.07,0.59-0.02,2.61,0
				c9.86,0.12,10.8,1.16,11.15,1.65c0.61,0.87,0.45,3.33,0.06,8.29c-0.13,1.73-0.2,2.59-0.3,2.95
				C169.04,313.2,155.65,313.68,151.62,313.75z"/>
			<path class="st66" d="M151.46,335.19h-1.43c-2.44,0.05-5.85-0.15-9.74-1.24c-3.41-0.95-6.13-2.29-8.08-3.44
				c-0.12-1.02-0.22-2.06-0.31-3.13c-0.23-2.64-0.35-5.18-0.38-7.6c0.69-0.45,1.7-1.26,3.14-1.53c3.53-0.66,6.5-0.72,7.87-0.52
				c2.47,0.37,3.94,0.98,7.2,1.1c0.55,0.02,0.92,0.03,1.45,0c2.35-0.14,3.24-0.87,5.34-1.1c0.56-0.06,0.56-0.02,2.48,0
				c9.36,0.11,10.25,1.1,10.58,1.57c0.58,0.82,0.43,3.16,0.06,7.86c-0.13,1.64-0.19,2.46-0.29,2.79
				C167.99,334.66,155.29,335.12,151.46,335.19z"/>
			<path class="st66" d="M151.23,360.04h-1.34c-2.29,0.04-5.49-0.15-9.13-1.16c-3.2-0.89-5.75-2.15-7.58-3.23
				c-0.11-0.96-0.21-1.94-0.29-2.93c-0.21-2.48-0.33-4.86-0.36-7.12c0.64-0.42,1.59-1.19,2.95-1.44c3.31-0.61,6.1-0.68,7.38-0.49
				c2.32,0.35,3.69,0.92,6.76,1.03c0.51,0.02,0.86,0.03,1.36,0c2.2-0.13,3.04-0.81,5.01-1.04c0.52-0.06,0.53-0.02,2.32,0
				c8.77,0.1,9.61,1.03,9.92,1.47c0.54,0.77,0.4,2.96,0.06,7.37c-0.12,1.54-0.18,2.31-0.27,2.62
				C166.74,359.54,154.82,359.97,151.23,360.04z"/>
			<path class="st67" d="M150.41,372.4h-0.18c-0.24,0-0.43-0.19-0.43-0.43v-81.53c0-0.24,0.19-0.43,0.43-0.43h0.18
				c0.24,0,0.43,0.19,0.43,0.43v81.53C150.85,372.2,150.65,372.4,150.41,372.4z"/>
			
				<ellipse transform="matrix(0.5 -0.866 0.866 0.5 -266.0954 319.6315)" class="st68" cx="143.76" cy="390.26" rx="14.29" ry="5.96"/>
			
				<ellipse transform="matrix(0.8153 -0.579 0.579 0.8153 -196.5194 163.6557)" class="st68" cx="158.3" cy="389.91" rx="5.96" ry="14.29"/>
		</g>
		<g>
			<path class="st37" d="M187.94,356.17c-1.46-8.81-2.55-19.88-2.12-32.61c0.28-8.05,1.11-15.3,2.17-21.57
				c0.1-1.27,0.59-5.55,3.64-9.08c0.67-0.77,2.73-2.99,6.01-3.88c0.92-0.25,1.88-0.38,2.87-0.38h17.33c6.91,0,12.57,6.53,12.57,14.5
				c0.49,7.52,0.8,15.44,0.86,23.75c0.07,10.34-0.26,20.11-0.86,29.26c0.04,0.89,0.07,5.91-3.69,10.24
				c-2.28,2.63-5.42,4.26-8.88,4.26h-17.33C193.6,370.68,187.94,364.15,187.94,356.17z"/>
			
				<ellipse transform="matrix(0.9358 -0.3525 0.3525 0.9358 -90.1804 94.2234)" class="st39" cx="213.66" cy="294.76" rx="10.99" ry="5.59"/>
			<ellipse class="st38" cx="224.25" cy="327.75" rx="7.09" ry="10.03"/>
			
				<ellipse transform="matrix(0.9995 -0.0318 0.0318 0.9995 -10.8357 7.0818)" class="st39" cx="217.4" cy="344.47" rx="12.9" ry="5.51"/>
			
				<ellipse transform="matrix(0.687 -0.7266 0.7266 0.687 -166.0436 238.8817)" class="st39" cx="194.29" cy="312.2" rx="10.49" ry="5.86"/>
			
				<ellipse transform="matrix(0.9841 -0.1779 0.1779 0.9841 -60.5555 44.6569)" class="st39" cx="218.77" cy="360.04" rx="12.75" ry="5.57"/>
			
				<ellipse transform="matrix(0.8153 -0.579 0.579 0.8153 -155.2208 178.4151)" class="st39" cx="202.09" cy="332.55" rx="5.94" ry="10.34"/>
			
				<ellipse transform="matrix(0.7233 -0.6905 0.6905 0.7233 -161.8812 231.4665)" class="st39" cx="207.88" cy="317.73" rx="6.48" ry="10.97"/>
			
				<ellipse transform="matrix(0.8153 -0.579 0.579 0.8153 -169.4472 180.9436)" class="st39" cx="198.94" cy="356.11" rx="5.94" ry="10.34"/>
			<path class="st65" d="M209.18,378.32h-1.5c-5.61,0-16.26-11.7-16.5-17.33l-3.02-64.05c-0.27-6.44,5.24-11.52,11.61-10.83
				c2.35,0.25,4.85,0.42,7.49,0.46c3.53,0.05,6.83-0.13,9.86-0.46c6.37-0.69,11.84,4.48,11.57,10.91
				c-1.01,23.74-2.01,40.23-3.02,63.97C225.44,366.62,214.79,378.32,209.18,378.32z"/>
			<path class="st66" d="M209.18,313.75h-1.5c-2.58,0.05-6.17-0.16-10.26-1.31c-3.6-1-6.46-2.41-8.52-3.63
				c-0.12-1.08-0.24-2.18-0.33-3.3c-0.24-2.78-0.37-5.46-0.4-8.01c0.72-0.48,1.79-1.33,3.31-1.61c3.72-0.69,6.85-0.76,8.29-0.55
				c2.61,0.39,4.15,1.04,7.59,1.16c0.57,0.02,0.97,0.03,1.53,0c2.47-0.15,3.41-0.91,5.63-1.16c0.59-0.07,0.59-0.02,2.61,0
				c9.86,0.12,10.8,1.16,11.15,1.65c0.61,0.87,0.45,3.33,0.06,8.29c-0.13,1.73-0.2,2.59-0.3,2.95
				C226.6,313.2,213.22,313.68,209.18,313.75z"/>
			<path class="st66" d="M209.02,335.19h-1.43c-2.44,0.05-5.85-0.15-9.74-1.24c-3.41-0.95-6.13-2.29-8.08-3.44
				c-0.12-1.02-0.22-2.06-0.31-3.13c-0.23-2.64-0.35-5.18-0.38-7.6c0.69-0.45,1.7-1.26,3.14-1.53c3.53-0.66,6.5-0.72,7.87-0.52
				c2.47,0.37,3.94,0.98,7.2,1.1c0.55,0.02,0.92,0.03,1.45,0c2.35-0.14,3.24-0.87,5.34-1.1c0.56-0.06,0.56-0.02,2.48,0
				c9.36,0.11,10.25,1.1,10.58,1.57c0.58,0.82,0.43,3.16,0.06,7.86c-0.13,1.64-0.19,2.46-0.29,2.79
				C225.55,334.66,212.85,335.12,209.02,335.19z"/>
			<path class="st66" d="M208.8,360.04h-1.34c-2.29,0.04-5.49-0.15-9.13-1.16c-3.2-0.89-5.75-2.15-7.58-3.23
				c-0.11-0.96-0.21-1.94-0.29-2.93c-0.21-2.48-0.33-4.86-0.36-7.12c0.64-0.42,1.59-1.19,2.95-1.44c3.31-0.61,6.1-0.68,7.38-0.49
				c2.32,0.35,3.69,0.92,6.76,1.03c0.51,0.02,0.86,0.03,1.36,0c2.2-0.13,3.04-0.81,5.01-1.04c0.52-0.06,0.53-0.02,2.32,0
				c8.77,0.1,9.61,1.03,9.92,1.47c0.54,0.77,0.4,2.96,0.06,7.37c-0.12,1.54-0.18,2.31-0.27,2.62
				C224.3,359.54,212.39,359.97,208.8,360.04z"/>
			<path class="st67" d="M207.98,372.4h-0.18c-0.24,0-0.43-0.19-0.43-0.43v-81.53c0-0.24,0.19-0.43,0.43-0.43h0.18
				c0.24,0,0.43,0.19,0.43,0.43v81.53C208.41,372.2,208.21,372.4,207.98,372.4z"/>
			
				<ellipse transform="matrix(0.5 -0.866 0.866 0.5 -237.3145 369.4815)" class="st68" cx="201.32" cy="390.26" rx="14.29" ry="5.96"/>
			
				<ellipse transform="matrix(0.8153 -0.579 0.579 0.8153 -185.89 196.9831)" class="st68" cx="215.86" cy="389.91" rx="5.96" ry="14.29"/>
		</g>
		<g>
			<path class="st37" d="M247.36,356.17c-1.46-8.81-2.55-19.88-2.12-32.61c0.28-8.05,1.11-15.3,2.17-21.57
				c0.1-1.27,0.59-5.55,3.64-9.08c0.67-0.77,2.73-2.99,6.01-3.88c0.92-0.25,1.88-0.38,2.87-0.38h17.33c6.91,0,12.57,6.53,12.57,14.5
				c0.49,7.52,0.8,15.44,0.86,23.75c0.07,10.34-0.26,20.11-0.86,29.26c0.04,0.89,0.07,5.91-3.69,10.24
				c-2.28,2.63-5.42,4.26-8.88,4.26h-17.33C253.01,370.68,247.36,364.15,247.36,356.17z"/>
			
				<ellipse transform="matrix(0.9358 -0.3525 0.3525 0.9358 -86.3674 115.1657)" class="st39" cx="273.08" cy="294.76" rx="10.99" ry="5.59"/>
			<ellipse class="st38" cx="283.67" cy="327.75" rx="7.09" ry="10.03"/>
			
				<ellipse transform="matrix(0.9995 -0.0318 0.0318 0.9995 -10.8057 8.9698)" class="st39" cx="276.82" cy="344.47" rx="12.9" ry="5.51"/>
			
				<ellipse transform="matrix(0.687 -0.7266 0.7266 0.687 -147.4484 282.0556)" class="st39" cx="253.71" cy="312.2" rx="10.49" ry="5.86"/>
			
				<ellipse transform="matrix(0.9841 -0.1779 0.1779 0.9841 -59.6079 55.2261)" class="st39" cx="278.19" cy="360.04" rx="12.75" ry="5.57"/>
			
				<ellipse transform="matrix(0.8153 -0.579 0.579 0.8153 -144.2487 212.817)" class="st39" cx="261.51" cy="332.55" rx="5.94" ry="10.34"/>
			
				<ellipse transform="matrix(0.7233 -0.6905 0.6905 0.7233 -145.4398 272.497)" class="st39" cx="267.3" cy="317.73" rx="6.48" ry="10.97"/>
			
				<ellipse transform="matrix(0.8153 -0.579 0.579 0.8153 -158.4751 215.3454)" class="st39" cx="258.36" cy="356.11" rx="5.94" ry="10.34"/>
			<path class="st65" d="M268.6,378.32h-1.5c-5.61,0-16.26-11.7-16.5-17.33l-3.02-64.05c-0.27-6.44,5.24-11.52,11.61-10.83
				c2.35,0.25,4.85,0.42,7.49,0.46c3.53,0.05,6.83-0.13,9.86-0.46c6.37-0.69,11.84,4.48,11.57,10.91
				c-1.01,23.74-2.01,40.23-3.02,63.97C284.86,366.62,274.21,378.32,268.6,378.32z"/>
			<path class="st66" d="M268.6,313.75h-1.5c-2.58,0.05-6.17-0.16-10.26-1.31c-3.6-1-6.46-2.41-8.52-3.63
				c-0.12-1.08-0.24-2.18-0.33-3.3c-0.24-2.78-0.37-5.46-0.4-8.01c0.72-0.48,1.79-1.33,3.31-1.61c3.72-0.69,6.85-0.76,8.29-0.55
				c2.61,0.39,4.15,1.04,7.59,1.16c0.57,0.02,0.97,0.03,1.53,0c2.47-0.15,3.41-0.91,5.63-1.16c0.59-0.07,0.59-0.02,2.61,0
				c9.86,0.12,10.8,1.16,11.15,1.65c0.61,0.87,0.45,3.33,0.06,8.29c-0.13,1.73-0.2,2.59-0.3,2.95
				C286.02,313.2,272.63,313.68,268.6,313.75z"/>
			<path class="st66" d="M268.44,335.19h-1.43c-2.44,0.05-5.85-0.15-9.74-1.24c-3.41-0.95-6.13-2.29-8.08-3.44
				c-0.12-1.02-0.22-2.06-0.31-3.13c-0.23-2.64-0.35-5.18-0.38-7.6c0.69-0.45,1.7-1.26,3.14-1.53c3.53-0.66,6.5-0.72,7.87-0.52
				c2.47,0.37,3.94,0.98,7.2,1.1c0.55,0.02,0.92,0.03,1.45,0c2.35-0.14,3.24-0.87,5.34-1.1c0.56-0.06,0.56-0.02,2.48,0
				c9.36,0.11,10.25,1.1,10.58,1.57c0.58,0.82,0.43,3.16,0.06,7.86c-0.13,1.64-0.19,2.46-0.29,2.79
				C284.97,334.66,272.27,335.12,268.44,335.19z"/>
			<path class="st66" d="M268.21,360.04h-1.34c-2.29,0.04-5.49-0.15-9.13-1.16c-3.2-0.89-5.75-2.15-7.58-3.23
				c-0.11-0.96-0.21-1.94-0.29-2.93c-0.21-2.48-0.33-4.86-0.36-7.12c0.64-0.42,1.59-1.19,2.95-1.44c3.31-0.61,6.1-0.68,7.38-0.49
				c2.32,0.35,3.69,0.92,6.76,1.03c0.51,0.02,0.86,0.03,1.36,0c2.2-0.13,3.04-0.81,5.01-1.04c0.52-0.06,0.53-0.02,2.32,0
				c8.77,0.1,9.61,1.03,9.92,1.47c0.54,0.77,0.4,2.96,0.06,7.37c-0.12,1.54-0.18,2.31-0.27,2.62
				C283.71,359.54,271.8,359.97,268.21,360.04z"/>
			<path class="st67" d="M267.39,372.4h-0.18c-0.24,0-0.43-0.19-0.43-0.43v-81.53c0-0.24,0.19-0.43,0.43-0.43h0.18
				c0.24,0,0.43,0.19,0.43,0.43v81.53C267.83,372.2,267.63,372.4,267.39,372.4z"/>
			
				<ellipse transform="matrix(0.5 -0.866 0.866 0.5 -207.6057 420.9387)" class="st68" cx="260.74" cy="390.26" rx="14.29" ry="5.96"/>
			
				<ellipse transform="matrix(0.8153 -0.579 0.579 0.8153 -174.9179 231.385)" class="st68" cx="275.28" cy="389.91" rx="5.96" ry="14.29"/>
		</g>
		<path class="st69" d="M336.54,377.17l-8.97,4.21c-2.38,1.12-5.23,0.09-6.35-2.29l-3.42-7.28c-1.12-2.38-0.09-5.23,2.29-6.35
			l8.97-4.21c2.38-1.12,5.23-0.09,6.35,2.29l3.42,7.28C339.95,373.2,338.92,376.06,336.54,377.17z"/>
		<g>
			<circle class="st69" cx="317.01" cy="356.69" r="11.01"/>
			<path class="st69" d="M329.82,381.99H317.7c-5.47,0-9.94-4.47-9.94-9.94v-15.36c0-5.47,4.47-9.94,9.94-9.94h12.12
				c5.47,0,9.94,4.47,9.94,9.94v15.36C339.76,377.51,335.29,381.99,329.82,381.99z"/>
			<path class="st69" d="M334.24,382.68l-6.38,3c-3.09,1.45-6.8,0.11-8.25-2.97l-2.21-4.69c-1.45-3.09-0.11-6.8,2.97-8.25l6.38-3
				c3.09-1.45,6.8-0.11,8.25,2.97l2.21,4.69C338.67,377.52,337.33,381.23,334.24,382.68z"/>
			<path class="st69" d="M339.99,378.04l-3.07,1.44c-4,1.88-8.8,0.15-10.68-3.85l-0.65-1.38c-1.88-4-0.15-8.8,3.85-10.68l3.07-1.44
				c4-1.88,8.8-0.15,10.68,3.85l0.65,1.38C345.72,371.36,343.99,376.17,339.99,378.04z"/>
			<ellipse class="st70" cx="323.9" cy="359.64" rx="5.96" ry="7.34"/>
			<ellipse class="st70" cx="338.06" cy="373.19" rx="3.35" ry="2.65"/>
			<circle class="st70" cx="316.92" cy="364" r="6.97"/>
		</g>
		<g>
			<ellipse class="st71" cx="287.26" cy="231.39" rx="26.03" ry="28.84"/>
			<ellipse class="st72" cx="287.26" cy="231.39" rx="22.28" ry="24.69"/>
			<line class="st73" x1="295.09" y1="206.56" x2="287.55" y2="230.66"/>
			<line class="st73" x1="271.47" y1="210.89" x2="287.55" y2="230.66"/>
			<line class="st73" x1="264.98" y1="237.95" x2="286.73" y2="231.32"/>
			<line class="st73" x1="279.51" y1="254.54" x2="286.73" y2="231.98"/>
			<line class="st73" x1="303.75" y1="249.55" x2="286.97" y2="232.77"/>
			<line class="st73" x1="288.41" y1="231.39" x2="311.08" y2="231.39"/>
			<circle class="st71" cx="287.32" cy="231.39" r="4.2"/>
		</g>
		<g>
			<ellipse class="st74" cx="221.21" cy="231.39" rx="26.03" ry="28.84"/>
			<ellipse class="st72" cx="221.21" cy="231.39" rx="22.28" ry="24.69"/>
			<line class="st75" x1="229.04" y1="206.56" x2="221.49" y2="230.66"/>
			<line class="st75" x1="205.42" y1="210.89" x2="221.49" y2="230.66"/>
			<line class="st75" x1="198.93" y1="237.95" x2="220.68" y2="231.32"/>
			<line class="st75" x1="213.46" y1="254.54" x2="220.68" y2="231.98"/>
			<line class="st75" x1="237.7" y1="249.55" x2="220.91" y2="232.77"/>
			<line class="st75" x1="222.35" y1="231.39" x2="245.02" y2="231.39"/>
			<circle class="st74" cx="221.26" cy="231.39" r="4.2"/>
		</g>
		<g>
			<ellipse class="st76" cx="149.53" cy="231.39" rx="26.03" ry="28.84"/>
			<ellipse class="st72" cx="149.53" cy="231.39" rx="22.28" ry="24.69"/>
			<line class="st77" x1="157.36" y1="206.56" x2="149.81" y2="230.66"/>
			<line class="st77" x1="133.74" y1="210.89" x2="149.81" y2="230.66"/>
			<line class="st77" x1="127.25" y1="237.95" x2="149" y2="231.32"/>
			<line class="st77" x1="141.77" y1="254.54" x2="149" y2="231.98"/>
			<line class="st77" x1="166.01" y1="249.55" x2="149.23" y2="232.77"/>
			<line class="st77" x1="150.67" y1="231.39" x2="173.34" y2="231.39"/>
			<circle class="st76" cx="149.58" cy="231.39" r="4.2"/>
		</g>
		<g>
			<ellipse class="st71" cx="88.22" cy="231.39" rx="26.03" ry="28.84"/>
			<ellipse class="st72" cx="88.22" cy="231.39" rx="22.28" ry="24.69"/>
			<line class="st73" x1="96.05" y1="206.56" x2="88.51" y2="230.66"/>
			<line class="st73" x1="72.43" y1="210.89" x2="88.51" y2="230.66"/>
			<line class="st73" x1="65.94" y1="237.95" x2="87.69" y2="231.32"/>
			<line class="st73" x1="80.47" y1="254.54" x2="87.69" y2="231.98"/>
			<line class="st73" x1="104.71" y1="249.55" x2="87.93" y2="232.77"/>
			<line class="st73" x1="89.37" y1="231.39" x2="112.04" y2="231.39"/>
			<circle class="st71" cx="88.28" cy="231.39" r="4.2"/>
		</g>
	</g>
</g>
<g id="圖層_3" class="st0">
	<path class="st1" d="M249.31,476.17c-5.45,5.52-14.67,4.26-18.42-2.53c-9.64-17.46-25.21-40.06-49.7-60.81
		c-32.96-27.94-67.44-40.12-90.52-45.66c-7.71-1.85-11.34-10.68-7.17-17.42c20.92-33.8,45.47-69.83,74.22-106.94
		c22.79-29.41,45.52-56.01,67.55-79.95c5.04-5.48,13.86-4.84,18.08,1.29c12.64,18.36,31.76,41.48,59.47,62.97
		c30.31,23.5,60.11,36.69,82.34,44.21c6.9,2.34,9.93,10.41,6.33,16.75c-16.1,28.38-35.56,59.09-59.05,90.87
		C304.32,417.02,275.84,449.27,249.31,476.17z"/>
	<path class="st42" d="M195.09,502.52c-5.45,5.52-14.67,4.26-18.42-2.53c-9.64-17.46-25.21-40.06-49.7-60.81
		c-32.96-27.94-67.44-40.12-90.52-45.66c-7.71-1.85-11.34-10.68-7.17-17.42c20.92-33.8,45.47-69.83,74.22-106.94
		c22.79-29.41,45.52-56.01,67.55-79.95c5.04-5.48,13.86-4.84,18.08,1.29c12.64,18.36,31.76,41.48,59.47,62.97
		c30.31,23.5,60.11,36.69,82.34,44.21c6.9,2.34,9.93,10.41,6.33,16.75c-16.1,28.38-35.56,59.09-59.05,90.87
		C250.1,443.38,221.62,475.62,195.09,502.52z"/>
	<g class="st4">
		<g>
			<path class="st5" d="M54.2,132.93c1.52-9.2,1.7-18.71,0.53-28.08c-0.73-5.84-2.14-11.95-6.03-16.3
				c-3.53-3.94-8.57-5.82-13.38-7.57c-3.67-1.33-7.34-2.66-11.01-3.99c-1.64-0.59-3.57-1.15-4.94-0.12
				c-1.25,0.95-1.44,2.81-1.52,4.46c-0.6,11.95-0.81,25.23,6.62,34.63c4.45,5.63,10.95,8.89,17.22,11.96
				c4.14,2.03,8.28,4.06,12.43,6.1"/>
		</g>
		<g>
			<path class="st5" d="M92.39,130.04c7.99-4.82,15.33-10.85,21.7-17.83c3.97-4.34,7.7-9.39,8.48-15.17
				c0.7-5.24-1.13-10.3-2.93-15.09c-1.37-3.66-2.74-7.31-4.12-10.97c-0.61-1.63-1.45-3.47-3.12-3.83c-1.53-0.33-3.07,0.73-4.38,1.74
				c-9.48,7.3-19.71,15.77-22.04,27.52c-1.39,7.04,0.35,14.1,2.08,20.86c1.14,4.47,2.29,8.94,3.43,13.41"/>
		</g>
		<g>
			<path class="st6" d="M98.75,182.74c9.33-0.09,18.72-1.54,27.76-4.3c5.62-1.72,11.41-4.16,15.02-8.74
				c3.27-4.15,4.26-9.44,5.16-14.49c0.68-3.85,1.36-7.69,2.04-11.54c0.3-1.72,0.52-3.72-0.73-4.88c-1.15-1.07-3.02-0.93-4.66-0.73
				c-11.87,1.46-24.99,3.54-32.98,12.48c-4.78,5.35-6.87,12.31-8.83,19.02c-1.29,4.43-2.58,8.86-3.87,13.29"/>
		</g>
		<g>
			<path class="st5" d="M82.17,223.79c8.97,2.57,18.39,3.84,27.84,3.75c5.88-0.05,12.12-0.75,16.88-4.12
				c4.31-3.05,6.77-7.84,9.06-12.43c1.74-3.49,3.49-6.99,5.23-10.48c0.78-1.56,1.55-3.42,0.68-4.89c-0.8-1.35-2.63-1.75-4.26-2.02
				c-11.8-1.97-24.97-3.7-35.16,2.6c-6.1,3.77-10.09,9.86-13.86,15.73c-2.49,3.88-4.99,7.76-7.48,11.64"/>
		</g>
		<g>
			<path class="st7" d="M97.87,188.36c0.3-9.32-0.77-18.77-3.15-27.91c-1.49-5.69-3.68-11.57-8.12-15.37
				c-4.02-3.44-9.25-4.65-14.26-5.75c-3.81-0.84-7.63-1.67-11.44-2.51c-1.7-0.37-3.69-0.67-4.91,0.53c-1.11,1.1-1.06,2.98-0.92,4.62
				c0.97,11.92,2.51,25.12,11.11,33.46c5.15,5,12.02,7.38,18.64,9.6c4.37,1.47,8.75,2.94,13.12,4.42"/>
		</g>
		<g>
			<path class="st5" d="M62.08,177.28c-3.37-8.7-8.04-16.98-13.81-24.46c-3.59-4.66-7.91-9.21-13.47-10.97
				c-5.04-1.6-10.34-0.66-15.37,0.28c-3.84,0.72-7.68,1.44-11.51,2.16c-1.71,0.32-3.66,0.82-4.31,2.41
				c-0.59,1.45,0.19,3.15,0.96,4.61c5.55,10.6,12.12,22.14,23.3,26.46c6.69,2.59,13.95,2.09,20.91,1.55c4.6-0.35,9.2-0.71,13.8-1.06
				"/>
		</g>
		<g>
			<path class="st7" d="M71.13,226.14c-5.08-7.82-11.35-14.97-18.53-21.11c-4.47-3.82-9.63-7.39-15.44-7.98
				c-5.26-0.53-10.25,1.47-14.99,3.43c-3.61,1.49-7.22,2.98-10.83,4.47c-1.61,0.67-3.42,1.56-3.73,3.24
				c-0.28,1.54,0.83,3.05,1.88,4.32c7.61,9.24,16.4,19.18,28.23,21.12c7.08,1.16,14.08-0.81,20.78-2.76
				c4.43-1.29,8.86-2.58,13.29-3.87"/>
		</g>
		<path class="st8" d="M46.66,417.71c9.38-41.47,17.55-94.52,17.85-156.31c0.27-56.36-6.08-105.31-13.85-144.5"/>
		<path class="st8" d="M56.2,417.73c15.33-35.51,33.34-88.15,39.85-154.05c5.83-59.05,0.47-109.05-6.17-144.9"/>
		<g>
			<path class="st5" d="M62.35,246.51c9.26,1.11,18.76,0.87,28.08-0.71c5.8-0.98,11.85-2.66,16.02-6.74
				c3.78-3.7,5.44-8.81,6.97-13.71c1.17-3.73,2.33-7.45,3.5-11.18c0.52-1.66,0.99-3.62-0.1-4.94c-1-1.21-2.87-1.31-4.52-1.32
				c-11.96-0.08-25.24,0.3-34.3,8.14c-5.43,4.69-8.4,11.33-11.19,17.73c-1.85,4.23-3.7,8.46-5.54,12.68"/>
		</g>
		<g>
			<path class="st5" d="M62.33,195.41c9.3-0.72,18.57-2.8,27.4-6.17c5.49-2.1,11.1-4.92,14.39-9.74c2.98-4.37,3.62-9.71,4.17-14.8
				c0.42-3.88,0.84-7.76,1.25-11.65c0.19-1.73,0.27-3.75-1.06-4.82c-1.22-0.99-3.07-0.73-4.69-0.42
				c-11.75,2.26-24.7,5.22-32.06,14.68c-4.41,5.66-6.03,12.75-7.52,19.57c-0.99,4.51-1.98,9.01-2.96,13.52"/>
		</g>
	</g>
	<path class="st78" d="M141.41,311.46c9.59,5.43,20.24,12.23,31.31,20.73c9.8,7.53,18.21,15.06,25.33,22.1"/>
	<path class="st78" d="M198.74,291.44c-7.71,12.64-16.18,25.74-25.47,39.15c-10.92,15.76-21.84,30.32-32.53,43.71"/>
	<line class="st78" x1="160.7" y1="283.91" x2="165.59" y2="306.89"/>
	<line class="st78" x1="194.97" y1="328.5" x2="220.2" y2="328.5"/>
	<line class="st78" x1="146.76" y1="332.87" x2="119.39" y2="332.87"/>
	<line class="st78" x1="176.91" y1="356.98" x2="180.68" y2="380.71"/>
</g>
</svg>
