<svg width="212" height="271" viewBox="0 0 212 271" fill="none" xmlns="http://www.w3.org/2000/svg">
<path d="M49.5527 212.878C49.5527 185.264 71.9385 162.878 99.5527 162.878H111.585C139.199 162.878 161.585 185.264 161.585 212.878V250.602C161.585 261.647 152.631 270.602 141.585 270.602H69.5527C58.507 270.602 49.5527 261.647 49.5527 250.602V212.878Z" fill="#B9CDCD"/>
<g clip-path="url(#clip0_1868_6314)">
<path d="M154.52 19.7463C154.869 20.6432 154.13 21.0767 153.292 21.0106C153.008 20.9871 152.724 20.9221 152.448 20.8737C152.312 20.8434 152.186 20.8297 152.05 20.7993C151.818 20.7514 151.94 20.7775 151.927 20.7732C151.695 20.7253 151.459 20.6898 151.227 20.6419C148.557 20.1594 145.854 19.9135 143.151 20.025C133.093 20.4408 124.482 25.8911 118.238 32.9764C111.993 40.0618 107.383 49.1077 103.947 58.0817C103.582 59.0217 102.001 58.508 102.366 57.5679C107.452 44.2913 114.978 30.1026 128.151 22.7256C134.551 19.1412 142.08 17.7247 149.556 18.7931C150.155 18.8778 150.737 18.9706 151.328 19.0801C151.56 19.128 151.796 19.1635 152.028 19.2114C152.055 19.22 152.689 19.3299 152.357 19.2769C152.436 19.3026 152.536 19.3077 152.619 19.3209C152.895 19.3693 153.209 19.3889 153.481 19.4496C153.726 19.5018 153.507 19.4582 153.507 19.4582C153.159 19.6752 152.834 19.9132 153.043 20.4347C152.667 19.4876 154.122 18.7783 154.507 19.742L154.52 19.7463Z" fill="#3C4040"/>
<path d="M135.311 65.9694L138.821 51.4855L142.055 52.2698C144.648 52.8973 147.253 51.3025 147.882 48.7142L148.497 46.152C149.126 43.5638 147.528 40.9624 144.936 40.3349L95.6752 28.4393C93.0825 27.8118 90.4768 29.4066 89.8483 31.9949L89.2328 34.557C88.6043 37.1453 90.2018 39.7467 92.7945 40.3742L96.0287 41.1585L92.0219 57.6817C65.3751 61.3419 42.5126 80.4926 35.9 107.787C27.2316 143.566 49.7406 179.71 86.1819 188.508C122.623 197.305 159.182 175.436 167.864 139.657C175.013 110.14 160.924 80.4272 135.325 65.9694H135.311Z" fill="url(#paint0_angular_1868_6314)"/>
<path d="M84.2582 110.122C86.3578 109.787 87.6602 107.014 87.1671 103.927C86.674 100.84 84.5722 98.6082 82.4726 98.9424C80.373 99.2767 79.0706 102.05 79.5637 105.137C80.0568 108.224 82.1586 110.456 84.2582 110.122Z" stroke="#76B159" stroke-miterlimit="10"/>
<path d="M124.276 106.659C126.376 106.324 127.678 103.551 127.185 100.464C126.692 97.3767 124.59 95.1451 122.491 95.4793C120.391 95.8135 119.089 98.587 119.582 101.674C120.075 104.761 122.177 106.993 124.276 106.659Z" stroke="#76B159" stroke-miterlimit="10"/>
<path d="M152.58 18.9532C153.164 22.8633 157.636 25.4345 162.542 24.6951C165.597 24.2354 168.104 22.5984 169.431 20.4911L162.725 17.5049L169.409 13.8784C167.744 11.385 164.225 9.95319 160.404 10.5289C155.486 11.2728 151.98 15.0353 152.576 18.9409L152.58 18.9532Z" fill="#76B159"/>
<path d="M76.3409 119.514C84.2894 118.248 89.4636 109.276 87.8978 99.4725C86.332 89.6695 78.6191 82.7483 70.6706 84.0136C62.7221 85.2789 57.5479 94.2516 59.1137 104.055C60.6795 113.858 68.3924 120.779 76.3409 119.514Z" fill="white"/>
<path d="M76.6847 104.012C78.7843 103.678 80.0867 100.904 79.5936 97.8172C79.1005 94.7302 76.9987 92.4986 74.8991 92.8328C72.7995 93.167 71.4971 95.9405 71.9902 99.0276C72.4833 102.115 74.5851 104.346 76.6847 104.012Z" fill="#231815"/>
<path d="M116.359 116.051C124.307 114.785 129.481 105.813 127.916 96.0096C126.35 86.2066 118.637 79.2854 110.688 80.5507C102.74 81.8161 97.5657 90.7887 99.1315 100.592C100.697 110.395 108.41 117.316 116.359 116.051Z" fill="white"/>
<path d="M116.702 100.549C118.802 100.215 120.104 97.4412 119.611 94.3541C119.118 91.267 117.016 89.0354 114.917 89.3697C112.817 89.7039 111.515 92.4774 112.008 95.5645C112.501 98.6515 114.603 100.883 116.702 100.549Z" fill="#231815"/>
<path d="M143.259 23.344C141.449 25.3759 142.056 28.8568 144.602 31.1232C146.196 32.533 148.153 33.1377 149.844 32.9046L148.475 28.0632L153.325 29.9888C153.914 28.015 153.123 25.53 151.14 23.7639C148.594 21.4975 145.051 21.3107 143.241 23.3425L143.259 23.344Z" fill="#76B159"/>
<ellipse cx="102.122" cy="153.399" rx="28.439" ry="19.8211" fill="#DC8560"/>
</g>
<path d="M212 95.2278L148.228 0L99.5366 10.7724L54.2927 6.0326L0 95.2277L29.3008 118.496L99.5366 55.5919L174.943 118.496L212 95.2278Z" fill="#76B159"/>
<rect x="49.5527" y="209.319" width="33.6098" height="86.057" rx="16.8049" transform="rotate(-47.7938 49.5527 209.319)" fill="#7FB1B1"/>
<defs>
<radialGradient id="paint0_angular_1868_6314" cx="0" cy="0" r="1" gradientUnits="userSpaceOnUse" gradientTransform="translate(101.881 109.378) rotate(90) scale(81.0752 67.8374)">
<stop stop-color="#F0EFE6"/>
<stop offset="0.226667" stop-color="#E0F17B"/>
<stop offset="0.496667" stop-color="#F0EFE6"/>
<stop offset="0.846667" stop-color="#E3F18B"/>
<stop offset="0.931667" stop-color="#F0EFE6"/>
</radialGradient>
<clipPath id="clip0_1868_6314">
<rect width="143.919" height="185.285" fill="white" transform="translate(34.0405 5.1709)"/>
</clipPath>
</defs>
</svg>
