<svg width="384" height="136" viewBox="0 0 384 136" fill="none" xmlns="http://www.w3.org/2000/svg">
<rect width="384" height="136" rx="50" fill="#79B95A"/>
<path d="M44.74 28.384H50.036V30.112H46.628V38.608H44.74V28.384ZM57.46 28.416L59.348 28.96C58.468 30.736 57.044 32.464 55.7 33.52C55.348 33.168 54.58 32.56 54.132 32.272C55.476 31.376 56.756 29.904 57.46 28.416ZM57.332 30.096H68.356V31.792H56.868L57.332 30.096ZM54.468 33.824H68.932V35.536H54.468V33.824ZM54.74 37.584H68.708V39.296H54.74V37.584ZM59.476 30.704H61.092V38.48H59.476V30.704ZM56.644 30.704H58.34V38.496H56.644V30.704ZM62.26 30.704H63.86V38.496H62.26V30.704ZM65.076 30.704H66.836V38.496H65.076V30.704ZM58.996 40.192L60.772 39.984C60.98 40.96 61.172 42.224 61.188 43.008L59.3 43.28C59.3 42.496 59.188 41.184 58.996 40.192ZM62.18 40.224L63.988 39.92C64.388 40.864 64.788 42.128 64.932 42.912L63.012 43.296C62.9 42.512 62.548 41.216 62.18 40.224ZM65.364 40.144L67.204 39.568C67.924 40.544 68.836 41.904 69.236 42.8L67.284 43.456C66.932 42.576 66.084 41.168 65.364 40.144ZM56.116 39.632L57.988 40.08C57.62 41.312 56.932 42.624 56.164 43.456L54.308 42.72C55.044 42.048 55.748 40.8 56.116 39.632ZM83.508 30.144C82.644 31.52 81.076 33.184 79.396 34.208C79.204 33.744 78.788 33.056 78.468 32.64C80.148 31.696 81.796 29.872 82.58 28.432H84.308C85.396 30.048 87.028 31.648 88.628 32.432C88.276 32.88 87.876 33.568 87.604 34.096C86.084 33.168 84.42 31.504 83.508 30.144ZM79.524 35.232H87.268V36.768H81.124V43.344H79.524V35.232ZM86.052 35.232H87.7V41.776C87.7 42.448 87.604 42.848 87.204 43.104C86.804 43.36 86.324 43.376 85.668 43.376C85.62 42.96 85.412 42.32 85.22 41.92C85.508 41.936 85.78 41.936 85.892 41.936C86.02 41.936 86.052 41.888 86.052 41.744V35.232ZM81.892 35.648H83.14V43.248H81.892V35.648ZM83.94 35.648H85.204V43.248H83.94V35.648ZM80.756 32.704H86.34V34.272H80.756V32.704ZM80.276 38.512H87.108V40.032H80.276V38.512ZM74.084 33.328H78.548V34.768H74.084V33.328ZM74.18 28.912H78.5V30.368H74.18V28.912ZM74.084 35.504H78.548V36.96H74.084V35.504ZM73.364 31.072H79.076V32.592H73.364V31.072ZM74.964 37.728H78.58V42.56H74.964V41.056H77.012V39.232H74.964V37.728ZM74.036 37.728H75.604V43.232H74.036V37.728ZM93.028 35.248H107.204V36.944H93.028V35.248ZM100.196 38.144H106.18V39.792H100.196V38.144ZM99.3 36.112H101.236V42.032H99.3V36.112ZM96.82 38.672C97.7 41.008 99.732 41.376 102.532 41.392C103.412 41.408 106.5 41.392 107.652 41.36C107.38 41.776 107.092 42.624 106.996 43.184H102.42C98.74 43.184 96.548 42.528 95.236 39.184L96.82 38.672ZM95.428 37.28L97.348 37.552C96.82 40.192 95.668 42.208 93.892 43.472C93.604 43.12 92.868 42.416 92.452 42.128C94.084 41.12 95.06 39.424 95.428 37.28ZM96.372 32.384V33.184H103.716V32.384H96.372ZM96.372 30.32V31.12H103.716V30.32H96.372ZM94.516 28.96H105.668V34.544H94.516V28.96ZM112.02 34.16H126.58V35.728H112.02V34.16ZM116.164 39.024H122.372V40.384H116.164V39.024ZM116.164 41.472H122.372V42.96H116.164V41.472ZM113.412 31.856H125.188V33.376H113.412V31.856ZM112.884 29.536H125.716V31.072H112.884V29.536ZM121.476 32.352C122.436 34.896 124.404 37.104 127.028 38.128C126.596 38.512 126.004 39.248 125.732 39.728C122.932 38.432 120.948 35.968 119.764 32.864L121.476 32.352ZM114.996 36.544H123.62V43.376H121.62V38.032H116.884V43.44H114.996V36.544ZM117.876 28.416L119.828 28.56C119.428 33.136 117.62 37.536 112.852 40.096C112.628 39.6 112.052 38.864 111.604 38.544C116.084 36.336 117.62 32.416 117.876 28.416ZM139.46 35.184C140.372 38.496 142.372 40.752 146.132 41.6C145.684 42.032 145.108 42.896 144.804 43.456C140.724 42.32 138.756 39.712 137.572 35.584L139.46 35.184ZM131.86 34.384H145.188V36.368H131.86V34.384ZM131.364 29.472H145.604V31.456H131.364V29.472ZM137.316 30H139.38V33.936C139.38 37.36 138.548 41.504 132.116 43.472C131.908 42.992 131.332 42.144 130.932 41.76C136.644 40.08 137.316 36.624 137.316 33.936V30ZM151.988 31.008H156.9V41.792H151.988V40.096H155.156V32.688H151.988V31.008ZM150.868 31.008H152.612V42.976H150.868V31.008ZM151.908 35.28H156.004V36.944H151.908V35.28ZM153.14 28.4L155.236 28.704C154.868 29.792 154.468 30.928 154.148 31.68L152.612 31.344C152.836 30.512 153.06 29.28 153.14 28.4ZM159.012 30.896H163.684V32.64H159.012V30.896ZM163.028 30.896H164.804C164.804 30.896 164.804 31.52 164.788 31.76C164.58 38.96 164.388 41.504 163.732 42.352C163.284 42.976 162.836 43.152 162.18 43.248C161.572 43.344 160.596 43.328 159.668 43.28C159.636 42.752 159.38 41.936 159.028 41.424C160.068 41.504 161.028 41.52 161.428 41.52C161.748 41.52 161.924 41.456 162.132 41.232C162.644 40.688 162.852 37.936 163.028 31.264V30.896ZM159.06 28.416L160.9 28.848C160.276 31.216 159.236 33.648 158.148 35.184C157.796 34.864 157.012 34.32 156.564 34.064C157.636 32.72 158.548 30.544 159.06 28.416ZM158.276 35.504L159.78 34.656C160.564 35.76 161.62 37.296 162.116 38.24L160.484 39.232C160.052 38.256 159.044 36.688 158.276 35.504ZM169.732 39.376H184.1V41.088H169.732V39.376ZM175.86 37.52H177.796V43.424H175.86V37.52ZM173.172 36.016V36.944H180.516V36.016H173.172ZM173.172 33.744V34.656H180.516V33.744H173.172ZM171.332 32.288H182.452V38.4H171.332V32.288ZM173.156 28.416H175.028V32.032H173.156V28.416ZM178.724 28.416H180.596V32.032H178.724V28.416ZM169.796 29.328H184.036V31.024H169.796V29.328ZM188.82 37.104H203.396V38.608H188.82V37.104ZM191.844 32.192H203.044V33.728H191.844V32.192ZM192.26 34.384H200.308V35.76H192.26V34.384ZM191.54 40H203.076V41.456H191.54V40ZM194.516 36.224L195.54 35.328C196.292 35.68 197.14 36.272 197.588 36.704L196.516 37.696C196.1 37.232 195.22 36.592 194.516 36.224ZM194.26 39.056L195.348 38.112C196.164 38.512 197.092 39.136 197.572 39.616L196.42 40.672C195.972 40.16 195.028 39.456 194.26 39.056ZM191.396 34.384H193.284C192.916 36.96 192.388 40.208 191.956 42.208L190.052 42.064C190.532 40.064 191.092 36.864 191.396 34.384ZM199.844 34.384H201.668C201.668 34.384 201.652 34.928 201.652 35.136C201.46 40.288 201.236 42.096 200.756 42.704C200.404 43.184 200.004 43.328 199.492 43.392C198.996 43.456 198.212 43.456 197.396 43.408C197.364 43.008 197.188 42.384 196.964 42C197.652 42.064 198.292 42.064 198.596 42.064C198.852 42.064 198.996 42.032 199.14 41.84C199.492 41.424 199.684 39.6 199.844 34.72V34.384ZM191.428 31.296L193.316 31.616C192.548 33.232 191.54 34.768 190.004 36.08C189.7 35.68 189.06 35.12 188.612 34.88C190.004 33.84 190.932 32.464 191.428 31.296ZM192.324 28.416H194.212V31.744H192.324V28.416ZM197.876 28.416H199.748V31.744H197.876V28.416ZM188.996 29.264H203.236V30.864H188.996V29.264ZM211.38 43.104C210.404 41.92 209.044 40.544 207.924 39.584L209.604 38.144C210.74 39.072 212.276 40.64 213.092 41.632L211.38 43.104ZM227.62 29.04H241.364V30.592H227.62V29.04ZM232.036 38.72C233.78 40.688 237.476 41.568 242.132 41.744C241.764 42.16 241.316 42.944 241.076 43.44C236.228 43.12 232.628 41.968 230.436 39.296L232.036 38.72ZM237.508 37.984H237.892L238.228 37.888L239.428 38.64C237.236 41.872 232.516 43.008 227.636 43.44C227.492 42.992 227.204 42.32 226.916 41.92C231.396 41.664 235.844 40.672 237.508 38.224V37.984ZM232.148 36.832L234.036 37.216C232.708 38.8 230.9 39.984 228.196 40.88C227.956 40.448 227.444 39.808 227.076 39.536C229.588 38.88 231.252 37.888 232.148 36.832ZM233.38 29.888L235.636 29.84C235.396 30.672 235.076 31.408 234.852 31.936L233.06 31.84C233.188 31.232 233.332 30.464 233.38 29.888ZM230.884 33.984V34.592H238.068V33.984H230.884ZM230.884 35.68V36.304H238.068V35.68H230.884ZM230.884 32.288V32.896H238.068V32.288H230.884ZM229.028 31.216H240.004V37.392H229.028V31.216ZM232.276 37.984H238.196V39.28H230.98L232.276 37.984ZM254.66 35.184C255.572 38.496 257.572 40.752 261.332 41.6C260.884 42.032 260.308 42.896 260.004 43.456C255.924 42.32 253.956 39.712 252.772 35.584L254.66 35.184ZM247.06 34.384H260.388V36.368H247.06V34.384ZM246.564 29.472H260.804V31.456H246.564V29.472ZM252.516 30H254.58V33.936C254.58 37.36 253.748 41.504 247.316 43.472C247.108 42.992 246.532 42.144 246.132 41.76C251.844 40.08 252.516 36.624 252.516 33.936V30ZM267.188 31.008H272.1V41.792H267.188V40.096H270.356V32.688H267.188V31.008ZM266.068 31.008H267.812V42.976H266.068V31.008ZM267.108 35.28H271.204V36.944H267.108V35.28ZM268.34 28.4L270.436 28.704C270.068 29.792 269.668 30.928 269.348 31.68L267.812 31.344C268.036 30.512 268.26 29.28 268.34 28.4ZM274.212 30.896H278.884V32.64H274.212V30.896ZM278.228 30.896H280.004C280.004 30.896 280.004 31.52 279.988 31.76C279.78 38.96 279.588 41.504 278.932 42.352C278.484 42.976 278.036 43.152 277.38 43.248C276.772 43.344 275.796 43.328 274.868 43.28C274.836 42.752 274.58 41.936 274.228 41.424C275.268 41.504 276.228 41.52 276.628 41.52C276.948 41.52 277.124 41.456 277.332 41.232C277.844 40.688 278.052 37.936 278.228 31.264V30.896ZM274.26 28.416L276.1 28.848C275.476 31.216 274.436 33.648 273.348 35.184C272.996 34.864 272.212 34.32 271.764 34.064C272.836 32.72 273.748 30.544 274.26 28.416ZM273.476 35.504L274.98 34.656C275.764 35.76 276.82 37.296 277.316 38.24L275.684 39.232C275.252 38.256 274.244 36.688 273.476 35.504ZM286.74 40.704H297.604V42.464H286.74V40.704ZM285.524 32.88H298.724V43.36H296.772V34.64H287.38V43.376H285.524V32.88ZM292.74 33.6H294.58V36.48C294.58 36.896 294.628 36.944 294.932 36.944C295.06 36.944 295.588 36.944 295.732 36.944C296.02 36.944 296.084 36.816 296.132 36.112C296.452 36.368 297.22 36.656 297.716 36.768C297.508 38.224 297.028 38.608 295.956 38.608C295.636 38.608 294.932 38.608 294.628 38.608C293.06 38.608 292.74 38.096 292.74 36.496V33.6ZM284.868 29.296H299.252V31.152H284.868V29.296ZM289.252 30.704H291.14V33.888H289.252V30.704ZM292.756 30.704H294.676V33.888H292.756V30.704ZM289.348 33.232H291.14V34.832C291.14 36.416 290.66 38.288 288.452 39.44C288.196 39.088 287.444 38.448 287.06 38.208C289.076 37.232 289.348 35.92 289.348 34.768V33.232ZM310.148 31.632H312.004V41.296H310.148V31.632ZM305.908 29.664L308.18 30.128C308.164 30.272 308.052 30.368 307.764 30.4V33.648C307.764 36.368 307.46 40.624 305.156 43.472C304.884 43.072 304.164 42.464 303.684 42.256C305.716 39.712 305.908 36.16 305.908 33.616V29.664ZM316.228 29.744C316.42 34.848 316.9 39.616 319.012 41.808C318.564 42.176 317.924 42.944 317.62 43.472C315.188 40.736 314.66 35.808 314.42 29.84L316.228 29.744ZM307.076 40.576C308.948 40.432 311.78 40.144 314.42 39.888L314.468 41.68C311.94 41.968 309.252 42.256 307.3 42.464L307.076 40.576ZM312.772 38.272L314.276 37.872C314.916 39.408 315.572 41.424 315.78 42.672L314.164 43.152C313.972 41.904 313.38 39.84 312.772 38.272ZM315.876 28.512L317.444 30.032C314.468 30.752 310.532 31.344 307.14 31.696C307.076 31.248 306.804 30.512 306.612 30.128C309.908 29.76 313.62 29.152 315.876 28.512ZM325.588 44.208L325.076 42.928C326.42 42.496 327.156 41.712 327.156 40.8L327.044 39.216L327.924 40.656C327.668 40.896 327.332 41.008 326.98 41.008C326.18 41.008 325.444 40.496 325.444 39.568C325.444 38.672 326.164 38.128 327.028 38.128C328.148 38.128 328.756 38.992 328.756 40.336C328.756 42.144 327.572 43.616 325.588 44.208ZM345.94 34.656V40.544H344.1V36.432H342.308V34.656H345.94ZM345.94 39.792C346.548 40.848 347.684 41.312 349.332 41.376C351.252 41.472 355.044 41.424 357.268 41.248C357.06 41.68 356.756 42.56 356.676 43.12C354.676 43.216 351.268 43.248 349.316 43.152C347.396 43.072 346.1 42.608 345.14 41.376C344.5 42 343.828 42.608 343.028 43.296L342.116 41.392C342.788 40.96 343.572 40.384 344.276 39.792H345.94ZM342.356 29.904L343.828 28.832C344.74 29.536 345.86 30.608 346.356 31.36L344.772 32.576C344.34 31.792 343.268 30.688 342.356 29.904ZM346.196 32.576H356.964V33.904H346.196V32.576ZM349.252 35.472V36.288H353.844V35.472H349.252ZM347.476 34.4H355.748V37.36H347.476V34.4ZM350.916 36.432L352.516 36.992C351.316 38.56 349.284 39.856 347.38 40.624C347.156 40.256 346.628 39.552 346.276 39.216C348.084 38.624 349.94 37.632 350.916 36.432ZM355.348 36.688L356.708 37.616C355.876 38.192 355.012 38.768 354.324 39.136L353.316 38.368C353.972 37.952 354.852 37.2 355.348 36.688ZM352.18 37.088C353.076 38.288 354.884 39.136 356.996 39.472C356.628 39.808 356.164 40.464 355.94 40.912C353.684 40.384 351.86 39.168 350.804 37.488L352.18 37.088ZM353.508 29.904V31.008H354.532V29.904H353.508ZM351.044 29.904V31.008H352.052V29.904H351.044ZM348.612 29.904V31.008H349.604V29.904H348.612ZM346.996 28.832H356.228V32.096H346.996V28.832ZM350.484 36.768H352.308V41.072H350.484V36.768ZM35.428 67.248H49.604V68.944H35.428V67.248ZM42.596 70.144H48.58V71.792H42.596V70.144ZM41.7 68.112H43.636V74.032H41.7V68.112ZM39.22 70.672C40.1 73.008 42.132 73.376 44.932 73.392C45.812 73.408 48.9 73.392 50.052 73.36C49.78 73.776 49.492 74.624 49.396 75.184H44.82C41.14 75.184 38.948 74.528 37.636 71.184L39.22 70.672ZM37.828 69.28L39.748 69.552C39.22 72.192 38.068 74.208 36.292 75.472C36.004 75.12 35.268 74.416 34.852 74.128C36.484 73.12 37.46 71.424 37.828 69.28ZM38.772 64.384V65.184H46.116V64.384H38.772ZM38.772 62.32V63.12H46.116V62.32H38.772ZM36.916 60.96H48.068V66.544H36.916V60.96ZM63.892 60.464H65.668C65.636 67.488 65.636 72.672 61.108 75.456C60.836 75.008 60.292 74.352 59.86 74.048C64.068 71.584 63.876 67.056 63.892 60.464ZM65.396 66.24C65.892 69.712 66.964 72.592 69.364 73.904C68.964 74.24 68.436 74.928 68.18 75.392C65.524 73.728 64.42 70.592 63.828 66.464L65.396 66.24ZM67.204 63.952L69.092 64.384C68.548 65.904 67.908 67.568 67.364 68.656L65.748 68.208C66.292 67.072 66.9 65.28 67.204 63.952ZM61.444 63.952L63.092 64.192C63.076 65.792 62.772 67.584 62.116 68.768L60.468 68.128C61.044 67.168 61.364 65.424 61.444 63.952ZM56.852 61.872H58.724V75.44H56.852V61.872ZM54.324 64.96H60.708V66.72H54.324V64.96ZM56.82 65.664L58.02 66.208C57.364 68.528 56.18 71.408 54.884 72.992C54.708 72.432 54.244 71.568 53.94 71.056C55.108 69.76 56.292 67.44 56.82 65.664ZM59.62 60.512L60.836 62.032C59.092 62.656 56.804 63.072 54.836 63.312C54.756 62.896 54.5 62.24 54.292 61.84C56.196 61.536 58.276 61.056 59.62 60.512ZM58.724 66.928C59.108 67.296 60.484 68.8 60.772 69.168L59.716 70.736C59.332 69.936 58.372 68.416 57.892 67.728L58.724 66.928ZM81.86 67.184C82.772 70.496 84.772 72.752 88.532 73.6C88.084 74.032 87.508 74.896 87.204 75.456C83.124 74.32 81.156 71.712 79.972 67.584L81.86 67.184ZM74.26 66.384H87.588V68.368H74.26V66.384ZM73.764 61.472H88.004V63.456H73.764V61.472ZM79.716 62H81.78V65.936C81.78 69.36 80.948 73.504 74.516 75.472C74.308 74.992 73.732 74.144 73.332 73.76C79.044 72.08 79.716 68.624 79.716 65.936V62ZM94.388 63.008H99.3V73.792H94.388V72.096H97.556V64.688H94.388V63.008ZM93.268 63.008H95.012V74.976H93.268V63.008ZM94.308 67.28H98.404V68.944H94.308V67.28ZM95.54 60.4L97.636 60.704C97.268 61.792 96.868 62.928 96.548 63.68L95.012 63.344C95.236 62.512 95.46 61.28 95.54 60.4ZM101.412 62.896H106.084V64.64H101.412V62.896ZM105.428 62.896H107.204C107.204 62.896 107.204 63.52 107.188 63.76C106.98 70.96 106.788 73.504 106.132 74.352C105.684 74.976 105.236 75.152 104.58 75.248C103.972 75.344 102.996 75.328 102.068 75.28C102.036 74.752 101.78 73.936 101.428 73.424C102.468 73.504 103.428 73.52 103.828 73.52C104.148 73.52 104.324 73.456 104.532 73.232C105.044 72.688 105.252 69.936 105.428 63.264V62.896ZM101.46 60.416L103.3 60.848C102.676 63.216 101.636 65.648 100.548 67.184C100.196 66.864 99.412 66.32 98.964 66.064C100.036 64.72 100.948 62.544 101.46 60.416ZM100.676 67.504L102.18 66.656C102.964 67.76 104.02 69.296 104.516 70.24L102.884 71.232C102.452 70.256 101.444 68.688 100.676 67.504ZM112.132 61.248H126.5V62.832H112.132V61.248ZM115.652 60.416H117.556V63.76H115.652V60.416ZM120.98 60.416H122.884V63.76H120.98V60.416ZM115.86 65.008H118.58V66.368H115.86V65.008ZM111.988 67.312H119.172V68.8H111.988V67.312ZM114.932 63.76H116.644V68.048H114.932V63.76ZM112.756 64.816H114.26V68H112.756V64.816ZM117.508 69.344L119.108 69.68C118.276 72.944 116.356 74.544 112.836 75.472C112.676 74.976 112.308 74.352 111.956 73.968C115.06 73.376 116.788 72.064 117.508 69.344ZM114.964 68.464H116.612V70.912C116.612 71.6 116.516 71.952 116.068 72.176C115.62 72.4 115.06 72.4 114.34 72.4C114.26 71.968 114.084 71.424 113.908 71.024C114.276 71.04 114.66 71.04 114.788 71.024C114.916 71.024 114.964 70.992 114.964 70.864V68.464ZM112.964 69.04L114.484 69.44C114.116 70.512 113.476 71.68 112.868 72.432C112.58 72.16 111.94 71.712 111.588 71.504C112.18 70.848 112.676 69.92 112.964 69.04ZM118.836 64.096H126.564V65.52H118.836V64.096ZM121.3 69.184V69.84H124.228V69.184H121.3ZM121.3 70.864V71.504H124.228V70.864H121.3ZM121.3 67.536V68.176H124.228V67.536H121.3ZM119.572 66.288H126.052V72.768H119.572V66.288ZM123.156 73.584L124.388 72.688C125.236 73.184 126.388 73.936 126.996 74.448L125.7 75.424C125.156 74.928 124.004 74.128 123.156 73.584ZM121.892 64.608L123.94 64.864C123.668 65.648 123.396 66.4 123.188 66.928L121.604 66.624C121.716 66.032 121.844 65.2 121.892 64.608ZM121.076 72.544L122.484 73.568C121.444 74.304 119.876 75.04 118.596 75.472C118.372 75.12 117.924 74.576 117.604 74.24C118.804 73.856 120.308 73.136 121.076 72.544ZM131.348 68.832H145.668V70.592H131.348V68.832ZM137.508 61.808H139.556V75.44H137.508V61.808ZM136.98 69.696L138.58 70.384C137.076 72.384 134.596 74.112 132.164 75.008C131.876 74.544 131.284 73.824 130.868 73.424C133.236 72.704 135.716 71.248 136.98 69.696ZM139.908 69.584C141.22 71.12 143.78 72.576 146.132 73.296C145.716 73.68 145.124 74.432 144.836 74.912C142.468 73.984 139.94 72.208 138.404 70.256L139.908 69.584ZM134.916 65.248V66.288H142.084V65.248H134.916ZM134.916 62.752V63.76H142.084V62.752H134.916ZM132.916 61.152H144.196V67.888H132.916V61.152ZM158.644 71.552H163.428V73.392H158.644V71.552ZM157.956 61.92H164.372V74.544H162.404V63.744H159.828V74.656H157.956V61.92ZM153.268 62H155.188V75.424H153.268V62ZM150.388 65.184H157.524V66.96H150.388V65.184ZM153.14 65.856L154.42 66.288C153.732 68.88 152.484 71.904 151.012 73.536C150.82 72.976 150.372 72.224 150.052 71.728C151.38 70.32 152.596 67.904 153.14 65.856ZM156.34 60.544L157.588 62.048C155.7 62.72 153.156 63.184 150.98 63.44C150.9 63.008 150.66 62.352 150.452 61.936C152.548 61.648 154.884 61.136 156.34 60.544ZM155.012 67.056C155.508 67.52 157.252 69.52 157.636 70L156.532 71.584C156.004 70.608 154.724 68.784 154.1 67.968L155.012 67.056ZM174.836 60.32L176.708 60.976C175.3 63.328 173.108 65.488 171.044 66.816C170.708 66.432 169.94 65.744 169.492 65.424C171.62 64.288 173.652 62.368 174.836 60.32ZM180.068 61.776H180.452L180.788 61.68L182.148 62.464C180.004 67.008 175.268 69.52 170.18 70.704C170.004 70.192 169.572 69.392 169.22 68.944C173.908 68.064 178.42 65.696 180.068 62.08V61.776ZM174.292 63.088C176.228 65.712 180.164 67.68 184.628 68.464C184.212 68.896 183.652 69.712 183.396 70.224C178.82 69.264 174.98 67.088 172.58 63.904L174.292 63.088ZM174.372 70.288L175.428 68.896C177.012 69.28 178.932 70.016 180.1 70.608L179.044 72.144C177.94 71.488 175.972 70.704 174.372 70.288ZM171.748 73.536L172.868 71.872C175.844 72.24 179.428 73.04 181.78 73.744L180.692 75.568C178.5 74.8 174.756 73.968 171.748 73.536ZM174.756 61.776H180.452V63.488H173.556L174.756 61.776ZM197.06 67.184C197.972 70.496 199.972 72.752 203.732 73.6C203.284 74.032 202.708 74.896 202.404 75.456C198.324 74.32 196.356 71.712 195.172 67.584L197.06 67.184ZM189.46 66.384H202.788V68.368H189.46V66.384ZM188.964 61.472H203.204V63.456H188.964V61.472ZM194.916 62H196.98V65.936C196.98 69.36 196.148 73.504 189.716 75.472C189.508 74.992 188.932 74.144 188.532 73.76C194.244 72.08 194.916 68.624 194.916 65.936V62ZM209.588 63.008H214.5V73.792H209.588V72.096H212.756V64.688H209.588V63.008ZM208.468 63.008H210.212V74.976H208.468V63.008ZM209.508 67.28H213.604V68.944H209.508V67.28ZM210.74 60.4L212.836 60.704C212.468 61.792 212.068 62.928 211.748 63.68L210.212 63.344C210.436 62.512 210.66 61.28 210.74 60.4ZM216.612 62.896H221.284V64.64H216.612V62.896ZM220.628 62.896H222.404C222.404 62.896 222.404 63.52 222.388 63.76C222.18 70.96 221.988 73.504 221.332 74.352C220.884 74.976 220.436 75.152 219.78 75.248C219.172 75.344 218.196 75.328 217.268 75.28C217.236 74.752 216.98 73.936 216.628 73.424C217.668 73.504 218.628 73.52 219.028 73.52C219.348 73.52 219.524 73.456 219.732 73.232C220.244 72.688 220.452 69.936 220.628 63.264V62.896ZM216.66 60.416L218.5 60.848C217.876 63.216 216.836 65.648 215.748 67.184C215.396 66.864 214.612 66.32 214.164 66.064C215.236 64.72 216.148 62.544 216.66 60.416ZM215.876 67.504L217.38 66.656C218.164 67.76 219.22 69.296 219.716 70.24L218.084 71.232C217.652 70.256 216.644 68.688 215.876 67.504ZM234.58 68.08H239.748V69.904H234.58V68.08ZM234.564 72.672H239.7V74.56H234.564V72.672ZM232.612 63.536H241.988V65.424H232.612V63.536ZM233.572 60.416H235.524V75.44H233.572V60.416ZM238.628 60.416H240.612V75.376H238.628V60.416ZM227.124 63.408H232.34V65.168H227.124V63.408ZM229.012 60.416H230.836V75.44H229.012V60.416ZM229.22 64.72L230.244 65.12C229.796 67.776 228.836 70.896 227.732 72.56C227.54 72 227.124 71.12 226.804 70.608C227.876 69.264 228.804 66.736 229.22 64.72ZM230.884 65.536C231.268 66 232.644 68.016 232.948 68.512L231.78 69.856C231.412 68.896 230.484 67.072 229.988 66.24L230.884 65.536ZM252.724 60.912H259.076V62.24H252.724V60.912ZM251.988 63.888H259.812V65.248H251.988V63.888ZM255.156 71.552H258.308V74.368H255.172V73.328H257.012V72.576H255.156V71.552ZM254.436 71.552H255.732V74.848H254.436V71.552ZM251.988 68.096H259.764V69.392H253.7V75.44H251.988V68.096ZM258.996 68.096H260.756V73.76C260.756 74.48 260.644 74.896 260.164 75.152C259.7 75.408 259.092 75.44 258.276 75.44C258.196 74.992 257.94 74.336 257.748 73.936C258.18 73.952 258.644 73.952 258.788 73.936C258.948 73.936 258.996 73.888 258.996 73.744V68.096ZM255.972 64.56H257.684V66.672C257.684 67.376 257.54 67.728 257.044 67.936C256.548 68.128 255.892 68.128 254.964 68.128C254.884 67.728 254.676 67.216 254.5 66.864C254.996 66.88 255.588 66.88 255.748 66.88C255.908 66.88 255.972 66.832 255.972 66.672V64.56ZM254.724 68.816H256.036C256.02 70.416 255.732 71.296 254.052 71.68C253.956 71.36 253.636 70.88 253.38 70.624C254.564 70.4 254.708 69.952 254.724 68.816ZM256.644 68.912H257.972V69.808C257.972 70.096 258.004 70.112 258.196 70.112C258.276 70.112 258.66 70.112 258.756 70.112C258.948 70.112 258.996 70.08 259.028 70.016C259.252 70.176 259.78 70.352 260.132 70.416C260.004 70.976 259.652 71.184 258.964 71.184C258.74 71.184 258.196 71.184 257.988 71.184C256.884 71.184 256.644 70.88 256.644 69.792V68.912ZM259.476 63.888H259.732L259.988 63.808L261.172 64.208C260.756 65.184 260.148 66.256 259.588 66.944L258.276 66.4C258.708 65.808 259.204 64.896 259.476 64.112V63.888ZM253.78 63.328L254.628 62.432C255.988 62.688 257.908 63.168 258.98 63.52L258.084 64.512C257.124 64.16 255.188 63.632 253.78 63.328ZM255.268 64.144L256.436 64.88C255.572 66 253.892 67.232 252.468 67.872C252.244 67.488 251.844 66.944 251.476 66.64C252.868 66.176 254.484 65.152 255.268 64.144ZM258.516 60.912H258.932L259.284 60.832L260.292 61.632C259.332 62.512 257.988 63.376 256.676 63.936C256.484 63.648 256.084 63.216 255.844 63.008C256.868 62.56 257.988 61.776 258.516 61.2V60.912ZM246.404 63.728H251.54V65.504H246.404V63.728ZM248.26 60.416H249.988V75.44H248.26V60.416ZM248.244 64.944L249.3 65.312C248.868 67.84 247.988 70.96 246.884 72.592C246.708 72.08 246.292 71.344 246.02 70.88C247.012 69.488 247.892 66.976 248.244 64.944ZM249.892 66.192C250.228 66.624 251.508 68.688 251.78 69.136L250.836 70.48C250.5 69.552 249.556 67.68 249.156 66.928L249.892 66.192ZM267.988 76.208L267.476 74.928C268.82 74.496 269.556 73.712 269.556 72.8L269.444 71.216L270.324 72.656C270.068 72.896 269.732 73.008 269.38 73.008C268.58 73.008 267.844 72.496 267.844 71.568C267.844 70.672 268.564 70.128 269.428 70.128C270.548 70.128 271.156 70.992 271.156 72.336C271.156 74.144 269.972 75.616 267.988 76.208ZM288.404 64.816H296.212V66.496H288.404V64.816ZM287.284 71.632H298.868V73.312H287.284V71.632ZM287.684 62.112H298.932V63.824H287.684V62.112ZM295.46 64.816H297.364C297.364 64.816 297.348 65.424 297.348 65.648C297.172 71.856 296.948 73.936 296.452 74.624C296.084 75.152 295.668 75.328 295.124 75.408C294.596 75.472 293.78 75.472 292.964 75.44C292.948 75.024 292.756 74.384 292.516 73.968C293.236 74.032 293.86 74.048 294.18 74.032C294.468 74.032 294.612 73.984 294.756 73.776C295.124 73.296 295.316 71.088 295.46 65.2V64.816ZM287.492 64.816H289.428C289.092 67.824 288.58 71.632 288.164 73.936L286.212 73.808C286.692 71.472 287.236 67.712 287.492 64.816ZM288.228 60.32L290.244 60.896C289.268 63.104 287.764 65.344 286.404 66.752C285.988 66.416 285.092 65.84 284.596 65.568C286.036 64.336 287.428 62.304 288.228 60.32ZM290.34 67.136L291.396 66.112C292.292 66.512 293.428 67.168 294.004 67.696L292.884 68.832C292.356 68.288 291.252 67.568 290.34 67.136ZM290.132 70.448L291.172 69.424C292.1 69.84 293.252 70.544 293.844 71.088L292.724 72.224C292.196 71.664 291.06 70.912 290.132 70.448ZM284.644 68.176H288.02V68.24H296.308V68.176H299.556V69.888H296.308V69.84H288.02V69.888H284.644V68.176ZM308.724 61.232H318.34V75.296H316.516V62.896H310.468V75.424H308.724V61.232ZM310.884 64.864H316.148V66.256H310.884V64.864ZM309.62 72.816H317.396V74.496H309.62V72.816ZM312.724 63.232H314.212V68.368H312.724V63.232ZM312.676 68.976V70.64H314.308V68.976H312.676ZM311.3 67.648H315.764V71.968H311.3V67.648ZM306.74 60.464L308.5 60.992C307.572 63.76 306.036 66.72 304.372 68.608C304.228 68.144 303.748 67.024 303.444 66.528C304.788 65.056 306.02 62.752 306.74 60.464ZM305.428 64.848L307.236 63.04L307.252 63.056V75.456H305.428V64.848ZM323.364 70.672H337.636V72.288H323.364V70.672ZM326.196 67.856H333.396V69.344H326.196V67.856ZM329.54 69.888H331.428V73.584C331.428 74.512 331.204 74.96 330.484 75.2C329.764 75.44 328.756 75.456 327.412 75.456C327.3 74.944 327.012 74.24 326.74 73.776C327.7 73.824 328.852 73.824 329.156 73.808C329.46 73.808 329.54 73.728 329.54 73.52V69.888ZM332.724 67.856H333.204L333.588 67.76L334.724 68.736C333.684 69.584 332.276 70.496 330.964 71.088C330.756 70.784 330.292 70.272 330.036 70.032C331.028 69.568 332.196 68.736 332.724 68.192V67.856ZM323.396 63.664H337.62V65.232H323.396V63.664ZM329.492 61.872H331.38V67.472H329.492V61.872ZM328.74 64.224L330.228 64.88C328.788 66.704 326.356 68.288 324.068 69.12C323.796 68.688 323.252 68.016 322.868 67.664C325.108 67.008 327.508 65.664 328.74 64.224ZM332.228 64.272C333.444 65.648 335.796 66.896 338.036 67.504C337.636 67.856 337.108 68.56 336.836 69.008C334.532 68.224 332.18 66.688 330.74 64.912L332.228 64.272ZM334.532 60.432L336.116 61.776C332.996 62.512 328.548 62.8 324.788 62.864C324.756 62.432 324.532 61.728 324.356 61.344C327.988 61.28 332.196 60.976 334.532 60.432ZM344.34 67.104H348.308V68.464H344.34V67.104ZM344.34 64.944H349.46V70.672H344.34V69.232H347.652V66.384H344.34V64.944ZM343.316 64.944H345.108V73.552L343.316 73.856V64.944ZM342.18 73.216C343.796 73.008 346.212 72.656 348.484 72.304L348.596 73.904C346.452 74.256 344.18 74.624 342.468 74.896L342.18 73.216ZM346.436 71.44L347.924 70.736C348.852 71.792 349.748 73.232 350.132 74.224L348.532 75.024C348.196 74.032 347.316 72.512 346.436 71.44ZM350.42 64.944H355.588V66.688H352.212V75.264H350.42V64.944ZM354.692 64.944H356.532V71.6C356.532 72.48 356.372 72.976 355.764 73.264C355.172 73.552 354.356 73.568 353.188 73.568C353.108 73.056 352.868 72.288 352.628 71.808C353.348 71.84 354.164 71.84 354.388 71.824C354.628 71.824 354.692 71.76 354.692 71.552V64.944ZM344.42 61.696H349.46V63.12H344.42V61.696ZM350.788 61.696H356.964V63.12H350.788V61.696ZM344.5 60.288L346.276 60.752C345.652 62.336 344.612 63.92 343.652 64.928C343.3 64.64 342.532 64.144 342.084 63.904C343.092 63.024 343.988 61.648 344.5 60.288ZM351.012 60.288L352.82 60.752C352.212 62.352 351.172 63.92 350.116 64.896C349.764 64.592 348.996 64.08 348.548 63.84C349.604 62.992 350.532 61.664 351.012 60.288ZM345.012 62.8L346.5 62.16C346.964 62.832 347.492 63.744 347.668 64.368L346.1 65.072C345.94 64.464 345.476 63.504 345.012 62.8ZM351.956 62.8L353.508 62.208C354.116 62.864 354.756 63.776 355.044 64.448L353.38 65.088C353.14 64.464 352.548 63.504 351.956 62.8ZM35.78 94.112H41.316V95.76H35.78V94.112ZM37.7 105.024H41.716V106.576H37.7V105.024ZM37.7 102.464H41.764V103.92H37.7V102.464ZM35.092 97.072H43.284V98.736H35.092V97.072ZM37.892 92.544H39.668V98.176H37.892V92.544ZM42.1 93.12L43.828 93.616C42.196 97.808 39.396 101.056 35.78 103.008C35.572 102.592 35.012 101.792 34.676 101.408C38.116 99.776 40.708 96.896 42.1 93.12ZM38.308 99.92H41.684V101.456H38.308V107.408H36.58V101.024L37.62 99.92H38.308ZM40.916 99.92H42.74V107.184H40.916V99.92ZM43.796 93.312H48.5V95.104H45.684V107.424H43.796V93.312ZM48.052 93.312H48.42L48.708 93.232L50.1 94.096C49.54 95.632 48.82 97.456 48.18 98.88C49.524 100.304 49.812 101.568 49.812 102.624C49.812 103.824 49.54 104.608 48.916 105.024C48.596 105.248 48.212 105.392 47.78 105.44C47.396 105.488 46.884 105.504 46.388 105.472C46.372 104.96 46.18 104.128 45.876 103.616C46.292 103.648 46.612 103.664 46.9 103.648C47.14 103.648 47.38 103.6 47.556 103.504C47.86 103.328 47.972 102.96 47.972 102.416C47.972 101.536 47.604 100.352 46.292 99.12C46.948 97.552 47.7 95.12 48.052 93.968V93.312ZM57.716 98.24V100.256H65.62V98.24H57.716ZM56.116 97.056H67.316V101.44H56.116V97.056ZM58.868 95.232H64.516V96.48H58.868V95.232ZM60.836 97.44H62.388V100.816H60.836V97.44ZM61.604 93.904C60.18 95.28 57.572 96.768 55.044 97.648C54.836 97.216 54.388 96.528 54.052 96.128C56.676 95.344 59.3 93.84 60.612 92.416H62.436C64.26 94.112 66.852 95.376 69.332 96C68.916 96.432 68.5 97.088 68.212 97.584C65.988 96.832 63.156 95.344 61.604 93.904ZM58.276 98.592L59.604 98.224C59.892 98.768 60.148 99.472 60.244 99.952L58.836 100.368C58.772 99.888 58.548 99.152 58.276 98.592ZM63.572 98.16L65.156 98.544C64.804 99.232 64.484 99.904 64.228 100.352L62.916 100C63.14 99.472 63.444 98.688 63.572 98.16ZM56.996 101.952H66.468V107.392H64.5V103.2H58.884V107.44H56.996V101.952ZM58.084 103.84H65.316V105.104H58.084V103.84ZM58.084 105.76H65.316V107.008H58.084V105.76ZM73.764 94.352H88.036V96.144H73.764V94.352ZM78.084 100.112H85.044V101.712H78.084V100.112ZM76.66 97.408H84.756V99.088H78.564V107.424H76.66V97.408ZM84.372 97.408H86.244V105.36C86.244 106.304 86.068 106.832 85.412 107.136C84.772 107.424 83.86 107.44 82.564 107.44C82.484 106.912 82.228 106.096 81.972 105.6C82.804 105.648 83.748 105.632 84.02 105.632C84.276 105.632 84.372 105.552 84.372 105.328V97.408ZM78.724 92.4L80.708 92.848C79.588 96.464 77.668 100.144 74.548 102.32C74.276 101.888 73.668 101.2 73.284 100.832C76.132 98.96 77.924 95.52 78.724 92.4ZM78.084 102.752H85.044V104.352H78.084V102.752ZM93.124 93.488H107.076V95.456H93.124V93.488ZM100.852 98.848L102.34 97.6C104.052 98.848 106.516 100.688 107.684 101.968L106.052 103.44C104.996 102.176 102.628 100.208 100.852 98.848ZM100.212 94.208L102.356 94.96C100.532 98.336 97.62 101.6 93.94 103.52C93.636 103.008 93.028 102.208 92.628 101.776C96.052 100.16 98.884 97.056 100.212 94.208ZM99.044 98.08L101.156 95.984V107.408H99.044V98.08ZM115.284 96.128H123.284V97.744H115.284V96.128ZM116.036 98.96H117.796V105.408H116.036V98.96ZM116.996 98.96H122.58V104.352H116.996V102.752H120.804V100.528H116.996V98.96ZM112.5 93.168H125.3V94.992H114.356V107.456H112.5V93.168ZM124.228 93.168H126.116V105.248C126.116 106.24 125.924 106.784 125.3 107.088C124.692 107.408 123.812 107.456 122.452 107.456C122.388 106.928 122.1 106.048 121.812 105.568C122.66 105.6 123.588 105.6 123.86 105.6C124.132 105.584 124.228 105.488 124.228 105.216V93.168ZM132.788 95.008H137.7V105.792H132.788V104.096H135.956V96.688H132.788V95.008ZM131.668 95.008H133.412V106.976H131.668V95.008ZM132.708 99.28H136.804V100.944H132.708V99.28ZM133.94 92.4L136.036 92.704C135.668 93.792 135.268 94.928 134.948 95.68L133.412 95.344C133.636 94.512 133.86 93.28 133.94 92.4ZM139.812 94.896H144.484V96.64H139.812V94.896ZM143.828 94.896H145.604C145.604 94.896 145.604 95.52 145.588 95.76C145.38 102.96 145.188 105.504 144.532 106.352C144.084 106.976 143.636 107.152 142.98 107.248C142.372 107.344 141.396 107.328 140.468 107.28C140.436 106.752 140.18 105.936 139.828 105.424C140.868 105.504 141.828 105.52 142.228 105.52C142.548 105.52 142.724 105.456 142.932 105.232C143.444 104.688 143.652 101.936 143.828 95.264V94.896ZM139.86 92.416L141.7 92.848C141.076 95.216 140.036 97.648 138.948 99.184C138.596 98.864 137.812 98.32 137.364 98.064C138.436 96.72 139.348 94.544 139.86 92.416ZM139.076 99.504L140.58 98.656C141.364 99.76 142.42 101.296 142.916 102.24L141.284 103.232C140.852 102.256 139.844 100.688 139.076 99.504ZM150.468 93.008H158.212V94.096H150.468V93.008ZM152.132 92.416H153.668V94.576H152.132V92.416ZM155.044 92.416H156.596V94.576H155.044V92.416ZM151.764 94.304L153.188 94.544C152.708 95.488 152.036 96.272 150.996 96.944C150.788 96.624 150.324 96.144 150.004 95.952C150.852 95.488 151.428 94.88 151.764 94.304ZM152.132 94.8H156.996V95.776H151.604L152.132 94.8ZM159.828 93.504H164.964V94.848H159.156L159.828 93.504ZM156.26 94.8H157.86C157.86 94.8 157.86 95.152 157.844 95.344C157.732 97.248 157.588 98.08 157.3 98.432C157.076 98.704 156.788 98.816 156.452 98.864C156.148 98.88 155.652 98.896 155.14 98.88C155.108 98.512 154.964 97.984 154.788 97.664C155.156 97.712 155.428 97.712 155.588 97.712C155.732 97.712 155.828 97.696 155.924 97.568C156.068 97.392 156.164 96.736 156.26 95.008V94.8ZM159.62 92.4L161.236 92.832C160.628 94.144 159.556 95.392 158.5 96.176C158.228 95.872 157.588 95.312 157.236 95.056C158.244 94.416 159.14 93.44 159.62 92.4ZM162.5 94.208L164.132 94.464C163.252 96.784 161.156 98.048 158.564 98.784C158.388 98.448 157.908 97.776 157.604 97.472C159.972 96.96 161.86 95.984 162.5 94.208ZM159.972 94.592C160.948 96.032 162.996 97.12 165.348 97.568C164.98 97.888 164.516 98.544 164.292 98.96C161.796 98.352 159.732 96.976 158.564 95.072L159.972 94.592ZM151.524 96.176H152.804V97.872H151.524V96.176ZM151.524 96.176H155.3V98.336H151.524V97.52H154.004V96.992H151.524V96.176ZM153.588 100.592H162.74V101.536H153.588V100.592ZM153.604 102.048H162.756V102.976H153.604V102.048ZM153.572 103.504H163.332V104.624H153.572V103.504ZM152.34 98.944H163.204V100.08H154.18V104.624H152.34V98.944ZM156.868 99.504H158.708V104.032H156.868V99.504ZM162.74 103.504H164.58C164.58 103.504 164.548 103.904 164.516 104.112C164.324 105.808 164.116 106.624 163.764 106.992C163.476 107.264 163.156 107.392 162.788 107.424C162.436 107.456 161.844 107.472 161.188 107.44C161.172 107.024 161.012 106.432 160.804 106.048C161.252 106.096 161.636 106.112 161.828 106.112C162.02 106.112 162.132 106.096 162.244 105.968C162.436 105.776 162.612 105.152 162.74 103.696V103.504ZM151.956 104.496L153.524 105.168C153.124 106.048 152.548 106.912 151.636 107.456L150.18 106.464C150.964 106.016 151.62 105.248 151.956 104.496ZM154.164 105.248L155.7 105.008C155.924 105.632 156.1 106.464 156.164 106.992L154.548 107.296C154.516 106.736 154.356 105.888 154.164 105.248ZM156.852 105.28L158.276 104.944C158.58 105.488 158.868 106.208 158.996 106.704L157.508 107.104C157.412 106.608 157.124 105.84 156.852 105.28ZM159.412 105.184L160.692 104.704C161.076 105.12 161.476 105.696 161.668 106.08L160.324 106.64C160.164 106.24 159.764 105.632 159.412 105.184ZM172.74 105.728H181.188V107.008H172.74V105.728ZM171.572 103.456H182.388V107.44H180.404V104.736H173.46V107.44H171.572V103.456ZM170.084 93.36H183.716V94.736H170.084V93.36ZM171.188 95.376H182.772V96.704H171.188V95.376ZM169.524 101.424H184.228V102.88H169.524V101.424ZM175.86 92.384H177.812V95.872H175.86V92.384ZM172.852 100.608L174.596 100.16C174.9 100.592 175.156 101.168 175.268 101.584L173.428 102.096C173.364 101.68 173.108 101.04 172.852 100.608ZM179.044 100.144L181.156 100.448C180.772 101.088 180.372 101.632 180.068 102.032L178.404 101.68C178.644 101.216 178.916 100.592 179.044 100.144ZM173.7 98.448V99.248H180.132V98.448H173.7ZM171.876 97.248H182.068V100.432H171.876V97.248ZM195.076 96.24H197.06V100.512H195.076V96.24ZM190.404 97.008H201.94V98.592H190.404V97.008ZM188.788 99.504H203.428V101.136H188.788V99.504ZM189.38 102.08H202.948V103.712H189.38V102.08ZM198.244 100.912H200.228V105.456C200.228 106.384 200.02 106.864 199.332 107.152C198.66 107.408 197.748 107.44 196.548 107.44C196.452 106.896 196.132 106.128 195.86 105.648C196.676 105.68 197.62 105.68 197.892 105.664C198.164 105.664 198.244 105.616 198.244 105.408V100.912ZM190.82 93.568H195.924V95.136H190.82V93.568ZM197.172 93.568H203.332V95.136H197.172V93.568ZM190.948 92.288L192.772 92.784C192.1 94.368 191.012 95.968 189.972 96.976C189.604 96.656 188.82 96.144 188.372 95.904C189.428 95.024 190.388 93.648 190.948 92.288ZM197.412 92.288L199.252 92.736C198.676 94.288 197.684 95.808 196.692 96.752C196.324 96.432 195.54 95.92 195.108 95.68C196.1 94.88 196.964 93.584 197.412 92.288ZM191.428 94.784L192.98 94.176C193.38 94.784 193.844 95.6 194.02 96.144L192.372 96.816C192.228 96.288 191.812 95.424 191.428 94.784ZM198.404 94.816L199.956 94.192C200.436 94.784 201.028 95.6 201.284 96.16L199.652 96.832C199.428 96.304 198.884 95.44 198.404 94.816ZM191.508 104.368L192.9 103.28C193.812 103.92 194.916 104.864 195.412 105.584L193.924 106.784C193.476 106.048 192.42 105.056 191.508 104.368ZM214.516 92.464L216.404 92.896C215.732 95.424 214.596 97.936 213.316 99.52C212.98 99.184 212.212 98.56 211.78 98.272C212.996 96.896 213.972 94.688 214.516 92.464ZM214.068 99.584L215.924 99.968C215.476 102 214.644 104.048 213.748 105.344C213.38 105.04 212.564 104.544 212.116 104.304C213.012 103.184 213.7 101.36 214.068 99.584ZM214.868 95.28H221.428V97.056H214.148L214.868 95.28ZM216.708 96.064H218.612V105.296C218.612 106.224 218.452 106.752 217.876 107.072C217.316 107.376 216.532 107.456 215.508 107.456C215.412 106.896 215.124 106.048 214.852 105.52C215.524 105.552 216.196 105.536 216.42 105.536C216.628 105.536 216.708 105.488 216.708 105.28V96.064ZM219.172 100L220.9 99.424C221.732 101.072 222.42 103.2 222.644 104.656L220.804 105.296C220.628 103.856 219.956 101.648 219.172 100ZM220.916 95.28H221.172L221.476 95.232L222.82 95.472C222.628 96.784 222.34 98.272 222.132 99.232L220.484 98.944C220.628 98.08 220.804 96.656 220.916 95.536V95.28ZM211.092 92.48L212.9 93.04C211.86 95.776 210.196 98.656 208.452 100.48C208.276 100.016 207.764 98.96 207.428 98.496C208.884 97.04 210.276 94.768 211.092 92.48ZM209.54 96.896L211.364 95.072L211.38 95.088V107.424H209.54V96.896ZM227.588 94.416H241.508V96.288H227.588V94.416ZM233.428 92.416H235.444V107.44H233.428V92.416ZM233.652 99.648L235.252 100.256C233.684 103.088 231.108 105.536 228.26 106.848C227.956 106.368 227.332 105.584 226.9 105.2C229.668 104.128 232.308 101.952 233.652 99.648ZM235.364 99.776C236.708 101.984 239.332 104.064 242.084 105.072C241.604 105.488 240.98 106.288 240.66 106.832C237.876 105.552 235.348 103.136 233.78 100.4L235.364 99.776ZM229.524 99.072L230.74 97.856C231.46 98.464 232.5 99.344 233.012 99.888L231.748 101.232C231.268 100.656 230.26 99.728 229.524 99.072ZM230.164 96.384L232.036 96.736C231.444 99.072 230.308 101.072 228.82 102.32C228.5 101.968 227.764 101.344 227.332 101.056C228.74 100.032 229.716 98.336 230.164 96.384ZM237.172 99.136L238.42 97.984C239.412 98.736 240.932 99.872 241.668 100.56L240.34 101.888C239.668 101.168 238.196 99.984 237.172 99.136ZM237.716 96.384L239.572 96.72C239.14 98.64 238.26 100.336 237.188 101.408C236.82 101.104 236.004 100.608 235.556 100.4C236.628 99.488 237.38 98 237.716 96.384ZM251.396 100.72H260.98V102.432H251.396V100.72ZM256.532 95.152H258.244V97.472C258.244 97.856 258.292 97.904 258.58 97.904C258.708 97.904 259.22 97.904 259.364 97.904C259.636 97.904 259.7 97.744 259.732 96.688C260.068 96.944 260.772 97.2 261.236 97.312C261.06 98.976 260.628 99.424 259.572 99.424C259.284 99.424 258.564 99.424 258.292 99.424C256.82 99.424 256.532 98.928 256.532 97.488V95.152ZM251.54 93.152H260.932V96.352H259.236V94.784H253.172V96.432H251.54V93.152ZM255.188 99.136H257.076V107.424H255.188V99.136ZM253.956 95.168H255.7C255.556 97.616 255.044 99.04 252.132 99.792C251.972 99.376 251.54 98.736 251.204 98.432C253.556 97.904 253.86 96.976 253.956 95.168ZM257.556 101.552C258.356 103.04 259.908 104.544 261.444 105.328C261.044 105.68 260.452 106.352 260.148 106.816C258.548 105.808 257.012 103.968 256.1 102.096L257.556 101.552ZM254.772 101.392L256.26 101.888C255.284 104.032 253.588 105.936 251.62 106.944C251.348 106.512 250.804 105.84 250.404 105.488C252.244 104.704 253.94 103.104 254.772 101.392ZM246.02 100.464C247.3 100.176 249.204 99.664 251.012 99.152L251.268 100.88C249.62 101.392 247.86 101.904 246.452 102.304L246.02 100.464ZM246.276 95.456H251.172V97.216H246.276V95.456ZM247.972 92.432H249.732V105.408C249.732 106.304 249.572 106.8 249.076 107.088C248.596 107.392 247.908 107.456 246.868 107.456C246.82 106.976 246.596 106.192 246.372 105.664C246.948 105.696 247.508 105.696 247.7 105.68C247.892 105.68 247.972 105.632 247.972 105.408V92.432ZM271.892 103.072H273.796V107.44H271.892V103.072ZM271.876 92.416H273.78V97.024H271.876V92.416ZM271.444 97.312L273.188 98.128C272.228 98.992 271.124 99.856 270.244 100.416L268.9 99.696C269.748 99.072 270.836 98.064 271.444 97.312ZM274.916 98.336L276.628 99.264C274.644 100.752 272.052 102.368 270.02 103.392L268.756 102.512C270.804 101.456 273.364 99.712 274.916 98.336ZM267.492 100L268.74 98.928C269.892 99.488 271.428 100.384 272.212 101.056L270.868 102.256C270.164 101.584 268.676 100.624 267.492 100ZM274.996 101.264L276.26 100.288C277.524 101.088 279.22 102.288 280.068 103.12L278.724 104.224C277.94 103.408 276.292 102.112 274.996 101.264ZM274.708 104.72L276.18 103.76C277.428 104.416 279.188 105.456 280.116 106.192L278.532 107.28C277.732 106.544 276.02 105.456 274.708 104.72ZM265.876 102.128C268.868 102.144 273.748 102.096 278.324 102.032L278.228 103.488C273.828 103.648 269.108 103.792 265.972 103.856L265.876 102.128ZM269.14 103.808L270.964 104.496C269.924 105.584 268.292 106.688 266.932 107.328C266.596 106.96 265.892 106.304 265.46 105.984C266.836 105.488 268.292 104.656 269.14 103.808ZM266.052 93.664H279.7V95.312H266.052V93.664ZM265.924 96.288H279.892V99.616H278.004V97.904H267.732V99.616H265.924V96.288ZM287.188 102.048C288.628 102.048 289.78 103.2 289.78 104.624C289.78 106.064 288.628 107.216 287.188 107.216C285.764 107.216 284.596 106.064 284.596 104.624C284.596 103.2 285.764 102.048 287.188 102.048ZM287.188 106.064C287.988 106.064 288.628 105.424 288.628 104.624C288.628 103.84 287.988 103.2 287.188 103.2C286.404 103.2 285.748 103.84 285.748 104.624C285.748 105.424 286.404 106.064 287.188 106.064ZM316.213 107.472H310.917V105.744H314.325V97.248H316.213V107.472Z" fill="#FCF9F9"/>
</svg>
