<svg width="367" height="138" viewBox="0 0 367 138" fill="none" xmlns="http://www.w3.org/2000/svg">
<rect width="367" height="138" rx="38" fill="#FCF9F9"/>
<path d="M50.484 46.618H55.884V54.25H50.484V52.99H54.588V47.842H50.484V46.618ZM49.872 46.618H51.168V59.272L49.872 59.812V46.618ZM48.666 59.434C50.322 58.984 52.86 58.246 55.326 57.526L55.506 58.768C53.22 59.488 50.808 60.226 49.026 60.766L48.666 59.434ZM53.022 55.744L54.156 55.258C55.218 56.59 56.316 58.372 56.766 59.578L55.578 60.154C55.146 58.93 54.066 57.076 53.022 55.744ZM57.828 47.014H59.07V53.404H57.828V47.014ZM62.13 47.23L63.48 47.356C62.616 55.114 60.726 59.722 55.362 62.476C55.146 62.224 54.588 61.72 54.264 61.486C59.628 59.056 61.374 54.556 62.13 47.23ZM60.942 54.25H62.202V60.424C62.202 60.892 62.274 60.964 62.652 60.964C62.832 60.964 63.642 60.964 63.858 60.964C64.254 60.964 64.326 60.64 64.38 58.354C64.65 58.588 65.19 58.804 65.532 58.894C65.424 61.504 65.1 62.188 64.002 62.188C63.732 62.188 62.724 62.188 62.472 62.188C61.248 62.188 60.942 61.774 60.942 60.424V54.25ZM50.466 49.822H55.128V50.974H50.466V49.822ZM56.658 46.6H64.956V47.878H56.658V46.6ZM56.298 52.846H65.28V54.124H56.298V52.846ZM77.7 49.714H85.656V50.992H77.7V49.714ZM81.966 50.182C82.56 53.314 83.856 55.78 86.178 56.932C85.872 57.202 85.458 57.706 85.26 58.084C82.812 56.662 81.48 53.962 80.814 50.398L81.966 50.182ZM71.994 50.02L72.606 49.228C73.812 49.768 75.288 50.632 76.044 51.226L75.414 52.126C74.676 51.496 73.182 50.596 71.994 50.02ZM82.56 46.726L83.532 46.168C84.306 46.906 85.188 47.95 85.584 48.652L84.558 49.3C84.162 48.598 83.316 47.5 82.56 46.726ZM70.392 52.036L71.148 51.298C72.336 51.982 73.812 52.972 74.55 53.692L73.758 54.502C73.038 53.782 71.598 52.738 70.392 52.036ZM73.29 45.754L74.586 46.096C73.632 48.562 72.03 51.298 69.996 53.026C69.762 52.756 69.348 52.36 69.06 52.144C71.004 50.56 72.552 47.968 73.29 45.754ZM76.656 47.5H76.926L77.178 47.446L78.024 47.806C76.89 53.206 74.1 56.536 70.644 58.246C70.482 57.922 69.996 57.4 69.708 57.184C73.074 55.654 75.72 52.594 76.656 47.77V47.5ZM74.91 58.966L76.152 58.84C76.386 59.902 76.584 61.27 76.602 62.098L75.27 62.296C75.27 61.45 75.126 60.046 74.91 58.966ZM78.582 58.966L79.842 58.75C80.328 59.776 80.814 61.18 80.994 62.026L79.662 62.314C79.5 61.45 79.05 60.046 78.582 58.966ZM82.272 58.858L83.532 58.426C84.45 59.506 85.494 61.018 85.98 61.99L84.63 62.476C84.198 61.522 83.172 59.974 82.272 58.858ZM71.724 58.498L73.002 58.822C72.57 60.154 71.796 61.594 70.842 62.458L69.618 61.936C70.5 61.162 71.31 59.812 71.724 58.498ZM73.254 47.5H77.142V48.616H72.57L73.254 47.5ZM80.634 46.096H81.93V49.606C81.93 52.486 81.318 55.69 77.106 57.958C76.89 57.652 76.476 57.256 76.152 57.004C80.148 54.898 80.634 52.018 80.634 49.606V46.096ZM90.984 47.986H97.284V49.174H90.984V47.986ZM92.892 60.154H97.932V61.306H92.892V60.154ZM92.874 57.166H97.95V58.246H92.874V57.166ZM90.174 51.334H99.48V52.54H90.174V51.334ZM93.774 46.042H95.034V52.108H93.774V46.042ZM98.544 46.51L99.768 46.87C97.788 51.37 94.584 54.826 90.624 57.004C90.462 56.716 90.03 56.176 89.778 55.906C93.684 53.962 96.762 50.686 98.544 46.51ZM93.306 54.286H97.896V55.42H93.306V62.368H92.064V55.078L92.82 54.286H93.306ZM97.356 54.286H98.67V62.116H97.356V54.286ZM100.236 46.924H105.618V48.184H101.586V62.44H100.236V46.924ZM105.276 46.924H105.546L105.762 46.852L106.734 47.482C105.978 49.174 105.006 51.262 104.124 52.918C106.014 54.592 106.5 56.014 106.5 57.31C106.518 58.426 106.248 59.254 105.582 59.686C105.258 59.902 104.844 60.028 104.376 60.082C103.89 60.136 103.242 60.136 102.684 60.1C102.666 59.74 102.504 59.146 102.288 58.786C102.864 58.84 103.404 58.858 103.8 58.822C104.124 58.804 104.43 58.732 104.646 58.606C105.078 58.372 105.204 57.85 105.204 57.184C105.204 56.05 104.628 54.682 102.72 53.116C103.692 51.244 104.7 48.796 105.276 47.338V46.924ZM110.91 55.726H127.29V56.86H110.91V55.726ZM111.342 46.672H126.84V47.86H111.342V46.672ZM117.156 53.836L118.47 54.196C117.3 56.068 115.644 58.426 114.492 59.902L113.214 59.47C114.366 58.012 116.04 55.6 117.156 53.836ZM122.556 56.122L123.852 56.5C122.268 60.46 118.434 61.936 111.684 62.44C111.594 62.044 111.378 61.558 111.162 61.252C117.588 60.91 121.116 59.632 122.556 56.122ZM114.186 59.29L114.87 58.3C119.316 59.092 123.942 60.298 126.732 61.396L125.922 62.494C123.168 61.36 118.758 60.136 114.186 59.29ZM116.256 47.122H117.534V53.404H116.256V47.122ZM120.45 47.122H121.728V53.404H120.45V47.122ZM113.502 50.506V52.954H124.734V50.506H113.502ZM112.242 49.408H126.084V54.07H112.242V49.408ZM139.494 50.344V51.946H145.776V50.344H139.494ZM139.494 47.77V49.354H145.776V47.77H139.494ZM138.27 46.744H147.054V52.99H138.27V46.744ZM139.8 52.63L141.132 52.846C140.25 54.808 138.81 56.896 136.524 58.462C136.344 58.174 135.93 57.724 135.66 57.562C137.748 56.176 139.134 54.25 139.8 52.63ZM139.746 54.25H146.802V55.402H138.954L139.746 54.25ZM146.316 54.25H147.576C147.576 54.25 147.576 54.646 147.558 54.844C147.378 59.632 147.162 61.324 146.694 61.9C146.406 62.242 146.082 62.368 145.596 62.422C145.146 62.458 144.372 62.458 143.526 62.404C143.508 62.098 143.382 61.63 143.202 61.306C143.994 61.396 144.714 61.414 145.02 61.414C145.272 61.414 145.452 61.378 145.596 61.18C145.938 60.784 146.136 59.128 146.316 54.484V54.25ZM138.252 55.96H139.422V59.632C139.422 60.064 139.53 60.154 140.286 60.154C140.628 60.154 142.464 60.154 142.932 60.154C143.49 60.154 143.58 59.992 143.634 58.876C143.904 59.074 144.372 59.254 144.714 59.344C144.57 60.874 144.21 61.27 143.058 61.27C142.716 61.27 140.502 61.27 140.178 61.27C138.63 61.27 138.252 60.928 138.252 59.65V55.96ZM142.95 56.212L143.94 57.04C142.662 57.742 140.808 58.39 139.206 58.84C139.134 58.606 138.954 58.228 138.792 57.976C140.304 57.526 142.032 56.842 142.95 56.212ZM132.852 47.77H136.902V57.436H132.852V56.194H135.732V49.012H132.852V47.77ZM132.132 47.77H133.32V59.02H132.132V47.77ZM165.846 45.916L166.854 47.014C163.596 47.968 158.268 48.454 153.894 48.634C153.858 48.292 153.696 47.752 153.57 47.446C157.854 47.248 163.11 46.762 165.846 45.916ZM153.588 50.992H167.628V52.288H153.588V50.992ZM152.382 55.222H168.636V56.536H152.382V55.222ZM159.816 47.824H161.22V60.568C161.22 61.522 160.932 61.936 160.248 62.152C159.564 62.368 158.394 62.404 156.486 62.386C156.396 62.008 156.144 61.396 155.928 61.036C157.422 61.09 158.862 61.072 159.258 61.054C159.672 61.054 159.816 60.928 159.816 60.55V47.824ZM183.72 45.898L185.016 46.168C183.774 47.914 181.812 49.57 178.968 50.794C178.806 50.524 178.464 50.092 178.212 49.876C180.876 48.832 182.766 47.284 183.72 45.898ZM182.964 47.302H187.986V48.346H182.244L182.964 47.302ZM187.554 47.302H187.806L188.022 47.248L188.796 47.626C187.14 51.334 183.162 53.404 179.184 54.286C179.076 53.98 178.806 53.458 178.59 53.17C182.334 52.468 186.15 50.542 187.554 47.5V47.302ZM181.272 52.882L182.496 53.224C181.938 54.52 181.056 55.924 180.246 56.806C179.976 56.608 179.454 56.284 179.13 56.158C179.994 55.312 180.786 54.07 181.272 52.882ZM181.686 53.89H188.652V55.024H181.092L181.686 53.89ZM178.302 56.878H189.498V58.03H178.302V56.878ZM183.486 54.43H184.782V61.09H183.486V54.43ZM179.562 58.606H180.786V62.44H179.562V58.606ZM187.464 58.606H188.706V62.404H187.464V58.606ZM180.156 60.55H187.95V61.684H180.156V60.55ZM181.686 48.994L182.406 48.364C183.558 48.904 184.98 49.75 185.7 50.38L184.962 51.082C184.26 50.452 182.856 49.57 181.686 48.994ZM179.724 50.074L180.498 49.498C181.596 50.128 182.91 51.064 183.576 51.712L182.766 52.36C182.118 51.694 180.804 50.722 179.724 50.074ZM172.686 55.222C174.09 54.826 176.196 54.178 178.248 53.512L178.428 54.754C176.556 55.402 174.576 56.05 173.046 56.536L172.686 55.222ZM172.938 49.516H178.356V50.776H172.938V49.516ZM175.206 45.898H176.466V60.874C176.466 61.63 176.286 61.99 175.836 62.206C175.422 62.422 174.72 62.458 173.586 62.458C173.532 62.134 173.37 61.576 173.19 61.198C173.982 61.216 174.666 61.216 174.882 61.198C175.098 61.198 175.206 61.144 175.206 60.874V45.898ZM202.872 49.156H209.046V50.38H202.872V49.156ZM203.268 45.88L204.6 46.078C204.042 49.174 203.106 52.018 201.774 53.872C201.54 53.674 200.928 53.278 200.604 53.116C201.972 51.406 202.818 48.706 203.268 45.88ZM205.536 49.642H206.184V52.756C206.184 54.178 206.742 58.984 210.306 61.306C210.072 61.594 209.658 62.152 209.46 62.476C206.652 60.604 205.698 57.04 205.518 55.564C205.32 57.022 204.276 60.532 201.252 62.476C201.072 62.17 200.694 61.63 200.442 61.378C204.294 58.984 204.852 54.25 204.852 52.756V49.642H205.536ZM208.704 49.156H208.92L209.136 49.084L210.036 49.336C209.694 50.974 209.154 52.828 208.614 53.998L207.534 53.62C208.002 52.558 208.434 50.794 208.704 49.408V49.156ZM197.256 48.94H198.462V51.082H197.256V48.94ZM194.916 50.596H196.14V60.73H194.916V50.596ZM195.636 53.008H200.118V53.98H195.636V53.008ZM193.602 60.46C195.15 60.064 197.49 59.38 199.74 58.696L199.902 59.812C197.868 60.496 195.744 61.198 194.07 61.738L193.602 60.46ZM198.174 57.292L199.272 56.878C199.956 58.03 200.694 59.542 200.982 60.478L199.812 60.982C199.542 60.028 198.84 58.444 198.174 57.292ZM195.636 50.596H200.73V56.464H195.636V55.456H199.506V51.604H195.636V50.596ZM196.968 45.898H197.688V46.186H198.102V46.546C197.31 47.932 196.014 49.804 194.016 51.334C193.836 51.046 193.476 50.614 193.206 50.434C195.024 49.102 196.284 47.32 196.968 45.898ZM197.328 45.898H198.3C199.398 46.852 200.748 48.22 201.432 49.12L200.478 50.02C199.848 49.156 198.606 47.698 197.58 46.798H197.328V45.898ZM217.344 45.952H218.604V62.422H217.344V45.952ZM214.446 51.928H221.556V53.206H214.446V51.928ZM217.146 52.594L217.956 52.954C217.326 55.402 216.048 58.516 214.842 60.154C214.698 59.758 214.374 59.182 214.158 58.822C215.31 57.436 216.57 54.7 217.146 52.594ZM218.568 53.44C219.072 53.98 220.908 56.428 221.322 57.022L220.422 58.102C219.972 57.13 218.496 54.772 217.902 53.998L218.568 53.44ZM214.572 47.284L215.562 47.032C216.066 48.292 216.48 49.93 216.606 51.01L215.544 51.298C215.454 50.218 215.04 48.544 214.572 47.284ZM220.386 46.96L221.574 47.266C221.106 48.634 220.548 50.326 220.062 51.334L219.198 51.064C219.594 49.984 220.134 48.184 220.386 46.96ZM227.37 45.898H228.648V62.44H227.37V45.898ZM221.52 57.346L230.772 55.69L230.988 56.932L221.736 58.606L221.52 57.346ZM222.87 48.094L223.572 47.176C224.616 47.788 225.858 48.706 226.452 49.372L225.732 50.416C225.156 49.714 223.914 48.742 222.87 48.094ZM221.952 52.63L222.582 51.676C223.662 52.234 224.994 53.08 225.642 53.728L224.958 54.79C224.328 54.142 223.032 53.224 221.952 52.63ZM237.126 62.926L236.712 61.99C238.188 61.378 238.998 60.46 238.998 59.11L238.656 57.58L239.628 58.948C239.376 59.272 239.016 59.362 238.674 59.362C237.936 59.362 237.324 58.93 237.324 58.066C237.324 57.22 237.972 56.77 238.692 56.77C239.7 56.77 240.24 57.598 240.24 58.858C240.24 60.802 239.016 62.278 237.126 62.926ZM261.102 47.644H272.316V48.94H261.102V47.644ZM269.652 48.112H271.002V60.586C271.002 61.558 270.75 61.954 270.102 62.188C269.436 62.404 268.248 62.44 266.484 62.422C266.412 62.044 266.196 61.432 265.998 61.036C267.438 61.09 268.752 61.072 269.166 61.054C269.544 61.036 269.652 60.946 269.652 60.586V48.112ZM261.642 51.478H262.902V58.966H261.642V51.478ZM262.218 51.478H267.294V57.706H262.218V56.5H266.016V52.684H262.218V51.478ZM259.788 45.898L261.066 46.294C259.986 49.3 258.258 52.342 256.422 54.34C256.296 54.034 255.9 53.314 255.666 53.008C257.322 51.28 258.852 48.598 259.788 45.898ZM258.096 50.596L259.428 49.282L259.446 49.3V62.422H258.096V50.596ZM276.942 47.158H292.44V48.526H276.942V47.158ZM285.762 52.396L286.77 51.532C288.876 52.9 291.63 54.934 292.962 56.32L291.864 57.346C290.604 55.96 287.904 53.854 285.762 52.396ZM285.42 47.626L286.896 48.166C284.844 51.892 281.478 55.456 277.41 57.598C277.194 57.256 276.762 56.716 276.492 56.428C280.398 54.466 283.746 51.01 285.42 47.626ZM283.944 51.226L285.402 49.786V62.422H283.944V51.226ZM56.694 80.344V81.946H62.976V80.344H56.694ZM56.694 77.77V79.354H62.976V77.77H56.694ZM55.47 76.744H64.254V82.99H55.47V76.744ZM57 82.63L58.332 82.846C57.45 84.808 56.01 86.896 53.724 88.462C53.544 88.174 53.13 87.724 52.86 87.562C54.948 86.176 56.334 84.25 57 82.63ZM56.946 84.25H64.002V85.402H56.154L56.946 84.25ZM63.516 84.25H64.776C64.776 84.25 64.776 84.646 64.758 84.844C64.578 89.632 64.362 91.324 63.894 91.9C63.606 92.242 63.282 92.368 62.796 92.422C62.346 92.458 61.572 92.458 60.726 92.404C60.708 92.098 60.582 91.63 60.402 91.306C61.194 91.396 61.914 91.414 62.22 91.414C62.472 91.414 62.652 91.378 62.796 91.18C63.138 90.784 63.336 89.128 63.516 84.484V84.25ZM55.452 85.96H56.622V89.632C56.622 90.064 56.73 90.154 57.486 90.154C57.828 90.154 59.664 90.154 60.132 90.154C60.69 90.154 60.78 89.992 60.834 88.876C61.104 89.074 61.572 89.254 61.914 89.344C61.77 90.874 61.41 91.27 60.258 91.27C59.916 91.27 57.702 91.27 57.378 91.27C55.83 91.27 55.452 90.928 55.452 89.65V85.96ZM60.15 86.212L61.14 87.04C59.862 87.742 58.008 88.39 56.406 88.84C56.334 88.606 56.154 88.228 55.992 87.976C57.504 87.526 59.232 86.842 60.15 86.212ZM50.052 77.77H54.102V87.436H50.052V86.194H52.932V79.012H50.052V77.77ZM49.332 77.77H50.52V89.02H49.332V77.77ZM71.058 78.778H76.53V90.55H71.058V89.326H75.27V79.984H71.058V78.778ZM70.248 78.778H71.508V91.99H70.248V78.778ZM70.968 83.782H75.936V84.988H70.968V83.782ZM73.002 75.844L74.46 76.114C74.1 77.23 73.65 78.472 73.29 79.282L72.21 79.012C72.516 78.148 72.858 76.78 73.002 75.844ZM79.086 78.724H84.612V79.984H79.086V78.724ZM84.144 78.724H85.404C85.404 78.724 85.404 79.228 85.404 79.426C85.116 87.688 84.864 90.478 84.144 91.36C83.748 91.882 83.334 92.044 82.704 92.098C82.092 92.17 81.03 92.134 80.022 92.08C79.986 91.684 79.824 91.126 79.572 90.766C80.742 90.856 81.822 90.874 82.236 90.874C82.596 90.874 82.812 90.82 83.01 90.586C83.604 89.938 83.892 86.95 84.144 79.012V78.724ZM79.464 75.808L80.76 76.114C80.094 78.796 79.032 81.442 77.79 83.152C77.556 82.936 76.998 82.558 76.674 82.378C77.898 80.794 78.888 78.31 79.464 75.808ZM78.636 83.404L79.68 82.792C80.706 84.07 81.948 85.816 82.524 86.878L81.372 87.598C80.832 86.5 79.626 84.718 78.636 83.404ZM98.274 84.07H105.06V85.186H98.274V84.07ZM98.274 87.112H105.06V88.264H98.274V87.112ZM97.716 81.01H104.88V82.198H98.994V92.44H97.716V81.01ZM104.52 81.01H105.816V90.946C105.816 91.63 105.672 91.99 105.204 92.206C104.754 92.422 104.052 92.44 102.936 92.44C102.864 92.098 102.666 91.558 102.486 91.234C103.278 91.252 103.998 91.252 104.214 91.234C104.448 91.234 104.52 91.162 104.52 90.946V81.01ZM100.938 75.898H102.234V81.802H100.938V75.898ZM98.634 76.906L99.894 77.212C99.282 78.616 98.31 80.02 97.392 80.92C97.158 80.722 96.6 80.38 96.276 80.218C97.266 79.39 98.112 78.148 98.634 76.906ZM103.332 77.23L104.394 76.726C105.366 77.788 106.428 79.282 106.878 80.29L105.726 80.884C105.33 79.894 104.304 78.346 103.332 77.23ZM93.216 77.374H94.53V92.404H93.216V77.374ZM90.264 80.956H96.798V82.234H90.264V80.956ZM93.288 81.442L94.134 81.802C93.414 84.34 91.974 87.49 90.588 89.164C90.462 88.786 90.138 88.228 89.904 87.922C91.2 86.482 92.64 83.674 93.288 81.442ZM95.88 76.15L96.834 77.194C95.178 77.86 92.658 78.364 90.57 78.652C90.498 78.346 90.318 77.914 90.156 77.608C92.19 77.266 94.566 76.762 95.88 76.15ZM94.476 83.278C94.926 83.674 96.618 85.384 96.978 85.834L96.186 86.896C95.754 86.158 94.404 84.448 93.846 83.818L94.476 83.278ZM113.88 85.474H126.138V86.662H113.88V85.474ZM111.558 78.976H123.33V80.218H111.558V78.976ZM116.634 82.216H124.878V83.422H116.634V82.216ZM125.562 85.474H126.912C126.912 85.474 126.894 85.87 126.858 86.068C126.534 89.866 126.192 91.36 125.616 91.954C125.274 92.296 124.932 92.422 124.392 92.458C123.942 92.494 123.042 92.476 122.106 92.44C122.088 92.062 121.944 91.54 121.728 91.18C122.628 91.288 123.492 91.288 123.834 91.288C124.176 91.288 124.356 91.252 124.518 91.108C124.932 90.694 125.274 89.272 125.562 85.69V85.474ZM121.566 87.634L122.52 87.274C123.096 88.012 123.654 89.02 123.888 89.668L122.898 90.082C122.664 89.434 122.106 88.39 121.566 87.634ZM113.79 76.42L114.96 75.934C115.662 76.654 116.454 77.68 116.814 78.364L115.554 78.94C115.248 78.238 114.492 77.176 113.79 76.42ZM116.238 88.084L117.336 87.94C117.696 89.074 117.894 90.568 117.894 91.54L116.706 91.702C116.742 90.73 116.544 89.254 116.238 88.084ZM118.884 87.922L119.946 87.67C120.414 88.66 120.864 89.938 121.008 90.784L119.892 91.09C119.766 90.226 119.334 88.912 118.884 87.922ZM113.934 87.67L115.068 88.048C114.654 89.542 114.024 91.252 112.926 92.35L111.882 91.612C112.89 90.658 113.574 89.056 113.934 87.67ZM119.244 75.88L120.612 76.222C118.974 81.262 116.148 86.014 111.378 88.84C111.216 88.516 110.874 87.976 110.64 87.688C115.104 85.15 117.876 80.542 119.244 75.88ZM123.024 78.976H124.302C124.05 80.218 123.726 81.712 123.456 82.684L122.268 82.522C122.52 81.568 122.826 80.128 123.024 78.976ZM124.374 82.216H125.652C125.4 83.458 125.094 84.97 124.842 85.942L123.618 85.798C123.888 84.826 124.194 83.368 124.374 82.216ZM142.644 76.024H143.904V90.316H142.644V76.024ZM138.792 79.876H148.224V80.92H138.792V79.876ZM139.188 87.22H147.882V88.264H139.188V87.22ZM139.728 84.754H147.378V85.798H139.728V84.754ZM135.642 77.374H138.252V78.508H135.642V77.374ZM136.326 82.432H138.63V83.476H136.326V82.432ZM137.964 77.374H138.126L138.342 77.32L139.206 77.554C138.468 79.426 137.244 82.216 136.272 84.322L135.138 84.052C136.128 81.964 137.37 79.012 137.964 77.536V77.374ZM138.27 82.432H138.504L138.72 82.396L139.44 82.54C139.008 87.526 137.73 90.64 135.498 92.386C135.336 92.098 134.994 91.648 134.724 91.396C136.668 89.974 137.91 86.932 138.27 82.648V82.432ZM136.398 84.934C137.37 89.812 139.602 90.892 143.274 90.892C143.85 90.892 147.504 90.892 148.278 90.874C148.08 91.18 147.882 91.756 147.81 92.116H143.22C138.918 92.116 136.542 90.838 135.354 85.258L136.398 84.934ZM140.016 77.464H147.144V83.386H140.016V82.324H145.974V78.508H140.016V77.464ZM134.706 75.988L135.93 76.33C134.994 79.3 133.5 82.324 131.844 84.322C131.718 84.016 131.376 83.278 131.16 82.936C132.636 81.226 133.932 78.634 134.706 75.988ZM133.428 80.542L134.616 79.354L134.634 79.372V92.404H133.428V80.542ZM155.352 82.486H168.78V83.512H155.352V82.486ZM156.63 80.164H166.998V85.906H156.486V84.916H165.72V81.154H156.63V80.164ZM160.842 78.886H162.156V90.892C162.156 91.738 161.94 92.08 161.382 92.26C160.806 92.458 159.834 92.476 158.358 92.476C158.286 92.152 158.106 91.63 157.908 91.288C159.024 91.324 160.122 91.306 160.428 91.288C160.752 91.288 160.842 91.198 160.842 90.892V78.886ZM155.802 86.878L156.576 86.14C157.512 86.662 158.664 87.454 159.276 87.994L158.448 88.822C157.89 88.264 156.738 87.436 155.802 86.878ZM166.782 86.23L167.772 87.022C166.692 87.832 165.288 88.678 164.19 89.2L163.416 88.516C164.478 87.94 165.936 86.95 166.782 86.23ZM162.444 85.546C163.398 88.264 165.486 90.334 168.42 91.18C168.132 91.432 167.772 91.918 167.592 92.26C164.568 91.234 162.462 88.93 161.4 85.798L162.444 85.546ZM154.848 90.64C156.072 90.244 157.926 89.56 159.726 88.894L159.96 89.884C158.412 90.55 156.792 91.216 155.496 91.738L154.848 90.64ZM160.32 75.898H161.706V78.184H160.32V75.898ZM154.272 77.554H168.564V78.742H154.272V77.554ZM153.624 77.554H154.902V82.864C154.902 85.69 154.668 89.776 153.156 92.512C152.922 92.278 152.364 91.918 152.058 91.792C153.498 89.182 153.624 85.51 153.624 82.864V77.554ZM172.992 83.242H189.462V84.718H172.992V83.242ZM202.404 84.448H209.478V92.368H208.182V85.69H203.646V92.44H202.404V84.448ZM205.014 75.916H206.346V84.844H205.014V75.916ZM205.788 79.822H210.198V81.082H205.788V79.822ZM203.052 90.352H208.812V91.594H203.052V90.352ZM195.348 77.536V81.892H200.298V77.536H195.348ZM194.286 76.546H201.396V82.882H194.286V76.546ZM195.6 78.418L196.284 78.238C196.59 79.12 196.824 80.254 196.878 80.974L196.176 81.19C196.14 80.434 195.906 79.3 195.6 78.418ZM196.212 88.732L197.094 88.606C197.382 89.596 197.562 90.892 197.58 91.738L196.644 91.864C196.644 91.018 196.464 89.722 196.212 88.732ZM197.94 88.624L198.804 88.444C199.218 89.344 199.614 90.55 199.74 91.342L198.822 91.54C198.714 90.748 198.336 89.542 197.94 88.624ZM199.65 88.372L200.496 88.048C201.144 88.876 201.792 89.992 202.062 90.73L201.162 91.144C200.892 90.37 200.262 89.218 199.65 88.372ZM194.682 88.66L195.636 88.912C195.456 90.244 195.168 91.648 194.394 92.458L193.476 91.954C194.178 91.216 194.52 89.902 194.682 88.66ZM199.29 78.184L200.082 78.49C199.758 79.408 199.398 80.578 199.092 81.298L198.498 81.064C198.768 80.29 199.128 79.012 199.29 78.184ZM193.764 86.752C195.762 86.662 198.822 86.518 201.81 86.338L201.774 87.418C198.894 87.634 195.906 87.814 193.836 87.94L193.764 86.752ZM194.16 84.106H201.522V85.204H194.16V84.106ZM197.31 77.014H198.228V82.414H198.372V87.058H197.166V82.414H197.31V77.014ZM220.998 76.726H222.258V82.9C222.258 85.798 221.97 89.74 219.756 92.296C219.54 92.062 219 91.72 218.694 91.576C220.8 89.128 220.998 85.6 220.998 82.9V76.726ZM223.752 82.432H225.03V90.244C225.03 90.892 225.174 91.018 225.93 91.018C226.29 91.018 228.18 91.018 228.648 91.018C229.35 91.018 229.458 90.622 229.548 88.48C229.818 88.714 230.358 88.93 230.718 89.002C230.556 91.522 230.196 92.224 228.738 92.224C228.378 92.224 226.164 92.224 225.822 92.224C224.184 92.224 223.752 91.81 223.752 90.262V82.432ZM229.35 83.566L230.394 84.52C228.864 85.618 226.65 86.68 224.652 87.49C224.562 87.22 224.364 86.788 224.184 86.518C226.074 85.708 228.198 84.574 229.35 83.566ZM221.736 76.726H230.034V81.748H221.736V80.524H228.756V77.95H221.736V76.726ZM215.544 77.536H219.45V88.012H215.544V86.716H218.244V78.832H215.544V77.536ZM214.878 77.536H216.102V89.434H214.878V77.536ZM237.675 87.2351V87.1136C237.684 86.321 237.762 85.6903 237.912 85.2216C238.065 84.7528 238.282 84.3736 238.563 84.0838C238.845 83.794 239.184 83.5298 239.58 83.2912C239.836 83.1293 240.066 82.9482 240.27 82.7479C240.475 82.5476 240.637 82.3175 240.756 82.0575C240.875 81.7976 240.935 81.5099 240.935 81.1946C240.935 80.8153 240.845 80.4872 240.666 80.2102C240.488 79.9332 240.249 79.7202 239.951 79.571C239.657 79.4176 239.328 79.3409 238.966 79.3409C238.638 79.3409 238.325 79.4091 238.027 79.5455C237.728 79.6818 237.481 79.8949 237.285 80.1847C237.089 80.4702 236.976 80.8388 236.946 81.2905H235.003C235.033 80.5234 235.227 79.8757 235.585 79.3473C235.943 78.8146 236.416 78.4119 237.004 78.1392C237.596 77.8665 238.25 77.7301 238.966 77.7301C239.75 77.7301 240.436 77.8771 241.024 78.1712C241.613 78.4609 242.068 78.8679 242.392 79.392C242.72 79.9119 242.885 80.5192 242.885 81.2138C242.885 81.6911 242.81 82.1214 242.661 82.505C242.512 82.8842 242.299 83.223 242.022 83.5213C241.749 83.8196 241.421 84.0838 241.037 84.3139C240.675 84.5398 240.381 84.7741 240.155 85.017C239.934 85.2599 239.772 85.5476 239.669 85.88C239.567 86.2124 239.512 86.6236 239.503 87.1136V87.2351H237.675ZM238.64 91.1214C238.291 91.1214 237.99 90.9979 237.739 90.7507C237.488 90.4993 237.362 90.1967 237.362 89.843C237.362 89.4936 237.488 89.1953 237.739 88.9482C237.99 88.6967 238.291 88.571 238.64 88.571C238.985 88.571 239.284 88.6967 239.535 88.9482C239.791 89.1953 239.919 89.4936 239.919 89.843C239.919 90.0774 239.859 90.2926 239.74 90.4886C239.625 90.6804 239.471 90.8338 239.279 90.9489C239.088 91.0639 238.875 91.1214 238.64 91.1214Z" fill="#525252"/>
</svg>
