<?xml version="1.0" encoding="utf-8"?>
<!-- Generator: Adobe Illustrator 27.7.0, SVG Export Plug-In . SVG Version: 6.00 Build 0)  -->
<svg version="1.1" xmlns="http://www.w3.org/2000/svg" xmlns:xlink="http://www.w3.org/1999/xlink" x="0px" y="0px"
	 viewBox="0 0 399.7 600" style="enable-background:new 0 0 399.7 600;" xml:space="preserve">
<style type="text/css">
	.st0{display:none;}
	.st1{display:inline;fill:#EFD29E;}
	.st2{display:inline;fill:url(#SVGID_1_);}
	.st3{display:inline;fill:url(#SVGID_00000041988599991969981790000016683993497514468246_);}
	.st4{display:inline;}
	.st5{fill:#E1B654;}
	.st6{fill:#F1C977;}
	.st7{fill:#C69D4C;}
	.st8{fill:none;stroke:#75B059;stroke-width:6;stroke-miterlimit:10;}
	.st9{display:inline;fill:#C9481B;}
	.st10{display:inline;fill:#373838;}
	.st11{display:inline;fill:#E1B654;}
	.st12{display:inline;fill:url(#SVGID_00000151544397282466293930000005646034577018833551_);}
	.st13{display:inline;fill:url(#SVGID_00000178899553311839417740000008554160192166105986_);}
	.st14{display:inline;fill:none;stroke:#EF843E;stroke-width:6;stroke-miterlimit:10;}
	.st15{display:inline;fill:none;stroke:#F2F2F2;stroke-width:3;stroke-miterlimit:10;}
	.st16{fill:#F4F4F4;}
	.st17{display:inline;fill:url(#SVGID_00000087370673736283374390000007431832595189512578_);}
	.st18{display:inline;fill:url(#SVGID_00000019648416716241711540000015971492636983223986_);}
	.st19{display:inline;fill:url(#SVGID_00000178194688932059203560000017146181585954549642_);}
	.st20{display:inline;fill:#F9F9FA;}
	.st21{display:inline;fill:#F9F9FA;stroke:url(#SVGID_00000073715679203321034500000016644398841117554569_);stroke-miterlimit:10;}
	.st22{display:inline;fill:#F4F4F4;}
	.st23{display:inline;fill:#848484;}
	.st24{display:inline;fill:url(#SVGID_00000031891733255367045250000000193054938472148666_);}
	.st25{display:inline;fill:url(#SVGID_00000101782360277747924720000003914933640983749526_);}
	.st26{display:inline;fill:none;stroke:#DB8D7D;stroke-width:4;stroke-miterlimit:10;}
	.st27{display:inline;fill:none;stroke:#848484;stroke-width:3;stroke-miterlimit:10;}
	.st28{display:inline;fill:#C1912F;}
	.st29{display:inline;fill:#2E6637;}
	.st30{display:inline;fill:#FFF9F0;}
	.st31{display:inline;fill:#F4EBE1;}
	.st32{display:inline;fill:#FFDE52;}
	.st33{display:inline;fill:#6D5016;}
	.st34{fill:#848484;}
	.st35{fill:none;stroke:#FFFFFF;stroke-width:3;stroke-miterlimit:10;}
	.st36{display:inline;fill:url(#SVGID_00000160181497313780997520000017077962457255683254_);}
	.st37{fill:#FFF2E1;}
	.st38{fill:#F4EBE1;}
	.st39{fill:#EFDCC7;}
	.st40{fill:#B56340;}
	.st41{display:inline;fill:url(#SVGID_00000150809591153411549580000015263365008229597312_);}
	.st42{display:inline;fill:#FFE6B3;}
	.st43{display:inline;fill:none;stroke:#C69D4C;stroke-width:5;stroke-miterlimit:10;}
	.st44{fill:url(#SVGID_00000169552002122143959980000011872354891213096111_);}
	.st45{fill:url(#SVGID_00000148642597921144691090000016829670528386975113_);}
	.st46{fill:#C9481B;}
	.st47{fill:#373838;}
	.st48{fill:none;stroke:#EF843E;stroke-width:6;stroke-miterlimit:10;}
	.st49{fill:none;stroke:#F2F2F2;stroke-width:3;stroke-miterlimit:10;}
	.st50{fill:url(#SVGID_00000034772708404380152910000009871499146669476491_);}
	.st51{fill:url(#SVGID_00000101795046823930479590000001536844432577377171_);}
	.st52{fill:url(#SVGID_00000077324171483061856780000006729401775954583714_);}
	.st53{fill:#F9F9FA;}
	.st54{fill:#F9F9FA;stroke:url(#SVGID_00000161595885429652481890000016062790437702902462_);stroke-miterlimit:10;}
	.st55{fill:none;stroke:#DB8D7D;stroke-width:4;stroke-miterlimit:10;}
	.st56{fill:none;stroke:#848484;stroke-width:3;stroke-miterlimit:10;}
	.st57{fill:url(#SVGID_00000079474661858304557460000007875400071293686711_);}
	.st58{fill:url(#SVGID_00000097464237807714614800000000152535629058085038_);}
	.st59{display:inline;fill:none;stroke:#C69D4C;stroke-width:10;stroke-miterlimit:10;}
</style>
<g id="圖層_1" class="st0">
	<path class="st1" d="M-443.3,461.77c-3.24,3.29-8.74,2.54-10.97-1.51c-5.74-10.4-15.02-23.87-29.61-36.23
		c-19.64-16.64-40.18-23.9-53.93-27.2c-4.59-1.1-6.76-6.36-4.27-10.38c12.46-20.14,27.09-41.6,44.22-63.71
		c13.58-17.52,27.12-33.37,40.24-47.63c3-3.26,8.26-2.89,10.77,0.77c7.53,10.94,18.92,24.71,35.43,37.51
		c18.06,14,35.81,21.86,49.05,26.34c4.11,1.39,5.92,6.2,3.77,9.98c-9.59,16.91-21.18,35.2-35.18,54.14
		C-410.53,426.53-427.5,445.74-443.3,461.77z"/>
	
		<linearGradient id="SVGID_1_" gradientUnits="userSpaceOnUse" x1="43.6289" y1="595.8607" x2="56.8248" y2="456.1756" gradientTransform="matrix(0.5615 0.6687 -0.7091 0.0854 412.4316 386.2512)">
		<stop  offset="0" style="stop-color:#EFD5B6"/>
		<stop  offset="0.9926" style="stop-color:#E2BEA6"/>
	</linearGradient>
	<path class="st2" d="M28.64,505.79L28.64,505.79c-13.45-7.77-18.06-24.97-10.29-38.42l26.57-46.02l48.72,28.13L67.06,495.5
		C59.29,508.95,42.09,513.56,28.64,505.79z"/>
	
		<linearGradient id="SVGID_00000028286754207513196590000014605559364178932871_" gradientUnits="userSpaceOnUse" x1="89.2899" y1="238.3643" x2="102.4858" y2="98.6792" gradientTransform="matrix(-0.5615 0.6687 0.7091 0.0854 258.2621 386.2512)">
		<stop  offset="0" style="stop-color:#EFD5B6"/>
		<stop  offset="0.9926" style="stop-color:#E2BEA6"/>
	</linearGradient>
	<path style="display:inline;fill:url(#SVGID_00000028286754207513196590000014605559364178932871_);" d="M362.91,505.79
		L362.91,505.79c13.45-7.77,18.06-24.97,10.29-38.42l-26.57-46.02l-48.72,28.13l26.57,46.02
		C332.25,508.95,349.46,513.56,362.91,505.79z"/>
	<g id="_x31__00000034075049636515347750000010563476437515070631_" class="st4">
		<g>
			<path class="st5" d="M-768.64,189.48c0.3-5.55-0.2-11.19-1.5-16.67c-0.81-3.41-2.04-6.94-4.62-9.26c-2.34-2.1-5.45-2.9-8.42-3.62
				c-2.26-0.55-4.52-1.1-6.78-1.65c-1.01-0.25-2.19-0.45-2.93,0.25c-0.68,0.64-0.67,1.76-0.61,2.74c0.41,7.12,1.15,14.99,6.16,20.08
				c3,3.05,7.06,4.56,10.97,5.97c2.58,0.94,5.17,1.87,7.75,2.81"/>
		</g>
		<g>
			<path class="st6" d="M-758.02,186.17c4.42-3.37,8.38-7.42,11.7-11.96c2.07-2.83,3.96-6.06,4.04-9.53
				c0.08-3.15-1.34-6.02-2.71-8.75c-1.05-2.08-2.1-4.15-3.15-6.23c-0.47-0.93-1.08-1.96-2.09-2.07c-0.93-0.1-1.77,0.63-2.48,1.31
				c-5.14,4.94-10.65,10.61-11.27,17.72c-0.37,4.26,1.12,8.33,2.58,12.22c0.97,2.57,1.93,5.15,2.9,7.72"/>
		</g>
		<g>
			<path class="st5" d="M-749.68,219.71c5.52-0.65,10.99-2.12,16.16-4.34c3.22-1.38,6.49-3.2,8.33-6.15
				c1.67-2.67,1.92-5.87,2.12-8.91c0.15-2.32,0.31-4.64,0.46-6.96c0.07-1.04,0.07-2.24-0.75-2.85c-0.75-0.56-1.85-0.36-2.8-0.13
				c-6.94,1.63-14.57,3.71-18.72,9.52c-2.48,3.48-3.27,7.74-4,11.83c-0.48,2.71-0.96,5.41-1.43,8.12"/>
		</g>
		<g>
			<path class="st5" d="M-756.84,245.1c5.48,0.94,11.14,1.08,16.73,0.42c3.48-0.41,7.13-1.23,9.73-3.53
				c2.36-2.09,3.5-5.08,4.56-7.95c0.81-2.18,1.61-4.36,2.42-6.55c0.36-0.97,0.7-2.13,0.09-2.94c-0.56-0.75-1.67-0.87-2.65-0.92
				c-7.12-0.41-15.03-0.58-20.66,3.81c-3.37,2.63-5.34,6.49-7.19,10.21c-1.23,2.46-2.45,4.92-3.68,7.38"/>
		</g>
		<g>
			<path class="st5" d="M-749.84,223.1c-0.43-5.54-1.67-11.07-3.67-16.33c-1.25-3.27-2.93-6.61-5.8-8.58
				c-2.6-1.78-5.78-2.16-8.82-2.48c-2.31-0.25-4.63-0.5-6.94-0.75c-1.03-0.11-2.23-0.16-2.87,0.63c-0.59,0.73-0.43,1.83-0.25,2.8
				c1.34,7,3.11,14.71,8.74,19.1c3.37,2.63,7.6,3.59,11.66,4.48c2.68,0.59,5.37,1.18,8.05,1.77"/>
		</g>
		<g>
			<path class="st5" d="M-771.36,225.98c-0.43-5.54-1.67-11.07-3.67-16.33c-1.25-3.27-2.93-6.61-5.8-8.58
				c-2.6-1.78-5.78-2.16-8.82-2.48c-2.31-0.25-4.63-0.5-6.94-0.75c-1.03-0.11-2.23-0.16-2.87,0.63c-0.59,0.73-0.43,1.83-0.25,2.8
				c1.34,7,3.11,14.71,8.74,19.1c3.37,2.63,7.6,3.59,11.66,4.48c2.68,0.59,5.37,1.18,8.06,1.77"/>
		</g>
		<g>
			<path class="st7" d="M-764.15,262.88c-0.43-5.54-1.67-11.07-3.67-16.33c-1.25-3.27-2.93-6.61-5.8-8.58
				c-2.6-1.78-5.78-2.16-8.82-2.48c-2.31-0.25-4.63-0.5-6.94-0.75c-1.03-0.11-2.23-0.16-2.87,0.63c-0.59,0.73-0.43,1.83-0.25,2.8
				c1.34,7,3.11,14.71,8.74,19.1c3.37,2.63,7.6,3.59,11.66,4.48c2.68,0.59,5.37,1.18,8.06,1.77"/>
		</g>
		<line class="st8" x1="-766.22" y1="365.94" x2="-770.88" y2="186.78"/>
		<path class="st8" d="M-758.98,361.65c2.85-26.13,4.78-55,5.01-86.22c0.25-33.86-1.53-65.03-4.38-93.01"/>
		<g>
			<path class="st5" d="M-769.8,265.88c5.46-1.02,10.82-2.86,15.83-5.42c3.12-1.6,6.26-3.63,7.9-6.69c1.48-2.78,1.52-5.98,1.51-9.04
				c0-2.33-0.01-4.65-0.01-6.98c0-1.04-0.08-2.24-0.94-2.79c-0.79-0.51-1.87-0.23-2.81,0.06c-6.81,2.09-14.29,4.68-18.04,10.76
				c-2.25,3.64-2.75,7.94-3.19,12.08c-0.29,2.73-0.59,5.47-0.88,8.2"/>
		</g>
		<g>
			<path class="st7" d="M-769.8,235.35c5.46-1.02,10.82-2.86,15.83-5.42c3.12-1.6,6.26-3.63,7.9-6.69c1.48-2.78,1.52-5.98,1.51-9.04
				c0-2.33-0.01-4.65-0.01-6.98c0-1.04-0.08-2.24-0.94-2.79c-0.79-0.51-1.87-0.23-2.81,0.06c-6.81,2.09-14.29,4.68-18.04,10.76
				c-2.25,3.64-2.75,7.94-3.19,12.08c-0.29,2.73-0.59,5.47-0.88,8.2"/>
		</g>
	</g>
	<path class="st9" d="M321.96,574.01H69.59V407.6c0-51,41.34-92.34,92.34-92.34h67.69c51,0,92.34,41.34,92.34,92.34V574.01z"/>
	<path class="st10" d="M-295.14,447.86c0,0-37.47,108.07-103.03,149.86c0,0,55.48,33.14,46.11,83.57s-113.11,21.37-80.69-105.67
		S-233.9,429.85-233.9,429.85s159.49,57.01,110.85,150.81c-0.72,1.4-2.8,0.84-2.81-0.73c-0.06-19.56-2.85-58.57-46.09-72.98
		C-171.94,506.94-254.07,480.28-295.14,447.86z"/>
	<path class="st11" d="M-387.15,159.14c0,0,110.85-177.73,285.66-146.93c0,0-70.15-93.96-188.74-13.8
		C-290.23-1.59-410.83,13.9-387.15,159.14z"/>
	
		<linearGradient id="SVGID_00000101824808041014682510000000661595605954555308_" gradientUnits="userSpaceOnUse" x1="-421.7413" y1="103.9548" x2="-351.6673" y2="103.9548" gradientTransform="matrix(0.9385 0.3453 -0.3453 0.9385 124.4091 13.2052)">
		<stop  offset="0" style="stop-color:#F8D481"/>
		<stop  offset="1" style="stop-color:#EFEDE5"/>
	</linearGradient>
	<path style="display:inline;fill:url(#SVGID_00000101824808041014682510000000661595605954555308_);" d="M-241.86-9.75
		c-0.64-23.07-16.96-41.41-36.65-41.06c-19.69,0.36-35.33,19.28-35.13,42.36c5.9-3.46,20.15-10.73,39.43-10.1
		C-259.12-18.05-247.76-12.94-241.86-9.75z"/>
	
		<linearGradient id="SVGID_00000108309931696684598550000004215475879846972313_" gradientUnits="userSpaceOnUse" x1="-521.5718" y1="140.6879" x2="-451.4978" y2="140.6879" gradientTransform="matrix(0.9385 0.3453 -0.3453 0.9385 124.4091 13.2052)">
		<stop  offset="0" style="stop-color:#F8D481"/>
		<stop  offset="1" style="stop-color:#EFEDE5"/>
	</linearGradient>
	<path style="display:inline;fill:url(#SVGID_00000108309931696684598550000004215475879846972313_);" d="M-348.24-9.75
		c-0.64-23.07-16.96-41.41-36.65-41.06c-19.69,0.36-35.33,19.28-35.13,42.36c5.06-3.37,17.09-10.38,33.97-11.12
		C-367.14-20.4-353.35-12.88-348.24-9.75z"/>
	<path class="st10" d="M106.78,330.86c0,0-58.86,48.52-88.14,97.06l52.4,20.8c0,0-2.54-40.39,55.44-105.49L106.78,330.86z"/>
	<path class="st10" d="M286.74,329.88c0,0,58.86,48.52,88.14,97.06l-52.4,20.8c0,0,2.54-40.39-55.44-105.49L286.74,329.88z"/>
	<polygon class="st10" points="131.69,342.4 153.38,379.59 192.67,361.02 236.45,380.25 257.79,343.19 	"/>
	<path class="st14" d="M172.72,272.31c13.49,11.59,33.01,5.45,39.89-0.6"/>
	<path class="st15" d="M71.04,448.73c0,0,2.84-55.88,55.44-105.49"/>
	<path class="st15" d="M320.96,448.73c0,0-2.84-55.88-55.44-105.49"/>
	<g class="st4">
		<polygon class="st16" points="284.99,393.84 262.44,397.39 254.36,333.99 273.19,331.02 		"/>
		<polygon class="st16" points="129.5,397.39 106.78,395.18 114.65,333.67 133.63,335.52 		"/>
		<polygon class="st16" points="302.42,574.01 89.12,574.01 106.67,392.81 284.88,392.81 		"/>
	</g>
	
		<linearGradient id="SVGID_00000146498661418639062850000007904687024270761106_" gradientUnits="userSpaceOnUse" x1="18.6471" y1="233.6134" x2="89.5515" y2="233.6134">
		<stop  offset="0" style="stop-color:#EFD5B6"/>
		<stop  offset="0.9926" style="stop-color:#E2BEA6"/>
	</linearGradient>
	
		<ellipse style="display:inline;fill:url(#SVGID_00000146498661418639062850000007904687024270761106_);" cx="54.1" cy="233.61" rx="35.45" ry="41.66"/>
	
		<linearGradient id="SVGID_00000084496998046051016850000014048227059076859523_" gradientUnits="userSpaceOnUse" x1="271.0143" y1="235.9261" x2="341.9187" y2="235.9261" gradientTransform="matrix(-1 0 0 -1 643.9126 465.0806)">
		<stop  offset="0" style="stop-color:#EFD5B6"/>
		<stop  offset="0.9926" style="stop-color:#E2BEA6"/>
	</linearGradient>
	
		<ellipse style="display:inline;fill:url(#SVGID_00000084496998046051016850000014048227059076859523_);" cx="337.45" cy="229.15" rx="35.45" ry="41.66"/>
	
		<linearGradient id="SVGID_00000145056545551204338340000010754745868052665769_" gradientUnits="userSpaceOnUse" x1="317.9453" y1="295.9489" x2="73.0227" y2="126.7077">
		<stop  offset="0" style="stop-color:#EFD5B6"/>
		<stop  offset="0.9926" style="stop-color:#E2BEA6"/>
	</linearGradient>
	
		<circle style="display:inline;fill:url(#SVGID_00000145056545551204338340000010754745868052665769_);" cx="195.48" cy="211.33" r="148.84"/>
	<ellipse class="st20" cx="251.55" cy="222.24" rx="35.45" ry="41.66"/>
	
		<linearGradient id="SVGID_00000094590016475713293550000010547971097382913160_" gradientUnits="userSpaceOnUse" x1="108.7121" y1="222.2434" x2="180.6165" y2="222.2434">
		<stop  offset="0" style="stop-color:#EFD5B6"/>
		<stop  offset="0.9926" style="stop-color:#E2BEA6"/>
	</linearGradient>
	
		<ellipse style="display:inline;fill:#F9F9FA;stroke:url(#SVGID_00000094590016475713293550000010547971097382913160_);stroke-miterlimit:10;" cx="144.66" cy="222.24" rx="35.45" ry="41.66"/>
	<ellipse class="st10" cx="244.85" cy="240.32" rx="8.53" ry="11.37"/>
	<ellipse class="st10" cx="148.95" cy="240.32" rx="8.53" ry="11.37"/>
	<path class="st22" d="M322.51,117.69l-254.06-1.95l16.08-48.57c9.02-27.26,37.87-45.82,70.82-45.57l78.78,0.61
		c32.95,0.25,62.09,19.26,71.54,46.67L322.51,117.69z"/>
	<path class="st23" d="M47.48,227.17c0,0-8.96-36.65,13.37-80.73s63.66-92.7,111.87-88.28s182.69,36.2,171.06,165.79
		c0,0-9.42-130.75-155.27-130.59S47.48,227.17,47.48,227.17z"/>
	<path class="st22" d="M337.36,160.26c-41.05-5.62-87.74-9.53-139.14-9.66c-53.52-0.13-102.01,3.86-144.4,9.66
		c-3.56-13.64-7.09-32.53-7.18-55.18c-0.06-15.35,1.48-29.03,3.59-40.6C52,54.82,59.57,47.6,68.77,46.67
		c38.23-3.86,80.03-6.33,124.94-6.39c46.86-0.07,90.38,2.48,130,6.53c8.66,0.88,15.91,7.34,18.2,16.26
		c2.69,10.44,4.92,23.36,5.19,38.23C347.57,127.16,341.87,147.74,337.36,160.26z"/>
	
		<linearGradient id="SVGID_00000142862664895800702910000008253967756650555311_" gradientUnits="userSpaceOnUse" x1="-158.5393" y1="616.9865" x2="-88.7974" y2="616.9865" gradientTransform="matrix(0.9302 0.3672 -0.3672 0.9302 84.9407 -57.1417)">
		<stop  offset="0" style="stop-color:#EFD5B6"/>
		<stop  offset="0.9926" style="stop-color:#E2BEA6"/>
	</linearGradient>
	<path style="display:inline;fill:url(#SVGID_00000142862664895800702910000008253967756650555311_);" d="M-224.55,485.06
		c-0.1-22.97-15.91-41.6-35.51-41.7c-19.6-0.1-35.6,18.36-35.94,41.33L-224.55,485.06z"/>
	
		<linearGradient id="SVGID_00000064329074194218049380000010598477731517084065_" gradientUnits="userSpaceOnUse" x1="-257.8002" y1="656.0178" x2="-188.9499" y2="656.0178" gradientTransform="matrix(0.9302 0.3672 -0.3672 0.9302 84.9407 -57.1417)">
		<stop  offset="0" style="stop-color:#EFD5B6"/>
		<stop  offset="0.9926" style="stop-color:#E2BEA6"/>
	</linearGradient>
	<path style="display:inline;fill:url(#SVGID_00000064329074194218049380000010598477731517084065_);" d="M-331.89,484.21
		c-0.5-22.38-16.02-40.39-35.21-40.48c-19.19-0.1-34.9,17.74-35.63,40.12L-331.89,484.21z"/>
	<path class="st26" d="M146.76,285.87c10.72,3.45,26.14,7.12,44.93,7.41c21.1,0.32,38.28-3.75,49.65-7.41"/>
	<line class="st27" x1="290.8" y1="238.24" x2="308.32" y2="229.15"/>
	<line class="st27" x1="293.24" y1="245.45" x2="318.29" y2="240.32"/>
	<line class="st27" x1="106.78" y1="238.24" x2="89.26" y2="229.15"/>
	<line class="st27" x1="104.34" y1="245.45" x2="79.29" y2="240.32"/>
	<path class="st28" d="M591.07,713.01h-70.65c-6.6,0-12-5.4-12-12v-19.46c0-1.72,1.41-3.13,3.13-3.13h88.39
		c1.72,0,3.13,1.41,3.13,3.13v19.46C603.07,707.61,597.67,713.01,591.07,713.01z"/>
	<circle class="st29" cx="187.27" cy="666.46" r="49.04"/>
	<circle class="st30" cx="187.27" cy="666.46" r="36.76"/>
	<ellipse class="st31" cx="172.72" cy="654.09" rx="10.68" ry="5.86"/>
	<ellipse class="st31" cx="197.18" cy="655.97" rx="10.68" ry="5.86"/>
	<ellipse class="st31" cx="180.37" cy="692.04" rx="10.68" ry="5.86"/>
	<circle class="st32" cx="173.77" cy="673.56" r="11.73"/>
	<path class="st33" d="M196.79,657.25h-17.14c-3.82,0-6.92-3.1-6.92-6.92v-2.91c0-3.82,3.1-6.92,6.92-6.92h17.14
		c3.82,0,6.92,3.1,6.92,6.92v2.91C203.71,654.15,200.61,657.25,196.79,657.25z"/>
	<g class="st4">
		<ellipse class="st34" cx="708.09" cy="407.84" rx="65.94" ry="64.6"/>
		<ellipse class="st35" cx="708.09" cy="408.16" rx="56.67" ry="55.52"/>
	</g>
	
		<linearGradient id="SVGID_00000164494926733820032260000009065071983583142583_" gradientUnits="userSpaceOnUse" x1="224.2395" y1="699.7267" x2="234.1573" y2="594.7415" gradientTransform="matrix(0.477 -0.9816 1.1475 0.2781 -787.7733 517.9532)">
		<stop  offset="0" style="stop-color:#EFD5B6"/>
		<stop  offset="0.9926" style="stop-color:#E2BEA6"/>
	</linearGradient>
	<path style="display:inline;fill:url(#SVGID_00000164494926733820032260000009065071983583142583_);" d="M154.44,459.53
		L154.44,459.53c4.1,14.98-4.71,30.45-19.69,34.56l-89.08,24.41c-14.98,4.1-30.45-4.71-34.56-19.69l0,0
		c-4.1-14.98,4.71-30.45,19.69-34.56l89.08-24.41C134.86,435.73,150.33,444.54,154.44,459.53z"/>
	<g class="st4">
		<path class="st37" d="M225.04,489.39h-63.36c-6.6,0-12-5.4-12-12v-22.81c0-6.6,5.4-12,12-12h63.36c6.6,0,12,5.4,12,12v22.81
			C237.04,483.99,231.64,489.39,225.04,489.39z"/>
		<ellipse class="st38" cx="163.1" cy="452.84" rx="10.68" ry="5.86"/>
		<ellipse class="st38" cx="187.56" cy="454.72" rx="10.68" ry="5.86"/>
		<ellipse class="st38" cx="208.63" cy="442.93" rx="10.68" ry="5.86"/>
		
			<ellipse transform="matrix(0.8544 -0.5197 0.5197 0.8544 -219.4666 146.9281)" class="st39" cx="152.42" cy="465.05" rx="5.68" ry="9.53"/>
		
			<ellipse transform="matrix(0.9989 -0.0479 0.0479 0.9989 -21.8889 10.3658)" class="st39" cx="205.37" cy="461.96" rx="5.86" ry="10.68"/>
		
			<ellipse transform="matrix(0.5105 -0.8599 0.8599 0.5105 -329.9651 382.5345)" class="st39" cx="170.99" cy="481.07" rx="5.31" ry="10.2"/>
		
			<ellipse transform="matrix(0.9645 -0.2643 0.2643 0.9645 -113.8112 75.105)" class="st39" cx="222.26" cy="460.58" rx="5.86" ry="10.68"/>
		
			<ellipse transform="matrix(0.9132 -0.4076 0.4076 0.9132 -176.7145 119.7362)" class="st39" cx="192.67" cy="474.62" rx="10.36" ry="5.22"/>
		
			<ellipse transform="matrix(0.866 -0.5 0.5 0.866 -211.2186 151.3856)" class="st39" cx="176.88" cy="469.83" rx="10.68" ry="5.86"/>
		
			<ellipse transform="matrix(0.9132 -0.4076 0.4076 0.9132 -175.597 130.1932)" class="st39" cx="217.77" cy="477.23" rx="10.36" ry="5.22"/>
		<path class="st40" d="M147.1,437.72c10.1-3.55,25.9-7.78,45.59-7.78c19.67,0,35.45,4.23,45.54,7.78c0.81,0,5.05,0.1,8.47,3.53
			c2.17,2.17,3.53,5.17,3.53,8.47v19.46c0,1.72-1.41,3.13-3.13,3.13c-12.7-3.76-30.26-7.52-51.36-7.86
			c-24.05-0.39-43.86,3.83-57.51,7.86c-0.21,0-1.32-0.02-2.21-0.92c-0.57-0.57-0.92-1.35-0.92-2.21v-19.46
			C135.1,443.12,140.5,437.72,147.1,437.72z"/>
	</g>
	
		<linearGradient id="SVGID_00000007400219288134924180000012793095988269509505_" gradientUnits="userSpaceOnUse" x1="270.1562" y1="867.7447" x2="280.074" y2="762.7595" gradientTransform="matrix(0.8112 -0.7301 0.9586 0.6893 -717.5101 107.2192)">
		<stop  offset="0" style="stop-color:#EFD5B6"/>
		<stop  offset="0.9926" style="stop-color:#E2BEA6"/>
	</linearGradient>
	<path style="display:inline;fill:url(#SVGID_00000007400219288134924180000012793095988269509505_);" d="M375.78,489.84
		L375.78,489.84c-1.83,15.42-15.82,26.44-31.25,24.61l-91.72-10.9c-15.42-1.83-26.44-15.82-24.61-31.25v0
		c1.83-15.42,15.82-26.44,31.25-24.61l91.72,10.9C366.59,460.42,377.61,474.41,375.78,489.84z"/>
	<g id="_x32__00000005972895034982406640000012779558941295396018_" class="st4">
		<g>
			<path class="st5" d="M-667.97,197.09c1.26-5.41,1.73-11.06,1.4-16.67c-0.21-3.5-0.81-7.19-2.96-9.92
				c-1.95-2.48-4.87-3.79-7.66-5.02c-2.13-0.93-4.26-1.86-6.39-2.8c-0.95-0.42-2.08-0.82-2.93-0.26c-0.78,0.52-0.96,1.62-1.08,2.59
				c-0.82,7.08-1.45,14.97,2.6,20.84c2.43,3.52,6.17,5.71,9.78,7.78c2.38,1.37,4.77,2.74,7.15,4.1"/>
		</g>
		<g>
			<path class="st6" d="M-649.45,202.87c5.37-1.42,10.58-3.65,15.39-6.57c2.99-1.82,5.97-4.08,7.38-7.26
				c1.28-2.88,1.07-6.08,0.84-9.12c-0.17-2.32-0.35-4.64-0.52-6.96c-0.08-1.04-0.25-2.22-1.14-2.71c-0.82-0.45-1.88-0.09-2.8,0.26
				c-6.64,2.59-13.9,5.73-17.2,12.06c-1.97,3.79-2.15,8.12-2.29,12.28c-0.09,2.75-0.18,5.49-0.28,8.24"/>
		</g>
		<g>
			<path class="st6" d="M-656.84,227.75c5.43,1.16,11.08,1.54,16.7,1.11c3.49-0.27,7.17-0.93,9.87-3.13
				c2.44-1.99,3.71-4.93,4.88-7.75c0.89-2.15,1.79-4.29,2.68-6.44c0.4-0.96,0.79-2.09,0.21-2.94c-0.53-0.77-1.63-0.93-2.61-1.03
				c-7.09-0.7-14.99-1.19-20.79,2.97c-3.47,2.49-5.6,6.27-7.6,9.91c-1.33,2.41-2.65,4.82-3.98,7.22"/>
		</g>
		<g>
			<path class="st5" d="M-664.5,248.52c5.01,2.41,10.41,4.1,15.97,5.01c3.46,0.56,7.19,0.78,10.33-0.72
				c2.84-1.36,4.76-3.92,6.57-6.38c1.38-1.88,2.75-3.75,4.13-5.63c0.61-0.84,1.26-1.85,0.89-2.8c-0.33-0.87-1.37-1.29-2.3-1.62
				c-6.73-2.35-14.29-4.69-20.91-2.01c-3.96,1.6-6.91,4.77-9.72,7.84c-1.86,2.03-3.71,4.06-5.57,6.08"/>
		</g>
		<g>
			<path class="st7" d="M-659.16,241.39c1.11-5.44,1.44-11.1,0.96-16.71c-0.3-3.49-1-7.17-3.22-9.84c-2.01-2.42-4.97-3.66-7.8-4.81
				c-2.16-0.88-4.31-1.75-6.47-2.63c-0.96-0.39-2.1-0.77-2.94-0.18c-0.77,0.54-0.92,1.64-1.01,2.62c-0.63,7.1-1.06,15,3.15,20.77
				c2.52,3.45,6.32,5.54,9.98,7.52c2.42,1.3,4.84,2.61,7.26,3.91"/>
		</g>
		<g>
			<path class="st5" d="M-680.12,232.48c0.9-5.48,1-11.15,0.29-16.73c-0.44-3.48-1.28-7.12-3.61-9.7c-2.11-2.34-5.11-3.46-7.98-4.5
				c-2.19-0.79-4.38-1.58-6.57-2.37c-0.98-0.35-2.13-0.68-2.94-0.06c-0.74,0.57-0.85,1.68-0.9,2.66
				c-0.35,7.12-0.46,15.03,3.98,20.62c2.65,3.35,6.53,5.28,10.27,7.11c2.47,1.21,4.94,2.41,7.41,3.62"/>
		</g>
		<g>
			<path class="st7" d="M-684.55,269.96c1.11-5.44,1.44-11.1,0.96-16.71c-0.3-3.49-1-7.17-3.22-9.84c-2.01-2.42-4.97-3.66-7.8-4.81
				c-2.16-0.88-4.31-1.75-6.47-2.63c-0.96-0.39-2.1-0.77-2.94-0.18c-0.77,0.54-0.92,1.64-1.01,2.62c-0.63,7.1-1.06,15,3.15,20.77
				c2.52,3.45,6.32,5.54,9.98,7.52c2.42,1.3,4.84,2.61,7.26,3.91"/>
		</g>
		<path class="st8" d="M-715.14,366.99c10.1-25.58,20.09-55.1,28.5-88.27c7.83-30.85,12.95-59.54,16.28-85.27"/>
		<path class="st8" d="M-709.61,368.36c13.04-27.12,26.07-57.62,38.07-91.38c9.61-27.03,17.35-52.8,23.63-76.89"/>
		<g>
			<path class="st5" d="M-686.53,275.09c5.55,0.32,11.19-0.17,16.67-1.45c3.41-0.8,6.95-2.01,9.28-4.59
				c2.11-2.34,2.91-5.44,3.65-8.4c0.56-2.26,1.12-4.52,1.67-6.78c0.25-1.01,0.46-2.19-0.24-2.93c-0.64-0.68-1.76-0.68-2.74-0.62
				c-7.12,0.39-15,1.1-20.1,6.1c-3.05,2.99-4.58,7.04-6.01,10.95c-0.94,2.58-1.89,5.16-2.83,7.74"/>
		</g>
		<g>
			<path class="st5" d="M-676.15,238.62c5.54-0.47,11.05-1.75,16.3-3.79c3.26-1.27,6.59-2.98,8.53-5.86
				c1.76-2.61,2.11-5.8,2.42-8.84c0.23-2.31,0.46-4.63,0.7-6.94c0.1-1.03,0.14-2.23-0.65-2.87c-0.73-0.58-1.83-0.42-2.8-0.23
				c-6.99,1.4-14.69,3.22-19.03,8.88c-2.6,3.39-3.53,7.62-4.4,11.69c-0.57,2.69-1.14,5.38-1.71,8.07"/>
		</g>
	</g>
	<path class="st42" d="M-475.61,477.47c-3.24,3.29-8.74,2.54-10.97-1.51c-5.74-10.4-15.02-23.87-29.61-36.23
		c-19.64-16.64-40.18-23.9-53.93-27.2c-4.59-1.1-6.76-6.36-4.27-10.38c12.46-20.14,27.09-41.6,44.22-63.71
		c13.58-17.52,27.12-33.37,40.24-47.63c3-3.26,8.26-2.89,10.77,0.77c7.53,10.94,18.92,24.71,35.43,37.52
		c18.06,14,35.81,21.86,49.05,26.34c4.11,1.39,5.92,6.2,3.77,9.98c-9.59,16.91-21.18,35.2-35.18,54.14
		C-442.83,442.23-459.8,461.44-475.61,477.47z"/>
	<g class="st4">
		<g>
			<path class="st5" d="M-572.34,273.33c0.91-5.48,1.01-11.15,0.32-16.73c-0.43-3.48-1.27-7.12-3.59-9.71
				c-2.1-2.34-5.1-3.47-7.97-4.51c-2.19-0.79-4.37-1.58-6.56-2.38c-0.98-0.35-2.13-0.69-2.94-0.07c-0.74,0.57-0.86,1.68-0.91,2.66
				c-0.36,7.12-0.48,15.03,3.95,20.63c2.65,3.35,6.52,5.29,10.26,7.13c2.47,1.21,4.94,2.42,7.4,3.63"/>
		</g>
		<g>
			<path class="st5" d="M-549.59,271.6c4.76-2.87,9.13-6.47,12.93-10.62c2.36-2.59,4.59-5.59,5.05-9.04
				c0.42-3.12-0.67-6.13-1.75-8.99c-0.82-2.18-1.64-4.36-2.45-6.53c-0.37-0.97-0.86-2.07-1.86-2.28c-0.91-0.2-1.83,0.44-2.61,1.04
				c-5.65,4.35-11.74,9.39-13.13,16.4c-0.83,4.19,0.21,8.4,1.24,12.43c0.68,2.66,1.36,5.33,2.04,7.99"/>
		</g>
		<g>
			<path class="st6" d="M-545.8,303c5.56-0.05,11.15-0.92,16.54-2.56c3.35-1.02,6.8-2.48,8.95-5.21c1.95-2.47,2.54-5.62,3.07-8.63
				c0.4-2.29,0.81-4.58,1.21-6.87c0.18-1.02,0.31-2.22-0.44-2.91c-0.69-0.64-1.8-0.56-2.77-0.44c-7.07,0.87-14.89,2.11-19.65,7.43
				c-2.85,3.19-4.09,7.34-5.26,11.33c-0.77,2.64-1.54,5.28-2.31,7.92"/>
		</g>
		<g>
			<path class="st5" d="M-555.68,327.46c5.34,1.53,10.96,2.29,16.58,2.24c3.5-0.03,7.22-0.45,10.06-2.45
				c2.57-1.82,4.03-4.67,5.4-7.4c1.04-2.08,2.08-4.16,3.11-6.25c0.46-0.93,0.93-2.04,0.41-2.91c-0.48-0.8-1.57-1.04-2.54-1.21
				c-7.03-1.17-14.88-2.2-20.95,1.55c-3.63,2.25-6.01,5.87-8.26,9.37c-1.49,2.31-2.97,4.62-4.46,6.94"/>
		</g>
		<g>
			<path class="st7" d="M-546.33,306.35c0.18-5.55-0.46-11.18-1.88-16.63c-0.89-3.39-2.19-6.89-4.83-9.15
				c-2.39-2.05-5.51-2.77-8.5-3.43c-2.27-0.5-4.54-1-6.82-1.5c-1.01-0.22-2.2-0.4-2.93,0.32c-0.66,0.66-0.63,1.77-0.55,2.75
				c0.58,7.1,1.49,14.96,6.62,19.94c3.07,2.98,7.16,4.39,11.1,5.72c2.61,0.88,5.21,1.75,7.82,2.63"/>
		</g>
		<g>
			<path class="st5" d="M-567.65,299.75c-2.01-5.18-4.79-10.11-8.23-14.57c-2.14-2.77-4.71-5.49-8.03-6.54
				c-3-0.95-6.16-0.4-9.16,0.17c-2.29,0.43-4.57,0.86-6.86,1.29c-1.02,0.19-2.18,0.49-2.57,1.43c-0.35,0.87,0.11,1.88,0.57,2.75
				c3.31,6.31,7.22,13.19,13.88,15.76c3.99,1.54,8.31,1.25,12.46,0.93c2.74-0.21,5.48-0.42,8.22-0.63"/>
		</g>
		<g>
			<path class="st7" d="M-562.26,328.86c-3.03-4.66-6.76-8.92-11.04-12.57c-2.66-2.28-5.74-4.4-9.2-4.75
				c-3.13-0.31-6.11,0.88-8.93,2.04c-2.15,0.89-4.3,1.78-6.45,2.67c-0.96,0.4-2.04,0.93-2.22,1.93c-0.17,0.92,0.5,1.81,1.12,2.57
				c4.53,5.5,9.77,11.43,16.82,12.58c4.22,0.69,8.39-0.48,12.38-1.65c2.64-0.77,5.28-1.54,7.92-2.31"/>
		</g>
		<path class="st8" d="M-576.84,442.98c5.59-24.7,10.46-56.31,10.64-93.12c0.16-33.58-3.62-62.74-8.25-86.09"/>
		<path class="st8" d="M-571.15,443c9.13-21.15,19.87-52.51,23.74-91.77c3.47-35.18,0.28-64.97-3.68-86.32"/>
		<g>
			<path class="st5" d="M-567.49,340.99c5.52,0.66,11.18,0.52,16.73-0.42c3.45-0.59,7.06-1.58,9.54-4.02
				c2.25-2.2,3.24-5.25,4.15-8.16c0.7-2.22,1.39-4.44,2.09-6.66c0.31-0.99,0.59-2.16-0.06-2.94c-0.6-0.72-1.71-0.78-2.69-0.79
				c-7.13-0.05-15.04,0.18-20.44,4.85c-3.23,2.79-5,6.75-6.67,10.56c-1.1,2.52-2.2,5.04-3.3,7.56"/>
		</g>
		<g>
			<path class="st5" d="M-567.5,310.55c5.54-0.43,11.07-1.67,16.32-3.67c3.27-1.25,6.61-2.93,8.57-5.8c1.78-2.6,2.16-5.78,2.48-8.82
				c0.25-2.31,0.5-4.63,0.75-6.94c0.11-1.03,0.16-2.23-0.63-2.87c-0.73-0.59-1.83-0.43-2.8-0.25c-7,1.34-14.71,3.11-19.1,8.74
				c-2.63,3.37-3.59,7.6-4.48,11.66c-0.59,2.69-1.18,5.37-1.77,8.06"/>
		</g>
	</g>
	<path class="st43" d="M-507.58,363.64c5.72,3.23,12.06,7.29,18.65,12.35c5.84,4.49,10.85,8.97,15.09,13.17"/>
	<path class="st43" d="M-473.43,351.72c-4.6,7.53-9.64,15.33-15.17,23.32c-6.51,9.39-13.01,18.07-19.38,26.04"/>
	<line class="st43" x1="-496.1" y1="347.23" x2="-493.18" y2="360.92"/>
	<line class="st43" x1="-475.68" y1="373.79" x2="-460.64" y2="373.79"/>
	<line class="st43" x1="-504.4" y1="376.4" x2="-520.7" y2="376.4"/>
	<line class="st43" x1="-486.44" y1="390.76" x2="-484.19" y2="404.9"/>
</g>
<g id="圖層_2">
	
		<linearGradient id="SVGID_00000015316323034597444260000006101277752627507638_" gradientUnits="userSpaceOnUse" x1="43.6289" y1="595.8607" x2="56.8248" y2="456.1756" gradientTransform="matrix(0.5615 0.6687 -0.7091 0.0854 412.4316 386.2512)">
		<stop  offset="0" style="stop-color:#EFD5B6"/>
		<stop  offset="0.9926" style="stop-color:#E2BEA6"/>
	</linearGradient>
	<path style="fill:url(#SVGID_00000015316323034597444260000006101277752627507638_);" d="M28.64,505.79L28.64,505.79
		c-13.45-7.77-18.06-24.97-10.29-38.42l26.57-46.02l48.72,28.13L67.06,495.5C59.29,508.95,42.09,513.56,28.64,505.79z"/>
	
		<linearGradient id="SVGID_00000148652376699910675550000014672671780695047350_" gradientUnits="userSpaceOnUse" x1="89.2899" y1="238.3643" x2="102.4858" y2="98.6792" gradientTransform="matrix(-0.5615 0.6687 0.7091 0.0854 258.2621 386.2512)">
		<stop  offset="0" style="stop-color:#EFD5B6"/>
		<stop  offset="0.9926" style="stop-color:#E2BEA6"/>
	</linearGradient>
	<path style="fill:url(#SVGID_00000148652376699910675550000014672671780695047350_);" d="M362.91,505.79L362.91,505.79
		c13.45-7.77,18.06-24.97,10.29-38.42l-26.57-46.02l-48.72,28.13l26.57,46.02C332.25,508.95,349.46,513.56,362.91,505.79z"/>
	<path class="st46" d="M321.96,574.01H69.59V407.6c0-51,41.34-92.34,92.34-92.34h67.69c51,0,92.34,41.34,92.34,92.34V574.01z"/>
	<path class="st47" d="M106.78,330.86c0,0-58.86,48.52-88.14,97.06l52.4,20.8c0,0-2.54-40.39,55.44-105.49L106.78,330.86z"/>
	<path class="st47" d="M286.74,329.88c0,0,58.86,48.52,88.14,97.06l-52.4,20.8c0,0,2.54-40.39-55.44-105.49L286.74,329.88z"/>
	<polygon class="st47" points="131.69,342.4 153.38,379.59 192.67,361.02 236.45,380.25 257.79,343.19 	"/>
	<path class="st48" d="M172.72,272.31c13.49,11.59,33.01,5.45,39.89-0.6"/>
	<path class="st49" d="M71.04,448.73c0,0,2.84-55.88,55.44-105.49"/>
	<path class="st49" d="M320.96,448.73c0,0-2.84-55.88-55.44-105.49"/>
	<g>
		<polygon class="st16" points="284.99,393.84 262.44,397.39 254.36,333.99 273.19,331.02 		"/>
		<polygon class="st16" points="129.5,397.39 106.78,395.18 114.65,333.67 133.63,335.52 		"/>
		<polygon class="st16" points="302.42,574.01 89.12,574.01 106.67,392.81 284.88,392.81 		"/>
	</g>
	
		<linearGradient id="SVGID_00000116927945421341709900000007523617599907431051_" gradientUnits="userSpaceOnUse" x1="18.6471" y1="233.6134" x2="89.5515" y2="233.6134">
		<stop  offset="0" style="stop-color:#EFD5B6"/>
		<stop  offset="0.9926" style="stop-color:#E2BEA6"/>
	</linearGradient>
	
		<ellipse style="fill:url(#SVGID_00000116927945421341709900000007523617599907431051_);" cx="54.1" cy="233.61" rx="35.45" ry="41.66"/>
	
		<linearGradient id="SVGID_00000013881998552651508010000005205902011320683656_" gradientUnits="userSpaceOnUse" x1="271.0143" y1="235.9261" x2="341.9187" y2="235.9261" gradientTransform="matrix(-1 0 0 -1 643.9126 465.0806)">
		<stop  offset="0" style="stop-color:#EFD5B6"/>
		<stop  offset="0.9926" style="stop-color:#E2BEA6"/>
	</linearGradient>
	
		<ellipse style="fill:url(#SVGID_00000013881998552651508010000005205902011320683656_);" cx="337.45" cy="229.15" rx="35.45" ry="41.66"/>
	
		<linearGradient id="SVGID_00000069395066989714760270000018033162295826835372_" gradientUnits="userSpaceOnUse" x1="317.9453" y1="295.9489" x2="73.0227" y2="126.7077">
		<stop  offset="0" style="stop-color:#EFD5B6"/>
		<stop  offset="0.9926" style="stop-color:#E2BEA6"/>
	</linearGradient>
	<circle style="fill:url(#SVGID_00000069395066989714760270000018033162295826835372_);" cx="195.48" cy="211.33" r="148.84"/>
	<ellipse class="st53" cx="251.55" cy="222.24" rx="35.45" ry="41.66"/>
	
		<linearGradient id="SVGID_00000157991005098702821860000014599996110059595958_" gradientUnits="userSpaceOnUse" x1="108.7121" y1="222.2434" x2="180.6165" y2="222.2434">
		<stop  offset="0" style="stop-color:#EFD5B6"/>
		<stop  offset="0.9926" style="stop-color:#E2BEA6"/>
	</linearGradient>
	
		<ellipse style="fill:#F9F9FA;stroke:url(#SVGID_00000157991005098702821860000014599996110059595958_);stroke-miterlimit:10;" cx="144.66" cy="222.24" rx="35.45" ry="41.66"/>
	<ellipse class="st47" cx="244.85" cy="240.32" rx="8.53" ry="11.37"/>
	<ellipse class="st47" cx="148.95" cy="240.32" rx="8.53" ry="11.37"/>
	<path class="st16" d="M322.51,117.69l-254.06-1.95l16.08-48.57c9.02-27.26,37.87-45.82,70.82-45.57l78.78,0.61
		c32.95,0.25,62.09,19.26,71.54,46.67L322.51,117.69z"/>
	<path class="st34" d="M47.48,227.17c0,0-8.96-36.65,13.37-80.73s63.66-92.7,111.87-88.28s182.69,36.2,171.06,165.79
		c0,0-9.42-130.75-155.27-130.59S47.48,227.17,47.48,227.17z"/>
	<path class="st16" d="M337.36,160.26c-41.05-5.62-87.74-9.53-139.14-9.66c-53.52-0.13-102.01,3.86-144.4,9.66
		c-3.56-13.64-7.09-32.53-7.18-55.18c-0.06-15.35,1.48-29.03,3.59-40.6C52,54.82,59.57,47.6,68.77,46.67
		c38.23-3.86,80.03-6.33,124.94-6.39c46.86-0.07,90.38,2.48,130,6.53c8.66,0.88,15.91,7.34,18.2,16.26
		c2.69,10.44,4.92,23.36,5.19,38.23C347.57,127.16,341.87,147.74,337.36,160.26z"/>
	<path class="st55" d="M146.76,285.87c10.72,3.45,26.14,7.12,44.93,7.41c21.1,0.32,38.28-3.75,49.65-7.41"/>
	<line class="st56" x1="290.8" y1="238.24" x2="308.32" y2="229.15"/>
	<line class="st56" x1="293.24" y1="245.45" x2="318.29" y2="240.32"/>
	<line class="st56" x1="106.78" y1="238.24" x2="89.26" y2="229.15"/>
	<line class="st56" x1="104.34" y1="245.45" x2="79.29" y2="240.32"/>
	
		<linearGradient id="SVGID_00000070083469906042107660000000827551909836500913_" gradientUnits="userSpaceOnUse" x1="224.2395" y1="699.7267" x2="234.1573" y2="594.7415" gradientTransform="matrix(0.477 -0.9816 1.1475 0.2781 -787.7733 517.9532)">
		<stop  offset="0" style="stop-color:#EFD5B6"/>
		<stop  offset="0.9926" style="stop-color:#E2BEA6"/>
	</linearGradient>
	<path style="fill:url(#SVGID_00000070083469906042107660000000827551909836500913_);" d="M154.44,459.53L154.44,459.53
		c4.1,14.98-4.71,30.45-19.69,34.56l-89.08,24.41c-14.98,4.1-30.45-4.71-34.56-19.69l0,0c-4.1-14.98,4.71-30.45,19.69-34.56
		l89.08-24.41C134.86,435.73,150.33,444.54,154.44,459.53z"/>
	<g>
		<path class="st37" d="M225.04,489.39h-63.36c-6.6,0-12-5.4-12-12v-22.81c0-6.6,5.4-12,12-12h63.36c6.6,0,12,5.4,12,12v22.81
			C237.04,483.99,231.64,489.39,225.04,489.39z"/>
		<ellipse class="st38" cx="163.1" cy="452.84" rx="10.68" ry="5.86"/>
		<ellipse class="st38" cx="187.56" cy="454.72" rx="10.68" ry="5.86"/>
		<ellipse class="st38" cx="208.63" cy="442.93" rx="10.68" ry="5.86"/>
		
			<ellipse transform="matrix(0.8544 -0.5197 0.5197 0.8544 -219.4666 146.9281)" class="st39" cx="152.42" cy="465.05" rx="5.68" ry="9.53"/>
		
			<ellipse transform="matrix(0.9989 -0.0479 0.0479 0.9989 -21.8889 10.3658)" class="st39" cx="205.37" cy="461.96" rx="5.86" ry="10.68"/>
		
			<ellipse transform="matrix(0.5105 -0.8599 0.8599 0.5105 -329.9651 382.5345)" class="st39" cx="170.99" cy="481.07" rx="5.31" ry="10.2"/>
		
			<ellipse transform="matrix(0.9645 -0.2643 0.2643 0.9645 -113.8112 75.105)" class="st39" cx="222.26" cy="460.58" rx="5.86" ry="10.68"/>
		
			<ellipse transform="matrix(0.9132 -0.4076 0.4076 0.9132 -176.7145 119.7362)" class="st39" cx="192.67" cy="474.62" rx="10.36" ry="5.22"/>
		
			<ellipse transform="matrix(0.866 -0.5 0.5 0.866 -211.2186 151.3856)" class="st39" cx="176.88" cy="469.83" rx="10.68" ry="5.86"/>
		
			<ellipse transform="matrix(0.9132 -0.4076 0.4076 0.9132 -175.597 130.1932)" class="st39" cx="217.77" cy="477.23" rx="10.36" ry="5.22"/>
		<path class="st40" d="M147.1,437.72c10.1-3.55,25.9-7.78,45.59-7.78c19.67,0,35.45,4.23,45.54,7.78c0.81,0,5.05,0.1,8.47,3.53
			c2.17,2.17,3.53,5.17,3.53,8.47v19.46c0,1.72-1.41,3.13-3.13,3.13c-12.7-3.76-30.26-7.52-51.36-7.86
			c-24.05-0.39-43.86,3.83-57.51,7.86c-0.21,0-1.32-0.02-2.21-0.92c-0.57-0.57-0.92-1.35-0.92-2.21v-19.46
			C135.1,443.12,140.5,437.72,147.1,437.72z"/>
	</g>
	
		<linearGradient id="SVGID_00000072962195183244432910000000662434675870735233_" gradientUnits="userSpaceOnUse" x1="270.1562" y1="867.7447" x2="280.074" y2="762.7595" gradientTransform="matrix(0.8112 -0.7301 0.9586 0.6893 -717.5101 107.2192)">
		<stop  offset="0" style="stop-color:#EFD5B6"/>
		<stop  offset="0.9926" style="stop-color:#E2BEA6"/>
	</linearGradient>
	<path style="fill:url(#SVGID_00000072962195183244432910000000662434675870735233_);" d="M375.78,489.84L375.78,489.84
		c-1.83,15.42-15.82,26.44-31.25,24.61l-91.72-10.9c-15.42-1.83-26.44-15.82-24.61-31.25v0c1.83-15.42,15.82-26.44,31.25-24.61
		l91.72,10.9C366.59,460.42,377.61,474.41,375.78,489.84z"/>
</g>
<g id="圖層_3" class="st0">
	<path class="st1" d="M249.31,476.17c-5.45,5.52-14.67,4.26-18.42-2.53c-9.64-17.46-25.21-40.06-49.7-60.81
		c-32.96-27.94-67.44-40.12-90.52-45.66c-7.71-1.85-11.34-10.68-7.17-17.42c20.92-33.8,45.47-69.83,74.22-106.94
		c22.79-29.41,45.52-56.01,67.55-79.95c5.04-5.48,13.86-4.84,18.08,1.29c12.64,18.36,31.76,41.48,59.47,62.97
		c30.31,23.5,60.11,36.69,82.34,44.21c6.9,2.34,9.93,10.41,6.33,16.75c-16.1,28.38-35.56,59.09-59.05,90.87
		C304.32,417.02,275.84,449.27,249.31,476.17z"/>
	<path class="st42" d="M195.09,502.52c-5.45,5.52-14.67,4.26-18.42-2.53c-9.64-17.46-25.21-40.06-49.7-60.81
		c-32.96-27.94-67.44-40.12-90.52-45.66c-7.71-1.85-11.34-10.68-7.17-17.42c20.92-33.8,45.47-69.83,74.22-106.94
		c22.79-29.41,45.52-56.01,67.55-79.95c5.04-5.48,13.86-4.84,18.08,1.29c12.64,18.36,31.76,41.48,59.47,62.97
		c30.31,23.5,60.11,36.69,82.34,44.21c6.9,2.34,9.93,10.41,6.33,16.75c-16.1,28.38-35.56,59.09-59.05,90.87
		C250.1,443.38,221.62,475.62,195.09,502.52z"/>
	<g class="st4">
		<g>
			<path class="st5" d="M54.2,132.93c1.52-9.2,1.7-18.71,0.53-28.08c-0.73-5.84-2.14-11.95-6.03-16.3
				c-3.53-3.94-8.57-5.82-13.38-7.57c-3.67-1.33-7.34-2.66-11.01-3.99c-1.64-0.59-3.57-1.15-4.94-0.12
				c-1.25,0.95-1.44,2.81-1.52,4.46c-0.6,11.95-0.81,25.23,6.62,34.63c4.45,5.63,10.95,8.89,17.22,11.96
				c4.14,2.03,8.28,4.06,12.43,6.1"/>
		</g>
		<g>
			<path class="st5" d="M92.39,130.04c7.99-4.82,15.33-10.85,21.7-17.83c3.97-4.34,7.7-9.39,8.48-15.17
				c0.7-5.24-1.13-10.3-2.93-15.09c-1.37-3.66-2.74-7.31-4.12-10.97c-0.61-1.63-1.45-3.47-3.12-3.83c-1.53-0.33-3.07,0.73-4.38,1.74
				c-9.48,7.3-19.71,15.77-22.04,27.52c-1.39,7.04,0.35,14.1,2.08,20.86c1.14,4.47,2.29,8.94,3.43,13.41"/>
		</g>
		<g>
			<path class="st6" d="M98.75,182.74c9.33-0.09,18.72-1.54,27.76-4.3c5.62-1.72,11.41-4.16,15.02-8.74
				c3.27-4.15,4.26-9.44,5.16-14.49c0.68-3.85,1.36-7.69,2.04-11.54c0.3-1.72,0.52-3.72-0.73-4.88c-1.15-1.07-3.02-0.93-4.66-0.73
				c-11.87,1.46-24.99,3.54-32.98,12.48c-4.78,5.35-6.87,12.31-8.83,19.02c-1.29,4.43-2.58,8.86-3.87,13.29"/>
		</g>
		<g>
			<path class="st5" d="M82.17,223.79c8.97,2.57,18.39,3.84,27.84,3.75c5.88-0.05,12.12-0.75,16.88-4.12
				c4.31-3.05,6.77-7.84,9.06-12.43c1.74-3.49,3.49-6.99,5.23-10.48c0.78-1.56,1.55-3.42,0.68-4.89c-0.8-1.35-2.63-1.75-4.26-2.02
				c-11.8-1.97-24.97-3.7-35.16,2.6c-6.1,3.77-10.09,9.86-13.86,15.73c-2.49,3.88-4.99,7.76-7.48,11.64"/>
		</g>
		<g>
			<path class="st7" d="M97.87,188.36c0.3-9.32-0.77-18.77-3.15-27.91c-1.49-5.69-3.68-11.57-8.12-15.37
				c-4.02-3.44-9.25-4.65-14.26-5.75c-3.81-0.84-7.63-1.67-11.44-2.51c-1.7-0.37-3.69-0.67-4.91,0.53c-1.11,1.1-1.06,2.98-0.92,4.62
				c0.97,11.92,2.51,25.12,11.11,33.46c5.15,5,12.02,7.38,18.64,9.6c4.37,1.47,8.75,2.94,13.12,4.42"/>
		</g>
		<g>
			<path class="st5" d="M62.08,177.28c-3.37-8.7-8.04-16.98-13.81-24.46c-3.59-4.66-7.91-9.21-13.47-10.97
				c-5.04-1.6-10.34-0.66-15.37,0.28c-3.84,0.72-7.68,1.44-11.51,2.16c-1.71,0.32-3.66,0.82-4.31,2.41
				c-0.59,1.45,0.19,3.15,0.96,4.61c5.55,10.6,12.12,22.14,23.3,26.46c6.69,2.59,13.95,2.09,20.91,1.55c4.6-0.35,9.2-0.71,13.8-1.06
				"/>
		</g>
		<g>
			<path class="st7" d="M71.13,226.14c-5.08-7.82-11.35-14.97-18.53-21.11c-4.47-3.82-9.63-7.39-15.44-7.98
				c-5.26-0.53-10.25,1.47-14.99,3.43c-3.61,1.49-7.22,2.98-10.83,4.47c-1.61,0.67-3.42,1.56-3.73,3.24
				c-0.28,1.54,0.83,3.05,1.88,4.32c7.61,9.24,16.4,19.18,28.23,21.12c7.08,1.16,14.08-0.81,20.78-2.76
				c4.43-1.29,8.86-2.58,13.29-3.87"/>
		</g>
		<path class="st8" d="M46.66,417.71c9.38-41.47,17.55-94.52,17.85-156.31c0.27-56.36-6.08-105.31-13.85-144.5"/>
		<path class="st8" d="M56.2,417.73c15.33-35.51,33.34-88.15,39.85-154.05c5.83-59.05,0.47-109.05-6.17-144.9"/>
		<g>
			<path class="st5" d="M62.35,246.51c9.26,1.11,18.76,0.87,28.08-0.71c5.8-0.98,11.85-2.66,16.02-6.74
				c3.78-3.7,5.44-8.81,6.97-13.71c1.17-3.73,2.33-7.45,3.5-11.18c0.52-1.66,0.99-3.62-0.1-4.94c-1-1.21-2.87-1.31-4.52-1.32
				c-11.96-0.08-25.24,0.3-34.3,8.14c-5.43,4.69-8.4,11.33-11.19,17.73c-1.85,4.23-3.7,8.46-5.54,12.68"/>
		</g>
		<g>
			<path class="st5" d="M62.33,195.41c9.3-0.72,18.57-2.8,27.4-6.17c5.49-2.1,11.1-4.92,14.39-9.74c2.98-4.37,3.62-9.71,4.17-14.8
				c0.42-3.88,0.84-7.76,1.25-11.65c0.19-1.73,0.27-3.75-1.06-4.82c-1.22-0.99-3.07-0.73-4.69-0.42
				c-11.75,2.26-24.7,5.22-32.06,14.68c-4.41,5.66-6.03,12.75-7.52,19.57c-0.99,4.51-1.98,9.01-2.96,13.52"/>
		</g>
	</g>
	<path class="st59" d="M141.41,311.46c9.59,5.43,20.24,12.23,31.31,20.73c9.8,7.53,18.21,15.06,25.33,22.1"/>
	<path class="st59" d="M198.74,291.44c-7.71,12.64-16.18,25.74-25.47,39.15c-10.92,15.76-21.84,30.32-32.53,43.71"/>
	<line class="st59" x1="160.7" y1="283.91" x2="165.59" y2="306.89"/>
	<line class="st59" x1="194.97" y1="328.5" x2="220.2" y2="328.5"/>
	<line class="st59" x1="146.76" y1="332.87" x2="119.39" y2="332.87"/>
	<line class="st59" x1="176.91" y1="356.98" x2="180.68" y2="380.71"/>
</g>
</svg>
