<svg width="533" height="146" viewBox="0 0 533 146" fill="none" xmlns="http://www.w3.org/2000/svg">
<g filter="url(#filter0_d_1875_6738)">
<rect x="24.5" y="8" width="496" height="126" rx="38" fill="#9B6046"/>
<path d="M9.17572 116.418C8.2603 116.429 7.81218 115.306 8.48378 114.684L24.9645 99.417C25.4794 98.94 26.3126 99.128 26.5728 99.7798L32.5559 114.77C32.8161 115.421 32.3414 116.132 31.6395 116.14L9.17572 116.418Z" fill="#9B6046"/>
<path d="M183.182 42.682L184.694 44.14C183.146 44.734 181.166 45.184 179.492 45.472C179.402 45.04 179.132 44.374 178.916 43.978C180.446 43.672 182.138 43.168 183.182 42.682ZM178.358 43.726L180.482 44.122V49.648H178.358V43.726ZM178.358 48.802H189.698V45.166H185.738V43.51H191.84V50.476H178.358V48.802ZM179.258 46.138H184.208V47.74H179.258V46.138ZM185.846 46.138H190.616V47.74H185.846V46.138ZM178.7 50.98H180.77V57.946L178.7 58.27V50.98ZM183.884 50.998H185.846V58.18L183.884 58.486V50.998ZM176.738 57.514C178.286 57.37 180.518 57.118 182.696 56.848L182.768 58.63C180.77 58.918 178.646 59.17 177.026 59.386L176.738 57.514ZM183.002 57.586C184.55 57.442 186.8 57.172 188.978 56.902L189.05 58.63C187.034 58.9 184.892 59.17 183.254 59.404L183.002 57.586ZM188.942 50.98H191.066C190.94 55.372 191.3 57.604 191.84 57.604C192.056 57.604 192.164 57.208 192.2 56.038C192.578 56.398 193.154 56.74 193.604 56.902C193.442 59.08 192.866 59.656 191.678 59.656C189.5 59.656 188.996 56.398 188.942 50.98ZM180.842 52.312L181.886 51.214C182.552 51.538 183.398 52.078 183.812 52.492L182.696 53.716C182.318 53.284 181.49 52.69 180.842 52.312ZM180.77 55.12L181.85 53.968C182.498 54.292 183.29 54.814 183.668 55.228L182.552 56.488C182.192 56.056 181.418 55.48 180.77 55.12ZM185.9 52.438L186.926 51.304C187.61 51.628 188.51 52.168 188.942 52.582L187.88 53.842C187.484 53.41 186.602 52.816 185.9 52.438ZM185.81 55.156L186.89 54.004C187.592 54.382 188.51 54.976 188.942 55.426L187.808 56.686C187.394 56.236 186.53 55.57 185.81 55.156ZM204.674 51.268H213.17V52.816H204.674V51.268ZM203.594 43.456H214.106V45.166H203.594V43.456ZM203.504 53.536H214.142V55.246H203.504V53.536ZM210.344 56.434L211.874 55.444C212.738 56.218 213.8 57.316 214.286 58.09L212.666 59.224C212.216 58.468 211.19 57.28 210.344 56.434ZM205.88 47.578V49.054H211.784V47.578H205.88ZM204.116 46.012H213.638V50.602H204.116V46.012ZM207.788 54.382H209.786V57.73C209.786 58.576 209.66 59.062 209.084 59.35C208.526 59.62 207.788 59.638 206.798 59.638C206.708 59.098 206.456 58.396 206.222 57.892C206.798 57.928 207.374 57.928 207.536 57.91C207.734 57.91 207.788 57.856 207.788 57.694V54.382ZM205.322 55.408L206.96 56.308C206.222 57.424 205.142 58.522 204.134 59.206C203.828 58.81 203.252 58.252 202.82 57.91C203.756 57.298 204.746 56.272 205.322 55.408ZM206.618 44.464H208.292V46.948H206.618V44.464ZM206.816 46.678H208.274V50.188H206.816V46.678ZM209.264 44.464H210.938V46.948H209.264V44.464ZM209.264 46.678H210.722V50.188H209.264V46.678ZM197.492 46.444H203.432V48.442H197.492V46.444ZM199.688 42.718H201.65V59.62H199.688V42.718ZM199.652 47.812L200.858 48.226C200.336 51.07 199.31 54.544 198.032 56.398C197.852 55.822 197.384 54.994 197.078 54.49C198.23 52.924 199.238 50.098 199.652 47.812ZM201.56 49.162C201.974 49.684 203.468 52.042 203.774 52.582L202.658 54.13C202.244 53.032 201.164 50.926 200.66 50.044L201.56 49.162ZM222.674 55.408H224.762V57.226C224.762 57.694 224.924 57.748 225.734 57.748C226.094 57.748 227.66 57.748 228.146 57.748C228.776 57.748 228.902 57.568 228.992 56.362C229.406 56.65 230.252 56.92 230.81 57.046C230.576 58.972 230 59.476 228.344 59.476C227.876 59.476 225.932 59.476 225.464 59.476C223.214 59.476 222.674 58.954 222.674 57.244V55.408ZM224.474 55.102L225.77 54.022C226.724 54.508 227.876 55.318 228.434 55.966L227.048 57.154C226.544 56.524 225.428 55.66 224.474 55.102ZM230.036 56.128L231.782 55.21C232.934 56.038 234.194 57.28 234.752 58.27L232.844 59.26C232.358 58.324 231.17 57.028 230.036 56.128ZM224.096 52.204L225.518 51.538C226.022 52.024 226.598 52.744 226.868 53.23L225.374 53.968C225.14 53.464 224.6 52.726 224.096 52.204ZM220.28 55.318L222.152 56.074C221.648 57.334 220.964 58.612 219.902 59.458L218.084 58.342C219.074 57.622 219.866 56.452 220.28 55.318ZM218.642 44.374H220.334V49.828H226.58V51.394H218.642V44.374ZM222.638 45.868V46.498H224.42V45.868H222.638ZM222.638 47.506V48.154H224.42V47.506H222.638ZM222.638 44.212V44.842H224.42V44.212H222.638ZM220.982 43.15H226.13V49.234H220.982V43.15ZM221.9 50.512H223.79V54.94H221.9V50.512ZM229.766 50.116H231.656V54.94H229.766V50.116ZM226.706 49.414C228.434 49.36 230.99 49.252 233.492 49.144L233.474 50.602C231.152 50.746 228.758 50.89 226.94 50.98L226.706 49.414ZM229.586 44.284L231.332 44.95C230.594 45.796 229.82 46.696 229.19 47.272L227.948 46.714C228.506 46.048 229.208 45.022 229.586 44.284ZM231.746 45.634L233.384 46.354C232.106 47.704 230.468 49.306 229.19 50.278L228.056 49.666C229.298 48.604 230.846 46.894 231.746 45.634ZM219.848 51.574L221.558 52.024C221.09 53.122 220.262 54.274 219.506 55.012C219.146 54.724 218.426 54.292 217.994 54.076C218.768 53.428 219.47 52.492 219.848 51.574ZM231.89 51.772L233.33 51.142C233.996 51.898 234.716 52.978 235.004 53.734L233.474 54.436C233.222 53.698 232.538 52.582 231.89 51.772ZM231.746 48.514L233.114 47.884C233.852 48.622 234.626 49.666 234.914 50.422L233.456 51.142C233.204 50.404 232.466 49.306 231.746 48.514ZM226.85 46.822L227.948 45.724C228.938 46.336 230.162 47.272 230.738 47.956L229.568 49.18C229.028 48.478 227.84 47.488 226.85 46.822ZM227.93 51.322L229.586 51.736C229.19 52.744 228.506 53.842 227.876 54.544C227.552 54.274 226.868 53.824 226.454 53.626C227.066 52.996 227.606 52.15 227.93 51.322ZM232.97 42.736L234.248 44.05C232.304 44.662 229.478 44.968 227.12 45.112C227.066 44.716 226.85 44.104 226.652 43.726C228.884 43.546 231.494 43.204 232.97 42.736ZM243.968 44.302H255.434V46.138H243.968V44.302ZM248.486 42.754H250.664V45.166H248.486V42.754ZM247.172 48.208V49.198H252.068V48.208H247.172ZM245.12 46.786H254.246V50.62H245.12V46.786ZM243.536 51.304H255.65V54.796H253.688V52.96H245.426V54.796H243.536V51.304ZM246.02 53.698H253.184V55.426H246.02V53.698ZM248.486 54.112H250.646V57.514C250.646 58.54 250.448 59.062 249.692 59.35C248.936 59.638 247.91 59.638 246.56 59.638C246.488 59.044 246.2 58.252 245.948 57.694C246.794 57.73 247.856 57.73 248.126 57.712C248.414 57.712 248.486 57.658 248.486 57.46V54.112ZM242.366 42.79L244.4 43.42C243.23 46.498 241.358 49.738 239.396 51.79C239.198 51.268 238.622 50.08 238.244 49.558C239.882 47.92 241.448 45.364 242.366 42.79ZM240.62 47.758L242.672 45.706L242.69 45.724V59.602H240.62V47.758ZM259.79 45.22H275.846V47.29H259.79V45.22ZM265.658 51.052H275.09V53.05H265.658V51.052ZM264.956 57.172H275.774V59.17H264.956V57.172ZM269.33 48.064H271.508V58.234H269.33V48.064ZM265.46 42.7L267.71 43.24C266.378 47.578 264.11 51.952 260.258 54.58C260.042 53.968 259.538 53.014 259.214 52.492C262.472 50.368 264.524 46.336 265.46 42.7ZM261.86 50.242H264.038V59.584H261.86V50.242ZM285.674 48.064H289.148V50.134H285.674V48.064ZM284.846 42.718H287.078V57.064L284.846 57.316V42.718ZM281.426 46.462H283.532V57.532L281.426 57.82V46.462ZM280.094 57.244C282.398 56.92 285.872 56.326 289.04 55.768L289.202 57.892C286.142 58.486 282.83 59.062 280.454 59.53L280.094 57.244ZM294.98 46.606L296.708 48.388C295.106 49.504 293.072 50.548 291.29 51.358C291.146 50.872 290.768 50.116 290.48 49.666C292.118 48.838 293.864 47.614 294.98 46.606ZM289.796 42.718H292.046V56.002C292.046 56.992 292.118 57.136 292.694 57.136C292.964 57.136 294.062 57.136 294.332 57.136C294.926 57.136 295.016 56.524 295.106 54.166C295.646 54.562 296.528 54.958 297.14 55.102C296.924 58.09 296.366 59.242 294.548 59.242C294.134 59.242 292.73 59.242 292.334 59.242C290.354 59.242 289.796 58.504 289.796 55.966V42.718ZM303.674 60.484L303.098 59.044C304.61 58.558 305.438 57.676 305.438 56.65L305.312 54.868L306.302 56.488C306.014 56.758 305.636 56.884 305.24 56.884C304.34 56.884 303.512 56.308 303.512 55.264C303.512 54.256 304.322 53.644 305.294 53.644C306.554 53.644 307.238 54.616 307.238 56.128C307.238 58.162 305.906 59.818 303.674 60.484ZM180.554 85.674H191.318V94.674H189.14V87.312H182.624V94.674H180.554V85.674ZM176.972 83.226H193.01V84.918H176.972V83.226ZM178.232 80.814H192.02V82.452H178.232V80.814ZM181.958 88.068H190.022V89.436H181.958V88.068ZM181.958 90.21H190.022V91.56H181.958V90.21ZM181.706 92.388H190.022V94.026H181.706V92.388ZM190.706 77.772L191.966 79.32C188.276 79.932 182.912 80.148 178.448 80.112C178.412 79.644 178.214 78.924 178.034 78.492C182.444 78.492 187.664 78.276 190.706 77.772ZM183.038 79.266L185.288 79.716C184.064 84.198 181.904 88.482 177.746 90.876C177.458 90.39 176.828 89.58 176.396 89.166C180.212 87.114 182.192 83.154 183.038 79.266ZM201.254 85.674H212.018V94.674H209.84V87.312H203.324V94.674H201.254V85.674ZM197.672 83.226H213.71V84.918H197.672V83.226ZM198.932 80.814H212.72V82.452H198.932V80.814ZM202.658 88.068H210.722V89.436H202.658V88.068ZM202.658 90.21H210.722V91.56H202.658V90.21ZM202.406 92.388H210.722V94.026H202.406V92.388ZM211.406 77.772L212.666 79.32C208.976 79.932 203.612 80.148 199.148 80.112C199.112 79.644 198.914 78.924 198.734 78.492C203.144 78.492 208.364 78.276 211.406 77.772ZM203.738 79.266L205.988 79.716C204.764 84.198 202.604 88.482 198.446 90.876C198.158 90.39 197.528 89.58 197.096 89.166C200.912 87.114 202.892 83.154 203.738 79.266ZM228.02 90.75H233.06V92.784H228.02V90.75ZM226.832 79.572H234.212V93.846H232.07V81.606H228.884V94.134H226.832V79.572ZM218.084 81.282H224.546V83.352H218.084V81.282ZM220.802 77.7L222.89 77.934C222.116 81.786 221 86.646 220.082 89.868L218.264 89.004C219.11 86.124 220.172 81.336 220.802 77.7ZM219.02 88.392L220.136 86.808C222.332 88.068 225.104 89.976 226.346 91.452L225.104 93.306C223.916 91.794 221.216 89.742 219.02 88.392ZM223.916 81.282H224.276L224.654 81.246L225.986 81.48C225.5 88.752 223.502 92.568 219.47 94.62C219.182 94.08 218.624 93.27 218.192 92.838C221.684 91.362 223.52 87.618 223.916 81.696V81.282ZM244.418 79.266H255.56V81.336H244.418V79.266ZM252.302 80.022H254.48V92.082C254.48 93.324 254.21 93.9 253.436 94.26C252.662 94.584 251.438 94.656 249.764 94.638C249.674 94.026 249.332 93.054 249.026 92.442C250.214 92.496 251.456 92.496 251.834 92.478C252.194 92.478 252.302 92.388 252.302 92.046V80.022ZM244.634 83.28H246.65V91.02H244.634V83.28ZM245.516 83.28H250.646V89.832H245.516V87.978H248.648V85.152H245.516V83.28ZM242.564 77.682L244.58 78.33C243.464 81.372 241.61 84.594 239.666 86.61C239.486 86.106 238.892 84.9 238.532 84.378C240.134 82.776 241.664 80.22 242.564 77.682ZM240.944 82.74L243.086 80.598V80.616V94.584H240.944V82.74ZM260.186 78.402H262.22V89.904H260.186V78.402ZM261.338 78.402H265.946V89.076H261.338V87.15H263.966V80.292H261.338V78.402ZM261.284 82.65H265.01V84.522H261.284V82.65ZM266.486 78.348H274.424V80.238H266.486V78.348ZM273.74 78.348H275.792C275.792 78.348 275.774 78.816 275.756 79.068C275.612 81.552 275.45 82.686 275.036 83.136C274.694 83.514 274.28 83.658 273.776 83.712C273.326 83.766 272.534 83.784 271.706 83.748C271.67 83.208 271.472 82.488 271.184 82.02C271.85 82.074 272.462 82.092 272.75 82.092C273.002 82.092 273.146 82.056 273.29 81.93C273.524 81.678 273.632 80.814 273.74 78.618V78.348ZM269.24 78.924H271.346C271.094 81.642 270.374 83.46 266.99 84.468C266.792 83.982 266.288 83.244 265.856 82.884C268.628 82.164 269.06 80.886 269.24 78.924ZM269.042 86.034V87.96H273.092V86.034H269.042ZM267.026 84.306H275.234V89.688H267.026V84.306ZM264.614 90.768L266.612 90.516C266.846 91.722 267.062 93.27 267.08 94.224L264.956 94.566C264.956 93.594 264.812 91.992 264.614 90.768ZM268.43 90.732L270.464 90.354C270.914 91.524 271.364 93.054 271.526 94.044L269.366 94.494C269.24 93.54 268.844 91.938 268.43 90.732ZM272.156 90.714L274.118 89.958C274.856 91.128 275.81 92.712 276.224 93.72L274.136 94.62C273.776 93.612 272.876 91.938 272.156 90.714ZM261.608 90.102L263.696 90.678C263.102 92.046 262.22 93.648 261.482 94.71L259.394 93.81C260.114 92.928 261.032 91.416 261.608 90.102ZM284 88.554H288.662V89.706H284V88.554ZM284 90.426H288.662V91.578H284V90.426ZM283.982 92.298H288.95V93.684H283.982V92.298ZM285.728 87.276H287.096V93.144H285.728V87.276ZM284.648 86.502H288.734V87.834H284.648V94.422H283.154V87.78L284.234 86.502H284.648ZM286.304 85.008L287.906 85.458C287.492 86.232 287.114 87.042 286.79 87.582L285.584 87.186C285.836 86.574 286.16 85.638 286.304 85.008ZM283.784 84.954L285.278 85.314C284.81 86.88 284 88.464 283.118 89.472C282.884 89.202 282.308 88.644 281.984 88.41C282.758 87.528 283.406 86.25 283.784 84.954ZM280.436 78.456H288.59V80.22H280.436V78.456ZM281.732 81.12H288.572V85.134H281.732V83.676H286.664V82.614H281.732V81.12ZM280.868 81.12H282.686V85.818C282.686 88.302 282.488 92.01 281.354 94.422C281.03 94.098 280.22 93.504 279.824 93.306C280.796 91.128 280.868 88.032 280.868 85.818V81.12ZM289.22 78.438H296.708V80.256H289.22V78.438ZM291.362 85.638V86.754H294.584V85.638H291.362ZM291.362 88.248V89.382H294.584V88.248H291.362ZM291.362 83.028V84.108H294.584V83.028H291.362ZM289.616 81.408H296.42V90.984H289.616V81.408ZM291.956 79.446L294.206 79.68C293.9 80.778 293.576 81.894 293.324 82.65L291.614 82.344C291.776 81.498 291.92 80.292 291.956 79.446ZM291.146 91.146L292.838 92.172C292.064 93.072 290.786 94.098 289.742 94.656C289.418 94.296 288.806 93.738 288.374 93.396C289.4 92.874 290.57 91.902 291.146 91.146ZM293.324 92.19L294.854 91.218C295.628 91.884 296.654 92.874 297.176 93.558L295.538 94.638C295.088 93.972 294.098 92.928 293.324 92.19ZM304.664 77.646L306.86 78.204C305.906 80.886 304.322 83.478 302.72 85.098C302.306 84.72 301.388 84 300.866 83.694C302.486 82.29 303.89 79.986 304.664 77.646ZM305.042 79.698H316.49V81.786H303.998L305.042 79.698ZM303.764 83.946H316.076V85.962H305.942V89.742H303.764V83.946ZM300.92 88.68H317.48V90.768H300.92V88.68ZM309.056 80.778H311.288V94.62H309.056V80.778ZM321.206 90.984C323.06 90.696 325.814 90.174 328.406 89.652L328.622 91.704C326.192 92.226 323.6 92.748 321.62 93.162L321.206 90.984ZM321.26 83.478L322.43 81.606C323.852 82.812 325.706 84.504 326.444 85.71L325.148 87.852C324.41 86.592 322.664 84.774 321.26 83.478ZM326.642 87.672L328.46 86.862C329.27 88.41 330.044 90.39 330.224 91.722L328.262 92.658C328.1 91.344 327.416 89.274 326.642 87.672ZM325.094 77.754L327.344 78.546C326.426 80.508 325.292 82.722 324.356 84.162L322.538 83.424C323.438 81.912 324.5 79.572 325.094 77.754ZM327.398 81.624L329.594 82.326C327.974 85.638 325.76 89.382 323.942 91.794L322.088 91.056C323.906 88.626 326.138 84.702 327.398 81.624ZM329.162 81.318H336.776V83.442H329.162V81.318ZM335.966 81.318H338.108C338.108 81.318 338.108 82.056 338.09 82.326C337.874 89.904 337.676 92.622 337.028 93.486C336.596 94.116 336.164 94.314 335.516 94.44C334.922 94.548 334.04 94.53 333.122 94.494C333.086 93.9 332.834 92.982 332.474 92.388C333.32 92.46 334.058 92.46 334.454 92.46C334.742 92.478 334.922 92.406 335.102 92.154C335.57 91.596 335.786 88.914 335.966 81.804V81.318ZM331.61 77.826H333.806V83.388C333.806 87.24 333.158 91.488 329.144 94.62C328.748 94.134 328.01 93.54 327.434 93.144C331.142 90.246 331.61 86.52 331.61 83.388V77.826ZM344.174 80.634H349.7V92.766H344.174V90.858H347.738V82.524H344.174V80.634ZM342.914 80.634H344.876V94.098H342.914V80.634ZM344.084 85.44H348.692V87.312H344.084V85.44ZM345.47 77.7L347.828 78.042C347.414 79.266 346.964 80.544 346.604 81.39L344.876 81.012C345.128 80.076 345.38 78.69 345.47 77.7ZM352.076 80.508H357.332V82.47H352.076V80.508ZM356.594 80.508H358.592C358.592 80.508 358.592 81.21 358.574 81.48C358.34 89.58 358.124 92.442 357.386 93.396C356.882 94.098 356.378 94.296 355.64 94.404C354.956 94.512 353.858 94.494 352.814 94.44C352.778 93.846 352.49 92.928 352.094 92.352C353.264 92.442 354.344 92.46 354.794 92.46C355.154 92.46 355.352 92.388 355.586 92.136C356.162 91.524 356.396 88.428 356.594 80.922V80.508ZM352.13 77.718L354.2 78.204C353.498 80.868 352.328 83.604 351.104 85.332C350.708 84.972 349.826 84.36 349.322 84.072C350.528 82.56 351.554 80.112 352.13 77.718ZM351.248 85.692L352.94 84.738C353.822 85.98 355.01 87.708 355.568 88.77L353.732 89.886C353.246 88.788 352.112 87.024 351.248 85.692ZM374.972 79.32L376.592 78.204C377.582 79.05 378.752 80.256 379.292 81.102L377.546 82.326C377.078 81.462 375.944 80.202 374.972 79.32ZM363.182 82.83H379.436V84.882H363.182V82.83ZM362.84 87.924C365.018 87.6 368.438 87.006 371.588 86.43L371.75 88.392C368.834 89.004 365.702 89.634 363.38 90.102L362.84 87.924ZM366.602 79.932H368.78V92.1C368.78 93.27 368.546 93.864 367.808 94.206C367.088 94.548 366.026 94.62 364.55 94.62C364.46 94.008 364.1 93.036 363.776 92.424C364.802 92.478 365.846 92.478 366.17 92.46C366.494 92.46 366.602 92.37 366.602 92.064V79.932ZM370.292 77.826L371.75 79.662C369.41 80.382 366.332 80.868 363.722 81.156C363.614 80.652 363.344 79.842 363.092 79.356C365.63 79.014 368.438 78.456 370.292 77.826ZM372.056 77.862H374.324C374.198 85.116 375.818 92.496 377.456 92.496C377.834 92.496 378.032 91.614 378.14 89.472C378.59 89.976 379.328 90.48 379.904 90.714C379.562 93.9 378.878 94.692 377.24 94.692C373.514 94.692 372.11 85.944 372.056 77.862ZM376.952 85.476L378.86 86.286C376.988 89.634 374.054 92.316 370.796 94.044C370.472 93.504 369.878 92.784 369.338 92.298C372.416 90.894 375.35 88.446 376.952 85.476ZM387.021 79.9091L386.81 89.152H384.751L384.547 79.9091H387.021ZM385.781 93.1406C385.393 93.1406 385.06 93.0043 384.783 92.7315C384.511 92.4588 384.374 92.1264 384.374 91.7344C384.374 91.3509 384.511 91.0227 384.783 90.75C385.06 90.4773 385.393 90.3409 385.781 90.3409C386.16 90.3409 386.488 90.4773 386.765 90.75C387.046 91.0227 387.187 91.3509 387.187 91.7344C387.187 91.9943 387.121 92.2308 386.989 92.4439C386.861 92.657 386.69 92.8274 386.477 92.9553C386.268 93.0788 386.036 93.1406 385.781 93.1406Z" fill="#F4EEDA"/>
</g>
<defs>
<filter id="filter0_d_1875_6738" x="0.161255" y="0" width="532.339" height="146" filterUnits="userSpaceOnUse" color-interpolation-filters="sRGB">
<feFlood flood-opacity="0" result="BackgroundImageFix"/>
<feColorMatrix in="SourceAlpha" type="matrix" values="0 0 0 0 0 0 0 0 0 0 0 0 0 0 0 0 0 0 127 0" result="hardAlpha"/>
<feOffset dx="2" dy="2"/>
<feGaussianBlur stdDeviation="5"/>
<feComposite in2="hardAlpha" operator="out"/>
<feColorMatrix type="matrix" values="0 0 0 0 0 0 0 0 0 0 0 0 0 0 0 0 0 0 0.1 0"/>
<feBlend mode="normal" in2="BackgroundImageFix" result="effect1_dropShadow_1875_6738"/>
<feBlend mode="normal" in="SourceGraphic" in2="effect1_dropShadow_1875_6738" result="shape"/>
</filter>
</defs>
</svg>
