<svg width="373" height="154" viewBox="0 0 373 154" fill="none" xmlns="http://www.w3.org/2000/svg">
<g filter="url(#filter0_d_1882_6766)">
<rect width="335" height="134" rx="38" transform="matrix(-1 0 0 1 343 8)" fill="#9B6046"/>
<path d="M359.059 123.374C359.975 123.385 360.423 122.262 359.751 121.64L342.005 105.201C341.49 104.724 340.657 104.912 340.397 105.564L333.954 121.704C333.694 122.356 334.169 123.066 334.871 123.075L359.059 123.374Z" fill="#9B6046"/>
<path d="M61.13 52.714V53.47H68.78V52.714H61.13ZM61.13 50.68V51.418H68.78V50.68H61.13ZM59.06 49.294H70.94V54.856H59.06V49.294ZM56.936 55.504H73.028V57.232H56.936V55.504ZM65.18 57.898H71.066V59.554H65.18V57.898ZM59.69 57.952H63.794V59.446H59.69V57.952ZM59.69 60.202H63.794V61.696H59.69V60.202ZM67.394 59.392C68.402 61.588 70.526 63.244 73.424 63.928C72.974 64.306 72.416 65.098 72.146 65.602C69.032 64.702 66.89 62.686 65.666 59.878L67.394 59.392ZM70.436 57.898H70.814L71.174 57.826L72.506 58.33C71.444 62.092 68.906 64.396 65.702 65.602C65.468 65.098 64.928 64.324 64.532 63.928C67.322 63.046 69.644 60.976 70.436 58.204V57.898ZM56.774 62.83C58.574 62.722 61.22 62.524 63.74 62.308V64.054C61.328 64.288 58.808 64.522 56.918 64.684L56.774 62.83ZM62.678 56.062H64.748V65.62H62.678V56.062ZM58.34 56.116H60.32V63.46H58.34V56.116ZM86.546 56.188L88.49 56.8C87.302 58.942 85.322 60.85 83.342 62.038C83.054 61.624 82.37 60.796 81.938 60.418C83.81 59.482 85.592 57.934 86.546 56.188ZM86.78 48.646L88.652 49.618C87.698 50.752 86.6 51.958 85.736 52.75L84.26 51.904C85.106 51.04 86.186 49.672 86.78 48.646ZM90.146 49.978L92.072 51.04C90.146 53.074 87.608 55.378 85.592 56.836L84.17 55.9C86.168 54.37 88.652 51.922 90.146 49.978ZM82.55 52.012L83.846 50.608C85.16 51.436 86.852 52.66 87.626 53.596L86.258 55.144C85.52 54.226 83.9 52.894 82.55 52.012ZM89.948 54.01L91.622 53.11C92.684 54.28 93.89 55.918 94.376 57.052L92.558 58.078C92.126 56.98 91.01 55.252 89.948 54.01ZM82.19 55.288C84.8 55.27 88.85 55.216 92.648 55.144L92.576 56.872C88.922 56.998 85.052 57.124 82.352 57.196L82.19 55.288ZM85.934 59.158C87.392 61.588 90.434 63.226 94.376 63.838C93.926 64.288 93.368 65.116 93.098 65.674C88.958 64.846 85.988 62.866 84.188 59.716L85.934 59.158ZM86.384 58.078H91.226V59.698H84.944L86.384 58.078ZM90.524 58.078H90.938L91.28 58.006L92.63 58.6C91.028 62.65 87.338 64.72 82.964 65.71C82.784 65.17 82.316 64.324 81.938 63.892C85.898 63.208 89.336 61.372 90.524 58.384V58.078ZM81.002 52.588L82.91 53.29C81.74 55.486 79.868 57.79 78.104 59.248C77.906 58.78 77.33 57.7 76.97 57.232C78.5 56.116 80.066 54.37 81.002 52.588ZM80.678 48.718L82.586 49.474C81.47 51.04 79.778 52.786 78.266 53.902C77.996 53.47 77.474 52.714 77.132 52.318C78.428 51.418 79.94 49.906 80.678 48.718ZM79.526 56.476L81.362 54.64L81.542 54.73V65.656H79.526V56.476ZM100.874 66.484L100.298 65.044C101.81 64.558 102.638 63.676 102.638 62.65L102.512 60.868L103.502 62.488C103.214 62.758 102.836 62.884 102.44 62.884C101.54 62.884 100.712 62.308 100.712 61.264C100.712 60.256 101.522 59.644 102.494 59.644C103.754 59.644 104.438 60.616 104.438 62.128C104.438 64.162 103.106 65.818 100.874 66.484ZM120.836 48.718H122.978V65.62H120.836V48.718ZM119.27 52.282L120.818 52.498C120.746 54.046 120.422 56.188 119.99 57.574L118.388 56.998C118.82 55.792 119.144 53.776 119.27 52.282ZM122.492 52.318L123.968 51.688C124.508 52.786 125.12 54.226 125.354 55.126L123.77 55.864C123.59 54.946 123.014 53.452 122.492 52.318ZM125.066 51.436H134.282V57.88H132.158V53.452H125.066V51.436ZM124.238 56.746H135.416V58.816H124.238V56.746ZM130.61 57.178C131.384 60.148 133.004 62.596 135.794 63.64C135.29 64.108 134.588 65.044 134.264 65.674C131.168 64.234 129.62 61.336 128.666 57.556L130.61 57.178ZM128.18 48.718H130.358V55.108C130.358 58.762 129.62 63.064 124.958 65.71C124.67 65.26 123.932 64.45 123.428 64.036C127.928 61.858 128.18 58.132 128.18 55.09V48.718ZM140.024 50.968H155.684V53.074H140.024V50.968ZM146.594 48.718H148.862V65.62H146.594V48.718ZM146.846 56.854L148.646 57.538C146.882 60.724 143.984 63.478 140.78 64.954C140.438 64.414 139.736 63.532 139.25 63.1C142.364 61.894 145.334 59.446 146.846 56.854ZM148.772 56.998C150.284 59.482 153.236 61.822 156.332 62.956C155.792 63.424 155.09 64.324 154.73 64.936C151.598 63.496 148.754 60.778 146.99 57.7L148.772 56.998ZM142.202 56.206L143.57 54.838C144.38 55.522 145.55 56.512 146.126 57.124L144.704 58.636C144.164 57.988 143.03 56.944 142.202 56.206ZM142.922 53.182L145.028 53.578C144.362 56.206 143.084 58.456 141.41 59.86C141.05 59.464 140.222 58.762 139.736 58.438C141.32 57.286 142.418 55.378 142.922 53.182ZM150.806 56.278L152.21 54.982C153.326 55.828 155.036 57.106 155.864 57.88L154.37 59.374C153.614 58.564 151.958 57.232 150.806 56.278ZM151.418 53.182L153.506 53.56C153.02 55.72 152.03 57.628 150.824 58.834C150.41 58.492 149.492 57.934 148.988 57.7C150.194 56.674 151.04 55 151.418 53.182ZM164.054 56.674H174.818V65.674H172.64V58.312H166.124V65.674H164.054V56.674ZM160.472 54.226H176.51V55.918H160.472V54.226ZM161.732 51.814H175.52V53.452H161.732V51.814ZM165.458 59.068H173.522V60.436H165.458V59.068ZM165.458 61.21H173.522V62.56H165.458V61.21ZM165.206 63.388H173.522V65.026H165.206V63.388ZM174.206 48.772L175.466 50.32C171.776 50.932 166.412 51.148 161.948 51.112C161.912 50.644 161.714 49.924 161.534 49.492C165.944 49.492 171.164 49.276 174.206 48.772ZM166.538 50.266L168.788 50.716C167.564 55.198 165.404 59.482 161.246 61.876C160.958 61.39 160.328 60.58 159.896 60.166C163.712 58.114 165.692 54.154 166.538 50.266ZM184.754 56.674H195.518V65.674H193.34V58.312H186.824V65.674H184.754V56.674ZM181.172 54.226H197.21V55.918H181.172V54.226ZM182.432 51.814H196.22V53.452H182.432V51.814ZM186.158 59.068H194.222V60.436H186.158V59.068ZM186.158 61.21H194.222V62.56H186.158V61.21ZM185.906 63.388H194.222V65.026H185.906V63.388ZM194.906 48.772L196.166 50.32C192.476 50.932 187.112 51.148 182.648 51.112C182.612 50.644 182.414 49.924 182.234 49.492C186.644 49.492 191.864 49.276 194.906 48.772ZM187.238 50.266L189.488 50.716C188.264 55.198 186.104 59.482 181.946 61.876C181.658 61.39 181.028 60.58 180.596 60.166C184.412 58.114 186.392 54.154 187.238 50.266ZM63.776 85.896H66.962V87.84H63.776V85.896ZM60.464 89.37H67.52V91.35H60.464V89.37ZM62.84 83.898H64.802V90.486H62.84V83.898ZM63.2 90.612H65.126V98.244C65.126 99.18 64.982 99.72 64.388 100.044C63.794 100.35 63.002 100.386 61.904 100.386C61.85 99.828 61.598 99 61.364 98.442C62.012 98.46 62.696 98.46 62.912 98.46C63.128 98.46 63.2 98.406 63.2 98.208V90.612ZM61.22 92.322L63.02 92.664C62.786 94.464 62.318 96.372 61.742 97.578C61.382 97.308 60.608 96.858 60.176 96.642C60.716 95.562 61.04 93.888 61.22 92.322ZM65.108 92.844L66.728 92.214C67.196 93.42 67.772 94.986 68.006 95.94L66.296 96.696C66.08 95.706 65.576 94.086 65.108 92.844ZM67.214 84.96H71.714V86.958H67.214V84.96ZM71.246 84.96H71.57L71.894 84.888L73.064 85.14C72.596 93.114 70.58 97.956 66.782 100.584C66.476 100.098 65.936 99.378 65.486 99.018C68.888 96.984 70.832 92.124 71.246 85.374V84.96ZM69.194 86.886C69.716 92.052 70.868 96.768 73.658 99C73.19 99.36 72.506 100.134 72.2 100.674C69.212 97.956 68.078 93.024 67.448 87.102L69.194 86.886ZM57.116 85.104L58.52 83.79C59.42 84.456 60.68 85.41 61.274 86.058L59.798 87.552C59.24 86.868 58.034 85.824 57.116 85.104ZM56.396 90.18L57.638 88.794C58.502 89.37 59.744 90.27 60.338 90.882L59.06 92.448C58.502 91.818 57.296 90.846 56.396 90.18ZM56.666 99.378C57.296 98.01 58.16 95.778 58.826 93.762L60.302 94.824C59.744 96.678 59.024 98.73 58.322 100.422L56.666 99.378ZM86.114 89.568L88.166 89.748C87.662 94.608 86.51 98.334 83.99 100.656C83.666 100.314 82.784 99.612 82.298 99.324C84.782 97.344 85.772 93.888 86.114 89.568ZM91.478 85.59L93.476 86.238C92.828 87.354 92.126 88.614 91.532 89.424L90.074 88.848C90.578 87.948 91.172 86.58 91.478 85.59ZM84.188 86.994L85.718 86.346C86.204 86.958 86.636 87.84 86.798 88.452L85.178 89.172C85.052 88.578 84.638 87.66 84.188 86.994ZM87.212 86.634L88.742 86.04C89.156 86.706 89.516 87.624 89.606 88.236L87.986 88.902C87.896 88.272 87.59 87.336 87.212 86.634ZM91.982 83.736L93.458 85.104C90.866 85.842 87.122 86.238 83.954 86.382C83.9 85.968 83.648 85.284 83.45 84.888C86.51 84.708 89.984 84.312 91.982 83.736ZM83.846 88.83H93.638V90.45H83.846V88.83ZM83.468 91.368H93.962V93.006H83.468V91.368ZM86.42 93.852H91.622V95.49H85.592L86.42 93.852ZM91.1 93.852H91.478L91.82 93.798L93.044 94.194C92.072 97.74 89.75 99.666 86.582 100.638C86.366 100.17 85.916 99.414 85.556 99.018C88.274 98.352 90.38 96.678 91.1 94.104V93.852ZM87.554 94.824C88.724 96.93 91.154 98.334 94.358 98.874C93.926 99.306 93.35 100.098 93.08 100.638C89.696 99.864 87.302 98.064 85.916 95.292L87.554 94.824ZM77.258 87.3H82.262V89.262H77.258V87.3ZM79.166 83.718L81.128 83.88C80.57 87.696 79.706 92.502 78.95 95.796L77.312 94.716C77.96 91.926 78.752 87.246 79.166 83.718ZM78.14 94.356L79.328 92.862C80.858 94.104 82.784 95.886 83.594 97.146L82.28 98.856C81.506 97.56 79.652 95.67 78.14 94.356ZM81.524 87.3H81.884L82.226 87.264L83.45 87.39C83.18 94.5 81.794 98.46 78.5 100.638C78.23 100.116 77.69 99.36 77.258 98.946C80.012 97.38 81.308 93.438 81.524 87.678V87.3ZM104.402 84.852H114.878V86.85H104.402V84.852ZM111.512 85.842H113.564V98.262C113.564 99.486 113.276 100.008 112.466 100.296C111.656 100.602 110.378 100.62 108.488 100.602C108.398 100.062 108.092 99.216 107.84 98.676C109.118 98.73 110.558 98.73 110.972 98.712C111.368 98.712 111.512 98.604 111.512 98.244V85.842ZM105.788 88.902H110.144V95.796H105.788V93.978H108.254V90.72H105.788V88.902ZM104.834 88.902H106.67V96.93H104.834V88.902ZM98.678 84.492H102.818V86.418H100.568V100.638H98.678V84.492ZM102.332 84.492H102.674L102.98 84.42L104.384 85.212C103.916 86.742 103.34 88.542 102.818 89.946C103.916 91.368 104.132 92.646 104.132 93.708C104.132 94.878 103.898 95.652 103.322 96.084C103.034 96.3 102.692 96.426 102.296 96.48C101.972 96.534 101.54 96.534 101.126 96.534C101.126 96.012 100.946 95.202 100.658 94.662C100.964 94.698 101.216 94.716 101.432 94.68C101.63 94.68 101.792 94.644 101.936 94.554C102.152 94.392 102.242 93.978 102.242 93.474C102.242 92.61 102.026 91.422 100.982 90.162C101.504 88.578 102.062 86.22 102.332 85.104V84.492ZM125.12 85.194H135.362V86.94H125.12V85.194ZM130.07 83.826H131.06V93.852C131.078 95.148 132.122 97.398 135.56 98.748C135.146 99.27 134.696 100.08 134.408 100.656C131.78 99.63 130.448 97.686 130.052 96.57C129.71 97.668 128.252 99.666 125.552 100.638C125.318 100.134 124.814 99.288 124.436 98.82C128 97.524 129.062 95.13 129.062 93.87V83.826H130.07ZM126.47 90.522H132.842V89.424H125.696V87.804H134.858V92.142H126.47V90.522ZM125.912 90.522H127.802C127.514 92.196 127.136 94.212 126.812 95.526L124.958 95.31C125.318 94.032 125.696 92.07 125.912 90.522ZM126.506 93.114H133.868V94.824H126.002L126.506 93.114ZM133.508 93.114H135.398C135.398 93.114 135.398 93.492 135.398 93.69C135.362 95.598 135.308 96.48 135.02 96.876C134.786 97.164 134.48 97.308 134.138 97.362C133.85 97.416 133.346 97.434 132.824 97.398C132.788 96.966 132.626 96.336 132.446 95.958C132.716 95.994 132.914 96.012 133.04 96.012C133.184 96.012 133.274 95.976 133.364 95.85C133.472 95.67 133.49 95.076 133.508 93.366V93.114ZM118.64 87.3H123.914V89.28H118.64V87.3ZM120.764 83.718L122.816 83.916C122.186 87.696 121.25 92.448 120.44 95.724L118.766 94.608C119.45 91.836 120.296 87.21 120.764 83.718ZM119.612 94.284L120.782 92.862C122.438 94.194 124.562 96.12 125.498 97.434L124.202 99.108C123.32 97.722 121.268 95.706 119.612 94.284ZM123.176 87.3H123.536L123.878 87.264L125.12 87.426C124.796 94.392 123.302 98.37 119.99 100.602C119.702 100.08 119.162 99.306 118.73 98.892C121.52 97.29 122.906 93.312 123.176 87.678V87.3ZM141.374 86.634H146.9V98.766H141.374V96.858H144.938V88.524H141.374V86.634ZM140.114 86.634H142.076V100.098H140.114V86.634ZM141.284 91.44H145.892V93.312H141.284V91.44ZM142.67 83.7L145.028 84.042C144.614 85.266 144.164 86.544 143.804 87.39L142.076 87.012C142.328 86.076 142.58 84.69 142.67 83.7ZM149.276 86.508H154.532V88.47H149.276V86.508ZM153.794 86.508H155.792C155.792 86.508 155.792 87.21 155.774 87.48C155.54 95.58 155.324 98.442 154.586 99.396C154.082 100.098 153.578 100.296 152.84 100.404C152.156 100.512 151.058 100.494 150.014 100.44C149.978 99.846 149.69 98.928 149.294 98.352C150.464 98.442 151.544 98.46 151.994 98.46C152.354 98.46 152.552 98.388 152.786 98.136C153.362 97.524 153.596 94.428 153.794 86.922V86.508ZM149.33 83.718L151.4 84.204C150.698 86.868 149.528 89.604 148.304 91.332C147.908 90.972 147.026 90.36 146.522 90.072C147.728 88.56 148.754 86.112 149.33 83.718ZM148.448 91.692L150.14 90.738C151.022 91.98 152.21 93.708 152.768 94.77L150.932 95.886C150.446 94.788 149.312 93.024 148.448 91.692ZM171.344 86.076V87.3H173.612V86.076H171.344ZM167.348 86.076V87.3H169.544V86.076H167.348ZM163.388 86.076V87.3H165.548V86.076H163.388ZM161.39 84.474H175.7V88.92H161.39V84.474ZM164.54 93.186V94.05H172.46V93.186H164.54ZM164.54 95.346V96.228H172.46V95.346H164.54ZM164.54 91.026V91.908H172.46V91.026H164.54ZM162.38 89.658H174.728V97.596H162.38V89.658ZM169.508 98.55L171.218 97.452C173.234 98.082 175.556 98.946 176.942 99.558L174.584 100.638C173.468 100.062 171.47 99.198 169.508 98.55ZM165.512 97.416L167.492 98.316C165.98 99.288 163.586 100.188 161.714 100.692C161.354 100.26 160.598 99.486 160.112 99.108C162.074 98.766 164.252 98.118 165.512 97.416ZM181.172 84.798H197.264V86.688H181.172V84.798ZM185.132 83.718H187.328V87.768H185.132V83.718ZM191.108 83.718H193.322V87.534H191.108V83.718ZM181.19 94.068H197.264V95.976H181.19V94.068ZM188.03 92.862H190.298V100.62H188.03V92.862ZM187.436 94.932L189.2 95.724C187.544 97.722 184.79 99.396 182.108 100.242C181.784 99.684 181.118 98.802 180.632 98.352C183.242 97.722 186.014 96.408 187.436 94.932ZM190.892 95.076C192.296 96.552 194.996 97.758 197.642 98.316C197.174 98.766 196.508 99.63 196.202 100.206C193.52 99.414 190.856 97.776 189.254 95.76L190.892 95.076ZM194.708 87.246L196.418 88.938C192.458 89.838 186.842 90.18 182.108 90.198C182.054 89.676 181.82 88.812 181.622 88.344C186.266 88.29 191.63 87.93 194.708 87.246ZM182.396 91.044L184.196 90.324C184.844 91.098 185.51 92.142 185.762 92.898L183.836 93.672C183.62 92.952 183.008 91.854 182.396 91.044ZM187.418 90.63L189.308 90.018C189.758 90.738 190.226 91.656 190.352 92.322L188.354 92.988C188.246 92.358 187.85 91.368 187.418 90.63ZM194.222 89.604L196.436 90.378C195.662 91.566 194.816 92.826 194.15 93.636L192.458 92.916C193.07 92.034 193.826 90.63 194.222 89.604ZM208.766 83.97H211.142V97.92C211.142 99.252 210.836 99.846 210.008 100.188C209.18 100.548 207.938 100.62 206.174 100.602C206.066 99.972 205.652 98.946 205.31 98.352C206.498 98.424 207.848 98.406 208.226 98.388C208.622 98.388 208.766 98.262 208.766 97.902V83.97ZM213.104 88.704L215.21 87.912C216.686 90.45 218.18 93.744 218.63 95.994L216.272 96.93C215.894 94.752 214.526 91.35 213.104 88.704ZM204.05 88.092L206.516 88.506C205.904 91.224 204.914 94.59 203.402 96.588C202.88 96.192 201.89 95.688 201.296 95.454C202.754 93.618 203.672 90.45 204.05 88.092ZM229.376 85.086H239.06V87.192H229.376V85.086ZM233.642 85.896H235.928V97.848C235.928 99.072 235.658 99.72 234.848 100.098C234.038 100.476 232.85 100.512 231.176 100.512C231.068 99.864 230.654 98.802 230.33 98.19C231.446 98.262 232.778 98.262 233.156 98.244C233.516 98.244 233.642 98.136 233.642 97.812V85.896ZM223.868 85.284H228.71V96.084H223.868V93.996H226.64V87.354H223.868V85.284ZM222.77 85.284H224.858V97.542H222.77V85.284ZM252.812 83.736H254.918V86.112H252.812V83.736ZM248.474 85.284H259.4V88.146H257.438V86.868H250.346V88.146H248.474V85.284ZM251.408 87.534H253.028V88.848C253.028 89.208 253.1 89.262 253.568 89.262C253.766 89.262 254.702 89.262 254.972 89.262C255.332 89.262 255.422 89.136 255.476 88.452C255.764 88.65 256.394 88.866 256.826 88.956C256.682 90.216 256.232 90.558 255.188 90.558C254.864 90.558 253.658 90.558 253.334 90.558C251.75 90.558 251.408 90.162 251.408 88.848V87.534ZM249.608 87.588L251.156 88.182C250.85 89.1 250.4 90.018 249.554 90.63L248.114 89.712C248.816 89.244 249.374 88.398 249.608 87.588ZM252.668 87.21L253.784 86.4C254.468 86.778 255.224 87.39 255.602 87.84L254.432 88.758C254.054 88.272 253.28 87.606 252.668 87.21ZM249.446 91.008H258.464V94.05H256.664V92.268H255.728V94.05H254.36V92.268H253.442V94.05H252.074V92.268H251.174V94.05H249.446V91.008ZM248.168 93.384H259.796V94.986H248.168V93.384ZM248.42 95.634H259.508V97.254H248.42V95.634ZM252.902 96.21H254.954V98.676C254.954 99.594 254.774 100.062 254.072 100.332C253.388 100.62 252.524 100.62 251.318 100.62C251.21 100.08 250.886 99.342 250.634 98.838C251.408 98.874 252.326 98.874 252.578 98.856C252.83 98.838 252.902 98.802 252.902 98.604V96.21ZM256.304 88.164L257.69 87.444C258.482 88.128 259.328 89.118 259.724 89.838L258.23 90.612C257.906 89.928 257.078 88.902 256.304 88.164ZM244.55 85.536H247.862V95.724H244.55V93.816H246.206V87.462H244.55V85.536ZM243.398 85.536H245.018V97.272H243.398V85.536ZM267.021 85.9091L266.81 95.152H264.751L264.547 85.9091H267.021ZM265.781 99.1406C265.393 99.1406 265.06 99.0043 264.783 98.7315C264.511 98.4588 264.374 98.1264 264.374 97.7344C264.374 97.3509 264.511 97.0227 264.783 96.75C265.06 96.4773 265.393 96.3409 265.781 96.3409C266.16 96.3409 266.488 96.4773 266.765 96.75C267.046 97.0227 267.187 97.3509 267.187 97.7344C267.187 97.9943 267.121 98.2308 266.989 98.4439C266.861 98.657 266.69 98.8274 266.477 98.9553C266.268 99.0788 266.036 99.1406 265.781 99.1406Z" fill="#F4EEDA"/>
</g>
<defs>
<filter id="filter0_d_1882_6766" x="0" y="0" width="372.073" height="154" filterUnits="userSpaceOnUse" color-interpolation-filters="sRGB">
<feFlood flood-opacity="0" result="BackgroundImageFix"/>
<feColorMatrix in="SourceAlpha" type="matrix" values="0 0 0 0 0 0 0 0 0 0 0 0 0 0 0 0 0 0 127 0" result="hardAlpha"/>
<feOffset dx="2" dy="2"/>
<feGaussianBlur stdDeviation="5"/>
<feComposite in2="hardAlpha" operator="out"/>
<feColorMatrix type="matrix" values="0 0 0 0 0 0 0 0 0 0 0 0 0 0 0 0 0 0 0.1 0"/>
<feBlend mode="normal" in2="BackgroundImageFix" result="effect1_dropShadow_1882_6766"/>
<feBlend mode="normal" in="SourceGraphic" in2="effect1_dropShadow_1882_6766" result="shape"/>
</filter>
</defs>
</svg>
