<svg width="365" height="146" viewBox="0 0 365 146" fill="none" xmlns="http://www.w3.org/2000/svg">
<g filter="url(#filter0_d_1926_6527)">
<rect x="25" y="8" width="328" height="126" rx="38" fill="#9B6046"/>
<path d="M9.67566 116.418C8.76024 116.429 8.31212 115.306 8.98372 114.684L25.4644 99.4168C25.9793 98.9398 26.8125 99.1278 27.0727 99.7797L33.0559 114.769C33.3161 115.421 32.8413 116.131 32.1395 116.14L9.67566 116.418Z" fill="#9B6046"/>
<path d="M107.182 44.682L108.694 46.14C107.146 46.734 105.166 47.184 103.492 47.472C103.402 47.04 103.132 46.374 102.916 45.978C104.446 45.672 106.138 45.168 107.182 44.682ZM102.358 45.726L104.482 46.122V51.648H102.358V45.726ZM102.358 50.802H113.698V47.166H109.738V45.51H115.84V52.476H102.358V50.802ZM103.258 48.138H108.208V49.74H103.258V48.138ZM109.846 48.138H114.616V49.74H109.846V48.138ZM102.7 52.98H104.77V59.946L102.7 60.27V52.98ZM107.884 52.998H109.846V60.18L107.884 60.486V52.998ZM100.738 59.514C102.286 59.37 104.518 59.118 106.696 58.848L106.768 60.63C104.77 60.918 102.646 61.17 101.026 61.386L100.738 59.514ZM107.002 59.586C108.55 59.442 110.8 59.172 112.978 58.902L113.05 60.63C111.034 60.9 108.892 61.17 107.254 61.404L107.002 59.586ZM112.942 52.98H115.066C114.94 57.372 115.3 59.604 115.84 59.604C116.056 59.604 116.164 59.208 116.2 58.038C116.578 58.398 117.154 58.74 117.604 58.902C117.442 61.08 116.866 61.656 115.678 61.656C113.5 61.656 112.996 58.398 112.942 52.98ZM104.842 54.312L105.886 53.214C106.552 53.538 107.398 54.078 107.812 54.492L106.696 55.716C106.318 55.284 105.49 54.69 104.842 54.312ZM104.77 57.12L105.85 55.968C106.498 56.292 107.29 56.814 107.668 57.228L106.552 58.488C106.192 58.056 105.418 57.48 104.77 57.12ZM109.9 54.438L110.926 53.304C111.61 53.628 112.51 54.168 112.942 54.582L111.88 55.842C111.484 55.41 110.602 54.816 109.9 54.438ZM109.81 57.156L110.89 56.004C111.592 56.382 112.51 56.976 112.942 57.426L111.808 58.686C111.394 58.236 110.53 57.57 109.81 57.156ZM128.674 53.268H137.17V54.816H128.674V53.268ZM127.594 45.456H138.106V47.166H127.594V45.456ZM127.504 55.536H138.142V57.246H127.504V55.536ZM134.344 58.434L135.874 57.444C136.738 58.218 137.8 59.316 138.286 60.09L136.666 61.224C136.216 60.468 135.19 59.28 134.344 58.434ZM129.88 49.578V51.054H135.784V49.578H129.88ZM128.116 48.012H137.638V52.602H128.116V48.012ZM131.788 56.382H133.786V59.73C133.786 60.576 133.66 61.062 133.084 61.35C132.526 61.62 131.788 61.638 130.798 61.638C130.708 61.098 130.456 60.396 130.222 59.892C130.798 59.928 131.374 59.928 131.536 59.91C131.734 59.91 131.788 59.856 131.788 59.694V56.382ZM129.322 57.408L130.96 58.308C130.222 59.424 129.142 60.522 128.134 61.206C127.828 60.81 127.252 60.252 126.82 59.91C127.756 59.298 128.746 58.272 129.322 57.408ZM130.618 46.464H132.292V48.948H130.618V46.464ZM130.816 48.678H132.274V52.188H130.816V48.678ZM133.264 46.464H134.938V48.948H133.264V46.464ZM133.264 48.678H134.722V52.188H133.264V48.678ZM121.492 48.444H127.432V50.442H121.492V48.444ZM123.688 44.718H125.65V61.62H123.688V44.718ZM123.652 49.812L124.858 50.226C124.336 53.07 123.31 56.544 122.032 58.398C121.852 57.822 121.384 56.994 121.078 56.49C122.23 54.924 123.238 52.098 123.652 49.812ZM125.56 51.162C125.974 51.684 127.468 54.042 127.774 54.582L126.658 56.13C126.244 55.032 125.164 52.926 124.66 52.044L125.56 51.162ZM146.674 57.408H148.762V59.226C148.762 59.694 148.924 59.748 149.734 59.748C150.094 59.748 151.66 59.748 152.146 59.748C152.776 59.748 152.902 59.568 152.992 58.362C153.406 58.65 154.252 58.92 154.81 59.046C154.576 60.972 154 61.476 152.344 61.476C151.876 61.476 149.932 61.476 149.464 61.476C147.214 61.476 146.674 60.954 146.674 59.244V57.408ZM148.474 57.102L149.77 56.022C150.724 56.508 151.876 57.318 152.434 57.966L151.048 59.154C150.544 58.524 149.428 57.66 148.474 57.102ZM154.036 58.128L155.782 57.21C156.934 58.038 158.194 59.28 158.752 60.27L156.844 61.26C156.358 60.324 155.17 59.028 154.036 58.128ZM148.096 54.204L149.518 53.538C150.022 54.024 150.598 54.744 150.868 55.23L149.374 55.968C149.14 55.464 148.6 54.726 148.096 54.204ZM144.28 57.318L146.152 58.074C145.648 59.334 144.964 60.612 143.902 61.458L142.084 60.342C143.074 59.622 143.866 58.452 144.28 57.318ZM142.642 46.374H144.334V51.828H150.58V53.394H142.642V46.374ZM146.638 47.868V48.498H148.42V47.868H146.638ZM146.638 49.506V50.154H148.42V49.506H146.638ZM146.638 46.212V46.842H148.42V46.212H146.638ZM144.982 45.15H150.13V51.234H144.982V45.15ZM145.9 52.512H147.79V56.94H145.9V52.512ZM153.766 52.116H155.656V56.94H153.766V52.116ZM150.706 51.414C152.434 51.36 154.99 51.252 157.492 51.144L157.474 52.602C155.152 52.746 152.758 52.89 150.94 52.98L150.706 51.414ZM153.586 46.284L155.332 46.95C154.594 47.796 153.82 48.696 153.19 49.272L151.948 48.714C152.506 48.048 153.208 47.022 153.586 46.284ZM155.746 47.634L157.384 48.354C156.106 49.704 154.468 51.306 153.19 52.278L152.056 51.666C153.298 50.604 154.846 48.894 155.746 47.634ZM143.848 53.574L145.558 54.024C145.09 55.122 144.262 56.274 143.506 57.012C143.146 56.724 142.426 56.292 141.994 56.076C142.768 55.428 143.47 54.492 143.848 53.574ZM155.89 53.772L157.33 53.142C157.996 53.898 158.716 54.978 159.004 55.734L157.474 56.436C157.222 55.698 156.538 54.582 155.89 53.772ZM155.746 50.514L157.114 49.884C157.852 50.622 158.626 51.666 158.914 52.422L157.456 53.142C157.204 52.404 156.466 51.306 155.746 50.514ZM150.85 48.822L151.948 47.724C152.938 48.336 154.162 49.272 154.738 49.956L153.568 51.18C153.028 50.478 151.84 49.488 150.85 48.822ZM151.93 53.322L153.586 53.736C153.19 54.744 152.506 55.842 151.876 56.544C151.552 56.274 150.868 55.824 150.454 55.626C151.066 54.996 151.606 54.15 151.93 53.322ZM156.97 44.736L158.248 46.05C156.304 46.662 153.478 46.968 151.12 47.112C151.066 46.716 150.85 46.104 150.652 45.726C152.884 45.546 155.494 45.204 156.97 44.736ZM167.968 46.302H179.434V48.138H167.968V46.302ZM172.486 44.754H174.664V47.166H172.486V44.754ZM171.172 50.208V51.198H176.068V50.208H171.172ZM169.12 48.786H178.246V52.62H169.12V48.786ZM167.536 53.304H179.65V56.796H177.688V54.96H169.426V56.796H167.536V53.304ZM170.02 55.698H177.184V57.426H170.02V55.698ZM172.486 56.112H174.646V59.514C174.646 60.54 174.448 61.062 173.692 61.35C172.936 61.638 171.91 61.638 170.56 61.638C170.488 61.044 170.2 60.252 169.948 59.694C170.794 59.73 171.856 59.73 172.126 59.712C172.414 59.712 172.486 59.658 172.486 59.46V56.112ZM166.366 44.79L168.4 45.42C167.23 48.498 165.358 51.738 163.396 53.79C163.198 53.268 162.622 52.08 162.244 51.558C163.882 49.92 165.448 47.364 166.366 44.79ZM164.62 49.758L166.672 47.706L166.69 47.724V61.602H164.62V49.758ZM183.79 47.22H199.846V49.29H183.79V47.22ZM189.658 53.052H199.09V55.05H189.658V53.052ZM188.956 59.172H199.774V61.17H188.956V59.172ZM193.33 50.064H195.508V60.234H193.33V50.064ZM189.46 44.7L191.71 45.24C190.378 49.578 188.11 53.952 184.258 56.58C184.042 55.968 183.538 55.014 183.214 54.492C186.472 52.368 188.524 48.336 189.46 44.7ZM185.86 52.242H188.038V61.584H185.86V52.242ZM209.674 50.064H213.148V52.134H209.674V50.064ZM208.846 44.718H211.078V59.064L208.846 59.316V44.718ZM205.426 48.462H207.532V59.532L205.426 59.82V48.462ZM204.094 59.244C206.398 58.92 209.872 58.326 213.04 57.768L213.202 59.892C210.142 60.486 206.83 61.062 204.454 61.53L204.094 59.244ZM218.98 48.606L220.708 50.388C219.106 51.504 217.072 52.548 215.29 53.358C215.146 52.872 214.768 52.116 214.48 51.666C216.118 50.838 217.864 49.614 218.98 48.606ZM213.796 44.718H216.046V58.002C216.046 58.992 216.118 59.136 216.694 59.136C216.964 59.136 218.062 59.136 218.332 59.136C218.926 59.136 219.016 58.524 219.106 56.166C219.646 56.562 220.528 56.958 221.14 57.102C220.924 60.09 220.366 61.242 218.548 61.242C218.134 61.242 216.73 61.242 216.334 61.242C214.354 61.242 213.796 60.504 213.796 57.966V44.718ZM227.674 62.484L227.098 61.044C228.61 60.558 229.438 59.676 229.438 58.65L229.312 56.868L230.302 58.488C230.014 58.758 229.636 58.884 229.24 58.884C228.34 58.884 227.512 58.308 227.512 57.264C227.512 56.256 228.322 55.644 229.294 55.644C230.554 55.644 231.238 56.616 231.238 58.128C231.238 60.162 229.906 61.818 227.674 62.484ZM100.756 80.42H108.01V82.13H100.756V80.42ZM108.1 81.05H117.154V82.724H108.1V81.05ZM107.83 88.916H117.406V90.716H107.83V88.916ZM101.602 80.996H103.528V87.926H101.602V80.996ZM111.43 79.772H113.536V84.614H111.43V79.772ZM105.292 80.996H107.254V96.602H105.292V80.996ZM102.52 82.958H106.336V84.272H102.52V82.958ZM100.864 89.762H104.806V91.13H100.864V89.762ZM101.134 91.868H104.68V93.2H101.134V91.868ZM102.484 85.082H106.426V86.396H102.484V85.082ZM100.702 87.512C102.16 87.458 104.284 87.332 106.372 87.206V88.79C104.428 88.952 102.43 89.096 100.882 89.204L100.702 87.512ZM102.142 90.23H103.726V94.91H102.142V90.23ZM100.612 94.208C101.764 94.136 103.33 93.992 104.968 93.848L104.986 95.288C103.492 95.45 102.016 95.612 100.774 95.738L100.612 94.208ZM114.238 85.154V86.648H115.246V85.154H114.238ZM112.06 85.154V86.648H113.032V85.154H112.06ZM109.9 85.154V86.648H110.854V85.154H109.9ZM108.334 83.606H116.902V88.178H108.334V83.606ZM110.098 91.904H111.898V94.334C111.898 94.766 111.952 94.82 112.312 94.82C112.492 94.82 113.158 94.82 113.356 94.82C113.698 94.82 113.77 94.658 113.824 93.362C114.166 93.632 114.922 93.902 115.408 94.028C115.228 95.936 114.76 96.404 113.572 96.404C113.248 96.404 112.348 96.404 112.042 96.404C110.44 96.404 110.098 95.918 110.098 94.37V91.904ZM110.422 91.274L111.556 90.068C112.51 90.428 113.608 91.076 114.184 91.562L113.032 92.912C112.456 92.354 111.34 91.652 110.422 91.274ZM108.442 91.868L109.99 92.408C109.738 93.65 109.324 95.072 108.55 96.008L107.128 94.928C107.776 94.208 108.226 92.984 108.442 91.868ZM114.184 92.372L115.696 91.706C116.614 92.714 117.37 94.136 117.604 95.162L115.966 95.9C115.768 94.892 115.066 93.416 114.184 92.372ZM121.456 80.42H128.71V82.13H121.456V80.42ZM128.8 81.05H137.854V82.724H128.8V81.05ZM128.53 88.916H138.106V90.716H128.53V88.916ZM122.302 80.996H124.228V87.926H122.302V80.996ZM132.13 79.772H134.236V84.614H132.13V79.772ZM125.992 80.996H127.954V96.602H125.992V80.996ZM123.22 82.958H127.036V84.272H123.22V82.958ZM121.564 89.762H125.506V91.13H121.564V89.762ZM121.834 91.868H125.38V93.2H121.834V91.868ZM123.184 85.082H127.126V86.396H123.184V85.082ZM121.402 87.512C122.86 87.458 124.984 87.332 127.072 87.206V88.79C125.128 88.952 123.13 89.096 121.582 89.204L121.402 87.512ZM122.842 90.23H124.426V94.91H122.842V90.23ZM121.312 94.208C122.464 94.136 124.03 93.992 125.668 93.848L125.686 95.288C124.192 95.45 122.716 95.612 121.474 95.738L121.312 94.208ZM134.938 85.154V86.648H135.946V85.154H134.938ZM132.76 85.154V86.648H133.732V85.154H132.76ZM130.6 85.154V86.648H131.554V85.154H130.6ZM129.034 83.606H137.602V88.178H129.034V83.606ZM130.798 91.904H132.598V94.334C132.598 94.766 132.652 94.82 133.012 94.82C133.192 94.82 133.858 94.82 134.056 94.82C134.398 94.82 134.47 94.658 134.524 93.362C134.866 93.632 135.622 93.902 136.108 94.028C135.928 95.936 135.46 96.404 134.272 96.404C133.948 96.404 133.048 96.404 132.742 96.404C131.14 96.404 130.798 95.918 130.798 94.37V91.904ZM131.122 91.274L132.256 90.068C133.21 90.428 134.308 91.076 134.884 91.562L133.732 92.912C133.156 92.354 132.04 91.652 131.122 91.274ZM129.142 91.868L130.69 92.408C130.438 93.65 130.024 95.072 129.25 96.008L127.828 94.928C128.476 94.208 128.926 92.984 129.142 91.868ZM134.884 92.372L136.396 91.706C137.314 92.714 138.07 94.136 138.304 95.162L136.666 95.9C136.468 94.892 135.766 93.416 134.884 92.372ZM148.402 80.852H158.878V82.85H148.402V80.852ZM155.512 81.842H157.564V94.262C157.564 95.486 157.276 96.008 156.466 96.296C155.656 96.602 154.378 96.62 152.488 96.602C152.398 96.062 152.092 95.216 151.84 94.676C153.118 94.73 154.558 94.73 154.972 94.712C155.368 94.712 155.512 94.604 155.512 94.244V81.842ZM149.788 84.902H154.144V91.796H149.788V89.978H152.254V86.72H149.788V84.902ZM148.834 84.902H150.67V92.93H148.834V84.902ZM142.678 80.492H146.818V82.418H144.568V96.638H142.678V80.492ZM146.332 80.492H146.674L146.98 80.42L148.384 81.212C147.916 82.742 147.34 84.542 146.818 85.946C147.916 87.368 148.132 88.646 148.132 89.708C148.132 90.878 147.898 91.652 147.322 92.084C147.034 92.3 146.692 92.426 146.296 92.48C145.972 92.534 145.54 92.534 145.126 92.534C145.126 92.012 144.946 91.202 144.658 90.662C144.964 90.698 145.216 90.716 145.432 90.68C145.63 90.68 145.792 90.644 145.936 90.554C146.152 90.392 146.242 89.978 146.242 89.474C146.242 88.61 146.026 87.422 144.982 86.162C145.504 84.578 146.062 82.22 146.332 81.104V80.492ZM169.12 81.194H179.362V82.94H169.12V81.194ZM174.07 79.826H175.06V89.852C175.078 91.148 176.122 93.398 179.56 94.748C179.146 95.27 178.696 96.08 178.408 96.656C175.78 95.63 174.448 93.686 174.052 92.57C173.71 93.668 172.252 95.666 169.552 96.638C169.318 96.134 168.814 95.288 168.436 94.82C172 93.524 173.062 91.13 173.062 89.87V79.826H174.07ZM170.47 86.522H176.842V85.424H169.696V83.804H178.858V88.142H170.47V86.522ZM169.912 86.522H171.802C171.514 88.196 171.136 90.212 170.812 91.526L168.958 91.31C169.318 90.032 169.696 88.07 169.912 86.522ZM170.506 89.114H177.868V90.824H170.002L170.506 89.114ZM177.508 89.114H179.398C179.398 89.114 179.398 89.492 179.398 89.69C179.362 91.598 179.308 92.48 179.02 92.876C178.786 93.164 178.48 93.308 178.138 93.362C177.85 93.416 177.346 93.434 176.824 93.398C176.788 92.966 176.626 92.336 176.446 91.958C176.716 91.994 176.914 92.012 177.04 92.012C177.184 92.012 177.274 91.976 177.364 91.85C177.472 91.67 177.49 91.076 177.508 89.366V89.114ZM162.64 83.3H167.914V85.28H162.64V83.3ZM164.764 79.718L166.816 79.916C166.186 83.696 165.25 88.448 164.44 91.724L162.766 90.608C163.45 87.836 164.296 83.21 164.764 79.718ZM163.612 90.284L164.782 88.862C166.438 90.194 168.562 92.12 169.498 93.434L168.202 95.108C167.32 93.722 165.268 91.706 163.612 90.284ZM167.176 83.3H167.536L167.878 83.264L169.12 83.426C168.796 90.392 167.302 94.37 163.99 96.602C163.702 96.08 163.162 95.306 162.73 94.892C165.52 93.29 166.906 89.312 167.176 83.678V83.3ZM185.374 82.634H190.9V94.766H185.374V92.858H188.938V84.524H185.374V82.634ZM184.114 82.634H186.076V96.098H184.114V82.634ZM185.284 87.44H189.892V89.312H185.284V87.44ZM186.67 79.7L189.028 80.042C188.614 81.266 188.164 82.544 187.804 83.39L186.076 83.012C186.328 82.076 186.58 80.69 186.67 79.7ZM193.276 82.508H198.532V84.47H193.276V82.508ZM197.794 82.508H199.792C199.792 82.508 199.792 83.21 199.774 83.48C199.54 91.58 199.324 94.442 198.586 95.396C198.082 96.098 197.578 96.296 196.84 96.404C196.156 96.512 195.058 96.494 194.014 96.44C193.978 95.846 193.69 94.928 193.294 94.352C194.464 94.442 195.544 94.46 195.994 94.46C196.354 94.46 196.552 94.388 196.786 94.136C197.362 93.524 197.596 90.428 197.794 82.922V82.508ZM193.33 79.718L195.4 80.204C194.698 82.868 193.528 85.604 192.304 87.332C191.908 86.972 191.026 86.36 190.522 86.072C191.728 84.56 192.754 82.112 193.33 79.718ZM192.448 87.692L194.14 86.738C195.022 87.98 196.21 89.708 196.768 90.77L194.932 91.886C194.446 90.788 193.312 89.024 192.448 87.692ZM208.846 84.866H211.096V93.47C211.096 94.352 211.24 94.478 212.086 94.478C212.464 94.478 214.084 94.478 214.552 94.478C215.434 94.478 215.578 93.884 215.722 91.058C216.208 91.454 217.126 91.85 217.738 91.994C217.486 95.378 216.892 96.44 214.732 96.44C214.246 96.44 212.266 96.44 211.798 96.44C209.494 96.44 208.846 95.738 208.846 93.47V84.866ZM208.918 81.446L210.322 79.772C212.446 80.528 214.93 81.878 216.37 82.922L214.93 84.83C213.562 83.678 211.042 82.274 208.918 81.446ZM205.606 86.144L207.73 86.576C207.46 89.078 206.992 91.85 205.804 93.614L203.788 92.462C204.85 90.914 205.372 88.556 205.606 86.144ZM215.974 86.432L217.954 85.442C219.502 87.422 220.798 90.068 221.23 91.958L219.034 93.038C218.674 91.184 217.414 88.412 215.974 86.432ZM233.992 94.118H239.662V95.972H233.992V94.118ZM234.766 81.428H239.338V83.264H234.766V81.428ZM233.11 89.906H240.544V96.512H238.492V91.724H235.09V96.566H233.11V89.906ZM238.582 81.428H238.96L239.338 81.356L240.706 81.932C239.392 86.45 236.35 89.33 232.696 90.878C232.444 90.374 231.904 89.636 231.472 89.24C234.73 88.052 237.574 85.298 238.582 81.77V81.428ZM234.838 79.7L236.89 80.204C236.08 82.634 234.748 84.974 233.29 86.45C232.93 86.072 232.102 85.37 231.616 85.064C233.02 83.804 234.208 81.788 234.838 79.7ZM234.892 82.436C235.918 84.866 238.258 87.656 241.93 88.808C241.498 89.222 240.886 90.068 240.598 90.626C236.89 89.186 234.532 86.036 233.434 83.372L234.892 82.436ZM225.46 87.656H227.224V94.208H225.46V87.656ZM227.476 82.238V84.524H229.852V82.238H227.476ZM225.604 80.384H231.832V86.378H225.604V80.384ZM228.124 85.622H230.032V93.668H228.124V85.622ZM224.668 93.866C226.576 93.524 229.456 92.894 232.156 92.282L232.354 94.19C229.816 94.82 227.08 95.468 225.028 95.936L224.668 93.866ZM228.88 88.484H232.012V90.374H228.88V88.484ZM248.122 80.366H262.018V82.31H248.122V80.366ZM248.32 94.388H262.054V96.17H248.32V94.388ZM255.43 91.22H260.506V92.876H255.43V91.22ZM246.7 80.366H248.734V85.928C248.734 89.006 248.518 93.614 247.06 96.584C246.664 96.278 245.764 95.774 245.242 95.594C246.592 92.822 246.7 88.772 246.7 85.928V80.366ZM254.296 89.744H256.384V95.396H254.296V89.744ZM250.264 91.004H252.334V95.414H250.264V91.004ZM249.094 85.082H254.692V86.576H249.094V85.082ZM251.056 83.228H252.82V89.852H251.056V83.228ZM250.84 85.748L252.01 86.18C251.434 87.566 250.372 89.06 249.31 89.87C249.058 89.456 248.536 88.88 248.158 88.574C249.184 87.998 250.264 86.828 250.84 85.748ZM255.142 85.082H261.604V86.576H255.142V85.082ZM257.248 83.228H259.048V89.852H257.248V83.228ZM256.816 85.73L258.004 86.144C257.464 87.548 256.438 89.06 255.376 89.87C255.106 89.456 254.584 88.862 254.206 88.556C255.232 87.962 256.294 86.81 256.816 85.73ZM252.748 86.414C253.162 86.63 254.386 87.404 254.71 87.656L253.684 88.952C253.27 88.502 252.244 87.566 251.74 87.17L252.748 86.414ZM259.426 85.73C259.984 86.81 261.082 87.872 262.288 88.394C261.892 88.718 261.352 89.348 261.082 89.798C259.858 89.042 258.796 87.566 258.238 86.09L259.426 85.73ZM253.27 82.418L254.602 83.498C253.198 84.038 251.128 84.308 249.4 84.398C249.31 84.056 249.112 83.516 248.932 83.174C250.516 83.066 252.298 82.796 253.27 82.418ZM259.768 82.328L261.1 83.408C259.552 83.984 257.266 84.272 255.34 84.362C255.286 84.038 255.07 83.462 254.89 83.156C256.654 83.012 258.688 82.742 259.768 82.328ZM276.868 88.376H279.01V95.648H276.868V88.376ZM273.268 87.602H282.646V89.456H273.268V87.602ZM272.584 94.352H283.042V96.224H272.584V94.352ZM273.7 90.95H282.196V92.768H273.7V90.95ZM275.842 82.202V84.686H280.054V82.202H275.842ZM273.844 80.384H282.16V86.504H273.844V80.384ZM268.912 81.392H271.018V96.602H268.912V81.392ZM266.32 84.776H272.926V86.792H266.32V84.776ZM269.038 85.586L270.298 86.144C269.614 88.718 268.336 91.922 266.95 93.704C266.752 93.074 266.284 92.174 265.942 91.634C267.202 90.194 268.462 87.584 269.038 85.586ZM271.72 79.898L273.16 81.572C271.324 82.274 268.822 82.76 266.716 83.03C266.626 82.562 266.356 81.842 266.104 81.392C268.102 81.05 270.334 80.528 271.72 79.898ZM270.964 87.278C271.414 87.656 272.98 89.276 273.322 89.69L272.098 91.382C271.666 90.518 270.586 88.88 270.028 88.124L270.964 87.278ZM288.914 95.1406C288.527 95.1406 288.194 95.0043 287.917 94.7315C287.64 94.4588 287.504 94.1264 287.508 93.7344C287.504 93.3509 287.64 93.0227 287.917 92.75C288.194 92.4773 288.527 92.3409 288.914 92.3409C289.289 92.3409 289.615 92.4773 289.892 92.75C290.174 93.0227 290.316 93.3509 290.321 93.7344C290.316 93.9943 290.248 94.2308 290.116 94.4439C289.988 94.657 289.818 94.8274 289.605 94.9553C289.396 95.0788 289.166 95.1406 288.914 95.1406ZM296.835 95.1406C296.447 95.1406 296.115 95.0043 295.838 94.7315C295.561 94.4588 295.425 94.1264 295.429 93.7344C295.425 93.3509 295.561 93.0227 295.838 92.75C296.115 92.4773 296.447 92.3409 296.835 92.3409C297.21 92.3409 297.536 92.4773 297.813 92.75C298.094 93.0227 298.237 93.3509 298.241 93.7344C298.237 93.9943 298.169 94.2308 298.037 94.4439C297.909 94.657 297.738 94.8274 297.525 94.9553C297.317 95.0788 297.086 95.1406 296.835 95.1406ZM304.756 95.1406C304.368 95.1406 304.036 95.0043 303.759 94.7315C303.482 94.4588 303.345 94.1264 303.349 93.7344C303.345 93.3509 303.482 93.0227 303.759 92.75C304.036 92.4773 304.368 92.3409 304.756 92.3409C305.131 92.3409 305.457 92.4773 305.734 92.75C306.015 93.0227 306.158 93.3509 306.162 93.7344C306.158 93.9943 306.09 94.2308 305.957 94.4439C305.83 94.657 305.659 94.8274 305.446 94.9553C305.237 95.0788 305.007 95.1406 304.756 95.1406Z" fill="#F4EEDA"/>
</g>
<defs>
<filter id="filter0_d_1926_6527" x="0.661194" y="0" width="364.339" height="146" filterUnits="userSpaceOnUse" color-interpolation-filters="sRGB">
<feFlood flood-opacity="0" result="BackgroundImageFix"/>
<feColorMatrix in="SourceAlpha" type="matrix" values="0 0 0 0 0 0 0 0 0 0 0 0 0 0 0 0 0 0 127 0" result="hardAlpha"/>
<feOffset dx="2" dy="2"/>
<feGaussianBlur stdDeviation="5"/>
<feComposite in2="hardAlpha" operator="out"/>
<feColorMatrix type="matrix" values="0 0 0 0 0 0 0 0 0 0 0 0 0 0 0 0 0 0 0.1 0"/>
<feBlend mode="normal" in2="BackgroundImageFix" result="effect1_dropShadow_1926_6527"/>
<feBlend mode="normal" in="SourceGraphic" in2="effect1_dropShadow_1926_6527" result="shape"/>
</filter>
</defs>
</svg>
