<svg width="365" height="146" viewBox="0 0 365 146" fill="none" xmlns="http://www.w3.org/2000/svg">
<g filter="url(#filter0_d_1875_6717)">
<rect x="25" y="8" width="328" height="126" rx="38" fill="#3C4040"/>
<path d="M9.67566 116.418C8.76024 116.429 8.31212 115.306 8.98372 114.684L25.4644 99.417C25.9793 98.94 26.8125 99.128 27.0727 99.7798L33.0559 114.77C33.3161 115.421 32.8413 116.132 32.1395 116.14L9.67566 116.418Z" fill="#3C4040"/>
<path d="M57.285 35.54H59.01V47.42H57.285V35.54ZM53.91 36.89H62.265V38.285H53.91V36.89ZM53.46 46.685H62.58V48.11H53.46V46.685ZM54.3 44.63H62.025V45.995H54.3V44.63ZM61.215 34.385L62.25 35.72C60.075 36.14 57 36.32 54.45 36.35C54.42 35.96 54.225 35.36 54.06 35C56.535 34.925 59.445 34.73 61.215 34.385ZM55.965 41.945V42.71H60.39V41.945H55.965ZM55.965 40.145V40.895H60.39V40.145H55.965ZM54.405 38.9H62.025V43.955H54.405V38.9ZM50.76 35.66H52.515V48.335H50.76V35.66ZM48.6 38.48H54.105V40.16H48.6V38.48ZM50.865 39.155L51.915 39.62C51.345 41.765 50.28 44.435 49.125 45.92C48.96 45.395 48.57 44.645 48.285 44.195C49.335 42.995 50.385 40.82 50.865 39.155ZM53.1 34.415L54.3 35.81C52.77 36.395 50.685 36.8 48.93 37.025C48.855 36.635 48.63 36.035 48.42 35.66C50.085 35.375 51.945 34.94 53.1 34.415ZM52.47 40.565C52.845 40.88 54.15 42.23 54.435 42.575L53.415 43.985C53.055 43.265 52.155 41.9 51.69 41.27L52.47 40.565ZM71.385 35.66H79.77V37.175H71.385V35.66ZM71.97 46.1H79.845V47.645H71.97V46.1ZM75.24 34.265L77.07 34.355C76.935 35.885 76.695 37.7 76.47 38.915L74.865 38.855C75.045 37.655 75.195 35.765 75.24 34.265ZM71.19 39.095H72.795V48.38H71.19V39.095ZM75.135 41.345V42.08H77.505V41.345H75.135ZM75.135 43.265V44.015H77.505V43.265H75.135ZM75.135 39.44V40.175H77.505V39.44H75.135ZM73.605 38.18H79.11V45.275H73.605V38.18ZM65.91 37.37H70.875V39.035H65.91V37.37ZM67.74 34.265H69.375V48.35H67.74V34.265ZM67.71 38.51L68.715 38.855C68.28 41.225 67.425 44.12 66.36 45.665C66.21 45.185 65.82 44.495 65.565 44.075C66.525 42.77 67.365 40.415 67.71 38.51ZM69.3 39.605C69.63 40.01 70.86 41.9 71.115 42.32L70.185 43.61C69.855 42.74 68.955 41.03 68.55 40.325L69.3 39.605ZM84.645 36.695H89.25V46.805H84.645V45.215H87.615V38.27H84.645V36.695ZM83.595 36.695H85.23V47.915H83.595V36.695ZM84.57 40.7H88.41V42.26H84.57V40.7ZM85.725 34.25L87.69 34.535C87.345 35.555 86.97 36.62 86.67 37.325L85.23 37.01C85.44 36.23 85.65 35.075 85.725 34.25ZM91.23 36.59H95.61V38.225H91.23V36.59ZM94.995 36.59H96.66C96.66 36.59 96.66 37.175 96.645 37.4C96.45 44.15 96.27 46.535 95.655 47.33C95.235 47.915 94.815 48.08 94.2 48.17C93.63 48.26 92.715 48.245 91.845 48.2C91.815 47.705 91.575 46.94 91.245 46.46C92.22 46.535 93.12 46.55 93.495 46.55C93.795 46.55 93.96 46.49 94.155 46.28C94.635 45.77 94.83 43.19 94.995 36.935V36.59ZM91.275 34.265L93 34.67C92.415 36.89 91.44 39.17 90.42 40.61C90.09 40.31 89.355 39.8 88.935 39.56C89.94 38.3 90.795 36.26 91.275 34.265ZM90.54 40.91L91.95 40.115C92.685 41.15 93.675 42.59 94.14 43.475L92.61 44.405C92.205 43.49 91.26 42.02 90.54 40.91ZM160.035 46.595L161.22 45.455C162.855 45.995 164.76 46.7 165.885 47.18L164.355 48.365C163.35 47.885 161.67 47.165 160.035 46.595ZM152.31 44.12H165.705V45.605H152.31V44.12ZM152.745 35.345H165.39V36.845H152.745V35.345ZM158.01 34.25H159.915V38.045H158.01V34.25ZM156.24 40.19V40.835H161.925V40.19H156.24ZM156.24 41.825V42.5H161.925V41.825H156.24ZM156.24 38.54V39.17H161.925V38.54H156.24ZM154.5 37.475H163.755V43.55H154.5V37.475ZM156.495 45.545L157.995 46.595C156.81 47.3 154.935 48.02 153.45 48.38C153.15 48.035 152.61 47.48 152.22 47.15C153.735 46.805 155.565 46.13 156.495 45.545ZM170.895 36.695H175.5V46.805H170.895V45.215H173.865V38.27H170.895V36.695ZM169.845 36.695H171.48V47.915H169.845V36.695ZM170.82 40.7H174.66V42.26H170.82V40.7ZM171.975 34.25L173.94 34.535C173.595 35.555 173.22 36.62 172.92 37.325L171.48 37.01C171.69 36.23 171.9 35.075 171.975 34.25ZM177.48 36.59H181.86V38.225H177.48V36.59ZM181.245 36.59H182.91C182.91 36.59 182.91 37.175 182.895 37.4C182.7 44.15 182.52 46.535 181.905 47.33C181.485 47.915 181.065 48.08 180.45 48.17C179.88 48.26 178.965 48.245 178.095 48.2C178.065 47.705 177.825 46.94 177.495 46.46C178.47 46.535 179.37 46.55 179.745 46.55C180.045 46.55 180.21 46.49 180.405 46.28C180.885 45.77 181.08 43.19 181.245 36.935V36.59ZM177.525 34.265L179.25 34.67C178.665 36.89 177.69 39.17 176.67 40.61C176.34 40.31 175.605 39.8 175.185 39.56C176.19 38.3 177.045 36.26 177.525 34.265ZM176.79 40.91L178.2 40.115C178.935 41.15 179.925 42.59 180.39 43.475L178.86 44.405C178.455 43.49 177.51 42.02 176.79 40.91ZM186.87 40.67H200.16V42.26H186.87V40.67ZM193.59 43.385H199.2V44.93H193.59V43.385ZM192.75 41.48H194.565V47.03H192.75V41.48ZM190.425 43.88C191.25 46.07 193.155 46.415 195.78 46.43C196.605 46.445 199.5 46.43 200.58 46.4C200.325 46.79 200.055 47.585 199.965 48.11H195.675C192.225 48.11 190.17 47.495 188.94 44.36L190.425 43.88ZM189.12 42.575L190.92 42.83C190.425 45.305 189.345 47.195 187.68 48.38C187.41 48.05 186.72 47.39 186.33 47.12C187.86 46.175 188.775 44.585 189.12 42.575ZM190.005 37.985V38.735H196.89V37.985H190.005ZM190.005 36.05V36.8H196.89V36.05H190.005ZM188.265 34.775H198.72V40.01H188.265V34.775ZM209.34 34.955H211.17V46.76L209.34 47.18V34.955ZM210.15 34.955H216.825V42.05H210.15V40.49H214.995V36.53H210.15V34.955ZM210.15 37.745H215.76V39.245H210.15V37.745ZM208.035 46.43C209.46 46.25 211.59 45.935 213.615 45.62L213.735 47.225C211.92 47.555 209.97 47.885 208.485 48.125L208.035 46.43ZM213.84 41.36C214.41 43.895 215.67 45.92 217.95 46.79C217.56 47.135 217.02 47.855 216.765 48.35C214.23 47.195 213 44.825 212.28 41.63L213.84 41.36ZM216.33 42.365L217.605 43.355C216.795 44.105 215.745 44.87 214.95 45.35L213.81 44.405C214.59 43.91 215.685 43.04 216.33 42.365ZM207.3 37.445L208.905 38.09C207.795 39.935 206.025 41.885 204.45 43.1C204.285 42.71 203.79 41.78 203.505 41.39C204.885 40.43 206.4 38.93 207.3 37.445ZM206.835 34.28L208.545 34.97C207.525 36.365 205.98 37.865 204.54 38.78C204.36 38.375 203.925 37.64 203.655 37.265C204.84 36.53 206.19 35.285 206.835 34.28ZM205.77 40.925L207.435 39.26L207.525 39.305V48.35H205.77V40.925ZM222.21 35.96H233.955V37.61H222.21V35.96ZM221.25 39.875H234.75V41.555H221.25V39.875ZM221.955 43.475H234.15V45.17H221.955V43.475ZM227.025 34.265H228.9V36.665H227.025V34.265ZM227.025 41.465H228.9V48.365H227.025V41.465ZM224.235 37.925L225.84 37.43C226.245 38.075 226.68 38.945 226.86 39.5L225.165 40.07C225.015 39.5 224.61 38.6 224.235 37.925ZM230.355 37.385L232.26 37.835C231.75 38.795 231.18 39.785 230.715 40.43L229.155 40.01C229.59 39.29 230.1 38.195 230.355 37.385ZM238.605 39.455H251.895V41.12H238.605V39.455ZM244.29 37.955H246.15V43.76H244.29V37.955ZM241.245 46.115H249.345V47.765H241.245V46.115ZM240.165 42.665H250.455V48.32H248.595V44.315H241.935V48.32H240.165V42.665ZM238.62 35.495H251.835V37.145H238.62V35.495ZM241.68 34.265H243.465V38.63H241.68V34.265ZM246.975 34.265H248.775V38.63H246.975V34.265ZM257.145 36.695H261.75V46.805H257.145V45.215H260.115V38.27H257.145V36.695ZM256.095 36.695H257.73V47.915H256.095V36.695ZM257.07 40.7H260.91V42.26H257.07V40.7ZM258.225 34.25L260.19 34.535C259.845 35.555 259.47 36.62 259.17 37.325L257.73 37.01C257.94 36.23 258.15 35.075 258.225 34.25ZM263.73 36.59H268.11V38.225H263.73V36.59ZM267.495 36.59H269.16C269.16 36.59 269.16 37.175 269.145 37.4C268.95 44.15 268.77 46.535 268.155 47.33C267.735 47.915 267.315 48.08 266.7 48.17C266.13 48.26 265.215 48.245 264.345 48.2C264.315 47.705 264.075 46.94 263.745 46.46C264.72 46.535 265.62 46.55 265.995 46.55C266.295 46.55 266.46 46.49 266.655 46.28C267.135 45.77 267.33 43.19 267.495 36.935V36.59ZM263.775 34.265L265.5 34.67C264.915 36.89 263.94 39.17 262.92 40.61C262.59 40.31 261.855 39.8 261.435 39.56C262.44 38.3 263.295 36.26 263.775 34.265ZM263.04 40.91L264.45 40.115C265.185 41.15 266.175 42.59 266.64 43.475L265.11 44.405C264.705 43.49 263.76 42.02 263.04 40.91ZM278.67 35.855H286.335V37.415H278.67V35.855ZM278.16 38.735H286.785V40.325H278.16V38.735ZM278.19 41.6H286.68V43.175H278.19V41.6ZM281.565 34.25H283.335V39.755H281.565V34.25ZM283.47 40.235H285.225V46.445C285.225 47.315 285.06 47.78 284.475 48.035C283.875 48.305 283.065 48.335 281.94 48.335C281.88 47.84 281.61 47.12 281.37 46.655C282.105 46.685 282.93 46.685 283.155 46.67C283.395 46.67 283.47 46.625 283.47 46.415V40.235ZM278.79 44.18L280.23 43.355C280.935 44.09 281.73 45.08 282.06 45.815L280.515 46.715C280.23 46.01 279.48 44.945 278.79 44.18ZM274.035 35.18H277.905V45.44H274.035V43.835H276.225V36.785H274.035V35.18ZM274.125 39.44H277.035V41.015H274.125V39.44ZM273.195 35.18H274.86V46.775H273.195V35.18ZM298.71 34.94H302.595V36.56H298.71V34.94ZM298.71 38.33H302.595V39.905H298.71V38.33ZM298.71 41.75H302.61V43.355H298.71V41.75ZM301.815 34.94H303.555V46.37C303.555 47.24 303.39 47.735 302.85 48.005C302.325 48.29 301.56 48.335 300.435 48.335C300.39 47.855 300.15 47.075 299.925 46.625C300.57 46.655 301.305 46.655 301.515 46.64C301.74 46.64 301.815 46.565 301.815 46.34V34.94ZM297.975 34.94H299.655V40.445C299.655 42.815 299.46 46.25 298.185 48.38C297.885 48.065 297.15 47.54 296.76 47.36C297.885 45.44 297.975 42.59 297.975 40.445V34.94ZM290.115 36.035H297.465V37.595H290.115V36.035ZM292.08 38.48H295.65V39.86H292.08V38.48ZM292.08 40.82H295.665V42.185H292.08V40.82ZM289.935 43.19H297.36V44.765H289.935V43.19ZM291.3 34.43H292.92V43.76H291.3V34.43ZM294.795 34.43H296.445V43.76H294.795V34.43ZM291.81 44.87L293.505 45.365C292.95 46.475 292.065 47.645 291.27 48.38C290.925 48.08 290.235 47.57 289.815 47.33C290.625 46.715 291.39 45.785 291.81 44.87ZM294.03 45.545L295.395 44.795C295.995 45.455 296.76 46.37 297.105 46.985L295.65 47.84C295.35 47.24 294.63 46.25 294.03 45.545ZM310.367 36.0909L310.159 43.7294H308.21L307.996 36.0909H310.367ZM309.184 47.1385C308.833 47.1385 308.531 47.0142 308.279 46.7656C308.027 46.5135 307.902 46.2116 307.906 45.8601C307.902 45.5121 308.027 45.2138 308.279 44.9652C308.531 44.7166 308.833 44.5923 309.184 44.5923C309.522 44.5923 309.818 44.7166 310.074 44.9652C310.33 45.2138 310.459 45.5121 310.463 45.8601C310.459 46.0945 310.397 46.3093 310.276 46.5046C310.159 46.6964 310.005 46.8509 309.813 46.968C309.621 47.0817 309.412 47.1385 309.184 47.1385ZM54.615 73.415H56.355V77.405H54.615V73.415ZM53.205 69.845V70.745H57.735V69.845H53.205ZM51.54 68.57H59.52V72.035H51.54V68.57ZM50.1 72.65H61.095V78.365H59.295V73.955H51.825V78.38H50.1V72.65ZM51.06 74.72H59.925V75.935H51.06V74.72ZM51.06 76.73H59.925V78.035H51.06V76.73ZM54.54 64.265H56.37V67.055H54.54V64.265ZM49.005 66.305H62.115V69.74H60.33V67.835H50.715V69.74H49.005V66.305ZM50.16 65.03L51.765 64.4C52.245 64.94 52.725 65.675 52.95 66.2L51.285 66.935C51.09 66.41 50.61 65.6 50.16 65.03ZM59.1 64.37L61.02 64.925C60.495 65.645 59.97 66.335 59.565 66.8L58.035 66.29C58.41 65.75 58.875 64.955 59.1 64.37ZM71.67 65.855H79.335V67.415H71.67V65.855ZM71.16 68.735H79.785V70.325H71.16V68.735ZM71.19 71.6H79.68V73.175H71.19V71.6ZM74.565 64.25H76.335V69.755H74.565V64.25ZM76.47 70.235H78.225V76.445C78.225 77.315 78.06 77.78 77.475 78.035C76.875 78.305 76.065 78.335 74.94 78.335C74.88 77.84 74.61 77.12 74.37 76.655C75.105 76.685 75.93 76.685 76.155 76.67C76.395 76.67 76.47 76.625 76.47 76.415V70.235ZM71.79 74.18L73.23 73.355C73.935 74.09 74.73 75.08 75.06 75.815L73.515 76.715C73.23 76.01 72.48 74.945 71.79 74.18ZM67.035 65.18H70.905V75.44H67.035V73.835H69.225V66.785H67.035V65.18ZM67.125 69.44H70.035V71.015H67.125V69.44ZM66.195 65.18H67.86V76.775H66.195V65.18ZM240.645 79.07L240.165 77.87C241.425 77.465 242.115 76.73 242.115 75.875L242.01 74.39L242.835 75.74C242.595 75.965 242.28 76.07 241.95 76.07C241.2 76.07 240.51 75.59 240.51 74.72C240.51 73.88 241.185 73.37 241.995 73.37C243.045 73.37 243.615 74.18 243.615 75.44C243.615 77.135 242.505 78.515 240.645 79.07ZM263.205 66.35H269.22V67.985H263.205V66.35ZM261.465 71H269.55V72.725H261.465V71ZM264.615 67.07H266.43V78.335H264.615V67.07ZM263.01 64.22L264.825 64.58C264.3 66.785 263.415 68.96 262.395 70.325C262.035 70.04 261.24 69.545 260.805 69.32C261.84 68.12 262.62 66.17 263.01 64.22ZM256.17 68.87H261.015V70.22H256.17V68.87ZM256.26 64.73H261.045V66.095H256.26V64.73ZM256.17 70.91H261.015V72.275H256.17V70.91ZM255.435 66.755H261.615V68.18H255.435V66.755ZM256.995 72.995H260.97V77.555H256.995V76.13H259.395V74.42H256.995V72.995ZM256.125 72.995H257.685V78.155H256.125V72.995ZM275.85 67.985L277.065 66.98C277.965 67.415 279.165 68.105 279.75 68.63L278.475 69.74C277.935 69.215 276.765 68.465 275.85 67.985ZM282.615 65.39H282.96L283.245 65.315L284.415 65.99C282.465 69.605 278.22 71.555 273.855 72.44C273.705 71.99 273.345 71.285 273.03 70.895C277.08 70.25 281.13 68.45 282.615 65.645V65.39ZM277.875 65.39H283.02V66.86H277.875V65.39ZM278.7 64.22L280.665 64.64C279.135 66.38 277.155 67.79 274.35 68.9C274.095 68.48 273.54 67.865 273.15 67.58C275.82 66.71 277.68 65.45 278.7 64.22ZM277.89 73.67L279.195 72.665C280.11 73.16 281.31 73.925 281.91 74.51L280.515 75.62C279.99 75.05 278.82 74.21 277.89 73.67ZM284.505 70.865H284.865L285.18 70.79L286.38 71.405C284.55 75.875 280.215 77.645 275.055 78.365C274.92 77.87 274.59 77.135 274.29 76.73C279.045 76.235 283.11 74.66 284.505 71.12V70.865ZM280.095 70.865H284.985V72.365H280.095V70.865ZM281.145 69.41L283.11 69.86C281.43 71.825 279.12 73.415 275.805 74.615C275.595 74.195 275.085 73.535 274.71 73.22C277.845 72.275 279.99 70.835 281.145 69.41ZM295.74 64.625H297.795C297.66 67.145 297.465 74.465 291.33 78.23C291.015 77.765 290.43 77.21 289.815 76.79C295.845 73.445 295.635 66.59 295.74 64.625ZM297.735 65.015C297.78 66.32 298.095 73.805 304.245 76.685C303.675 77.12 303.135 77.72 302.865 78.215C296.4 75.005 296.115 66.74 295.995 65.195L297.735 65.015ZM307.95 65.855H313.14V67.4H307.95V65.855ZM309.75 76.085H313.515V77.54H309.75V76.085ZM309.75 73.685H313.56V75.05H309.75V73.685ZM307.305 68.63H314.985V70.19H307.305V68.63ZM309.93 64.385H311.595V69.665H309.93V64.385ZM313.875 64.925L315.495 65.39C313.965 69.32 311.34 72.365 307.95 74.195C307.755 73.805 307.23 73.055 306.915 72.695C310.14 71.165 312.57 68.465 313.875 64.925ZM310.32 71.3H313.485V72.74H310.32V78.32H308.7V72.335L309.675 71.3H310.32ZM312.765 71.3H314.475V78.11H312.765V71.3ZM315.465 65.105H319.875V66.785H317.235V78.335H315.465V65.105ZM319.455 65.105H319.8L320.07 65.03L321.375 65.84C320.85 67.28 320.175 68.99 319.575 70.325C320.835 71.66 321.105 72.845 321.105 73.835C321.105 74.96 320.85 75.695 320.265 76.085C319.965 76.295 319.605 76.43 319.2 76.475C318.84 76.52 318.36 76.535 317.895 76.505C317.88 76.025 317.7 75.245 317.415 74.765C317.805 74.795 318.105 74.81 318.375 74.795C318.6 74.795 318.825 74.75 318.99 74.66C319.275 74.495 319.38 74.15 319.38 73.64C319.38 72.815 319.035 71.705 317.805 70.55C318.42 69.08 319.125 66.8 319.455 65.72V65.105ZM56.19 98.075H62.535V99.74H56.19V98.075ZM48.51 97.385H56.31V98.855H48.51V97.385ZM49.065 100.805H55.725V102.275H49.065V100.805ZM49.335 103.25H55.53V104.705H49.335V103.25ZM59.37 94.37H61.095V106.355C61.095 107.27 60.915 107.735 60.375 108.02C59.82 108.305 58.995 108.365 57.81 108.365C57.735 107.885 57.435 107.12 57.195 106.655C57.975 106.685 58.77 106.685 59.01 106.685C59.265 106.685 59.37 106.595 59.37 106.34V94.37ZM56.475 101.09L57.96 100.58C58.53 101.645 59.04 103.01 59.145 103.925L57.555 104.495C57.465 103.595 57 102.185 56.475 101.09ZM48.51 95.195L49.74 94.64C50.19 95.315 50.61 96.185 50.745 96.785L49.425 97.4C49.305 96.8 48.915 95.885 48.51 95.195ZM49.59 99.17L50.97 98.69C51.33 99.26 51.66 100.01 51.765 100.52L50.295 101.06C50.22 100.565 49.92 99.755 49.59 99.17ZM50.655 94.4H52.065V98.06H50.655V94.4ZM51.585 101.24H53.25V106.7H51.585V101.24ZM52.74 94.4H54.165V98.06H52.74V94.4ZM48.555 106.115C50.49 105.95 53.43 105.665 56.145 105.365L56.175 106.925C53.58 107.255 50.775 107.555 48.78 107.78L48.555 106.115ZM55.125 94.565L56.7 95.12C56.205 95.915 55.71 96.785 55.305 97.355L54.105 96.86C54.465 96.245 54.915 95.255 55.125 94.565ZM53.745 98.675L55.38 99.065C55.065 99.77 54.75 100.46 54.495 100.94L53.07 100.58C53.31 100.055 53.61 99.245 53.745 98.675ZM66.06 96.08H79.44V97.76H66.06V96.08ZM70.11 101.48H76.635V102.98H70.11V101.48ZM68.775 98.945H76.365V100.52H70.56V108.335H68.775V98.945ZM76.005 98.945H77.76V106.4C77.76 107.285 77.595 107.78 76.98 108.065C76.38 108.335 75.525 108.35 74.31 108.35C74.235 107.855 73.995 107.09 73.755 106.625C74.535 106.67 75.42 106.655 75.675 106.655C75.915 106.655 76.005 106.58 76.005 106.37V98.945ZM70.71 94.25L72.57 94.67C71.52 98.06 69.72 101.51 66.795 103.55C66.54 103.145 65.97 102.5 65.61 102.155C68.28 100.4 69.96 97.175 70.71 94.25ZM70.11 103.955H76.635V105.455H70.11V103.955ZM87.72 101.915H96.915V103.31H87.72V101.915ZM88.935 104.765L89.85 103.685C90.555 104.12 91.5 104.795 91.95 105.26L90.99 106.475C90.57 105.98 89.655 105.245 88.935 104.765ZM93.825 101.36L94.695 100.565C95.175 100.865 95.775 101.315 96.06 101.645L95.13 102.5C94.86 102.17 94.29 101.675 93.825 101.36ZM88.71 102.635H90.3C90.12 104.93 89.7 107.015 87.825 108.335C87.615 107.96 87.18 107.405 86.805 107.135C88.335 106.115 88.605 104.39 88.71 102.635ZM91.29 94.28H92.85C92.715 101.135 93.72 106.85 95.52 106.85C95.895 106.85 96.03 106.58 96.105 105.38C96.42 105.725 96.915 106.025 97.275 106.19C97.005 107.915 96.57 108.365 95.4 108.365C92.1 108.35 91.29 101.72 91.29 94.28ZM94.725 103.28L96.21 103.835C95.175 105.935 93.33 107.45 91.065 108.335C90.87 108.02 90.42 107.48 90.12 107.18C92.265 106.43 93.9 105.05 94.725 103.28ZM92.625 97.085L93.285 96.11C93.915 96.56 94.665 97.235 95.01 97.685L94.32 98.81C93.975 98.315 93.225 97.595 92.625 97.085ZM95.43 98.825L96.435 98.45C96.795 99.17 97.14 100.1 97.23 100.685L96.15 101.135C96.06 100.535 95.76 99.56 95.43 98.825ZM92.895 99.635C93.795 99.575 94.98 99.485 96.24 99.38L96.27 100.52C95.175 100.67 94.11 100.805 93.15 100.925L92.895 99.635ZM94.275 94.355L95.625 94.85C95.145 95.705 94.635 96.65 94.215 97.265L93.255 96.83C93.615 96.155 94.05 95.105 94.275 94.355ZM95.535 95.96L96.78 96.56C95.97 97.82 94.95 99.35 94.125 100.31L93.195 99.785C93.99 98.78 94.98 97.145 95.535 95.96ZM87.375 97.085L88.05 96.11C88.665 96.56 89.43 97.235 89.76 97.685L89.07 98.81C88.74 98.315 87.99 97.595 87.375 97.085ZM89.94 99.005L90.945 98.675C91.275 99.395 91.56 100.34 91.62 100.925L90.54 101.33C90.48 100.715 90.225 99.755 89.94 99.005ZM87.48 99.875C88.395 99.815 89.595 99.725 90.87 99.62L90.9 100.835C89.79 100.97 88.695 101.09 87.72 101.195L87.48 99.875ZM89.04 94.355L90.375 94.865C89.88 95.705 89.385 96.695 88.98 97.31L88.02 96.89C88.365 96.2 88.8 95.105 89.04 94.355ZM90.3 95.96L91.53 96.56C90.69 97.895 89.625 99.5 88.755 100.505L87.825 99.995C88.665 98.945 89.7 97.22 90.3 95.96ZM83.16 97.37H87.735V99.02H83.16V97.37ZM84.765 94.265H86.37V108.35H84.765V94.265ZM84.735 98.51L85.665 98.825C85.305 101.18 84.54 104.075 83.565 105.605C83.415 105.155 83.055 104.48 82.8 104.075C83.67 102.785 84.42 100.415 84.735 98.51ZM86.295 99.515C86.595 99.92 87.75 101.84 87.975 102.275L87.12 103.52C86.82 102.635 86.01 100.88 85.635 100.175L86.295 99.515ZM103.575 108.035C102.66 106.925 101.385 105.635 100.335 104.735L101.91 103.385C102.975 104.255 104.415 105.725 105.18 106.655L103.575 108.035ZM117.96 95.27H131.04V97.115H117.96V95.27ZM125.205 100.295L126.6 99.125C128.205 100.295 130.515 102.02 131.61 103.22L130.08 104.6C129.09 103.415 126.87 101.57 125.205 100.295ZM124.605 95.945L126.615 96.65C124.905 99.815 122.175 102.875 118.725 104.675C118.44 104.195 117.87 103.445 117.495 103.04C120.705 101.525 123.36 98.615 124.605 95.945ZM123.51 99.575L125.49 97.61V108.32H123.51V99.575ZM137.4 95.27H146.61V96.98H137.4V95.27ZM137.4 98.72H146.64V100.4H137.4V98.72ZM137.37 102.26H146.7V103.955H137.37V102.26ZM136.365 95.27H138.15V100.67C138.15 103.055 137.85 106.43 136.005 108.44C135.72 108.095 134.985 107.495 134.595 107.27C136.23 105.455 136.365 102.77 136.365 100.655V95.27ZM145.98 95.27H147.765V106.235C147.765 107.195 147.555 107.675 146.955 107.96C146.325 108.245 145.425 108.275 144.06 108.26C143.985 107.78 143.715 107 143.475 106.535C144.33 106.595 145.32 106.58 145.59 106.58C145.875 106.565 145.98 106.475 145.98 106.22V95.27ZM140.985 95.945H142.815V108.17H140.985V95.945ZM158.655 94.655H160.485V105.455C160.485 106.355 160.59 106.505 161.325 106.505C161.655 106.505 163.155 106.505 163.515 106.505C164.25 106.505 164.37 105.98 164.475 103.865C164.91 104.18 165.645 104.51 166.155 104.615C165.93 107.21 165.45 108.17 163.68 108.17C163.245 108.17 161.505 108.17 161.1 108.17C159.21 108.17 158.655 107.57 158.655 105.44V94.655ZM164.28 97.16L165.6 98.735C163.905 99.935 161.76 101.06 159.81 101.975C159.69 101.555 159.345 100.925 159.09 100.535C160.95 99.65 162.945 98.3 164.28 97.16ZM155.76 94.46L157.53 95.06C156.405 97.73 154.56 100.505 152.67 102.245C152.49 101.78 151.965 100.79 151.635 100.34C153.255 98.945 154.83 96.725 155.76 94.46ZM154.17 98.69L155.94 96.92L155.97 96.95V108.32H154.17V98.69ZM170.805 94.595H174.105V96.23H170.805V94.595ZM170.805 98H174.165V99.635H170.805V98ZM176.445 100.145H181.71V101.84H176.445V100.145ZM170.79 101.495H174.12V103.145H170.79V101.495ZM170.04 94.595H171.66V100.145C171.66 102.575 171.525 106.115 170.565 108.38C170.235 108.11 169.5 107.72 169.095 107.57C169.995 105.455 170.04 102.395 170.04 100.145V94.595ZM173.1 94.595H174.765V106.235C174.765 107.045 174.645 107.57 174.165 107.855C173.685 108.155 173.04 108.2 172.065 108.2C172.02 107.72 171.795 106.91 171.57 106.445C172.11 106.475 172.68 106.475 172.86 106.475C173.025 106.475 173.1 106.4 173.1 106.205V94.595ZM176.415 94.865H182.715V102.575H180.99V96.56H176.415V94.865ZM175.545 94.865H177.27V105.32C177.27 106.205 177.375 106.325 178.17 106.325C178.56 106.325 180.285 106.325 180.69 106.325C181.47 106.325 181.59 105.83 181.71 103.775C182.13 104.075 182.85 104.375 183.345 104.48C183.12 107.075 182.595 108.035 180.84 108.035C180.39 108.035 178.41 108.035 177.99 108.035C176.13 108.035 175.545 107.48 175.545 105.305V94.865ZM178.395 95.525H179.88V100.94H178.395V95.525ZM188.145 96.695H192.75V106.805H188.145V105.215H191.115V98.27H188.145V96.695ZM187.095 96.695H188.73V107.915H187.095V96.695ZM188.07 100.7H191.91V102.26H188.07V100.7ZM189.225 94.25L191.19 94.535C190.845 95.555 190.47 96.62 190.17 97.325L188.73 97.01C188.94 96.23 189.15 95.075 189.225 94.25ZM194.73 96.59H199.11V98.225H194.73V96.59ZM198.495 96.59H200.16C200.16 96.59 200.16 97.175 200.145 97.4C199.95 104.15 199.77 106.535 199.155 107.33C198.735 107.915 198.315 108.08 197.7 108.17C197.13 108.26 196.215 108.245 195.345 108.2C195.315 107.705 195.075 106.94 194.745 106.46C195.72 106.535 196.62 106.55 196.995 106.55C197.295 106.55 197.46 106.49 197.655 106.28C198.135 105.77 198.33 103.19 198.495 96.935V96.59ZM194.775 94.265L196.5 94.67C195.915 96.89 194.94 99.17 193.92 100.61C193.59 100.31 192.855 99.8 192.435 99.56C193.44 98.3 194.295 96.26 194.775 94.265ZM194.04 100.91L195.45 100.115C196.185 101.15 197.175 102.59 197.64 103.475L196.11 104.405C195.705 103.49 194.76 102.02 194.04 100.91ZM210.63 96.71H217.83V98.42H209.79L210.63 96.71ZM212.61 100.01H217.44V101.645H212.61V100.01ZM212.595 103.325H217.635V105.005H212.595V103.325ZM211.695 97.28H213.54V108.35H211.695V97.28ZM210.975 94.4L212.715 94.865C211.875 97.295 210.525 99.785 209.145 101.345C208.86 101.015 208.17 100.37 207.78 100.085C209.1 98.735 210.285 96.575 210.975 94.4ZM207.015 94.325L208.755 94.88C207.78 97.43 206.205 100.175 204.555 101.885C204.39 101.435 203.88 100.415 203.565 99.965C204.945 98.6 206.25 96.47 207.015 94.325ZM205.5 98.465L207.3 96.65L207.315 96.665V108.335H205.5V98.465ZM228.24 94.265L229.86 94.58C229.32 97.07 228.33 99.455 227.115 100.955C226.83 100.685 226.125 100.175 225.75 99.95C226.95 98.63 227.79 96.485 228.24 94.265ZM233.28 96.605H234.975C234.975 96.605 234.96 97.19 234.945 97.415C234.66 104.15 234.39 106.61 233.82 107.36C233.475 107.87 233.145 108.05 232.65 108.14C232.23 108.23 231.6 108.23 230.94 108.2C230.895 107.69 230.715 106.925 230.445 106.43C231 106.49 231.51 106.505 231.795 106.505C232.02 106.505 232.155 106.43 232.335 106.22C232.755 105.695 233.04 103.37 233.28 96.995V96.605ZM228.69 96.605H234.045V98.27H227.865L228.69 96.605ZM229.74 97.145L231.045 97.79C230.445 100.37 229.125 103.34 227.49 104.87C227.145 104.525 226.575 104.105 226.11 103.85C227.85 102.485 229.17 99.665 229.74 97.145ZM231.825 97.31L233.22 97.955C232.5 101.855 230.91 105.935 228.435 108.005C228.09 107.645 227.46 107.195 226.965 106.955C229.59 105.08 231.135 101.165 231.825 97.31ZM220.89 102.44C222.36 102.11 224.55 101.495 226.62 100.91L226.86 102.5C224.97 103.085 222.915 103.7 221.325 104.165L220.89 102.44ZM223.59 94.265H225.24V108.35H223.59V94.265ZM221.61 95.12L223.11 95.375C222.915 97.355 222.555 99.455 222.015 100.79C221.745 100.58 221.1 100.16 220.74 99.98C221.22 98.78 221.475 96.905 221.61 95.12ZM222.015 97.16H226.485V98.885H221.685L222.015 97.16ZM238.56 96.08H251.94V97.76H238.56V96.08ZM242.61 101.48H249.135V102.98H242.61V101.48ZM241.275 98.945H248.865V100.52H243.06V108.335H241.275V98.945ZM248.505 98.945H250.26V106.4C250.26 107.285 250.095 107.78 249.48 108.065C248.88 108.335 248.025 108.35 246.81 108.35C246.735 107.855 246.495 107.09 246.255 106.625C247.035 106.67 247.92 106.655 248.175 106.655C248.415 106.655 248.505 106.58 248.505 106.37V98.945ZM243.21 94.25L245.07 94.67C244.02 98.06 242.22 101.51 239.295 103.55C239.04 103.145 238.47 102.5 238.11 102.155C240.78 100.4 242.46 97.175 243.21 94.25ZM242.61 103.955H249.135V105.455H242.61V103.955ZM257.43 103.1H267.69V104.825H257.43V103.1ZM255.69 106.25H269.31V108.035H255.69V106.25ZM259.605 96.53H262.485V98.135H259.605V96.53ZM263.07 94.265H264.87V99.86C264.87 100.445 264.945 100.535 265.515 100.535C265.755 100.535 266.82 100.535 267.12 100.535C267.615 100.535 267.705 100.265 267.78 98.735C268.155 99.035 268.92 99.32 269.415 99.44C269.205 101.6 268.71 102.23 267.285 102.23C266.91 102.23 265.605 102.23 265.26 102.23C263.505 102.23 263.07 101.675 263.07 99.875V94.265ZM255.465 100.925C257.28 100.775 260.04 100.49 262.605 100.235L262.635 101.87C260.19 102.185 257.55 102.485 255.66 102.695L255.465 100.925ZM267.6 95.72L268.95 97.145C267.495 97.775 265.665 98.345 264.09 98.735C264 98.33 263.745 97.7 263.52 97.325C264.975 96.92 266.58 96.29 267.6 95.72ZM258.84 94.265H260.61V101.12L258.84 101.24V94.265ZM256.32 95.81H257.97V101.255L256.32 101.39V95.81ZM278.295 94.28L279.39 95.33C278.115 95.72 276.36 95.945 274.89 96.05C274.845 95.75 274.665 95.255 274.5 94.955C275.85 94.82 277.395 94.565 278.295 94.28ZM284.805 94.28L285.9 95.345C284.52 95.735 282.63 95.96 281.04 96.065C280.98 95.75 280.8 95.27 280.65 94.97C282.12 94.835 283.815 94.58 284.805 94.28ZM274.005 94.595L275.925 95.075C275.91 95.21 275.82 95.27 275.565 95.33V96.05C275.565 97.235 275.28 99.05 273.9 100.325C273.66 99.965 273.09 99.41 272.73 99.2C273.84 98.195 274.005 96.965 274.005 95.975V94.595ZM280.215 94.61L282.135 95.06C282.12 95.195 282.03 95.27 281.775 95.3V96.065C281.775 97.145 281.445 98.705 279.855 99.755C279.645 99.38 279.12 98.795 278.76 98.555C280.005 97.775 280.215 96.845 280.215 95.99V94.61ZM274.71 96.5H279.69V97.82H274.71V96.5ZM280.89 96.5H286.5V97.82H280.89V96.5ZM276.69 96.95H278.28V99.38H276.69V96.95ZM282.99 96.95H284.595V99.395H282.99V96.95ZM276.54 102.41V103.055H283.08V102.41H276.54ZM276.54 104.075V104.735H283.08V104.075H276.54ZM276.54 100.745V101.39H283.08V100.745H276.54ZM274.8 99.665H284.895V105.815H274.8V99.665ZM280.59 106.595L282.09 105.74C283.665 106.31 285.525 107.06 286.59 107.585L284.49 108.395C283.65 107.885 282.105 107.165 280.59 106.595ZM277.26 105.695L278.91 106.43C277.68 107.225 275.73 107.975 274.2 108.41C273.885 108.05 273.27 107.39 272.865 107.09C274.455 106.79 276.24 106.265 277.26 105.695ZM290.715 94.4H292.32V97.535C292.32 97.97 292.425 98.03 292.995 98.03C293.25 98.03 294.375 98.03 294.69 98.03C295.155 98.03 295.245 97.865 295.305 96.8C295.62 97.055 296.295 97.295 296.745 97.4C296.55 99.05 296.115 99.485 294.855 99.485C294.495 99.485 293.13 99.485 292.8 99.485C291.105 99.485 290.715 99.035 290.715 97.55V94.4ZM295.125 94.7L296.25 95.885C294.93 96.425 293.175 96.86 291.675 97.13C291.615 96.8 291.39 96.275 291.21 95.96C292.605 95.645 294.165 95.15 295.125 94.7ZM291.285 99.335L292.83 99.68C292.47 100.97 291.855 102.26 291.135 103.07C290.85 102.8 290.22 102.35 289.845 102.125C290.535 101.435 291.03 100.385 291.285 99.335ZM291.705 100.385H296.13V101.825H290.985L291.705 100.385ZM290.16 102.905H296.46V104.375H290.16V102.905ZM292.755 100.955H294.36V102.875C294.36 104.555 293.955 106.835 291.075 108.38C290.835 108.035 290.325 107.525 289.935 107.255C292.5 106.025 292.755 104.075 292.755 102.86V100.955ZM292.965 105.305L294.015 104.255C294.72 104.84 295.68 105.68 296.145 106.22L295.035 107.375C294.6 106.82 293.685 105.92 292.965 105.305ZM296.895 94.715H302.595V96.11H296.895V94.715ZM302.025 94.715H302.385L302.7 94.625L303.765 95.315C302.955 96.575 301.635 97.865 300.345 98.645C300.12 98.315 299.655 97.805 299.355 97.55C300.435 96.92 301.56 95.84 302.025 95V94.715ZM297.315 97.685L298.35 96.605C299.67 97.13 301.5 98.03 302.43 98.705L301.305 99.905C300.465 99.245 298.68 98.285 297.315 97.685ZM296.61 99.56H302.985V101.03H296.61V99.56ZM302.43 99.56H302.67L302.91 99.5L304.005 99.755C303.75 100.76 303.405 101.9 303.045 102.62L301.77 102.245C302.01 101.615 302.295 100.595 302.43 99.77V99.56ZM299.385 100.01H300.975V107.345L299.385 106.58V100.01ZM300.03 103.04H303.42V104.51H300.03V103.04ZM298.32 103.73C299.04 106.28 300.555 106.73 302.19 106.73C302.505 106.73 303.675 106.73 304.11 106.73C303.915 107.075 303.72 107.765 303.66 108.185H302.07C299.895 108.185 298.17 107.48 297.255 104.12L298.32 103.73ZM297.06 101.765L298.635 101.825C298.545 104.735 298.11 106.925 296.82 108.41C296.55 108.155 295.845 107.645 295.47 107.435C296.73 106.235 297.015 104.225 297.06 101.765ZM309.645 103.295C310.995 103.295 312.075 104.375 312.075 105.71C312.075 107.06 310.995 108.14 309.645 108.14C308.31 108.14 307.215 107.06 307.215 105.71C307.215 104.375 308.31 103.295 309.645 103.295ZM309.645 107.06C310.395 107.06 310.995 106.46 310.995 105.71C310.995 104.975 310.395 104.375 309.645 104.375C308.91 104.375 308.295 104.975 308.295 105.71C308.295 106.46 308.91 107.06 309.645 107.06Z" fill="#F4EEDA"/>
<path d="M100.425 36.485H114.075V38.12H100.425V36.485ZM102.195 41.6H106.095V42.92H102.195V41.6ZM102.195 43.895H106.095V45.23H102.195V43.895ZM108.48 39.305H110.145V45.455H108.48V39.305ZM105.465 39.155H107.205V46.58C107.205 47.345 107.055 47.765 106.545 48.02C106.05 48.29 105.36 48.305 104.43 48.305C104.34 47.855 104.085 47.195 103.86 46.775C104.415 46.805 105.03 46.805 105.21 46.79C105.405 46.79 105.465 46.73 105.465 46.55V39.155ZM111.495 38.9H113.265V46.385C113.265 47.255 113.1 47.72 112.5 47.99C111.93 48.26 111.12 48.32 110.01 48.305C109.92 47.825 109.635 47.06 109.38 46.595C110.145 46.64 110.925 46.64 111.18 46.625C111.42 46.625 111.495 46.565 111.495 46.355V38.9ZM102.495 34.85L104.205 34.25C104.745 34.835 105.345 35.63 105.6 36.2L103.785 36.845C103.575 36.305 103.02 35.45 102.495 34.85ZM110.19 34.22L112.155 34.805C111.54 35.765 110.88 36.725 110.355 37.385L108.735 36.83C109.245 36.125 109.86 35.03 110.19 34.22ZM101.25 39.155H105.975V40.655H102.945V48.26H101.25V39.155ZM118.665 35.63H130.275V37.415H118.665V35.63ZM117.795 45.845H131.25V47.63H117.795V45.845ZM122.835 36.26H124.89C124.29 39.86 123.405 44.3 122.76 46.985H120.72C121.47 44.195 122.355 39.74 122.835 36.26ZM119.16 40.025H128.895V46.685H127.035V41.795H119.16V40.025ZM137.97 34.205L139.8 34.67C139.005 36.905 137.685 39.065 136.35 40.415C136.005 40.1 135.24 39.5 134.805 39.245C136.155 38.075 137.325 36.155 137.97 34.205ZM138.285 35.915H147.825V37.655H137.415L138.285 35.915ZM137.22 39.455H147.48V41.135H139.035V44.285H137.22V39.455ZM134.85 43.4H148.65V45.14H134.85V43.4ZM141.63 36.815H143.49V48.35H141.63V36.815ZM83.31 66.08H96.69V67.76H83.31V66.08ZM87.36 71.48H93.885V72.98H87.36V71.48ZM86.025 68.945H93.615V70.52H87.81V78.335H86.025V68.945ZM93.255 68.945H95.01V76.4C95.01 77.285 94.845 77.78 94.23 78.065C93.63 78.335 92.775 78.35 91.56 78.35C91.485 77.855 91.245 77.09 91.005 76.625C91.785 76.67 92.67 76.655 92.925 76.655C93.165 76.655 93.255 76.58 93.255 76.37V68.945ZM87.96 64.25L89.82 64.67C88.77 68.06 86.97 71.51 84.045 73.55C83.79 73.145 83.22 72.5 82.86 72.155C85.53 70.4 87.21 67.175 87.96 64.25ZM87.36 73.955H93.885V75.455H87.36V73.955ZM104.97 71.915H114.165V73.31H104.97V71.915ZM106.185 74.765L107.1 73.685C107.805 74.12 108.75 74.795 109.2 75.26L108.24 76.475C107.82 75.98 106.905 75.245 106.185 74.765ZM111.075 71.36L111.945 70.565C112.425 70.865 113.025 71.315 113.31 71.645L112.38 72.5C112.11 72.17 111.54 71.675 111.075 71.36ZM105.96 72.635H107.55C107.37 74.93 106.95 77.015 105.075 78.335C104.865 77.96 104.43 77.405 104.055 77.135C105.585 76.115 105.855 74.39 105.96 72.635ZM108.54 64.28H110.1C109.965 71.135 110.97 76.85 112.77 76.85C113.145 76.85 113.28 76.58 113.355 75.38C113.67 75.725 114.165 76.025 114.525 76.19C114.255 77.915 113.82 78.365 112.65 78.365C109.35 78.35 108.54 71.72 108.54 64.28ZM111.975 73.28L113.46 73.835C112.425 75.935 110.58 77.45 108.315 78.335C108.12 78.02 107.67 77.48 107.37 77.18C109.515 76.43 111.15 75.05 111.975 73.28ZM109.875 67.085L110.535 66.11C111.165 66.56 111.915 67.235 112.26 67.685L111.57 68.81C111.225 68.315 110.475 67.595 109.875 67.085ZM112.68 68.825L113.685 68.45C114.045 69.17 114.39 70.1 114.48 70.685L113.4 71.135C113.31 70.535 113.01 69.56 112.68 68.825ZM110.145 69.635C111.045 69.575 112.23 69.485 113.49 69.38L113.52 70.52C112.425 70.67 111.36 70.805 110.4 70.925L110.145 69.635ZM111.525 64.355L112.875 64.85C112.395 65.705 111.885 66.65 111.465 67.265L110.505 66.83C110.865 66.155 111.3 65.105 111.525 64.355ZM112.785 65.96L114.03 66.56C113.22 67.82 112.2 69.35 111.375 70.31L110.445 69.785C111.24 68.78 112.23 67.145 112.785 65.96ZM104.625 67.085L105.3 66.11C105.915 66.56 106.68 67.235 107.01 67.685L106.32 68.81C105.99 68.315 105.24 67.595 104.625 67.085ZM107.19 69.005L108.195 68.675C108.525 69.395 108.81 70.34 108.87 70.925L107.79 71.33C107.73 70.715 107.475 69.755 107.19 69.005ZM104.73 69.875C105.645 69.815 106.845 69.725 108.12 69.62L108.15 70.835C107.04 70.97 105.945 71.09 104.97 71.195L104.73 69.875ZM106.29 64.355L107.625 64.865C107.13 65.705 106.635 66.695 106.23 67.31L105.27 66.89C105.615 66.2 106.05 65.105 106.29 64.355ZM107.55 65.96L108.78 66.56C107.94 67.895 106.875 69.5 106.005 70.505L105.075 69.995C105.915 68.945 106.95 67.22 107.55 65.96ZM100.41 67.37H104.985V69.02H100.41V67.37ZM102.015 64.265H103.62V78.35H102.015V64.265ZM101.985 68.51L102.915 68.825C102.555 71.18 101.79 74.075 100.815 75.605C100.665 75.155 100.305 74.48 100.05 74.075C100.92 72.785 101.67 70.415 101.985 68.51ZM103.545 69.515C103.845 69.92 105 71.84 105.225 72.275L104.37 73.52C104.07 72.635 103.26 70.88 102.885 70.175L103.545 69.515ZM119.145 66.695H123.75V76.805H119.145V75.215H122.115V68.27H119.145V66.695ZM118.095 66.695H119.73V77.915H118.095V66.695ZM119.07 70.7H122.91V72.26H119.07V70.7ZM120.225 64.25L122.19 64.535C121.845 65.555 121.47 66.62 121.17 67.325L119.73 67.01C119.94 66.23 120.15 65.075 120.225 64.25ZM125.73 66.59H130.11V68.225H125.73V66.59ZM129.495 66.59H131.16C131.16 66.59 131.16 67.175 131.145 67.4C130.95 74.15 130.77 76.535 130.155 77.33C129.735 77.915 129.315 78.08 128.7 78.17C128.13 78.26 127.215 78.245 126.345 78.2C126.315 77.705 126.075 76.94 125.745 76.46C126.72 76.535 127.62 76.55 127.995 76.55C128.295 76.55 128.46 76.49 128.655 76.28C129.135 75.77 129.33 73.19 129.495 66.935V66.59ZM125.775 64.265L127.5 64.67C126.915 66.89 125.94 69.17 124.92 70.61C124.59 70.31 123.855 69.8 123.435 69.56C124.44 68.3 125.295 66.26 125.775 64.265ZM125.04 70.91L126.45 70.115C127.185 71.15 128.175 72.59 128.64 73.475L127.11 74.405C126.705 73.49 125.76 72.02 125.04 70.91ZM136.53 73.145H141.735V74.21H136.53V73.145ZM136.53 74.78H141.735V75.845H136.53V74.78ZM136.455 76.415H142.035V77.63H136.455V76.415ZM134.865 65.165H142.11V66.41H134.865V65.165ZM138.225 72.065H139.695V77.15H138.225V72.065ZM136.215 64.34H137.73V67.205H136.215V64.34ZM139.32 64.34H140.835V67.205H139.32V64.34ZM136.29 68.525V69.35H137.04V68.525H136.29ZM135.135 67.475H138.255V70.4H135.135V67.475ZM139.905 68.525V69.35H140.73V68.525H139.905ZM138.765 67.475H141.945V70.4H138.765V67.475ZM137.16 71.39H142.005V72.59H137.16V78.26H135.72V72.38L136.62 71.39H137.16ZM138.84 70.265L140.295 70.58C139.965 71.21 139.65 71.855 139.395 72.29L138.27 71.975C138.495 71.48 138.72 70.76 138.84 70.265ZM136.335 70.145L137.64 70.505C137.115 72.095 136.245 73.73 135.285 74.78C135.12 74.495 134.7 73.85 134.445 73.565C135.24 72.725 135.945 71.45 136.335 70.145ZM144.09 68.645V69.605H146.565V68.645H144.09ZM144.09 70.97V71.93H146.565V70.97H144.09ZM144.09 66.335V67.28H146.565V66.335H144.09ZM142.56 64.79H148.185V73.46H142.56V64.79ZM145.365 73.22H146.88V76.235C146.88 76.61 146.91 76.655 147.06 76.655C147.12 76.655 147.315 76.655 147.39 76.655C147.585 76.655 147.645 76.46 147.675 74.885C147.96 75.14 148.605 75.38 149.01 75.5C148.89 77.555 148.515 78.08 147.57 78.08C147.345 78.08 147 78.08 146.79 78.08C145.605 78.08 145.365 77.615 145.365 76.25V73.22ZM143.34 73.28H144.855C144.72 75.62 144.3 77.315 142.245 78.32C142.065 77.93 141.63 77.315 141.285 77.03C142.98 76.295 143.235 75.08 143.34 73.28ZM155.85 73.61H157.635V76.04C157.635 76.475 157.74 76.535 158.34 76.535C158.61 76.535 159.75 76.535 160.11 76.535C160.635 76.535 160.725 76.34 160.785 74.945C161.145 75.215 161.895 75.485 162.39 75.59C162.18 77.615 161.715 78.125 160.26 78.125C159.9 78.125 158.475 78.125 158.115 78.125C156.285 78.125 155.85 77.615 155.85 76.055V73.61ZM156.66 72.92L157.8 71.75C158.835 72.215 160.11 73.01 160.71 73.67L159.48 74.96C158.94 74.3 157.71 73.43 156.66 72.92ZM161.745 74.105L163.215 73.22C164.31 74.24 165.495 75.635 165.96 76.715L164.34 77.69C163.935 76.67 162.825 75.17 161.745 74.105ZM153.84 73.445L155.46 73.97C155.085 75.425 154.515 76.895 153.39 77.825L151.89 76.82C152.88 76.04 153.525 74.765 153.84 73.445ZM154.02 69.5H162.315V71.015H154.02V69.5ZM156.27 67.43H161.565V68.81H156.27V67.43ZM158.91 65.84C157.65 67.265 155.25 68.75 152.91 69.635C152.7 69.185 152.25 68.465 151.905 68.075C154.35 67.28 156.705 65.72 157.89 64.28H159.765C161.415 66.035 163.74 67.31 166.065 67.925C165.645 68.39 165.225 69.05 164.955 69.575C162.84 68.81 160.245 67.31 158.91 65.84ZM161.805 69.5H162.18L162.465 69.425L163.68 70.16C163.125 71.315 162.12 72.815 161.31 73.805C160.95 73.535 160.335 73.145 159.915 72.95C160.665 72.065 161.475 70.685 161.805 69.83V69.5ZM172.725 70.115V75.635H171V71.78H169.32V70.115H172.725ZM172.725 74.93C173.295 75.92 174.36 76.355 175.905 76.415C177.705 76.505 181.26 76.46 183.345 76.295C183.15 76.7 182.865 77.525 182.79 78.05C180.915 78.14 177.72 78.17 175.89 78.08C174.09 78.005 172.875 77.57 171.975 76.415C171.375 77 170.745 77.57 169.995 78.215L169.14 76.43C169.77 76.025 170.505 75.485 171.165 74.93H172.725ZM169.365 65.66L170.745 64.655C171.6 65.315 172.65 66.32 173.115 67.025L171.63 68.165C171.225 67.43 170.22 66.395 169.365 65.66ZM172.965 68.165H183.06V69.41H172.965V68.165ZM175.83 70.88V71.645H180.135V70.88H175.83ZM174.165 69.875H181.92V72.65H174.165V69.875ZM177.39 71.78L178.89 72.305C177.765 73.775 175.86 74.99 174.075 75.71C173.865 75.365 173.37 74.705 173.04 74.39C174.735 73.835 176.475 72.905 177.39 71.78ZM181.545 72.02L182.82 72.89C182.04 73.43 181.23 73.97 180.585 74.315L179.64 73.595C180.255 73.205 181.08 72.5 181.545 72.02ZM178.575 72.395C179.415 73.52 181.11 74.315 183.09 74.63C182.745 74.945 182.31 75.56 182.1 75.98C179.985 75.485 178.275 74.345 177.285 72.77L178.575 72.395ZM179.82 65.66V66.695H180.78V65.66H179.82ZM177.51 65.66V66.695H178.455V65.66H177.51ZM175.23 65.66V66.695H176.16V65.66H175.23ZM173.715 64.655H182.37V67.715H173.715V64.655ZM176.985 72.095H178.695V76.13H176.985V72.095ZM186.96 65.27H200.04V67.115H186.96V65.27ZM194.205 70.295L195.6 69.125C197.205 70.295 199.515 72.02 200.61 73.22L199.08 74.6C198.09 73.415 195.87 71.57 194.205 70.295ZM193.605 65.945L195.615 66.65C193.905 69.815 191.175 72.875 187.725 74.675C187.44 74.195 186.87 73.445 186.495 73.04C189.705 71.525 192.36 68.615 193.605 65.945ZM192.51 69.575L194.49 67.61V78.32H192.51V69.575ZM203.895 76.445H217.59V78.065H203.895V76.445ZM205.83 65.795H217.335V67.34H205.83V65.795ZM205.44 68.345H209.175V69.74H205.44V68.345ZM205.695 73.085H215.925V77.39H214.17V74.48H212.985V77.39H211.335V74.48H210.18V77.39H208.53V74.48H207.375V77.39H205.695V73.085ZM205.005 65.795H206.805V67.46C206.805 69.2 206.52 71.735 205.2 73.37C204.9 73.055 204.09 72.485 203.67 72.29C204.87 70.835 205.005 68.84 205.005 67.43V65.795ZM208.65 68.345H210.315C210.315 68.345 210.3 68.705 210.285 68.885C210.21 70.73 210.105 71.57 209.805 71.93C209.55 72.23 209.235 72.335 208.86 72.365C208.515 72.425 207.93 72.425 207.285 72.41C207.255 71.99 207.105 71.42 206.91 71.075C207.375 71.12 207.78 71.12 207.99 71.12C208.155 71.12 208.275 71.105 208.38 70.985C208.53 70.805 208.59 70.205 208.65 68.555V68.345ZM210.48 64.28H212.265C212.445 67.955 214.155 71.255 215.67 71.255C216.03 71.24 216.18 70.82 216.27 69.68C216.63 70.01 217.23 70.325 217.68 70.46C217.41 72.5 216.855 72.965 215.565 72.95C212.805 72.95 210.735 68.915 210.48 64.28ZM214.815 67.52L216.435 68.015C215.25 70.205 213.18 71.9 210.99 72.92C210.75 72.575 210.195 71.885 209.85 71.57C211.98 70.76 213.87 69.335 214.815 67.52ZM213.03 64.88L214.245 64.16C214.845 64.52 215.52 65.075 215.895 65.465L214.62 66.29C214.275 65.87 213.57 65.24 213.03 64.88ZM227.19 65.12H234.525V66.83H227.19V65.12ZM231 69.785H232.845V76.265C232.845 77.225 232.65 77.735 231.99 78.02C231.345 78.29 230.4 78.305 229.05 78.305C228.99 77.78 228.75 77 228.51 76.475C229.365 76.52 230.355 76.52 230.625 76.52C230.91 76.505 231 76.445 231 76.22V69.785ZM226.545 69.275H234.915V70.985H226.545V69.275ZM223.185 71.045L224.76 69.47L224.985 69.56V78.365H223.185V71.045ZM224.88 67.535L226.59 68.18C225.405 70.175 223.56 72.275 221.955 73.595C221.7 73.22 221.085 72.41 220.725 72.05C222.255 70.97 223.89 69.23 224.88 67.535ZM224.31 64.265L226.035 64.97C224.94 66.395 223.32 67.955 221.895 68.945C221.655 68.54 221.19 67.835 220.89 67.475C222.135 66.665 223.575 65.315 224.31 64.265Z" fill="#E9BD53"/>
</g>
<defs>
<filter id="filter0_d_1875_6717" x="0.661194" y="0" width="364.339" height="146" filterUnits="userSpaceOnUse" color-interpolation-filters="sRGB">
<feFlood flood-opacity="0" result="BackgroundImageFix"/>
<feColorMatrix in="SourceAlpha" type="matrix" values="0 0 0 0 0 0 0 0 0 0 0 0 0 0 0 0 0 0 127 0" result="hardAlpha"/>
<feOffset dx="2" dy="2"/>
<feGaussianBlur stdDeviation="5"/>
<feComposite in2="hardAlpha" operator="out"/>
<feColorMatrix type="matrix" values="0 0 0 0 0.913725 0 0 0 0 0.741176 0 0 0 0 0.32549 0 0 0 1 0"/>
<feBlend mode="normal" in2="BackgroundImageFix" result="effect1_dropShadow_1875_6717"/>
<feBlend mode="normal" in="SourceGraphic" in2="effect1_dropShadow_1875_6717" result="shape"/>
</filter>
</defs>
</svg>
