<svg width="111" height="175" viewBox="0 0 111 175" fill="none" xmlns="http://www.w3.org/2000/svg">
<path d="M44.5 175C40.5 151.167 26 100.6 0 89C12.6667 94.5 39.3 107.9 44.5 117.5C49.7 127.1 49 121.5 48 117.5C43.736 87.9567 31.5687 27.9965 14.8543 5.3582C13.1431 3.41666 11.5172 1.62467 10 0C11.6568 1.41516 13.2758 3.22025 14.8543 5.3582C37.0178 30.5042 73.5 80.7384 73.5 117.5C80.3333 102.333 94 64.8 94 36C100.833 72.8333 110.4 152.2 94 175H44.5Z" fill="#76B159"/>
<ellipse cx="77.2508" cy="137.376" rx="9.03069" ry="11.4072" transform="rotate(-15.5008 77.2508 137.376)" fill="white"/>
<ellipse cx="98.7764" cy="131.406" rx="9.03069" ry="11.4072" transform="rotate(-15.5008 98.7764 131.406)" fill="white"/>
<ellipse cx="103.035" cy="132.239" rx="3.08945" ry="4.04005" transform="rotate(-15.5008 103.035 132.239)" fill="#3C4040"/>
<ellipse cx="80.1349" cy="138.59" rx="3.08945" ry="4.04005" transform="rotate(-15.5008 80.1349 138.59)" fill="#3C4040"/>
</svg>
