<svg width="372" height="154" viewBox="0 0 372 154" fill="none" xmlns="http://www.w3.org/2000/svg">
<g filter="url(#filter0_d_1882_6790)">
<rect width="334.064" height="134" rx="38" transform="matrix(-1 0 0 1 342.064 8)" fill="#3C4040"/>
<path d="M358.782 123.471C359.715 123.482 360.185 122.351 359.501 121.741L340.984 105.258C340.467 104.799 339.631 104.995 339.364 105.64L332.641 121.823C332.373 122.468 332.838 123.163 333.542 123.172L358.782 123.471Z" fill="#3C4040"/>
<path d="M46.776 36.896H49.962V38.84H46.776V36.896ZM43.464 40.37H50.52V42.35H43.464V40.37ZM45.84 34.898H47.802V41.486H45.84V34.898ZM46.2 41.612H48.126V49.244C48.126 50.18 47.982 50.72 47.388 51.044C46.794 51.35 46.002 51.386 44.904 51.386C44.85 50.828 44.598 50 44.364 49.442C45.012 49.46 45.696 49.46 45.912 49.46C46.128 49.46 46.2 49.406 46.2 49.208V41.612ZM44.22 43.322L46.02 43.664C45.786 45.464 45.318 47.372 44.742 48.578C44.382 48.308 43.608 47.858 43.176 47.642C43.716 46.562 44.04 44.888 44.22 43.322ZM48.108 43.844L49.728 43.214C50.196 44.42 50.772 45.986 51.006 46.94L49.296 47.696C49.08 46.706 48.576 45.086 48.108 43.844ZM50.214 35.96H54.714V37.958H50.214V35.96ZM54.246 35.96H54.57L54.894 35.888L56.064 36.14C55.596 44.114 53.58 48.956 49.782 51.584C49.476 51.098 48.936 50.378 48.486 50.018C51.888 47.984 53.832 43.124 54.246 36.374V35.96ZM52.194 37.886C52.716 43.052 53.868 47.768 56.658 50C56.19 50.36 55.506 51.134 55.2 51.674C52.212 48.956 51.078 44.024 50.448 38.102L52.194 37.886ZM40.116 36.104L41.52 34.79C42.42 35.456 43.68 36.41 44.274 37.058L42.798 38.552C42.24 37.868 41.034 36.824 40.116 36.104ZM39.396 41.18L40.638 39.794C41.502 40.37 42.744 41.27 43.338 41.882L42.06 43.448C41.502 42.818 40.296 41.846 39.396 41.18ZM39.666 50.378C40.296 49.01 41.16 46.778 41.826 44.762L43.302 45.824C42.744 47.678 42.024 49.73 41.322 51.422L39.666 50.378ZM69.114 40.568L71.166 40.748C70.662 45.608 69.51 49.334 66.99 51.656C66.666 51.314 65.784 50.612 65.298 50.324C67.782 48.344 68.772 44.888 69.114 40.568ZM74.478 36.59L76.476 37.238C75.828 38.354 75.126 39.614 74.532 40.424L73.074 39.848C73.578 38.948 74.172 37.58 74.478 36.59ZM67.188 37.994L68.718 37.346C69.204 37.958 69.636 38.84 69.798 39.452L68.178 40.172C68.052 39.578 67.638 38.66 67.188 37.994ZM70.212 37.634L71.742 37.04C72.156 37.706 72.516 38.624 72.606 39.236L70.986 39.902C70.896 39.272 70.59 38.336 70.212 37.634ZM74.982 34.736L76.458 36.104C73.866 36.842 70.122 37.238 66.954 37.382C66.9 36.968 66.648 36.284 66.45 35.888C69.51 35.708 72.984 35.312 74.982 34.736ZM66.846 39.83H76.638V41.45H66.846V39.83ZM66.468 42.368H76.962V44.006H66.468V42.368ZM69.42 44.852H74.622V46.49H68.592L69.42 44.852ZM74.1 44.852H74.478L74.82 44.798L76.044 45.194C75.072 48.74 72.75 50.666 69.582 51.638C69.366 51.17 68.916 50.414 68.556 50.018C71.274 49.352 73.38 47.678 74.1 45.104V44.852ZM70.554 45.824C71.724 47.93 74.154 49.334 77.358 49.874C76.926 50.306 76.35 51.098 76.08 51.638C72.696 50.864 70.302 49.064 68.916 46.292L70.554 45.824ZM60.258 38.3H65.262V40.262H60.258V38.3ZM62.166 34.718L64.128 34.88C63.57 38.696 62.706 43.502 61.95 46.796L60.312 45.716C60.96 42.926 61.752 38.246 62.166 34.718ZM61.14 45.356L62.328 43.862C63.858 45.104 65.784 46.886 66.594 48.146L65.28 49.856C64.506 48.56 62.652 46.67 61.14 45.356ZM64.524 38.3H64.884L65.226 38.264L66.45 38.39C66.18 45.5 64.794 49.46 61.5 51.638C61.23 51.116 60.69 50.36 60.258 49.946C63.012 48.38 64.308 44.438 64.524 38.678V38.3ZM87.402 35.852H97.878V37.85H87.402V35.852ZM94.512 36.842H96.564V49.262C96.564 50.486 96.276 51.008 95.466 51.296C94.656 51.602 93.378 51.62 91.488 51.602C91.398 51.062 91.092 50.216 90.84 49.676C92.118 49.73 93.558 49.73 93.972 49.712C94.368 49.712 94.512 49.604 94.512 49.244V36.842ZM88.788 39.902H93.144V46.796H88.788V44.978H91.254V41.72H88.788V39.902ZM87.834 39.902H89.67V47.93H87.834V39.902ZM81.678 35.492H85.818V37.418H83.568V51.638H81.678V35.492ZM85.332 35.492H85.674L85.98 35.42L87.384 36.212C86.916 37.742 86.34 39.542 85.818 40.946C86.916 42.368 87.132 43.646 87.132 44.708C87.132 45.878 86.898 46.652 86.322 47.084C86.034 47.3 85.692 47.426 85.296 47.48C84.972 47.534 84.54 47.534 84.126 47.534C84.126 47.012 83.946 46.202 83.658 45.662C83.964 45.698 84.216 45.716 84.432 45.68C84.63 45.68 84.792 45.644 84.936 45.554C85.152 45.392 85.242 44.978 85.242 44.474C85.242 43.61 85.026 42.422 83.982 41.162C84.504 39.578 85.062 37.22 85.332 36.104V35.492ZM108.12 36.194H118.362V37.94H108.12V36.194ZM113.07 34.826H114.06V44.852C114.078 46.148 115.122 48.398 118.56 49.748C118.146 50.27 117.696 51.08 117.408 51.656C114.78 50.63 113.448 48.686 113.052 47.57C112.71 48.668 111.252 50.666 108.552 51.638C108.318 51.134 107.814 50.288 107.436 49.82C111 48.524 112.062 46.13 112.062 44.87V34.826H113.07ZM109.47 41.522H115.842V40.424H108.696V38.804H117.858V43.142H109.47V41.522ZM108.912 41.522H110.802C110.514 43.196 110.136 45.212 109.812 46.526L107.958 46.31C108.318 45.032 108.696 43.07 108.912 41.522ZM109.506 44.114H116.868V45.824H109.002L109.506 44.114ZM116.508 44.114H118.398C118.398 44.114 118.398 44.492 118.398 44.69C118.362 46.598 118.308 47.48 118.02 47.876C117.786 48.164 117.48 48.308 117.138 48.362C116.85 48.416 116.346 48.434 115.824 48.398C115.788 47.966 115.626 47.336 115.446 46.958C115.716 46.994 115.914 47.012 116.04 47.012C116.184 47.012 116.274 46.976 116.364 46.85C116.472 46.67 116.49 46.076 116.508 44.366V44.114ZM101.64 38.3H106.914V40.28H101.64V38.3ZM103.764 34.718L105.816 34.916C105.186 38.696 104.25 43.448 103.44 46.724L101.766 45.608C102.45 42.836 103.296 38.21 103.764 34.718ZM102.612 45.284L103.782 43.862C105.438 45.194 107.562 47.12 108.498 48.434L107.202 50.108C106.32 48.722 104.268 46.706 102.612 45.284ZM106.176 38.3H106.536L106.878 38.264L108.12 38.426C107.796 45.392 106.302 49.37 102.99 51.602C102.702 51.08 102.162 50.306 101.73 49.892C104.52 48.29 105.906 44.312 106.176 38.678V38.3ZM124.374 37.634H129.9V49.766H124.374V47.858H127.938V39.524H124.374V37.634ZM123.114 37.634H125.076V51.098H123.114V37.634ZM124.284 42.44H128.892V44.312H124.284V42.44ZM125.67 34.7L128.028 35.042C127.614 36.266 127.164 37.544 126.804 38.39L125.076 38.012C125.328 37.076 125.58 35.69 125.67 34.7ZM132.276 37.508H137.532V39.47H132.276V37.508ZM136.794 37.508H138.792C138.792 37.508 138.792 38.21 138.774 38.48C138.54 46.58 138.324 49.442 137.586 50.396C137.082 51.098 136.578 51.296 135.84 51.404C135.156 51.512 134.058 51.494 133.014 51.44C132.978 50.846 132.69 49.928 132.294 49.352C133.464 49.442 134.544 49.46 134.994 49.46C135.354 49.46 135.552 49.388 135.786 49.136C136.362 48.524 136.596 45.428 136.794 37.922V37.508ZM132.33 34.718L134.4 35.204C133.698 37.868 132.528 40.604 131.304 42.332C130.908 41.972 130.026 41.36 129.522 41.072C130.728 39.56 131.754 37.112 132.33 34.718ZM131.448 42.692L133.14 41.738C134.022 42.98 135.21 44.708 135.768 45.77L133.932 46.886C133.446 45.788 132.312 44.024 131.448 42.692ZM142.86 43.844C144.282 43.43 146.388 42.674 148.422 41.936L148.8 43.844C146.964 44.564 144.984 45.32 143.4 45.914L142.86 43.844ZM143.094 38.138H148.548V40.118H143.094V38.138ZM145.056 34.736H147.036V49.334C147.036 50.342 146.856 50.9 146.298 51.224C145.758 51.566 144.984 51.638 143.814 51.638C143.76 51.098 143.508 50.216 143.256 49.622C143.904 49.658 144.534 49.658 144.75 49.64C144.966 49.64 145.056 49.586 145.056 49.334V34.736ZM151.176 34.916H153.156V42.8C153.156 46.4 152.688 49.586 149.106 51.566C148.782 51.098 148.044 50.378 147.576 50.036C150.78 48.38 151.176 45.824 151.176 42.782V34.916ZM154.308 34.916H156.342V48.56C156.342 49.406 156.414 49.532 156.774 49.532C156.936 49.532 157.602 49.532 157.8 49.532C158.142 49.532 158.232 49.01 158.286 47.174C158.754 47.534 159.528 47.894 160.104 48.02C159.906 50.504 159.384 51.458 157.98 51.458C157.638 51.458 156.72 51.458 156.396 51.458C154.776 51.458 154.308 50.81 154.308 48.542V34.916ZM148.332 37.868L149.934 36.986C150.672 38.12 151.446 39.596 151.788 40.568L150.114 41.576C149.79 40.568 149.016 39.02 148.332 37.868ZM155.568 43.718L156.864 42.44C158.052 43.412 159.42 44.744 160.104 45.644L158.736 47.138C158.088 46.238 156.72 44.744 155.568 43.718ZM147.756 45.446C148.602 44.942 149.88 44.096 151.14 43.25L151.842 44.888C150.87 45.698 149.79 46.544 148.854 47.246L147.756 45.446ZM157.818 36.77L159.744 37.742C158.97 39.074 158.178 40.604 157.512 41.576L156.036 40.748C156.648 39.686 157.422 38.012 157.818 36.77ZM164.172 35.798H180.264V37.688H164.172V35.798ZM168.132 34.718H170.328V38.768H168.132V34.718ZM174.108 34.718H176.322V38.534H174.108V34.718ZM164.19 45.068H180.264V46.976H164.19V45.068ZM171.03 43.862H173.298V51.62H171.03V43.862ZM170.436 45.932L172.2 46.724C170.544 48.722 167.79 50.396 165.108 51.242C164.784 50.684 164.118 49.802 163.632 49.352C166.242 48.722 169.014 47.408 170.436 45.932ZM173.892 46.076C175.296 47.552 177.996 48.758 180.642 49.316C180.174 49.766 179.508 50.63 179.202 51.206C176.52 50.414 173.856 48.776 172.254 46.76L173.892 46.076ZM177.708 38.246L179.418 39.938C175.458 40.838 169.842 41.18 165.108 41.198C165.054 40.676 164.82 39.812 164.622 39.344C169.266 39.29 174.63 38.93 177.708 38.246ZM165.396 42.044L167.196 41.324C167.844 42.098 168.51 43.142 168.762 43.898L166.836 44.672C166.62 43.952 166.008 42.854 165.396 42.044ZM170.418 41.63L172.308 41.018C172.758 41.738 173.226 42.656 173.352 43.322L171.354 43.988C171.246 43.358 170.85 42.368 170.418 41.63ZM177.222 40.604L179.436 41.378C178.662 42.566 177.816 43.826 177.15 44.636L175.458 43.916C176.07 43.034 176.826 41.63 177.222 40.604ZM184.26 43.844C185.682 43.43 187.788 42.674 189.822 41.936L190.2 43.844C188.364 44.564 186.384 45.32 184.8 45.914L184.26 43.844ZM184.494 38.138H189.948V40.118H184.494V38.138ZM186.456 34.736H188.436V49.334C188.436 50.342 188.256 50.9 187.698 51.224C187.158 51.566 186.384 51.638 185.214 51.638C185.16 51.098 184.908 50.216 184.656 49.622C185.304 49.658 185.934 49.658 186.15 49.64C186.366 49.64 186.456 49.586 186.456 49.334V34.736ZM192.576 34.916H194.556V42.8C194.556 46.4 194.088 49.586 190.506 51.566C190.182 51.098 189.444 50.378 188.976 50.036C192.18 48.38 192.576 45.824 192.576 42.782V34.916ZM195.708 34.916H197.742V48.56C197.742 49.406 197.814 49.532 198.174 49.532C198.336 49.532 199.002 49.532 199.2 49.532C199.542 49.532 199.632 49.01 199.686 47.174C200.154 47.534 200.928 47.894 201.504 48.02C201.306 50.504 200.784 51.458 199.38 51.458C199.038 51.458 198.12 51.458 197.796 51.458C196.176 51.458 195.708 50.81 195.708 48.542V34.916ZM189.732 37.868L191.334 36.986C192.072 38.12 192.846 39.596 193.188 40.568L191.514 41.576C191.19 40.568 190.416 39.02 189.732 37.868ZM196.968 43.718L198.264 42.44C199.452 43.412 200.82 44.744 201.504 45.644L200.136 47.138C199.488 46.238 198.12 44.744 196.968 43.718ZM189.156 45.446C190.002 44.942 191.28 44.096 192.54 43.25L193.242 44.888C192.27 45.698 191.19 46.544 190.254 47.246L189.156 45.446ZM199.218 36.77L201.144 37.742C200.37 39.074 199.578 40.604 198.912 41.576L197.436 40.748C198.048 39.686 198.822 38.012 199.218 36.77ZM205.518 39.128H210.54V41.306H205.518V39.128ZM212.52 34.736H214.806V48.83C214.806 50.126 214.536 50.774 213.78 51.17C213.006 51.548 211.818 51.638 210.18 51.638C210.09 50.972 209.658 49.874 209.316 49.226C210.504 49.28 211.638 49.28 212.034 49.28C212.394 49.262 212.52 49.154 212.52 48.812V34.736ZM209.802 39.128H210.252L210.63 39.056L212.124 39.596C211.296 44.51 209.316 48.182 206.742 50.072C206.364 49.568 205.482 48.686 204.96 48.362C207.426 46.706 209.19 43.574 209.802 39.596V39.128ZM214.68 37.364C215.832 42.134 218.19 46.382 222.222 48.308C221.682 48.758 220.926 49.658 220.566 50.324C216.39 47.966 214.248 43.286 212.97 37.724L214.68 37.364ZM219.72 37.526L221.754 38.948C220.224 40.568 218.298 42.386 216.786 43.52L215.238 42.296C216.696 41.09 218.604 39.128 219.72 37.526ZM226.254 44.186H242.364V46.166H226.254V44.186ZM233.184 36.284H235.488V51.62H233.184V36.284ZM232.59 45.158L234.39 45.932C232.698 48.182 229.908 50.126 227.172 51.134C226.848 50.612 226.182 49.802 225.714 49.352C228.378 48.542 231.168 46.904 232.59 45.158ZM235.884 45.032C237.36 46.76 240.24 48.398 242.886 49.208C242.418 49.64 241.752 50.486 241.428 51.026C238.764 49.982 235.92 47.984 234.192 45.788L235.884 45.032ZM230.268 40.154V41.324H238.332V40.154H230.268ZM230.268 37.346V38.48H238.332V37.346H230.268ZM228.018 35.546H240.708V43.124H228.018V35.546ZM253.866 34.97H256.242V48.92C256.242 50.252 255.936 50.846 255.108 51.188C254.28 51.548 253.038 51.62 251.274 51.602C251.166 50.972 250.752 49.946 250.41 49.352C251.598 49.424 252.948 49.406 253.326 49.388C253.722 49.388 253.866 49.262 253.866 48.902V34.97ZM258.204 39.704L260.31 38.912C261.786 41.45 263.28 44.744 263.73 46.994L261.372 47.93C260.994 45.752 259.626 42.35 258.204 39.704ZM249.15 39.092L251.616 39.506C251.004 42.224 250.014 45.59 248.502 47.588C247.98 47.192 246.99 46.688 246.396 46.454C247.854 44.618 248.772 41.45 249.15 39.092ZM279.822 38.012H284.124V39.956H279.822V38.012ZM279.876 34.7L281.586 34.952C281.244 38.12 280.596 41.216 279.39 43.232C279.138 42.908 278.508 42.242 278.13 41.936C279.138 40.208 279.624 37.472 279.876 34.7ZM282.018 39.092L283.656 39.2C283.278 44.762 282.342 49.01 279.588 51.728C279.372 51.386 278.778 50.702 278.436 50.396C280.974 48.092 281.73 44.096 282.018 39.092ZM280.776 39.668C281.208 44.096 282.162 48.236 284.448 50.108C284.052 50.45 283.458 51.134 283.17 51.62C280.758 49.334 279.894 44.87 279.426 39.848L280.776 39.668ZM267.06 43.646C268.23 43.286 269.922 42.674 271.56 42.062L271.956 43.952C270.498 44.546 268.95 45.158 267.618 45.662L267.06 43.646ZM267.366 38.174H271.65V40.136H267.366V38.174ZM268.896 34.736H270.75V49.496C270.75 50.396 270.606 50.9 270.12 51.206C269.616 51.53 268.95 51.602 267.924 51.584C267.87 51.098 267.654 50.27 267.42 49.748C267.942 49.766 268.464 49.766 268.644 49.766C268.842 49.766 268.896 49.712 268.896 49.496V34.736ZM271.938 39.56H277.914V41.306H273.378V51.602H271.938V39.56ZM277.284 39.56H278.85V49.91C278.85 50.612 278.742 51.044 278.346 51.332C277.932 51.584 277.41 51.62 276.708 51.62C276.672 51.188 276.474 50.504 276.276 50.09C276.636 50.108 276.978 50.108 277.122 50.108C277.248 50.09 277.284 50.054 277.284 49.892V39.56ZM272.694 35.672L274.332 35.996C274.062 37.4 273.576 38.858 273 39.794C272.676 39.56 271.956 39.182 271.542 39.02C272.118 38.156 272.496 36.878 272.694 35.672ZM273.846 42.314L274.836 42.458C274.71 44.366 274.494 46.328 274.008 47.606C273.828 47.48 273.396 47.228 273.144 47.12C273.63 45.878 273.756 44.078 273.846 42.314ZM276.33 36.05L277.788 35.618C278.256 36.644 278.706 38.03 278.85 38.876L277.284 39.416C277.176 38.534 276.762 37.13 276.33 36.05ZM275.952 42.53L276.87 42.35C277.23 43.916 277.464 45.932 277.482 47.084L276.492 47.354C276.492 46.166 276.276 44.114 275.952 42.53ZM274.53 34.736H276.168V41.072H275.952V51.404H274.746V41.072H274.53V34.736ZM295.356 41.63H297.534V45.302C297.534 46.292 297.336 46.814 296.616 47.12C295.896 47.408 294.942 47.408 293.7 47.408C293.61 46.832 293.304 46.022 293.052 45.482C293.808 45.518 294.762 45.518 295.032 45.5C295.284 45.5 295.356 45.446 295.356 45.248V41.63ZM291.648 42.116L293.898 42.854C292.89 44.438 291.27 46.04 289.902 47.012C289.47 46.598 288.552 45.896 288.012 45.554C289.416 44.744 290.856 43.43 291.648 42.116ZM300.702 42.656L302.916 43.358C300.954 48.632 297.192 50.648 290.658 51.638C290.442 50.99 290.01 50.126 289.56 49.604C295.608 48.92 299.1 47.21 300.702 42.656ZM288.264 39.812H304.536V41.846H288.264V39.812ZM296.652 36.446H302.646V38.462H296.652V36.446ZM295.338 34.718H297.57V41.09H295.338V34.718ZM290.73 35.888H292.926V40.91H290.73V35.888ZM310.714 50.1406C310.327 50.1406 309.994 50.0043 309.717 49.7315C309.44 49.4588 309.304 49.1264 309.308 48.7344C309.304 48.3509 309.44 48.0227 309.717 47.75C309.994 47.4773 310.327 47.3409 310.714 47.3409C311.089 47.3409 311.415 47.4773 311.692 47.75C311.974 48.0227 312.116 48.3509 312.121 48.7344C312.116 48.9943 312.048 49.2308 311.916 49.4439C311.788 49.657 311.618 49.8274 311.405 49.9553C311.196 50.0788 310.966 50.1406 310.714 50.1406ZM310.714 43.1349C310.327 43.1349 309.994 42.9986 309.717 42.7259C309.44 42.4489 309.304 42.1165 309.308 41.7287C309.304 41.3452 309.44 41.017 309.717 40.7443C309.994 40.4673 310.327 40.3288 310.714 40.3288C311.089 40.3288 311.415 40.4673 311.692 40.7443C311.974 41.017 312.116 41.3452 312.121 41.7287C312.116 41.9844 312.048 42.2187 311.916 42.4318C311.788 42.6449 311.618 42.8153 311.405 42.9432C311.196 43.071 310.966 43.1349 310.714 43.1349ZM57.1151 73.4545L48.5753 82.0455L39.9332 73.4545L48.5753 64.8636L57.1151 73.4545ZM54.4815 73.4545L48.5625 67.5036L42.5795 73.4545L48.5625 79.4055L54.4815 73.4545ZM68.82 69.128H73.842V71.306H68.82V69.128ZM75.822 64.736H78.108V78.83C78.108 80.126 77.838 80.774 77.082 81.17C76.308 81.548 75.12 81.638 73.482 81.638C73.392 80.972 72.96 79.874 72.618 79.226C73.806 79.28 74.94 79.28 75.336 79.28C75.696 79.262 75.822 79.154 75.822 78.812V64.736ZM73.104 69.128H73.554L73.932 69.056L75.426 69.596C74.598 74.51 72.618 78.182 70.044 80.072C69.666 79.568 68.784 78.686 68.262 78.362C70.728 76.706 72.492 73.574 73.104 69.596V69.128ZM77.982 67.364C79.134 72.134 81.492 76.382 85.524 78.308C84.984 78.758 84.228 79.658 83.868 80.324C79.692 77.966 77.55 73.286 76.272 67.724L77.982 67.364ZM83.022 67.526L85.056 68.948C83.526 70.568 81.6 72.386 80.088 73.52L78.54 72.296C79.998 71.09 81.906 69.128 83.022 67.526ZM89.556 74.186H105.666V76.166H89.556V74.186ZM96.486 66.284H98.79V81.62H96.486V66.284ZM95.892 75.158L97.692 75.932C96 78.182 93.21 80.126 90.474 81.134C90.15 80.612 89.484 79.802 89.016 79.352C91.68 78.542 94.47 76.904 95.892 75.158ZM99.186 75.032C100.662 76.76 103.542 78.398 106.188 79.208C105.72 79.64 105.054 80.486 104.73 81.026C102.066 79.982 99.222 77.984 97.494 75.788L99.186 75.032ZM93.57 70.154V71.324H101.634V70.154H93.57ZM93.57 67.346V68.48H101.634V67.346H93.57ZM91.32 65.546H104.01V73.124H91.32V65.546ZM215.376 67.634H220.902V79.766H215.376V77.858H218.94V69.524H215.376V67.634ZM214.116 67.634H216.078V81.098H214.116V67.634ZM215.286 72.44H219.894V74.312H215.286V72.44ZM216.672 64.7L219.03 65.042C218.616 66.266 218.166 67.544 217.806 68.39L216.078 68.012C216.33 67.076 216.582 65.69 216.672 64.7ZM223.278 67.508H228.534V69.47H223.278V67.508ZM227.796 67.508H229.794C229.794 67.508 229.794 68.21 229.776 68.48C229.542 76.58 229.326 79.442 228.588 80.396C228.084 81.098 227.58 81.296 226.842 81.404C226.158 81.512 225.06 81.494 224.016 81.44C223.98 80.846 223.692 79.928 223.296 79.352C224.466 79.442 225.546 79.46 225.996 79.46C226.356 79.46 226.554 79.388 226.788 79.136C227.364 78.524 227.598 75.428 227.796 67.922V67.508ZM223.332 64.718L225.402 65.204C224.7 67.868 223.53 70.604 222.306 72.332C221.91 71.972 221.028 71.36 220.524 71.072C221.73 69.56 222.756 67.112 223.332 64.718ZM222.45 72.692L224.142 71.738C225.024 72.98 226.212 74.708 226.77 75.77L224.934 76.886C224.448 75.788 223.314 74.024 222.45 72.692ZM242.706 80.473L241.39 79.169L245.334 75.2251H235.752V73.3203H245.334L241.39 69.3828L242.706 68.0724L248.907 74.2727L242.706 80.473ZM254.528 65.924H270.224V68.138H254.528V65.924ZM263.222 71.954L264.896 70.55C266.822 71.954 269.594 74.024 270.908 75.464L269.072 77.12C267.884 75.698 265.22 73.484 263.222 71.954ZM262.502 66.734L264.914 67.58C262.862 71.378 259.586 75.05 255.446 77.21C255.104 76.634 254.42 75.734 253.97 75.248C257.822 73.43 261.008 69.938 262.502 66.734ZM261.188 71.09L263.564 68.732V81.584H261.188V71.09ZM275.21 74.078H281.924V80.972H279.89V76.004H277.136V81.404H275.21V74.078ZM280.484 64.718L282.176 66.284C280.16 67.04 277.46 67.544 275.138 67.832C275.048 67.346 274.742 66.59 274.508 66.158C276.65 65.852 279.044 65.312 280.484 64.718ZM277.46 66.788H279.548V75.086H277.46V66.788ZM283.166 64.79H285.326V81.62H283.166V64.79ZM288.188 64.79H290.384V81.548H288.188V64.79ZM274.598 69.794H282.23V71.81H274.598V69.794ZM281.834 67.958H291.536V70.028H281.834V67.958ZM284.138 73.25H289.304V75.284H284.138V73.25ZM284.138 78.596H289.304V80.63H284.138V78.596ZM276.146 78.47H281.024V80.396H276.146V78.47ZM57.1151 108.455L48.5753 117.045L39.9332 108.455L48.5753 99.8636L57.1151 108.455ZM54.4815 108.455L48.5625 102.504L42.5795 108.455L48.5625 114.406L54.4815 108.455ZM173.976 102.634H179.502V114.766H173.976V112.858H177.54V104.524H173.976V102.634ZM172.716 102.634H174.678V116.098H172.716V102.634ZM173.886 107.44H178.494V109.312H173.886V107.44ZM175.272 99.7L177.63 100.042C177.216 101.266 176.766 102.544 176.406 103.39L174.678 103.012C174.93 102.076 175.182 100.69 175.272 99.7ZM181.878 102.508H187.134V104.47H181.878V102.508ZM186.396 102.508H188.394C188.394 102.508 188.394 103.21 188.376 103.48C188.142 111.58 187.926 114.442 187.188 115.396C186.684 116.098 186.18 116.296 185.442 116.404C184.758 116.512 183.66 116.494 182.616 116.44C182.58 115.846 182.292 114.928 181.896 114.352C183.066 114.442 184.146 114.46 184.596 114.46C184.956 114.46 185.154 114.388 185.388 114.136C185.964 113.524 186.198 110.428 186.396 102.922V102.508ZM181.932 99.718L184.002 100.204C183.3 102.868 182.13 105.604 180.906 107.332C180.51 106.972 179.628 106.36 179.124 106.072C180.33 104.56 181.356 102.112 181.932 99.718ZM181.05 107.692L182.742 106.738C183.624 107.98 184.812 109.708 185.37 110.77L183.534 111.886C183.048 110.788 181.914 109.024 181.05 107.692ZM201.307 115.473L199.99 114.169L203.934 110.225H194.352V108.32H203.934L199.99 104.383L201.307 103.072L207.507 109.273L201.307 115.473ZM230.751 99.844H232.713V114.01H230.751V99.844ZM227.331 103.552H236.655V105.118H227.331V103.552ZM227.835 110.806H236.313V112.372H227.835V110.806ZM228.285 108.358H235.863V109.924H228.285V108.358ZM224.001 101.158H226.503V102.886H224.001V101.158ZM224.919 106.108H226.899V107.674H224.919V106.108ZM226.017 101.158H226.269L226.575 101.086L227.925 101.428C227.187 103.48 226.035 106.234 225.081 108.412L223.317 107.998C224.289 105.838 225.459 102.904 226.017 101.374V101.158ZM226.377 106.108H226.719L227.061 106.072L228.195 106.252C227.835 111.328 226.683 114.694 224.253 116.584C224.001 116.116 223.461 115.36 223.065 114.982C225.027 113.596 226.107 110.392 226.377 106.414V106.108ZM225.027 108.79C225.999 113.524 228.303 114.46 231.705 114.478C232.533 114.478 235.773 114.478 236.799 114.424C236.511 114.892 236.223 115.81 236.115 116.368H231.597C227.295 116.368 224.703 115.126 223.407 109.258L225.027 108.79ZM228.501 101.176H235.755V107.512H228.501V105.946H233.937V102.742H228.501V101.176ZM222.561 99.772L224.487 100.348C223.551 103.336 222.003 106.576 220.293 108.646C220.149 108.142 219.645 106.882 219.339 106.324C220.671 104.704 221.859 102.256 222.561 99.772ZM221.337 104.974L223.191 103.12L223.227 103.156V116.602H221.337V104.974ZM244.179 106.288H257.265V107.8H244.179V106.288ZM245.241 104.02H255.645V110.104H245.043V108.664H253.611V105.478H245.241V104.02ZM249.021 102.976H251.091V114.496C251.091 115.576 250.857 116.044 250.155 116.332C249.453 116.62 248.427 116.656 246.933 116.656C246.843 116.134 246.573 115.342 246.285 114.838C247.221 114.874 248.301 114.874 248.607 114.856C248.913 114.856 249.021 114.766 249.021 114.478V102.976ZM244.179 111.202L245.349 110.05C246.231 110.464 247.383 111.166 247.977 111.67L246.717 112.948C246.195 112.426 245.061 111.688 244.179 111.202ZM254.961 110.176L256.545 111.454C255.411 112.192 254.097 112.948 253.071 113.398L251.865 112.318C252.837 111.796 254.187 110.86 254.961 110.176ZM251.433 109.654C252.333 112.048 254.205 113.902 256.977 114.694C256.527 115.09 255.951 115.882 255.663 116.422C252.729 115.36 250.875 113.11 249.813 110.032L251.433 109.654ZM243.423 114.244C244.611 113.866 246.393 113.2 248.139 112.534L248.517 114.082C247.131 114.748 245.637 115.414 244.431 115.954L243.423 114.244ZM248.283 99.718H250.533V102.256H248.283V99.718ZM242.829 101.266H257.049V103.138H242.829V101.266ZM241.803 101.266H243.855V106.486C243.855 109.438 243.585 113.884 241.965 116.692C241.587 116.332 240.687 115.72 240.201 115.522C241.695 112.93 241.803 109.168 241.803 106.486V101.266Z" fill="#F4EEDA"/>
<path d="M110.454 65.924H126.15V68.138H110.454V65.924ZM119.148 71.954L120.822 70.55C122.748 71.954 125.52 74.024 126.834 75.464L124.998 77.12C123.81 75.698 121.146 73.484 119.148 71.954ZM118.428 66.734L120.84 67.58C118.788 71.378 115.512 75.05 111.372 77.21C111.03 76.634 110.346 75.734 109.896 75.248C113.748 73.43 116.934 69.938 118.428 66.734ZM117.114 71.09L119.49 68.732V81.584H117.114V71.09ZM130.74 74.474H147.264V76.22H130.74V74.474ZM131.082 65.348H146.832V67.22H131.082V65.348ZM136.734 72.746L138.858 73.286C137.706 75.194 136.176 77.462 135.078 78.902L132.99 78.272C134.106 76.832 135.69 74.51 136.734 72.746ZM141.954 75.122L144.042 75.662C142.26 79.91 138.552 81.134 131.874 81.656C131.73 81.026 131.406 80.27 131.064 79.802C137.13 79.55 140.514 78.578 141.954 75.122ZM134.232 78.416L135.33 76.868C139.47 77.714 143.952 78.956 146.652 79.946L145.356 81.692C142.746 80.63 138.534 79.334 134.232 78.416ZM135.816 66.086H137.85V72.242H135.816V66.086ZM139.902 66.086H141.936V72.242H139.902V66.086ZM133.926 69.938V71.63H144.096V69.938H133.926ZM131.91 68.246H146.256V73.322H131.91V68.246ZM162.546 67.076V68.3H164.814V67.076H162.546ZM158.55 67.076V68.3H160.746V67.076H158.55ZM154.59 67.076V68.3H156.75V67.076H154.59ZM152.592 65.474H166.902V69.92H152.592V65.474ZM155.742 74.186V75.05H163.662V74.186H155.742ZM155.742 76.346V77.228H163.662V76.346H155.742ZM155.742 72.026V72.908H163.662V72.026H155.742ZM153.582 70.658H165.93V78.596H153.582V70.658ZM160.71 79.55L162.42 78.452C164.436 79.082 166.758 79.946 168.144 80.558L165.786 81.638C164.67 81.062 162.672 80.198 160.71 79.55ZM156.714 78.416L158.694 79.316C157.182 80.288 154.788 81.188 152.916 81.692C152.556 81.26 151.8 80.486 151.314 80.108C153.276 79.766 155.454 79.118 156.714 78.416ZM172.392 69.236H188.538V71.45H172.392V69.236ZM178.044 77.822L179.916 76.508C181.05 77.462 182.562 78.884 183.264 79.838L181.248 81.35C180.618 80.36 179.178 78.866 178.044 77.822ZM181.878 70.262C182.976 74.438 185.28 77.984 189.024 79.604C188.484 80.072 187.764 80.99 187.404 81.62C183.372 79.604 181.14 75.752 179.79 70.748L181.878 70.262ZM178.926 64.718H181.302C181.212 70.262 181.194 77.876 173.436 81.62C173.112 81.026 172.428 80.252 171.798 79.784C179.214 76.508 178.872 69.632 178.926 64.718ZM193.11 69.56H209.13V71.792H193.11V69.56ZM202.344 70.46C203.424 74.582 205.71 78.002 209.526 79.514C208.986 80 208.266 80.936 207.906 81.566C203.784 79.64 201.534 75.914 200.166 70.964L202.344 70.46ZM199.86 64.718H202.236C202.146 70.208 202.11 77.84 194.388 81.566C194.046 80.972 193.38 80.198 192.75 79.73C200.13 76.436 199.806 69.596 199.86 64.718ZM79.746 102.076V103.3H82.014V102.076H79.746ZM75.75 102.076V103.3H77.946V102.076H75.75ZM71.79 102.076V103.3H73.95V102.076H71.79ZM69.792 100.474H84.102V104.92H69.792V100.474ZM72.942 109.186V110.05H80.862V109.186H72.942ZM72.942 111.346V112.228H80.862V111.346H72.942ZM72.942 107.026V107.908H80.862V107.026H72.942ZM70.782 105.658H83.13V113.596H70.782V105.658ZM77.91 114.55L79.62 113.452C81.636 114.082 83.958 114.946 85.344 115.558L82.986 116.638C81.87 116.062 79.872 115.198 77.91 114.55ZM73.914 113.416L75.894 114.316C74.382 115.288 71.988 116.188 70.116 116.692C69.756 116.26 69 115.486 68.514 115.108C70.476 114.766 72.654 114.118 73.914 113.416ZM89.574 101.896H105.63V103.912H89.574V101.896ZM94.434 108.376H102.264V110.176H94.434V108.376ZM92.832 105.334H101.94V107.224H94.974V116.602H92.832V105.334ZM101.508 105.334H103.614V114.28C103.614 115.342 103.416 115.936 102.678 116.278C101.958 116.602 100.932 116.62 99.474 116.62C99.384 116.026 99.096 115.108 98.808 114.55C99.744 114.604 100.806 114.586 101.112 114.586C101.4 114.586 101.508 114.496 101.508 114.244V105.334ZM95.154 99.7L97.386 100.204C96.126 104.272 93.966 108.412 90.456 110.86C90.15 110.374 89.466 109.6 89.034 109.186C92.238 107.08 94.254 103.21 95.154 99.7ZM94.434 111.346H102.264V113.146H94.434V111.346ZM114 102.256V103.228H122.55V102.256H114ZM112.002 100.726H124.674V104.74H112.002V100.726ZM117.15 99.7H119.292V106.738H117.15V99.7ZM110.994 105.766C114.162 105.784 119.274 105.748 124.062 105.694L123.972 107.206C119.346 107.368 114.432 107.476 111.102 107.512L110.994 105.766ZM121.11 105.1L122.586 104.29C123.81 105.1 125.304 106.306 126.096 107.062L124.566 108.034C123.792 107.206 122.28 105.928 121.11 105.1ZM112.056 110.158V111.292H116.07V110.158H112.056ZM110.49 108.592H117.726V112.858H110.49V108.592ZM113.19 107.476H114.936V115.234H113.19V107.476ZM109.806 114.28C111.642 114.208 114.342 114.118 117.006 113.992L116.97 115.648C114.468 115.828 111.876 115.972 109.932 116.098L109.806 114.28ZM115.584 113.344L117.042 112.768C117.618 113.776 118.23 115.09 118.464 115.972L116.916 116.638C116.7 115.738 116.124 114.352 115.584 113.344ZM120.066 110.14V111.292H124.26V110.14H120.066ZM118.482 108.574H125.934V112.858H118.482V108.574ZM121.236 107.476H123.036V115.234H121.236V107.476ZM118.23 114.28C120.03 114.226 122.73 114.118 125.376 113.992L125.358 115.666C122.892 115.864 120.336 116.026 118.41 116.152L118.23 114.28ZM123.72 113.362L125.232 112.696C125.916 113.686 126.618 114.982 126.942 115.846L125.34 116.62C125.052 115.738 124.35 114.37 123.72 113.362ZM140.676 99.736H142.854V103.138H140.676V99.736ZM142.746 105.01L144.42 104.02C145.5 105.028 146.886 106.45 147.534 107.422L145.734 108.538C145.14 107.584 143.826 106.09 142.746 105.01ZM138.714 104.182L140.802 104.758C140.028 106.36 138.75 107.926 137.472 108.898C137.112 108.502 136.302 107.764 135.834 107.422C137.04 106.648 138.12 105.424 138.714 104.182ZM136.572 101.86H147.354V103.912H136.572V101.86ZM140.082 107.62C141.306 110.986 143.934 113.596 147.75 114.694C147.264 115.144 146.616 116.026 146.31 116.602C142.206 115.216 139.65 112.264 138.102 108.178L140.082 107.62ZM143.304 107.548L145.392 108.196C143.862 112.336 140.928 115.036 136.626 116.674C136.338 116.152 135.69 115.288 135.24 114.856C139.236 113.524 142.062 111.022 143.304 107.548ZM132.36 101.518H136.266V111.796H132.36V109.816H134.448V103.462H132.36V101.518ZM131.154 101.518H133.026V113.164H131.154V101.518ZM155.472 106.738V113.362H153.402V108.736H151.386V106.738H155.472ZM155.472 112.516C156.156 113.704 157.434 114.226 159.288 114.298C161.448 114.406 165.714 114.352 168.216 114.154C167.982 114.64 167.64 115.63 167.55 116.26C165.3 116.368 161.466 116.404 159.27 116.296C157.11 116.206 155.652 115.684 154.572 114.298C153.852 115 153.096 115.684 152.196 116.458L151.17 114.316C151.926 113.83 152.808 113.182 153.6 112.516H155.472ZM151.44 101.392L153.096 100.186C154.122 100.978 155.382 102.184 155.94 103.03L154.158 104.398C153.672 103.516 152.466 102.274 151.44 101.392ZM156.75 105.784H166.47V107.422H158.622V113.65H156.75V105.784ZM161.052 102.958H164.76V104.308H162.564V106.414H161.052V102.958ZM158.1 100.258H165.894V106.234H163.95V101.842H159.972V106.234H158.1V100.258ZM160.512 108.16H164.292V112.138H160.512V110.788H162.726V109.546H160.512V108.16ZM165.264 105.784H167.208V111.814C167.208 112.66 167.082 113.128 166.524 113.416C165.984 113.686 165.246 113.704 164.274 113.704C164.202 113.2 163.968 112.48 163.752 112.012C164.274 112.03 164.85 112.03 165.012 112.03C165.192 112.03 165.264 111.976 165.264 111.796V105.784ZM159.54 108.16H161.106V112.696H159.54V108.16Z" fill="#E9BD53"/>
</g>
<defs>
<filter id="filter0_d_1882_6790" x="0" y="0" width="371.826" height="154" filterUnits="userSpaceOnUse" color-interpolation-filters="sRGB">
<feFlood flood-opacity="0" result="BackgroundImageFix"/>
<feColorMatrix in="SourceAlpha" type="matrix" values="0 0 0 0 0 0 0 0 0 0 0 0 0 0 0 0 0 0 127 0" result="hardAlpha"/>
<feOffset dx="2" dy="2"/>
<feGaussianBlur stdDeviation="5"/>
<feComposite in2="hardAlpha" operator="out"/>
<feColorMatrix type="matrix" values="0 0 0 0 0.913725 0 0 0 0 0.741176 0 0 0 0 0.32549 0 0 0 1 0"/>
<feBlend mode="normal" in2="BackgroundImageFix" result="effect1_dropShadow_1882_6790"/>
<feBlend mode="normal" in="SourceGraphic" in2="effect1_dropShadow_1882_6790" result="shape"/>
</filter>
</defs>
</svg>
