<svg width="533" height="146" viewBox="0 0 533 146" fill="none" xmlns="http://www.w3.org/2000/svg">
<g filter="url(#filter0_d_1875_6765)">
<rect x="24.5" y="8" width="496" height="126" rx="38" fill="#3C4040"/>
<path d="M9.17572 116.418C8.2603 116.429 7.81218 115.306 8.48378 114.684L24.9645 99.417C25.4794 98.94 26.3126 99.128 26.5728 99.7798L32.5559 114.77C32.8161 115.421 32.3414 116.132 31.6395 116.14L9.17572 116.418Z" fill="#3C4040"/>
<path d="M53.81 34.08H67.19V35.76H53.81V34.08ZM57.86 39.48H64.385V40.98H57.86V39.48ZM56.525 36.945H64.115V38.52H58.31V46.335H56.525V36.945ZM63.755 36.945H65.51V44.4C65.51 45.285 65.345 45.78 64.73 46.065C64.13 46.335 63.275 46.35 62.06 46.35C61.985 45.855 61.745 45.09 61.505 44.625C62.285 44.67 63.17 44.655 63.425 44.655C63.665 44.655 63.755 44.58 63.755 44.37V36.945ZM58.46 32.25L60.32 32.67C59.27 36.06 57.47 39.51 54.545 41.55C54.29 41.145 53.72 40.5 53.36 40.155C56.03 38.4 57.71 35.175 58.46 32.25ZM57.86 41.955H64.385V43.455H57.86V41.955ZM75.47 39.915H84.665V41.31H75.47V39.915ZM76.685 42.765L77.6 41.685C78.305 42.12 79.25 42.795 79.7 43.26L78.74 44.475C78.32 43.98 77.405 43.245 76.685 42.765ZM81.575 39.36L82.445 38.565C82.925 38.865 83.525 39.315 83.81 39.645L82.88 40.5C82.61 40.17 82.04 39.675 81.575 39.36ZM76.46 40.635H78.05C77.87 42.93 77.45 45.015 75.575 46.335C75.365 45.96 74.93 45.405 74.555 45.135C76.085 44.115 76.355 42.39 76.46 40.635ZM79.04 32.28H80.6C80.465 39.135 81.47 44.85 83.27 44.85C83.645 44.85 83.78 44.58 83.855 43.38C84.17 43.725 84.665 44.025 85.025 44.19C84.755 45.915 84.32 46.365 83.15 46.365C79.85 46.35 79.04 39.72 79.04 32.28ZM82.475 41.28L83.96 41.835C82.925 43.935 81.08 45.45 78.815 46.335C78.62 46.02 78.17 45.48 77.87 45.18C80.015 44.43 81.65 43.05 82.475 41.28ZM80.375 35.085L81.035 34.11C81.665 34.56 82.415 35.235 82.76 35.685L82.07 36.81C81.725 36.315 80.975 35.595 80.375 35.085ZM83.18 36.825L84.185 36.45C84.545 37.17 84.89 38.1 84.98 38.685L83.9 39.135C83.81 38.535 83.51 37.56 83.18 36.825ZM80.645 37.635C81.545 37.575 82.73 37.485 83.99 37.38L84.02 38.52C82.925 38.67 81.86 38.805 80.9 38.925L80.645 37.635ZM82.025 32.355L83.375 32.85C82.895 33.705 82.385 34.65 81.965 35.265L81.005 34.83C81.365 34.155 81.8 33.105 82.025 32.355ZM83.285 33.96L84.53 34.56C83.72 35.82 82.7 37.35 81.875 38.31L80.945 37.785C81.74 36.78 82.73 35.145 83.285 33.96ZM75.125 35.085L75.8 34.11C76.415 34.56 77.18 35.235 77.51 35.685L76.82 36.81C76.49 36.315 75.74 35.595 75.125 35.085ZM77.69 37.005L78.695 36.675C79.025 37.395 79.31 38.34 79.37 38.925L78.29 39.33C78.23 38.715 77.975 37.755 77.69 37.005ZM75.23 37.875C76.145 37.815 77.345 37.725 78.62 37.62L78.65 38.835C77.54 38.97 76.445 39.09 75.47 39.195L75.23 37.875ZM76.79 32.355L78.125 32.865C77.63 33.705 77.135 34.695 76.73 35.31L75.77 34.89C76.115 34.2 76.55 33.105 76.79 32.355ZM78.05 33.96L79.28 34.56C78.44 35.895 77.375 37.5 76.505 38.505L75.575 37.995C76.415 36.945 77.45 35.22 78.05 33.96ZM70.91 35.37H75.485V37.02H70.91V35.37ZM72.515 32.265H74.12V46.35H72.515V32.265ZM72.485 36.51L73.415 36.825C73.055 39.18 72.29 42.075 71.315 43.605C71.165 43.155 70.805 42.48 70.55 42.075C71.42 40.785 72.17 38.415 72.485 36.51ZM74.045 37.515C74.345 37.92 75.5 39.84 75.725 40.275L74.87 41.52C74.57 40.635 73.76 38.88 73.385 38.175L74.045 37.515ZM89.645 34.695H94.25V44.805H89.645V43.215H92.615V36.27H89.645V34.695ZM88.595 34.695H90.23V45.915H88.595V34.695ZM89.57 38.7H93.41V40.26H89.57V38.7ZM90.725 32.25L92.69 32.535C92.345 33.555 91.97 34.62 91.67 35.325L90.23 35.01C90.44 34.23 90.65 33.075 90.725 32.25ZM96.23 34.59H100.61V36.225H96.23V34.59ZM99.995 34.59H101.66C101.66 34.59 101.66 35.175 101.645 35.4C101.45 42.15 101.27 44.535 100.655 45.33C100.235 45.915 99.815 46.08 99.2 46.17C98.63 46.26 97.715 46.245 96.845 46.2C96.815 45.705 96.575 44.94 96.245 44.46C97.22 44.535 98.12 44.55 98.495 44.55C98.795 44.55 98.96 44.49 99.155 44.28C99.635 43.77 99.83 41.19 99.995 34.935V34.59ZM96.275 32.265L98 32.67C97.415 34.89 96.44 37.17 95.42 38.61C95.09 38.31 94.355 37.8 93.935 37.56C94.94 36.3 95.795 34.26 96.275 32.265ZM95.54 38.91L96.95 38.115C97.685 39.15 98.675 40.59 99.14 41.475L97.61 42.405C97.205 41.49 96.26 40.02 95.54 38.91ZM114.035 33.54H115.76V45.42H114.035V33.54ZM110.66 34.89H119.015V36.285H110.66V34.89ZM110.21 44.685H119.33V46.11H110.21V44.685ZM111.05 42.63H118.775V43.995H111.05V42.63ZM117.965 32.385L119 33.72C116.825 34.14 113.75 34.32 111.2 34.35C111.17 33.96 110.975 33.36 110.81 33C113.285 32.925 116.195 32.73 117.965 32.385ZM112.715 39.945V40.71H117.14V39.945H112.715ZM112.715 38.145V38.895H117.14V38.145H112.715ZM111.155 36.9H118.775V41.955H111.155V36.9ZM107.51 33.66H109.265V46.335H107.51V33.66ZM105.35 36.48H110.855V38.16H105.35V36.48ZM107.615 37.155L108.665 37.62C108.095 39.765 107.03 42.435 105.875 43.92C105.71 43.395 105.32 42.645 105.035 42.195C106.085 40.995 107.135 38.82 107.615 37.155ZM109.85 32.415L111.05 33.81C109.52 34.395 107.435 34.8 105.68 35.025C105.605 34.635 105.38 34.035 105.17 33.66C106.835 33.375 108.695 32.94 109.85 32.415ZM109.22 38.565C109.595 38.88 110.9 40.23 111.185 40.575L110.165 41.985C109.805 41.265 108.905 39.9 108.44 39.27L109.22 38.565ZM128.135 33.66H136.52V35.175H128.135V33.66ZM128.72 44.1H136.595V45.645H128.72V44.1ZM131.99 32.265L133.82 32.355C133.685 33.885 133.445 35.7 133.22 36.915L131.615 36.855C131.795 35.655 131.945 33.765 131.99 32.265ZM127.94 37.095H129.545V46.38H127.94V37.095ZM131.885 39.345V40.08H134.255V39.345H131.885ZM131.885 41.265V42.015H134.255V41.265H131.885ZM131.885 37.44V38.175H134.255V37.44H131.885ZM130.355 36.18H135.86V43.275H130.355V36.18ZM122.66 35.37H127.625V37.035H122.66V35.37ZM124.49 32.265H126.125V46.35H124.49V32.265ZM124.46 36.51L125.465 36.855C125.03 39.225 124.175 42.12 123.11 43.665C122.96 43.185 122.57 42.495 122.315 42.075C123.275 40.77 124.115 38.415 124.46 36.51ZM126.05 37.605C126.38 38.01 127.61 39.9 127.865 40.32L126.935 41.61C126.605 40.74 125.705 39.03 125.3 38.325L126.05 37.605ZM139.94 34.665H153.545V36.39H139.94V34.665ZM144.95 38.34H150.695V40.05H144.95V38.34ZM150.035 38.34H151.895C151.895 38.34 151.88 38.88 151.835 39.12C151.565 43.23 151.25 44.925 150.65 45.585C150.2 46.065 149.72 46.215 149.03 46.29C148.46 46.335 147.455 46.32 146.45 46.29C146.42 45.765 146.15 45.015 145.805 44.52C146.84 44.61 147.905 44.61 148.34 44.61C148.67 44.61 148.88 44.595 149.075 44.43C149.525 44.04 149.81 42.33 150.02 38.625L150.035 38.34ZM144.275 35.685H146.3C146.075 39.705 145.67 44.085 140.96 46.455C140.69 45.975 140.15 45.315 139.67 44.94C144.035 42.915 144.125 39.105 144.275 35.685ZM145.73 32.19H147.59V35.34H145.73V32.19ZM161.135 38.28H170.87V39.99H161.135V38.28ZM161.885 34.425H170.15V36.135H161.885V34.425ZM165.005 32.265H166.88V39.525H165.005V32.265ZM161.135 43.935C163.145 43.86 166.31 43.68 169.265 43.515V45.135C166.46 45.375 163.49 45.6 161.375 45.75L161.135 43.935ZM166.88 41.865L168.44 41.04C169.55 42.375 170.765 44.145 171.23 45.42L169.52 46.365C169.115 45.135 167.975 43.245 166.88 41.865ZM163.85 39.48L165.845 40.005C165.185 41.745 164.33 43.665 163.64 44.91L162.035 44.4C162.71 43.08 163.46 41.025 163.85 39.48ZM157.775 33.645L158.765 32.325C159.74 32.685 161.015 33.33 161.645 33.855L160.595 35.325C160.01 34.785 158.765 34.065 157.775 33.645ZM156.92 37.74L157.85 36.375C158.825 36.705 160.115 37.29 160.775 37.785L159.77 39.285C159.17 38.79 157.91 38.115 156.92 37.74ZM157.34 44.985C158.09 43.86 159.17 41.985 159.995 40.26L161.36 41.4C160.625 42.99 159.74 44.7 158.9 46.155L157.34 44.985ZM175.655 32.76H186.785V34.125H175.655V32.76ZM174.575 39.51H187.94V40.905H174.575V39.51ZM176.75 36.36H179.825V37.425H176.75V36.36ZM176.42 37.905H179.825V38.97H176.42V37.905ZM182.6 37.905H186.035V38.985H182.6V37.905ZM182.6 36.36H185.705V37.425H182.6V36.36ZM180.335 33.3H182.06V39.105H180.335V33.3ZM178.91 42.645H180.545V46.23H178.91V42.645ZM182.135 42.645H183.77V46.23H182.135V42.645ZM174.635 34.665H187.88V37.635H186.215V35.88H176.225V37.635H174.635V34.665ZM175.685 41.625H185.795V43.035H177.38V46.305H175.685V41.625ZM185.405 41.625H187.145V44.715C187.145 45.435 187.025 45.825 186.545 46.065C186.065 46.32 185.45 46.32 184.64 46.32C184.565 45.87 184.325 45.27 184.13 44.865C184.565 44.88 185.06 44.88 185.195 44.865C185.36 44.865 185.405 44.82 185.405 44.685V41.625ZM180.365 40.065L182.33 40.08C182.045 41.01 181.685 41.88 181.415 42.48L179.84 42.36C180.05 41.685 180.275 40.755 180.365 40.065ZM191.615 40.395H205.385V41.85H191.615V40.395ZM191.9 32.79H205.025V34.35H191.9V32.79ZM196.61 38.955L198.38 39.405C197.42 40.995 196.145 42.885 195.23 44.085L193.49 43.56C194.42 42.36 195.74 40.425 196.61 38.955ZM200.96 40.935L202.7 41.385C201.215 44.925 198.125 45.945 192.56 46.38C192.44 45.855 192.17 45.225 191.885 44.835C196.94 44.625 199.76 43.815 200.96 40.935ZM194.525 43.68L195.44 42.39C198.89 43.095 202.625 44.13 204.875 44.955L203.795 46.41C201.62 45.525 198.11 44.445 194.525 43.68ZM195.845 33.405H197.54V38.535H195.845V33.405ZM199.25 33.405H200.945V38.535H199.25V33.405ZM194.27 36.615V38.025H202.745V36.615H194.27ZM192.59 35.205H204.545V39.435H192.59V35.205ZM216.44 36.075H222.785V37.74H216.44V36.075ZM208.76 35.385H216.56V36.855H208.76V35.385ZM209.315 38.805H215.975V40.275H209.315V38.805ZM209.585 41.25H215.78V42.705H209.585V41.25ZM219.62 32.37H221.345V44.355C221.345 45.27 221.165 45.735 220.625 46.02C220.07 46.305 219.245 46.365 218.06 46.365C217.985 45.885 217.685 45.12 217.445 44.655C218.225 44.685 219.02 44.685 219.26 44.685C219.515 44.685 219.62 44.595 219.62 44.34V32.37ZM216.725 39.09L218.21 38.58C218.78 39.645 219.29 41.01 219.395 41.925L217.805 42.495C217.715 41.595 217.25 40.185 216.725 39.09ZM208.76 33.195L209.99 32.64C210.44 33.315 210.86 34.185 210.995 34.785L209.675 35.4C209.555 34.8 209.165 33.885 208.76 33.195ZM209.84 37.17L211.22 36.69C211.58 37.26 211.91 38.01 212.015 38.52L210.545 39.06C210.47 38.565 210.17 37.755 209.84 37.17ZM210.905 32.4H212.315V36.06H210.905V32.4ZM211.835 39.24H213.5V44.7H211.835V39.24ZM212.99 32.4H214.415V36.06H212.99V32.4ZM208.805 44.115C210.74 43.95 213.68 43.665 216.395 43.365L216.425 44.925C213.83 45.255 211.025 45.555 209.03 45.78L208.805 44.115ZM215.375 32.565L216.95 33.12C216.455 33.915 215.96 34.785 215.555 35.355L214.355 34.86C214.715 34.245 215.165 33.255 215.375 32.565ZM213.995 36.675L215.63 37.065C215.315 37.77 215 38.46 214.745 38.94L213.32 38.58C213.56 38.055 213.86 37.245 213.995 36.675ZM232.88 34.71H240.08V36.42H232.04L232.88 34.71ZM234.86 38.01H239.69V39.645H234.86V38.01ZM234.845 41.325H239.885V43.005H234.845V41.325ZM233.945 35.28H235.79V46.35H233.945V35.28ZM233.225 32.4L234.965 32.865C234.125 35.295 232.775 37.785 231.395 39.345C231.11 39.015 230.42 38.37 230.03 38.085C231.35 36.735 232.535 34.575 233.225 32.4ZM229.265 32.325L231.005 32.88C230.03 35.43 228.455 38.175 226.805 39.885C226.64 39.435 226.13 38.415 225.815 37.965C227.195 36.6 228.5 34.47 229.265 32.325ZM227.75 36.465L229.55 34.65L229.565 34.665V46.335H227.75V36.465ZM250.49 32.265L252.11 32.58C251.57 35.07 250.58 37.455 249.365 38.955C249.08 38.685 248.375 38.175 248 37.95C249.2 36.63 250.04 34.485 250.49 32.265ZM255.53 34.605H257.225C257.225 34.605 257.21 35.19 257.195 35.415C256.91 42.15 256.64 44.61 256.07 45.36C255.725 45.87 255.395 46.05 254.9 46.14C254.48 46.23 253.85 46.23 253.19 46.2C253.145 45.69 252.965 44.925 252.695 44.43C253.25 44.49 253.76 44.505 254.045 44.505C254.27 44.505 254.405 44.43 254.585 44.22C255.005 43.695 255.29 41.37 255.53 34.995V34.605ZM250.94 34.605H256.295V36.27H250.115L250.94 34.605ZM251.99 35.145L253.295 35.79C252.695 38.37 251.375 41.34 249.74 42.87C249.395 42.525 248.825 42.105 248.36 41.85C250.1 40.485 251.42 37.665 251.99 35.145ZM254.075 35.31L255.47 35.955C254.75 39.855 253.16 43.935 250.685 46.005C250.34 45.645 249.71 45.195 249.215 44.955C251.84 43.08 253.385 39.165 254.075 35.31ZM243.14 40.44C244.61 40.11 246.8 39.495 248.87 38.91L249.11 40.5C247.22 41.085 245.165 41.7 243.575 42.165L243.14 40.44ZM245.84 32.265H247.49V46.35H245.84V32.265ZM243.86 33.12L245.36 33.375C245.165 35.355 244.805 37.455 244.265 38.79C243.995 38.58 243.35 38.16 242.99 37.98C243.47 36.78 243.725 34.905 243.86 33.12ZM244.265 35.16H248.735V36.885H243.935L244.265 35.16ZM260.81 34.08H274.19V35.76H260.81V34.08ZM264.86 39.48H271.385V40.98H264.86V39.48ZM263.525 36.945H271.115V38.52H265.31V46.335H263.525V36.945ZM270.755 36.945H272.51V44.4C272.51 45.285 272.345 45.78 271.73 46.065C271.13 46.335 270.275 46.35 269.06 46.35C268.985 45.855 268.745 45.09 268.505 44.625C269.285 44.67 270.17 44.655 270.425 44.655C270.665 44.655 270.755 44.58 270.755 44.37V36.945ZM265.46 32.25L267.32 32.67C266.27 36.06 264.47 39.51 261.545 41.55C261.29 41.145 260.72 40.5 260.36 40.155C263.03 38.4 264.71 35.175 265.46 32.25ZM264.86 41.955H271.385V43.455H264.86V41.955ZM278.15 32.94H291.365V34.545H278.15V32.94ZM283.925 33.63H285.815V39.69C285.815 42.72 284.57 45.24 278.915 46.365C278.72 45.96 278.21 45.18 277.82 44.775C283.235 43.95 283.925 42.06 283.925 39.66V33.63ZM281.15 39.195V40.185H288.62V39.195H281.15ZM281.15 36.885V37.845H288.62V36.885H281.15ZM279.455 35.43H290.42V41.625H279.455V35.43ZM281.24 41.565C283.34 44.25 286.85 44.46 291.965 44.415C291.65 44.835 291.305 45.6 291.215 46.2C285.92 46.095 281.96 45.6 279.665 42.195L281.24 41.565ZM298.1 35.985L299.315 34.98C300.215 35.415 301.415 36.105 302 36.63L300.725 37.74C300.185 37.215 299.015 36.465 298.1 35.985ZM304.865 33.39H305.21L305.495 33.315L306.665 33.99C304.715 37.605 300.47 39.555 296.105 40.44C295.955 39.99 295.595 39.285 295.28 38.895C299.33 38.25 303.38 36.45 304.865 33.645V33.39ZM300.125 33.39H305.27V34.86H300.125V33.39ZM300.95 32.22L302.915 32.64C301.385 34.38 299.405 35.79 296.6 36.9C296.345 36.48 295.79 35.865 295.4 35.58C298.07 34.71 299.93 33.45 300.95 32.22ZM300.14 41.67L301.445 40.665C302.36 41.16 303.56 41.925 304.16 42.51L302.765 43.62C302.24 43.05 301.07 42.21 300.14 41.67ZM306.755 38.865H307.115L307.43 38.79L308.63 39.405C306.8 43.875 302.465 45.645 297.305 46.365C297.17 45.87 296.84 45.135 296.54 44.73C301.295 44.235 305.36 42.66 306.755 39.12V38.865ZM302.345 38.865H307.235V40.365H302.345V38.865ZM303.395 37.41L305.36 37.86C303.68 39.825 301.37 41.415 298.055 42.615C297.845 42.195 297.335 41.535 296.96 41.22C300.095 40.275 302.24 38.835 303.395 37.41ZM313.895 34.695H318.5V44.805H313.895V43.215H316.865V36.27H313.895V34.695ZM312.845 34.695H314.48V45.915H312.845V34.695ZM313.82 38.7H317.66V40.26H313.82V38.7ZM314.975 32.25L316.94 32.535C316.595 33.555 316.22 34.62 315.92 35.325L314.48 35.01C314.69 34.23 314.9 33.075 314.975 32.25ZM320.48 34.59H324.86V36.225H320.48V34.59ZM324.245 34.59H325.91C325.91 34.59 325.91 35.175 325.895 35.4C325.7 42.15 325.52 44.535 324.905 45.33C324.485 45.915 324.065 46.08 323.45 46.17C322.88 46.26 321.965 46.245 321.095 46.2C321.065 45.705 320.825 44.94 320.495 44.46C321.47 44.535 322.37 44.55 322.745 44.55C323.045 44.55 323.21 44.49 323.405 44.28C323.885 43.77 324.08 41.19 324.245 34.935V34.59ZM320.525 32.265L322.25 32.67C321.665 34.89 320.69 37.17 319.67 38.61C319.34 38.31 318.605 37.8 318.185 37.56C319.19 36.3 320.045 34.26 320.525 32.265ZM319.79 38.91L321.2 38.115C321.935 39.15 322.925 40.59 323.39 41.475L321.86 42.405C321.455 41.49 320.51 40.02 319.79 38.91ZM330.155 32.835H331.85V42.42H330.155V32.835ZM331.115 32.835H334.955V41.73H331.115V40.125H333.305V34.41H331.115V32.835ZM331.07 36.375H334.175V37.935H331.07V36.375ZM335.405 32.79H342.02V34.365H335.405V32.79ZM341.45 32.79H343.16C343.16 32.79 343.145 33.18 343.13 33.39C343.01 35.46 342.875 36.405 342.53 36.78C342.245 37.095 341.9 37.215 341.48 37.26C341.105 37.305 340.445 37.32 339.755 37.29C339.725 36.84 339.56 36.24 339.32 35.85C339.875 35.895 340.385 35.91 340.625 35.91C340.835 35.91 340.955 35.88 341.075 35.775C341.27 35.565 341.36 34.845 341.45 33.015V32.79ZM337.7 33.27H339.455C339.245 35.535 338.645 37.05 335.825 37.89C335.66 37.485 335.24 36.87 334.88 36.57C337.19 35.97 337.55 34.905 337.7 33.27ZM337.535 39.195V40.8H340.91V39.195H337.535ZM335.855 37.755H342.695V42.24H335.855V37.755ZM333.845 43.14L335.51 42.93C335.705 43.935 335.885 45.225 335.9 46.02L334.13 46.305C334.13 45.495 334.01 44.16 333.845 43.14ZM337.025 43.11L338.72 42.795C339.095 43.77 339.47 45.045 339.605 45.87L337.805 46.245C337.7 45.45 337.37 44.115 337.025 43.11ZM340.13 43.095L341.765 42.465C342.38 43.44 343.175 44.76 343.52 45.6L341.78 46.35C341.48 45.51 340.73 44.115 340.13 43.095ZM331.34 42.585L333.08 43.065C332.585 44.205 331.85 45.54 331.235 46.425L329.495 45.675C330.095 44.94 330.86 43.68 331.34 42.585ZM350 41.295H353.885V42.255H350V41.295ZM350 42.855H353.885V43.815H350V42.855ZM349.985 44.415H354.125V45.57H349.985V44.415ZM351.44 40.23H352.58V45.12H351.44V40.23ZM350.54 39.585H353.945V40.695H350.54V46.185H349.295V40.65L350.195 39.585H350.54ZM351.92 38.34L353.255 38.715C352.91 39.36 352.595 40.035 352.325 40.485L351.32 40.155C351.53 39.645 351.8 38.865 351.92 38.34ZM349.82 38.295L351.065 38.595C350.675 39.9 350 41.22 349.265 42.06C349.07 41.835 348.59 41.37 348.32 41.175C348.965 40.44 349.505 39.375 349.82 38.295ZM347.03 32.88H353.825V34.35H347.03V32.88ZM348.11 35.1H353.81V38.445H348.11V37.23H352.22V36.345H348.11V35.1ZM347.39 35.1H348.905V39.015C348.905 41.085 348.74 44.175 347.795 46.185C347.525 45.915 346.85 45.42 346.52 45.255C347.33 43.44 347.39 40.86 347.39 39.015V35.1ZM354.35 32.865H360.59V34.38H354.35V32.865ZM356.135 38.865V39.795H358.82V38.865H356.135ZM356.135 41.04V41.985H358.82V41.04H356.135ZM356.135 36.69V37.59H358.82V36.69H356.135ZM354.68 35.34H360.35V43.32H354.68V35.34ZM356.63 33.705L358.505 33.9C358.25 34.815 357.98 35.745 357.77 36.375L356.345 36.12C356.48 35.415 356.6 34.41 356.63 33.705ZM355.955 43.455L357.365 44.31C356.72 45.06 355.655 45.915 354.785 46.38C354.515 46.08 354.005 45.615 353.645 45.33C354.5 44.895 355.475 44.085 355.955 43.455ZM357.77 44.325L359.045 43.515C359.69 44.07 360.545 44.895 360.98 45.465L359.615 46.365C359.24 45.81 358.415 44.94 357.77 44.325ZM365.732 45.1385C365.38 45.1385 365.078 45.0142 364.826 44.7656C364.578 44.5135 364.453 44.2116 364.453 43.8601C364.453 43.5121 364.578 43.2138 364.826 42.9652C365.078 42.7166 365.38 42.5923 365.732 42.5923C366.073 42.5923 366.371 42.7166 366.627 42.9652C366.882 43.2138 367.01 43.5121 367.01 43.8601C367.01 44.0945 366.95 44.3093 366.829 44.5046C366.712 44.6964 366.558 44.8509 366.366 44.968C366.174 45.0817 365.963 45.1385 365.732 45.1385ZM365.732 39.407C365.38 39.407 365.078 39.2827 364.826 39.0341C364.578 38.7855 364.453 38.4837 364.453 38.1286C364.453 37.7805 364.578 37.484 364.826 37.239C365.078 36.9904 365.38 36.8661 365.732 36.8661C366.073 36.8661 366.371 36.9904 366.627 37.239C366.882 37.484 367.01 37.7805 367.01 38.1286C367.01 38.3665 366.95 38.5831 366.829 38.7784C366.712 38.9702 366.558 39.1229 366.366 39.2365C366.174 39.3501 365.963 39.407 365.732 39.407ZM58.6303 64.0909V75H56.3239V66.2802H56.2599L53.7617 67.8462V65.8008L56.4624 64.0909H58.6303ZM64.2348 75.1385C63.8833 75.1385 63.5814 75.0142 63.3293 74.7656C63.0807 74.5135 62.9564 74.2116 62.9564 73.8601C62.9564 73.5121 63.0807 73.2138 63.3293 72.9652C63.5814 72.7166 63.8833 72.5923 64.2348 72.5923C64.5757 72.5923 64.874 72.7166 65.1297 72.9652C65.3854 73.2138 65.5132 73.5121 65.5132 73.8601C65.5132 74.0945 65.4529 74.3093 65.3321 74.5046C65.2149 74.6964 65.0605 74.8509 64.8687 74.968C64.6769 75.0817 64.4656 75.1385 64.2348 75.1385ZM69.5457 64.35H82.9257V66.075H69.5457V64.35ZM74.4357 69.21H82.2957V70.875H74.4357V69.21ZM73.8507 74.31H82.8657V75.975H73.8507V74.31ZM77.4957 66.72H79.3107V75.195H77.4957V66.72ZM74.2707 62.25L76.1457 62.7C75.0357 66.315 73.1457 69.96 69.9357 72.15C69.7557 71.64 69.3357 70.845 69.0657 70.41C71.7807 68.64 73.4907 65.28 74.2707 62.25ZM71.2707 68.535H73.0857V76.32H71.2707V68.535ZM98.9907 62.49L100.026 63.9C97.7607 64.425 94.5657 64.71 91.8807 64.77C91.8357 64.365 91.6407 63.735 91.4607 63.36C94.1007 63.225 97.1157 62.94 98.9907 62.49ZM94.0857 67.875L95.4657 69.15C94.4907 69.6 93.3207 70.02 92.3757 70.29C92.2857 69.96 92.0307 69.39 91.8507 69.045C92.6307 68.73 93.5307 68.265 94.0857 67.875ZM91.2507 65.655H100.356V67.23H91.2507V65.655ZM94.9107 63.63H96.5757V74.985H94.9107V63.63ZM91.4607 68.31L93.0957 68.82V76.32H91.4607V68.31ZM96.9807 68.415H100.056V76.29H98.4207V69.93H96.9807V68.415ZM92.5107 71.145H94.4307V72.645H92.5107V71.145ZM97.1307 71.145H99.5157V72.645H97.1307V71.145ZM92.2557 74.07H99.2907V75.615H92.2557V74.07ZM86.2707 69.81C87.4707 69.54 89.2557 69.06 90.9507 68.58L91.1907 70.2C89.6457 70.68 87.9957 71.16 86.6757 71.535L86.2707 69.81ZM86.5107 65.115H91.1007V66.765H86.5107V65.115ZM88.1007 62.28H89.7507V74.445C89.7507 75.285 89.6007 75.75 89.1357 76.02C88.6857 76.305 88.0407 76.365 87.0657 76.365C87.0207 75.915 86.8107 75.18 86.6007 74.685C87.1407 74.715 87.6657 74.715 87.8457 74.7C88.0257 74.7 88.1007 74.655 88.1007 74.445V62.28ZM105.786 63.63H107.466V76.35H105.786V63.63ZM103.821 66.51H109.386V68.19H103.821V66.51ZM105.861 67.185L106.941 67.635C106.431 69.78 105.486 72.51 104.406 74.01C104.241 73.485 103.836 72.705 103.566 72.225C104.511 71.01 105.441 68.805 105.861 67.185ZM108.291 62.325L109.311 63.795C107.841 64.35 105.921 64.725 104.286 64.935C104.211 64.545 103.986 63.945 103.791 63.555C105.381 63.27 107.136 62.835 108.291 62.325ZM107.406 68.355C107.751 68.79 108.966 70.65 109.221 71.115L108.201 72.48C107.916 71.55 107.106 69.825 106.701 69.045L107.406 68.355ZM109.146 69.375H117.651V70.995H109.146V69.375ZM109.971 64.5H116.961V69.975H115.296V66.105H111.576V69.975H109.971V64.5ZM112.656 62.43H114.321V68.265C114.321 71.49 113.826 74.535 109.806 76.32C109.566 75.93 109.011 75.27 108.651 74.97C112.221 73.455 112.656 70.965 112.656 68.265V62.43ZM114.501 70.05C115.011 72.225 116.106 74.07 117.891 74.955C117.501 75.285 116.976 75.96 116.721 76.395C114.741 75.255 113.631 73.08 113.016 70.35L114.501 70.05ZM121.146 64.485H134.796V66.12H121.146V64.485ZM122.916 69.6H126.816V70.92H122.916V69.6ZM122.916 71.895H126.816V73.23H122.916V71.895ZM129.201 67.305H130.866V73.455H129.201V67.305ZM126.186 67.155H127.926V74.58C127.926 75.345 127.776 75.765 127.266 76.02C126.771 76.29 126.081 76.305 125.151 76.305C125.061 75.855 124.806 75.195 124.581 74.775C125.136 74.805 125.751 74.805 125.931 74.79C126.126 74.79 126.186 74.73 126.186 74.55V67.155ZM132.216 66.9H133.986V74.385C133.986 75.255 133.821 75.72 133.221 75.99C132.651 76.26 131.841 76.32 130.731 76.305C130.641 75.825 130.356 75.06 130.101 74.595C130.866 74.64 131.646 74.64 131.901 74.625C132.141 74.625 132.216 74.565 132.216 74.355V66.9ZM123.216 62.85L124.926 62.25C125.466 62.835 126.066 63.63 126.321 64.2L124.506 64.845C124.296 64.305 123.741 63.45 123.216 62.85ZM130.911 62.22L132.876 62.805C132.261 63.765 131.601 64.725 131.076 65.385L129.456 64.83C129.966 64.125 130.581 63.03 130.911 62.22ZM121.971 67.155H126.696V68.655H123.666V76.26H121.971V67.155ZM146.931 62.94H150.816V64.56H146.931V62.94ZM146.931 66.33H150.816V67.905H146.931V66.33ZM146.931 69.75H150.831V71.355H146.931V69.75ZM150.036 62.94H151.776V74.37C151.776 75.24 151.611 75.735 151.071 76.005C150.546 76.29 149.781 76.335 148.656 76.335C148.611 75.855 148.371 75.075 148.146 74.625C148.791 74.655 149.526 74.655 149.736 74.64C149.961 74.64 150.036 74.565 150.036 74.34V62.94ZM146.196 62.94H147.876V68.445C147.876 70.815 147.681 74.25 146.406 76.38C146.106 76.065 145.371 75.54 144.981 75.36C146.106 73.44 146.196 70.59 146.196 68.445V62.94ZM138.336 64.035H145.686V65.595H138.336V64.035ZM140.301 66.48H143.871V67.86H140.301V66.48ZM140.301 68.82H143.886V70.185H140.301V68.82ZM138.156 71.19H145.581V72.765H138.156V71.19ZM139.521 62.43H141.141V71.76H139.521V62.43ZM143.016 62.43H144.666V71.76H143.016V62.43ZM140.031 72.87L141.726 73.365C141.171 74.475 140.286 75.645 139.491 76.38C139.146 76.08 138.456 75.57 138.036 75.33C138.846 74.715 139.611 73.785 140.031 72.87ZM142.251 73.545L143.616 72.795C144.216 73.455 144.981 74.37 145.326 74.985L143.871 75.84C143.571 75.24 142.851 74.25 142.251 73.545ZM157.116 64.695H161.721V74.805H157.116V73.215H160.086V66.27H157.116V64.695ZM156.066 64.695H157.701V75.915H156.066V64.695ZM157.041 68.7H160.881V70.26H157.041V68.7ZM158.196 62.25L160.161 62.535C159.816 63.555 159.441 64.62 159.141 65.325L157.701 65.01C157.911 64.23 158.121 63.075 158.196 62.25ZM163.701 64.59H168.081V66.225H163.701V64.59ZM167.466 64.59H169.131C169.131 64.59 169.131 65.175 169.116 65.4C168.921 72.15 168.741 74.535 168.126 75.33C167.706 75.915 167.286 76.08 166.671 76.17C166.101 76.26 165.186 76.245 164.316 76.2C164.286 75.705 164.046 74.94 163.716 74.46C164.691 74.535 165.591 74.55 165.966 74.55C166.266 74.55 166.431 74.49 166.626 74.28C167.106 73.77 167.301 71.19 167.466 64.935V64.59ZM163.746 62.265L165.471 62.67C164.886 64.89 163.911 67.17 162.891 68.61C162.561 68.31 161.826 67.8 161.406 67.56C162.411 66.3 163.266 64.26 163.746 62.265ZM163.011 68.91L164.421 68.115C165.156 69.15 166.146 70.59 166.611 71.475L165.081 72.405C164.676 71.49 163.731 70.02 163.011 68.91ZM226.866 77.07L226.386 75.87C227.646 75.465 228.336 74.73 228.336 73.875L228.231 72.39L229.056 73.74C228.816 73.965 228.501 74.07 228.171 74.07C227.421 74.07 226.731 73.59 226.731 72.72C226.731 71.88 227.406 71.37 228.216 71.37C229.266 71.37 229.836 72.18 229.836 73.44C229.836 75.135 228.726 76.515 226.866 77.07ZM249.272 62.76H260.402V64.125H249.272V62.76ZM248.192 69.51H261.557V70.905H248.192V69.51ZM250.367 66.36H253.442V67.425H250.367V66.36ZM250.037 67.905H253.442V68.97H250.037V67.905ZM256.217 67.905H259.652V68.985H256.217V67.905ZM256.217 66.36H259.322V67.425H256.217V66.36ZM253.952 63.3H255.677V69.105H253.952V63.3ZM252.527 72.645H254.162V76.23H252.527V72.645ZM255.752 72.645H257.387V76.23H255.752V72.645ZM248.252 64.665H261.497V67.635H259.832V65.88H249.842V67.635H248.252V64.665ZM249.302 71.625H259.412V73.035H250.997V76.305H249.302V71.625ZM259.022 71.625H260.762V74.715C260.762 75.435 260.642 75.825 260.162 76.065C259.682 76.32 259.067 76.32 258.257 76.32C258.182 75.87 257.942 75.27 257.747 74.865C258.182 74.88 258.677 74.88 258.812 74.865C258.977 74.865 259.022 74.82 259.022 74.685V71.625ZM253.982 70.065L255.947 70.08C255.662 71.01 255.302 71.88 255.032 72.48L253.457 72.36C253.667 71.685 253.892 70.755 253.982 70.065ZM265.232 70.395H279.002V71.85H265.232V70.395ZM265.517 62.79H278.642V64.35H265.517V62.79ZM270.227 68.955L271.997 69.405C271.037 70.995 269.762 72.885 268.847 74.085L267.107 73.56C268.037 72.36 269.357 70.425 270.227 68.955ZM274.577 70.935L276.317 71.385C274.832 74.925 271.742 75.945 266.177 76.38C266.057 75.855 265.787 75.225 265.502 74.835C270.557 74.625 273.377 73.815 274.577 70.935ZM268.142 73.68L269.057 72.39C272.507 73.095 276.242 74.13 278.492 74.955L277.412 76.41C275.237 75.525 271.727 74.445 268.142 73.68ZM269.462 63.405H271.157V68.535H269.462V63.405ZM272.867 63.405H274.562V68.535H272.867V63.405ZM267.887 66.615V68.025H276.362V66.615H267.887ZM266.207 65.205H278.162V69.435H266.207V65.205ZM282.827 63.27H295.907V65.115H282.827V63.27ZM290.072 68.295L291.467 67.125C293.072 68.295 295.382 70.02 296.477 71.22L294.947 72.6C293.957 71.415 291.737 69.57 290.072 68.295ZM289.472 63.945L291.482 64.65C289.772 67.815 287.042 70.875 283.592 72.675C283.307 72.195 282.737 71.445 282.362 71.04C285.572 69.525 288.227 66.615 289.472 63.945ZM288.377 67.575L290.357 65.61V76.32H288.377V67.575ZM308.192 67.185H313.652V68.805H308.192V67.185ZM300.767 67.47H307.202V68.745H300.767V67.47ZM300.782 73.755H307.037V75.135H300.782V73.755ZM310.772 67.95H312.392V76.35H310.772V67.95ZM300.032 62.715H301.532V76.185H300.032V62.715ZM311.927 62.4L313.412 63.63C312.047 64.335 310.247 64.905 308.672 65.28C308.582 64.92 308.327 64.305 308.117 63.975C309.497 63.57 311.027 62.97 311.927 62.4ZM302.552 62.325L303.482 62.61C303.152 63.225 302.837 63.885 302.552 64.32L301.862 64.065C302.102 63.585 302.417 62.835 302.552 62.325ZM303.377 63.495L304.292 63.795C303.737 64.785 303.047 65.955 302.492 66.69L301.787 66.42C302.327 65.655 303.002 64.365 303.377 63.495ZM301.472 64.08L301.982 63.39C302.447 63.855 302.912 64.515 303.122 64.965L302.552 65.715C302.357 65.25 301.907 64.575 301.472 64.08ZM303.287 65.685L303.962 65.37C304.202 65.85 304.427 66.525 304.517 66.945L303.782 67.305C303.722 66.87 303.512 66.18 303.287 65.685ZM301.472 66.24C302.177 66.21 302.972 66.15 303.932 66.09L303.947 66.84C303.107 66.975 302.387 67.065 301.667 67.155L301.472 66.24ZM305.357 62.325L306.332 62.625C306.002 63.225 305.657 63.885 305.372 64.335L304.637 64.08C304.892 63.57 305.207 62.82 305.357 62.325ZM306.227 63.465L307.172 63.765C306.632 64.725 305.972 65.85 305.417 66.57L304.667 66.3C305.207 65.535 305.867 64.32 306.227 63.465ZM304.232 64.11L304.727 63.39C305.192 63.825 305.657 64.47 305.852 64.875L305.282 65.685C305.102 65.235 304.652 64.575 304.232 64.11ZM306.197 65.58L306.902 65.235C307.187 65.745 307.442 66.465 307.532 66.9L306.782 67.305C306.707 66.825 306.467 66.105 306.197 65.58ZM304.277 66.21C304.997 66.18 305.837 66.135 306.842 66.09V66.84C305.957 66.945 305.207 67.05 304.457 67.14L304.277 66.21ZM302.552 68.445L303.482 68.73C303.137 69.375 302.807 70.08 302.507 70.56L301.802 70.29C302.072 69.78 302.402 68.97 302.552 68.445ZM303.347 69.72L304.262 70.02C303.707 70.965 303.062 72.12 302.507 72.825L301.802 72.57C302.342 71.805 302.987 70.575 303.347 69.72ZM301.457 70.215L301.967 69.465C302.447 69.945 302.912 70.605 303.122 71.04L302.537 71.85C302.342 71.385 301.892 70.695 301.457 70.215ZM303.302 71.85L303.992 71.52C304.247 72.015 304.472 72.705 304.547 73.155L303.797 73.515C303.737 73.065 303.527 72.36 303.302 71.85ZM301.442 72.48C302.177 72.45 303.017 72.405 304.007 72.33L304.022 73.095C303.137 73.23 302.387 73.32 301.637 73.425L301.442 72.48ZM305.342 68.445L306.317 68.745C305.972 69.345 305.612 70.02 305.312 70.455L304.577 70.2C304.847 69.69 305.177 68.94 305.342 68.445ZM306.212 69.69L307.157 70.005C306.602 70.965 305.912 72.105 305.327 72.825L304.592 72.555C305.147 71.79 305.837 70.545 306.212 69.69ZM304.217 70.215L304.712 69.465C305.177 69.93 305.657 70.575 305.882 71.01L305.312 71.835C305.117 71.37 304.667 70.695 304.217 70.215ZM306.167 71.85L306.887 71.475C307.157 71.985 307.427 72.69 307.517 73.14L306.752 73.545C306.677 73.08 306.437 72.375 306.167 71.85ZM304.247 72.48C304.982 72.45 305.822 72.405 306.797 72.33L306.812 73.095C305.942 73.23 305.192 73.32 304.427 73.425L304.247 72.48ZM307.787 63.495L309.782 64.065C309.767 64.2 309.662 64.275 309.392 64.32V68.835C309.392 70.995 309.197 74.22 307.667 76.35C307.442 75.975 306.812 75.42 306.422 75.21C307.682 73.365 307.787 70.8 307.787 68.805V63.495ZM323.492 70.545H328.622V71.7H323.492V70.545ZM321.527 63.045H330.437V64.335H321.527V63.045ZM321.932 64.905H330.032V66.105H321.932V64.905ZM321.047 66.72H330.917V68.01H321.047V66.72ZM323.492 72.405H328.637V73.605H323.492V72.405ZM322.337 68.565H328.757V69.885H324.002V76.335H322.337V68.565ZM328.097 68.565H329.807V74.565C329.807 75.36 329.672 75.795 329.117 76.035C328.577 76.275 327.827 76.29 326.792 76.29C326.732 75.84 326.507 75.18 326.297 74.76C326.912 74.79 327.632 74.79 327.827 74.775C328.022 74.775 328.097 74.715 328.097 74.535V68.565ZM324.992 62.265H326.777V67.44H324.992V62.265ZM317.552 63.66L318.527 62.34C319.457 62.7 320.657 63.315 321.272 63.825L320.222 65.295C319.682 64.77 318.497 64.08 317.552 63.66ZM316.772 67.74L317.747 66.39C318.677 66.72 319.922 67.32 320.537 67.815L319.502 69.315C318.932 68.805 317.732 68.145 316.772 67.74ZM317.207 75.015C317.972 73.875 319.052 71.97 319.892 70.215L321.272 71.34C320.522 72.93 319.622 74.67 318.782 76.155L317.207 75.015ZM340.532 66.6H346.397V68.07H340.532V66.6ZM339.632 69.435H347.492V70.95H339.632V69.435ZM343.412 63.885C342.572 65.175 341.057 66.75 339.452 67.71C339.272 67.275 338.882 66.63 338.582 66.27C340.202 65.37 341.792 63.675 342.557 62.28H344.147C345.212 63.855 346.802 65.385 348.377 66.135C348.032 66.54 347.657 67.185 347.402 67.68C345.932 66.795 344.312 65.205 343.412 63.885ZM342.587 67.38H344.297V74.505C344.297 75.3 344.162 75.765 343.652 76.035C343.172 76.32 342.512 76.365 341.597 76.365C341.537 75.885 341.282 75.15 341.042 74.685C341.597 74.7 342.167 74.7 342.362 74.7C342.542 74.7 342.587 74.655 342.587 74.475V67.38ZM340.217 71.52L341.777 71.91C341.297 73.29 340.457 74.685 339.602 75.555C339.317 75.27 338.702 74.76 338.342 74.52C339.152 73.785 339.827 72.66 340.217 71.52ZM344.792 72.105L346.157 71.46C346.937 72.465 347.777 73.83 348.092 74.76L346.607 75.495C346.322 74.595 345.527 73.17 344.792 72.105ZM334.682 62.91H338.222V64.515H336.257V76.365H334.682V62.91ZM337.667 62.91H337.967L338.222 62.85L339.392 63.51C339.002 64.8 338.507 66.435 338.072 67.605C339.002 68.775 339.182 69.78 339.182 70.65C339.182 71.625 338.987 72.255 338.507 72.585C338.267 72.75 337.982 72.855 337.652 72.9C337.382 72.93 337.022 72.945 336.677 72.945C336.662 72.51 336.527 71.835 336.287 71.4C336.557 71.415 336.752 71.43 336.932 71.415C337.097 71.415 337.247 71.385 337.352 71.295C337.532 71.16 337.607 70.86 337.607 70.44C337.607 69.735 337.412 68.805 336.557 67.8C336.977 66.45 337.457 64.38 337.667 63.42V62.91ZM352.757 65.31L354.212 65.595C353.852 67.23 353.192 68.79 352.322 69.765C352.097 69.51 351.542 68.97 351.227 68.745C351.992 67.92 352.502 66.645 352.757 65.31ZM351.557 70.26H358.322V71.82H351.557V70.26ZM351.512 63.66H358.412V65.25H351.512V63.66ZM354.152 69.27H355.862V76.32H354.152V69.27ZM354.152 62.265H355.862V64.59H354.152V62.265ZM355.682 71.73C356.207 72.075 357.917 73.47 358.337 73.83L357.332 75.225C356.732 74.505 355.397 73.185 354.737 72.615L355.682 71.73ZM353.972 70.98L355.202 71.7C354.527 73.2 353.252 74.895 352.082 75.885C351.872 75.45 351.467 74.76 351.152 74.4C352.232 73.695 353.402 72.285 353.972 70.98ZM355.757 65.295L357.182 65.565C356.852 67.215 356.177 68.685 355.232 69.63C354.992 69.375 354.437 68.895 354.107 68.67C354.977 67.89 355.502 66.66 355.757 65.295ZM352.742 67.305L353.462 66.36C353.927 66.66 354.482 67.125 354.737 67.455L353.987 68.52C353.732 68.175 353.192 67.65 352.742 67.305ZM355.772 67.65L356.582 66.615C357.182 67.125 357.977 67.815 358.352 68.265L357.512 69.42C357.152 68.925 356.372 68.175 355.772 67.65ZM359.492 68.07H365.162V69.585H359.492V68.07ZM359.492 71.025H365.162V72.54H359.492V71.025ZM359.432 74.025H365.432V75.66H359.432V74.025ZM359.912 62.265L361.592 62.655C360.947 64.935 359.927 67.29 358.817 68.79C358.532 68.49 357.857 67.89 357.482 67.62C358.517 66.33 359.402 64.275 359.912 62.265ZM362.747 62.43L364.472 62.805C364.037 63.96 363.542 65.19 363.137 66L361.682 65.61C362.072 64.755 362.522 63.405 362.747 62.43ZM360.602 65.055H365.267V66.66H360.602V76.365H358.982V66.78L360.572 65.055H360.602ZM361.892 65.82H363.497V74.835H361.892V65.82ZM368.897 72.54H382.367V74.145H368.897V72.54ZM374.642 70.8H376.457V76.335H374.642V70.8ZM372.122 69.39V70.26H379.007V69.39H372.122ZM372.122 67.26V68.115H379.007V67.26H372.122ZM370.397 65.895H380.822V71.625H370.397V65.895ZM372.107 62.265H373.862V65.655H372.107V62.265ZM377.327 62.265H379.082V65.655H377.327V62.265ZM368.957 63.12H382.307V64.71H368.957V63.12ZM388.262 71.295C389.612 71.295 390.692 72.375 390.692 73.71C390.692 75.06 389.612 76.14 388.262 76.14C386.927 76.14 385.832 75.06 385.832 73.71C385.832 72.375 386.927 71.295 388.262 71.295ZM388.262 75.06C389.012 75.06 389.612 74.46 389.612 73.71C389.612 72.975 389.012 72.375 388.262 72.375C387.527 72.375 386.912 72.975 386.912 73.71C386.912 74.46 387.527 75.06 388.262 75.06ZM53.8842 105V103.338L57.7674 99.7425C58.0977 99.4229 58.3746 99.1353 58.5984 98.8796C58.8256 98.6239 58.9979 98.3736 59.1151 98.1286C59.2322 97.88 59.2908 97.6119 59.2908 97.3242C59.2908 97.0046 59.218 96.7294 59.0724 96.4986C58.9268 96.2642 58.728 96.0849 58.4759 95.9606C58.2237 95.8327 57.9379 95.7688 57.6183 95.7688C57.2844 95.7688 56.9933 95.8363 56.7447 95.9712C56.4961 96.1062 56.3043 96.2997 56.1694 96.5518C56.0344 96.804 55.967 97.104 55.967 97.4521H53.7777C53.7777 96.7383 53.9393 96.1186 54.2624 95.593C54.5856 95.0675 55.0384 94.6609 55.6207 94.3732C56.2031 94.0856 56.8743 93.9418 57.6342 93.9418C58.4155 93.9418 59.0955 94.0803 59.6744 94.3572C60.2567 94.6307 60.7095 95.0107 61.0327 95.4972C61.3558 95.9837 61.5174 96.5412 61.5174 97.1697C61.5174 97.5817 61.4357 97.9883 61.2724 98.3896C61.1126 98.7908 60.8267 99.2365 60.4148 99.7266C60.0028 100.213 59.4222 100.797 58.6729 101.479L57.0803 103.04V103.114H61.6612V105H53.8842ZM66.9301 105.138C66.5786 105.138 66.2767 105.014 66.0246 104.766C65.776 104.513 65.6517 104.212 65.6517 103.86C65.6517 103.512 65.776 103.214 66.0246 102.965C66.2767 102.717 66.5786 102.592 66.9301 102.592C67.271 102.592 67.5693 102.717 67.825 102.965C68.0807 103.214 68.2085 103.512 68.2085 103.86C68.2085 104.094 68.1482 104.309 68.0274 104.505C67.9102 104.696 67.7558 104.851 67.564 104.968C67.3722 105.082 67.161 105.138 66.9301 105.138ZM72.061 96.72H79.261V98.385H72.061V96.72ZM79.981 94.08H81.736V102.51H79.981V94.08ZM74.926 93.75H76.696V106.335H74.926V93.75ZM83.536 92.55H85.321V104.145C85.321 105.21 85.111 105.705 84.496 106.005C83.866 106.29 82.876 106.35 81.496 106.35C81.406 105.825 81.121 105 80.866 104.49C81.856 104.52 82.816 104.52 83.131 104.52C83.416 104.52 83.536 104.43 83.536 104.145V92.55ZM77.941 92.325L79.231 93.705C77.326 94.455 74.686 94.965 72.421 95.28C72.346 94.875 72.091 94.245 71.881 93.87C74.071 93.54 76.486 92.985 77.941 92.325ZM74.911 97.515L76.126 98.04C75.376 100.29 74.056 102.975 72.646 104.475C72.466 103.935 72.016 103.185 71.716 102.705C73.006 101.46 74.311 99.27 74.911 97.515ZM76.426 99.03C77.011 99.405 78.871 100.965 79.306 101.355L78.286 102.9C77.626 102.09 76.231 100.635 75.496 99.96L76.426 99.03ZM91.816 93.27H101.026V94.98H91.816V93.27ZM91.816 96.72H101.056V98.4H91.816V96.72ZM91.786 100.26H101.116V101.955H91.786V100.26ZM90.781 93.27H92.566V98.67C92.566 101.055 92.266 104.43 90.421 106.44C90.136 106.095 89.401 105.495 89.011 105.27C90.646 103.455 90.781 100.77 90.781 98.655V93.27ZM100.396 93.27H102.181V104.235C102.181 105.195 101.971 105.675 101.371 105.96C100.741 106.245 99.841 106.275 98.476 106.26C98.401 105.78 98.131 105 97.891 104.535C98.746 104.595 99.736 104.58 100.006 104.58C100.291 104.565 100.396 104.475 100.396 104.22V93.27ZM95.401 93.945H97.231V106.17H95.401V93.945ZM176.806 95.31L178.261 95.595C177.901 97.23 177.241 98.79 176.371 99.765C176.146 99.51 175.591 98.97 175.276 98.745C176.041 97.92 176.551 96.645 176.806 95.31ZM175.606 100.26H182.371V101.82H175.606V100.26ZM175.561 93.66H182.461V95.25H175.561V93.66ZM178.201 99.27H179.911V106.32H178.201V99.27ZM178.201 92.265H179.911V94.59H178.201V92.265ZM179.731 101.73C180.256 102.075 181.966 103.47 182.386 103.83L181.381 105.225C180.781 104.505 179.446 103.185 178.786 102.615L179.731 101.73ZM178.021 100.98L179.251 101.7C178.576 103.2 177.301 104.895 176.131 105.885C175.921 105.45 175.516 104.76 175.201 104.4C176.281 103.695 177.451 102.285 178.021 100.98ZM179.806 95.295L181.231 95.565C180.901 97.215 180.226 98.685 179.281 99.63C179.041 99.375 178.486 98.895 178.156 98.67C179.026 97.89 179.551 96.66 179.806 95.295ZM176.791 97.305L177.511 96.36C177.976 96.66 178.531 97.125 178.786 97.455L178.036 98.52C177.781 98.175 177.241 97.65 176.791 97.305ZM179.821 97.65L180.631 96.615C181.231 97.125 182.026 97.815 182.401 98.265L181.561 99.42C181.201 98.925 180.421 98.175 179.821 97.65ZM183.541 98.07H189.211V99.585H183.541V98.07ZM183.541 101.025H189.211V102.54H183.541V101.025ZM183.481 104.025H189.481V105.66H183.481V104.025ZM183.961 92.265L185.641 92.655C184.996 94.935 183.976 97.29 182.866 98.79C182.581 98.49 181.906 97.89 181.531 97.62C182.566 96.33 183.451 94.275 183.961 92.265ZM186.796 92.43L188.521 92.805C188.086 93.96 187.591 95.19 187.186 96L185.731 95.61C186.121 94.755 186.571 93.405 186.796 92.43ZM184.651 95.055H189.316V96.66H184.651V106.365H183.031V96.78L184.621 95.055H184.651ZM185.941 95.82H187.546V104.835H185.941V95.82ZM192.946 102.54H206.416V104.145H192.946V102.54ZM198.691 100.8H200.506V106.335H198.691V100.8ZM196.171 99.39V100.26H203.056V99.39H196.171ZM196.171 97.26V98.115H203.056V97.26H196.171ZM194.446 95.895H204.871V101.625H194.446V95.895ZM196.156 92.265H197.911V95.655H196.156V92.265ZM201.376 92.265H203.131V95.655H201.376V92.265ZM193.006 93.12H206.356V94.71H193.006V93.12ZM212.521 94.98H222.961V96.735H212.521V94.98ZM211.906 99.405H222.391V101.13H211.906V99.405ZM210.166 104.16H223.726V105.915H210.166V104.16ZM216.001 92.265H217.876V105.03H216.001V92.265ZM212.536 92.445L214.396 92.865C213.736 95.19 212.641 97.5 211.471 98.94C211.111 98.625 210.316 98.1 209.851 97.845C211.036 96.585 211.996 94.515 212.536 92.445ZM227.356 99.36H240.961V100.935H227.356V99.36ZM230.866 95.04H238.966V96.435H230.866V95.04ZM230.866 97.185H238.966V98.58H230.866V97.185ZM228.016 104.61C229.786 104.415 232.486 104.01 234.976 103.65L235.051 105.24C232.741 105.615 230.251 105.99 228.421 106.275L228.016 104.61ZM234.796 99.795C235.756 102.42 237.856 104.13 241.246 104.76C240.856 105.135 240.346 105.885 240.106 106.38C236.431 105.51 234.361 103.485 233.146 100.2L234.796 99.795ZM239.056 100.74L240.496 101.76C239.401 102.555 238.036 103.35 236.986 103.845L235.786 102.915C236.821 102.375 238.216 101.46 239.056 100.74ZM229.876 92.775H239.386V94.26H231.721V100.02H229.876V92.775ZM229.861 99.825H231.721V104.82L229.861 105.015V99.825ZM246.811 107.07L246.331 105.87C247.591 105.465 248.281 104.73 248.281 103.875L248.176 102.39L249.001 103.74C248.761 103.965 248.446 104.07 248.116 104.07C247.366 104.07 246.676 103.59 246.676 102.72C246.676 101.88 247.351 101.37 248.161 101.37C249.211 101.37 249.781 102.18 249.781 103.44C249.781 105.135 248.671 106.515 246.811 107.07ZM264.706 98.115V103.62H263.086V99.735H261.691V98.115H264.706ZM264.706 103.02C265.306 104.025 266.431 104.49 267.991 104.55C269.881 104.64 273.676 104.595 275.836 104.415C275.641 104.805 275.371 105.57 275.296 106.05C273.346 106.14 269.926 106.17 268.006 106.095C266.161 106.02 264.931 105.57 264.016 104.415C263.506 105 262.951 105.585 262.291 106.245L261.466 104.58C262.036 104.145 262.681 103.59 263.251 103.02H264.706ZM261.601 93.48L263.056 92.64C263.791 93.39 264.631 94.455 264.976 95.205L263.401 96.135C263.101 95.385 262.321 94.275 261.601 93.48ZM265.681 92.835H267.181V95.43C267.181 97.53 266.896 100.695 265.351 102.75C265.141 102.435 264.526 101.82 264.211 101.64C265.546 99.795 265.681 97.23 265.681 95.4V92.835ZM266.596 92.835H269.881V97.305H266.596V95.94H268.366V94.2H266.596V92.835ZM266.866 98.505H270.061V103.125H266.866V101.76H268.561V99.87H266.866V98.505ZM266.116 98.505H267.571V103.815H266.116V98.505ZM270.316 93.9H275.401V95.31H270.316V93.9ZM270.346 100.095H275.386V101.505H270.346V100.095ZM270.211 97.5H275.506V98.925H270.211V97.5ZM272.056 92.265H273.691V94.62H272.056V92.265ZM272.056 98.01H273.691V103.995H272.056V98.01ZM270.796 95.505L272.041 95.235C272.281 95.865 272.476 96.72 272.506 97.26L271.186 97.575C271.171 97.005 271.021 96.165 270.796 95.505ZM273.661 95.175L275.116 95.505C274.831 96.255 274.561 97.065 274.351 97.605L273.181 97.29C273.346 96.705 273.571 95.805 273.661 95.175ZM286.666 100.65H288.541V104.07C288.541 104.55 288.616 104.61 289.141 104.61C289.381 104.61 290.311 104.61 290.611 104.61C291.091 104.61 291.181 104.355 291.241 102.69C291.616 102.99 292.411 103.275 292.906 103.395C292.711 105.69 292.231 106.29 290.776 106.29C290.416 106.29 289.216 106.29 288.871 106.29C287.101 106.29 286.666 105.75 286.666 104.085V100.65ZM283.066 100.905H284.986C284.671 103.545 283.846 105.375 279.736 106.365C279.556 105.9 279.091 105.135 278.716 104.775C282.316 104.07 282.796 102.795 283.066 100.905ZM285.001 96.555H286.741V100.185H285.001V96.555ZM282.976 92.19L284.941 92.58C283.831 94.47 282.301 96.225 280.021 97.65C279.766 97.215 279.196 96.54 278.806 96.255C280.831 95.115 282.226 93.57 282.976 92.19ZM282.226 97.515V99.48H289.801V97.515H282.226ZM280.426 95.91H291.706V101.085H280.426V95.91ZM287.071 93.255H287.491L287.776 93.18L289.051 93.99C288.466 95.025 287.446 96.36 286.621 97.215C286.276 96.945 285.661 96.54 285.241 96.33C285.961 95.565 286.756 94.335 287.071 93.6V93.255ZM283.156 93.255H287.611V94.71H282.271L283.156 93.255ZM297.556 95.31L299.011 95.595C298.651 97.23 297.991 98.79 297.121 99.765C296.896 99.51 296.341 98.97 296.026 98.745C296.791 97.92 297.301 96.645 297.556 95.31ZM296.356 100.26H303.121V101.82H296.356V100.26ZM296.311 93.66H303.211V95.25H296.311V93.66ZM298.951 99.27H300.661V106.32H298.951V99.27ZM298.951 92.265H300.661V94.59H298.951V92.265ZM300.481 101.73C301.006 102.075 302.716 103.47 303.136 103.83L302.131 105.225C301.531 104.505 300.196 103.185 299.536 102.615L300.481 101.73ZM298.771 100.98L300.001 101.7C299.326 103.2 298.051 104.895 296.881 105.885C296.671 105.45 296.266 104.76 295.951 104.4C297.031 103.695 298.201 102.285 298.771 100.98ZM300.556 95.295L301.981 95.565C301.651 97.215 300.976 98.685 300.031 99.63C299.791 99.375 299.236 98.895 298.906 98.67C299.776 97.89 300.301 96.66 300.556 95.295ZM297.541 97.305L298.261 96.36C298.726 96.66 299.281 97.125 299.536 97.455L298.786 98.52C298.531 98.175 297.991 97.65 297.541 97.305ZM300.571 97.65L301.381 96.615C301.981 97.125 302.776 97.815 303.151 98.265L302.311 99.42C301.951 98.925 301.171 98.175 300.571 97.65ZM304.291 98.07H309.961V99.585H304.291V98.07ZM304.291 101.025H309.961V102.54H304.291V101.025ZM304.231 104.025H310.231V105.66H304.231V104.025ZM304.711 92.265L306.391 92.655C305.746 94.935 304.726 97.29 303.616 98.79C303.331 98.49 302.656 97.89 302.281 97.62C303.316 96.33 304.201 94.275 304.711 92.265ZM307.546 92.43L309.271 92.805C308.836 93.96 308.341 95.19 307.936 96L306.481 95.61C306.871 94.755 307.321 93.405 307.546 92.43ZM305.401 95.055H310.066V96.66H305.401V106.365H303.781V96.78L305.371 95.055H305.401ZM306.691 95.82H308.296V104.835H306.691V95.82ZM313.696 102.54H327.166V104.145H313.696V102.54ZM319.441 100.8H321.256V106.335H319.441V100.8ZM316.921 99.39V100.26H323.806V99.39H316.921ZM316.921 97.26V98.115H323.806V97.26H316.921ZM315.196 95.895H325.621V101.625H315.196V95.895ZM316.906 92.265H318.661V95.655H316.906V92.265ZM322.126 92.265H323.881V95.655H322.126V92.265ZM313.756 93.12H327.106V94.71H313.756V93.12ZM332.311 94.695H336.916V104.805H332.311V103.215H335.281V96.27H332.311V94.695ZM331.261 94.695H332.896V105.915H331.261V94.695ZM332.236 98.7H336.076V100.26H332.236V98.7ZM333.391 92.25L335.356 92.535C335.011 93.555 334.636 94.62 334.336 95.325L332.896 95.01C333.106 94.23 333.316 93.075 333.391 92.25ZM338.896 94.59H343.276V96.225H338.896V94.59ZM342.661 94.59H344.326C344.326 94.59 344.326 95.175 344.311 95.4C344.116 102.15 343.936 104.535 343.321 105.33C342.901 105.915 342.481 106.08 341.866 106.17C341.296 106.26 340.381 106.245 339.511 106.2C339.481 105.705 339.241 104.94 338.911 104.46C339.886 104.535 340.786 104.55 341.161 104.55C341.461 104.55 341.626 104.49 341.821 104.28C342.301 103.77 342.496 101.19 342.661 94.935V94.59ZM338.941 92.265L340.666 92.67C340.081 94.89 339.106 97.17 338.086 98.61C337.756 98.31 337.021 97.8 336.601 97.56C337.606 96.3 338.461 94.26 338.941 92.265ZM338.206 98.91L339.616 98.115C340.351 99.15 341.341 100.59 341.806 101.475L340.276 102.405C339.871 101.49 338.926 100.02 338.206 98.91ZM348.211 99.945H361.636V101.595H348.211V99.945ZM351.151 97.35H352.921V100.59H351.151V97.35ZM349.246 96.42H360.796V98.04H349.246V96.42ZM355.576 100.275L356.941 101.265C355.216 103.215 351.976 105.075 349.156 105.975C348.886 105.495 348.436 104.835 348.001 104.415C350.881 103.74 354.046 102.045 355.576 100.275ZM356.596 97.32H358.396V104.37C358.396 105.33 358.186 105.81 357.481 106.065C356.776 106.32 355.771 106.35 354.406 106.35C354.316 105.855 354.016 105.09 353.746 104.625C354.736 104.67 355.861 104.67 356.191 104.67C356.491 104.655 356.596 104.58 356.596 104.34V97.32ZM348.256 93.285H361.606V94.89H348.256V93.285ZM351.361 92.265H353.146V96.015H351.361V92.265ZM356.626 92.265H358.411V96.015H356.626V92.265ZM373.576 92.25H375.391V94.29H373.576V92.25ZM370.216 93.69H378.766V95.205H370.216V93.69ZM369.751 97.11H379.141V98.64H369.751V97.11ZM371.581 95.25L373.126 94.95C373.396 95.64 373.636 96.525 373.681 97.095L372.046 97.455C372.031 96.885 371.836 95.955 371.581 95.25ZM375.811 94.965L377.551 95.145C377.251 96 376.951 96.825 376.681 97.41L375.166 97.2C375.406 96.57 375.676 95.625 375.811 94.965ZM369.871 99.705H379.111V101.22H369.871V99.705ZM372.976 98.265L374.776 98.61C373.966 100.395 372.916 102.51 372.121 103.92L370.576 103.425C371.326 102.09 372.331 99.93 372.976 98.265ZM371.641 103.44L372.691 102.255C374.776 102.87 377.536 104.025 378.961 105.015L377.806 106.35C376.501 105.375 373.771 104.13 371.641 103.44ZM375.811 100.815L377.536 100.995C376.756 104.535 374.761 105.765 370.066 106.38C369.931 105.885 369.661 105.27 369.406 104.925C373.516 104.595 375.181 103.605 375.811 100.815ZM364.966 99.93C366.226 99.675 368.101 99.21 369.886 98.76L370.096 100.35C368.461 100.83 366.721 101.31 365.341 101.685L364.966 99.93ZM365.266 95.115H369.901V96.765H365.266V95.115ZM367.036 92.28H368.761V104.325C368.761 105.21 368.611 105.69 368.116 105.975C367.621 106.275 366.901 106.335 365.881 106.335C365.821 105.855 365.596 105.075 365.371 104.58C365.956 104.61 366.571 104.61 366.766 104.61C366.961 104.61 367.036 104.535 367.036 104.325V92.28ZM383.881 96.09H387.916V97.41H383.881V96.09ZM383.881 98.58H387.916V99.84H383.881V98.58ZM383.881 101.055H387.916V102.375H383.881V101.055ZM384.571 93.6H386.686V94.92H384.571V93.6ZM385.171 96.75H386.251V101.52H385.171V96.75ZM384.181 92.265L385.711 92.595C385.231 94.605 384.391 96.6 383.386 97.875C383.131 97.605 382.501 97.095 382.156 96.87C383.086 95.76 383.791 94.02 384.181 92.265ZM383.191 96.09H384.511V100.125C384.511 102.015 384.346 104.67 383.371 106.38C383.131 106.155 382.546 105.78 382.216 105.66C383.116 104.055 383.191 101.82 383.191 100.125V96.09ZM386.926 96.09H388.306V104.76C388.306 105.42 388.186 105.84 387.766 106.095C387.331 106.335 386.761 106.365 385.891 106.365C385.861 105.96 385.636 105.315 385.441 104.94C385.981 104.97 386.521 104.97 386.701 104.97C386.881 104.955 386.926 104.895 386.926 104.73V96.09ZM386.161 93.6H386.491L386.776 93.51L387.706 94.14C387.316 95.145 386.776 96.345 386.311 97.125C386.101 96.825 385.681 96.405 385.426 96.21C385.711 95.565 386.011 94.53 386.161 93.855V93.6ZM393.886 94.095V95.265H394.651V94.095H393.886ZM391.891 94.095V95.265H392.656V94.095H391.891ZM389.956 94.095V95.265H390.691V94.095H389.956ZM388.606 92.835H396.076V96.525H388.606V92.835ZM390.001 95.955L391.486 96.36C390.871 97.815 389.866 99.255 388.846 100.155C388.606 99.87 388.036 99.315 387.706 99.06C388.666 98.31 389.506 97.14 390.001 95.955ZM390.211 97.35H395.026V98.7H389.536L390.211 97.35ZM394.621 97.35H396.151C396.151 97.35 396.151 97.83 396.151 98.01C396.046 103.38 395.941 105.135 395.581 105.675C395.341 106.095 395.041 106.215 394.666 106.29C394.336 106.365 393.871 106.365 393.361 106.35C393.331 105.975 393.196 105.405 393.001 105.06C393.346 105.09 393.646 105.09 393.841 105.09C394.006 105.09 394.111 105.045 394.216 104.85C394.441 104.475 394.531 102.795 394.621 97.695V97.35ZM390.016 100.86V101.91H392.656V100.86H390.016ZM388.831 99.84H393.886V102.93H388.831V99.84ZM390.691 98.895H391.936V104.31L390.691 104.565V98.895ZM388.456 104.19C389.656 104.1 391.411 103.935 393.181 103.785L393.226 104.85C391.606 105.075 389.986 105.285 388.696 105.45L388.456 104.19ZM392.356 103.32L393.361 103.035C393.646 103.62 393.946 104.415 394.066 104.925L393.001 105.27C392.896 104.745 392.626 103.935 392.356 103.32ZM399.781 93.21H407.431V94.815H399.781V93.21ZM400.231 100.35H406.966V101.955H400.231V100.35ZM402.721 98.895H404.506V104.55L402.721 104.82V98.895ZM399.616 104.205C401.611 104.025 404.656 103.665 407.461 103.335L407.506 105.015C404.821 105.375 401.941 105.75 399.886 106.005L399.616 104.205ZM399.751 97.08C401.476 97.05 404.086 96.975 406.591 96.885L406.546 98.43C404.161 98.565 401.656 98.67 399.856 98.745L399.751 97.08ZM404.356 95.775L405.691 95.07C406.531 96.09 407.491 97.47 407.866 98.415L406.441 99.225C406.096 98.295 405.181 96.84 404.356 95.775ZM401.911 94.185L403.861 94.59C403.336 95.865 402.751 97.305 402.256 98.235L400.741 97.83C401.176 96.84 401.671 95.295 401.911 94.185ZM407.986 94.095H409.711V102.585H407.986V94.095ZM411.406 92.685H413.161V104.205C413.161 105.225 412.966 105.72 412.366 106.005C411.766 106.29 410.791 106.35 409.516 106.35C409.441 105.84 409.186 105.03 408.931 104.52C409.831 104.565 410.746 104.55 411.046 104.55C411.316 104.535 411.406 104.46 411.406 104.19V92.685ZM421.981 98.55H430.951V99.975H421.981V98.55ZM423.571 100.665H429.331V102.06H423.571V100.665ZM423.946 99.12L425.416 99.48C424.726 101.175 423.511 102.66 422.161 103.59C421.936 103.29 421.381 102.75 421.066 102.48C422.341 101.73 423.421 100.515 423.946 99.12ZM425.026 101.25L426.406 101.655C425.536 103.455 424.051 105.03 422.506 106.02C422.296 105.72 421.816 105.15 421.516 104.88C422.986 104.07 424.321 102.75 425.026 101.25ZM427.231 101.295L428.641 101.64C427.981 103.53 426.826 105.24 425.521 106.305C425.281 106.05 424.726 105.54 424.411 105.315C425.671 104.4 426.706 102.915 427.231 101.295ZM428.911 100.665H430.561C430.561 100.665 430.531 101.07 430.516 101.28C430.366 104.16 430.171 105.36 429.796 105.795C429.526 106.125 429.241 106.245 428.866 106.305C428.536 106.365 427.996 106.38 427.426 106.35C427.396 105.885 427.231 105.27 427.021 104.865C427.441 104.91 427.816 104.925 428.011 104.925C428.191 104.925 428.296 104.895 428.416 104.76C428.626 104.505 428.791 103.53 428.911 100.905V100.665ZM424.771 95.97V96.705H428.176V95.97H424.771ZM424.771 94.08V94.785H428.176V94.08H424.771ZM423.136 92.82H429.901V97.965H423.136V92.82ZM417.481 92.91H421.021V94.515H419.056V106.365H417.481V92.91ZM420.466 92.91H420.766L421.021 92.85L422.191 93.51C421.801 94.8 421.306 96.435 420.871 97.605C421.801 98.775 421.981 99.78 421.981 100.65C421.981 101.625 421.786 102.255 421.306 102.585C421.066 102.75 420.781 102.855 420.451 102.9C420.181 102.93 419.821 102.945 419.476 102.945C419.461 102.51 419.326 101.835 419.086 101.4C419.356 101.415 419.551 101.43 419.731 101.415C419.896 101.415 420.046 101.385 420.151 101.295C420.331 101.16 420.406 100.86 420.406 100.44C420.406 99.735 420.211 98.805 419.356 97.8C419.776 96.45 420.256 94.38 420.466 93.42V92.91ZM442.141 99.12H443.956V103.995C443.956 104.535 444.031 104.61 444.526 104.61C444.751 104.61 445.636 104.61 445.906 104.61C446.401 104.61 446.476 104.28 446.551 102.225C446.926 102.525 447.721 102.84 448.186 102.96C448.006 105.585 447.556 106.305 446.056 106.305C445.726 106.305 444.571 106.305 444.256 106.305C442.561 106.305 442.141 105.735 442.141 103.995V99.12ZM438.091 99.195H440.011C439.771 102.48 439.156 105.015 435.106 106.365C434.911 105.9 434.401 105.165 434.011 104.79C437.581 103.725 437.896 101.79 438.091 99.195ZM435.481 93.51L437.101 92.91C437.791 94.035 438.526 95.535 438.781 96.54L437.026 97.245C436.816 96.255 436.141 94.695 435.481 93.51ZM445.186 92.79L447.106 93.45C446.446 94.785 445.666 96.225 445.036 97.155L443.461 96.555C444.076 95.565 444.811 93.99 445.186 92.79ZM434.401 97.77H447.961V99.465H434.401V97.77ZM440.191 92.265H442.021V98.46H440.191V92.265ZM456.316 94.905C457.501 99.915 460.111 103.38 465.601 104.595C465.181 104.985 464.611 105.81 464.341 106.35C458.596 104.835 456.121 101.055 454.696 95.265L456.316 94.905ZM452.176 93.015H460.231V94.77H452.176V93.015ZM462.781 96.585H463.126L463.441 96.51L464.686 97.005C463.516 102.225 460.396 104.955 456.136 106.35C455.911 105.87 455.461 105.135 455.086 104.745C458.926 103.725 461.851 101.13 462.781 96.915V96.585ZM459.826 93.015H460.051L460.366 92.94L461.761 93.165C461.431 94.95 460.921 97.14 460.456 98.925L458.566 98.655C459.061 96.855 459.586 94.5 459.826 93.21V93.015ZM460.126 96.585H463.156V98.28H459.781L460.126 96.585ZM454.576 93.495H456.421V95.79C456.421 98.715 456.031 103.08 452.581 106.11C452.311 105.645 451.681 104.895 451.276 104.565C454.261 102.015 454.576 98.235 454.576 95.79V93.495ZM474.691 92.265H476.551V94.71H474.691V92.265ZM474.691 101.16H476.551V105.165H474.691V101.16ZM473.086 95.085H474.946C474.676 97.68 473.926 99.33 469.981 100.185C469.831 99.735 469.396 99.015 469.021 98.655C472.411 98.07 472.876 96.975 473.086 95.085ZM476.371 95.055H478.156V97.635C478.156 98.04 478.246 98.085 478.696 98.085C478.906 98.085 479.776 98.085 480.046 98.085C480.421 98.085 480.496 97.935 480.556 97.005C480.901 97.26 481.621 97.515 482.101 97.62C481.906 99.195 481.441 99.615 480.226 99.615C479.866 99.615 478.771 99.615 478.441 99.615C476.746 99.615 476.371 99.15 476.371 97.635V95.055ZM469.231 93.615H482.131V96.735H480.271V95.235H471.001V97.005H469.231V93.615ZM470.656 100.455H480.991V102.06H470.656V100.455ZM469.066 104.325H482.251V105.945H469.066V104.325ZM489.136 93.555H499.381V94.905H489.136V93.555ZM489.271 95.475H498.091V96.78H489.271V95.475ZM487.546 97.38H496.216V98.745H487.546V97.38ZM486.571 101.31H495.496V102.675H486.571V101.31ZM489.016 92.25L490.936 92.745C490.126 94.845 488.776 96.81 487.411 98.04C487.021 97.71 486.181 97.155 485.716 96.9C487.141 95.85 488.371 94.095 489.016 92.25ZM495.661 97.38H497.476C497.461 101.205 497.686 104.535 498.526 104.535C498.736 104.535 498.811 103.71 498.826 102.42C499.171 102.855 499.621 103.32 499.981 103.56C499.861 105.48 499.516 106.32 498.391 106.32C495.961 106.32 495.721 102.285 495.661 97.38ZM487.396 99.69L488.746 99.15C489.166 99.69 489.601 100.395 489.766 100.905L488.326 101.475C488.191 100.98 487.801 100.23 487.396 99.69ZM490.966 103.425L492.091 102.48C493.186 103.095 494.716 104.04 495.496 104.685L494.296 105.75C493.591 105.09 492.091 104.1 490.966 103.425ZM490.291 99.045H491.986V106.32H490.291V99.045ZM493.471 99.105L495.061 99.6C494.521 100.275 493.981 100.965 493.576 101.43L492.421 100.995C492.796 100.47 493.231 99.66 493.471 99.105ZM489.931 101.91L491.266 102.405C490.336 103.92 488.731 105.375 487.186 106.155C486.931 105.765 486.421 105.135 486.061 104.835C487.531 104.25 489.121 103.08 489.931 101.91ZM505.561 101.295C506.911 101.295 507.991 102.375 507.991 103.71C507.991 105.06 506.911 106.14 505.561 106.14C504.226 106.14 503.131 105.06 503.131 103.71C503.131 102.375 504.226 101.295 505.561 101.295ZM505.561 105.06C506.311 105.06 506.911 104.46 506.911 103.71C506.911 102.975 506.311 102.375 505.561 102.375C504.826 102.375 504.211 102.975 504.211 103.71C504.211 104.46 504.826 105.06 505.561 105.06Z" fill="#F4EEDA"/>
<path d="M175.956 68.565H177.246V69.735H175.956V68.565ZM178.776 63.93H180.501V76.305H178.776V63.93ZM173.646 66.165H184.971V67.845H175.371V76.305H173.646V66.165ZM184.086 66.165H185.856V74.535C185.856 75.345 185.676 75.765 185.121 76.02C184.581 76.275 183.786 76.305 182.721 76.305C182.631 75.855 182.376 75.18 182.151 74.775C182.796 74.805 183.561 74.805 183.786 74.805C184.011 74.79 184.086 74.73 184.086 74.505V66.165ZM176.901 68.565H177.906C177.906 70.305 178.011 72.045 179.121 73.425C178.866 73.575 178.401 73.935 178.206 74.16C177.036 72.63 176.901 70.485 176.901 68.565ZM176.751 69.555L177.876 69.705C177.636 71.58 177.096 73.155 176.166 74.19C175.971 74.01 175.506 73.665 175.251 73.515C176.136 72.6 176.571 71.19 176.751 69.555ZM181.911 69.48L183.021 69.66C182.781 71.445 182.256 73.035 181.386 74.07C181.191 73.89 180.741 73.545 180.456 73.395C181.281 72.465 181.716 71.055 181.911 69.48ZM181.101 68.565H182.616V69.735H181.101V68.565ZM182.031 68.565H183.081C183.081 70.32 183.171 72.03 184.266 73.41C183.981 73.53 183.486 73.875 183.276 74.07C182.166 72.585 182.031 70.485 182.031 68.565ZM173.151 63.105H186.306V64.875H173.151V63.105ZM194.556 63.03H203.571V76.215H201.861V64.59H196.191V76.335H194.556V63.03ZM196.581 66.435H201.516V67.74H196.581V66.435ZM195.396 73.89H202.686V75.465H195.396V73.89ZM198.306 64.905H199.701V69.72H198.306V64.905ZM198.261 70.29V71.85H199.791V70.29H198.261ZM196.971 69.045H201.156V73.095H196.971V69.045ZM192.696 62.31L194.346 62.805C193.476 65.4 192.036 68.175 190.476 69.945C190.341 69.51 189.891 68.46 189.606 67.995C190.866 66.615 192.021 64.455 192.696 62.31ZM191.466 66.42L193.161 64.725L193.176 64.74V76.365H191.466V66.42ZM210.756 62.97H218.256V64.725H210.756V62.97ZM210.771 66.555H218.331V68.265H210.771V66.555ZM210.696 70.11H218.226V71.85H210.696V70.11ZM209.526 62.97H211.371V67.935C211.371 70.545 210.966 74.22 208.431 76.35C208.161 75.975 207.426 75.3 207.036 75.06C209.316 73.125 209.526 70.23 209.526 67.935V62.97ZM217.416 62.97H219.321V74.07C219.321 75.135 219.066 75.675 218.376 75.975C217.656 76.29 216.591 76.32 215.031 76.32C214.926 75.78 214.581 74.91 214.281 74.43C215.346 74.49 216.591 74.475 216.951 74.475C217.296 74.46 217.416 74.355 217.416 74.04V62.97ZM106.681 95.94H110.866V97.755H106.681V95.94ZM112.516 92.28H114.421V104.025C114.421 105.105 114.196 105.645 113.566 105.975C112.921 106.29 111.931 106.365 110.566 106.365C110.491 105.81 110.131 104.895 109.846 104.355C110.836 104.4 111.781 104.4 112.111 104.4C112.411 104.385 112.516 104.295 112.516 104.01V92.28ZM110.251 95.94H110.626L110.941 95.88L112.186 96.33C111.496 100.425 109.846 103.485 107.701 105.06C107.386 104.64 106.651 103.905 106.216 103.635C108.271 102.255 109.741 99.645 110.251 96.33V95.94ZM114.316 94.47C115.276 98.445 117.241 101.985 120.601 103.59C120.151 103.965 119.521 104.715 119.221 105.27C115.741 103.305 113.956 99.405 112.891 94.77L114.316 94.47ZM118.516 94.605L120.211 95.79C118.936 97.14 117.331 98.655 116.071 99.6L114.781 98.58C115.996 97.575 117.586 95.94 118.516 94.605ZM131.866 92.46H133.681V95.985H131.866V92.46ZM128.326 94.98H137.461V96.675H128.326V94.98ZM129.361 97.65L130.981 97.365C131.491 99.27 131.956 101.7 132.046 103.17L130.276 103.545C130.216 102.075 129.841 99.585 129.361 97.65ZM134.431 97.275L136.381 97.59C135.886 100.02 135.151 102.81 134.536 104.58L132.916 104.235C133.516 102.39 134.146 99.465 134.431 97.275ZM128.011 104.01H137.761V105.72H128.011V104.01ZM126.976 92.295L128.671 92.85C127.651 95.385 125.986 98.055 124.291 99.735C124.141 99.3 123.646 98.31 123.346 97.86C124.771 96.54 126.166 94.425 126.976 92.295ZM125.536 96.45L127.231 94.74L127.246 94.755V106.305H125.536V96.45ZM149.056 92.235L150.496 93.495C149.371 94.185 147.991 94.845 146.836 95.355C146.731 95.01 146.461 94.425 146.236 94.095C147.241 93.57 148.366 92.835 149.056 92.235ZM145.816 93.735L147.511 94.155V103.17H145.816V93.735ZM144.751 103.035C145.816 102.69 147.376 102.06 148.906 101.46L149.296 103.02C148.036 103.605 146.656 104.205 145.531 104.655L144.751 103.035ZM149.326 94.155H153.676V95.73H151.051V106.35H149.326V94.155ZM152.746 94.155H154.471V102.825C154.471 103.59 154.351 104.1 153.856 104.4C153.391 104.7 152.791 104.745 151.936 104.745C151.876 104.25 151.606 103.47 151.366 103.005C151.861 103.035 152.356 103.035 152.521 103.035C152.686 103.02 152.746 102.96 152.746 102.78V94.155ZM140.716 99.84C141.901 99.57 143.671 99.105 145.351 98.625L145.591 100.245C144.061 100.71 142.426 101.19 141.121 101.565L140.716 99.84ZM140.971 95.115H145.531V96.765H140.971V95.115ZM142.546 92.28H144.196V104.445C144.196 105.285 144.046 105.75 143.581 106.02C143.131 106.305 142.486 106.365 141.511 106.365C141.466 105.915 141.256 105.18 141.046 104.685C141.586 104.715 142.111 104.715 142.291 104.7C142.471 104.7 142.546 104.655 142.546 104.445V92.28ZM167.296 93.51H168.976V101.985H167.296V93.51ZM169.996 92.52H171.736V104.22C171.736 105.195 171.541 105.675 170.986 105.99C170.431 106.275 169.561 106.335 168.406 106.335C168.331 105.825 168.076 105.03 167.851 104.505C168.631 104.535 169.411 104.535 169.681 104.535C169.921 104.535 169.996 104.46 169.996 104.22V92.52ZM161.626 92.355H163.336V106.335H161.626V92.355ZM164.656 99.72H166.276V103.56C166.276 104.265 166.186 104.685 165.736 104.955C165.301 105.21 164.731 105.24 163.981 105.225C163.936 104.775 163.741 104.13 163.546 103.695C163.951 103.71 164.341 103.71 164.476 103.71C164.611 103.71 164.656 103.68 164.656 103.53V99.72ZM158.791 99.72H165.301V101.325H160.396V105.15H158.791V99.72ZM158.206 97.02H166.636V98.64H158.206V97.02ZM159.781 94.26H166.051V95.895H159.451L159.781 94.26ZM159.361 92.55L161.011 92.88C160.681 94.455 160.111 96.09 159.541 97.125C159.181 96.915 158.401 96.615 157.981 96.465C158.596 95.49 159.091 93.975 159.361 92.55Z" fill="#E9BD53"/>
</g>
<defs>
<filter id="filter0_d_1875_6765" x="0.161255" y="0" width="532.339" height="146" filterUnits="userSpaceOnUse" color-interpolation-filters="sRGB">
<feFlood flood-opacity="0" result="BackgroundImageFix"/>
<feColorMatrix in="SourceAlpha" type="matrix" values="0 0 0 0 0 0 0 0 0 0 0 0 0 0 0 0 0 0 127 0" result="hardAlpha"/>
<feOffset dx="2" dy="2"/>
<feGaussianBlur stdDeviation="5"/>
<feComposite in2="hardAlpha" operator="out"/>
<feColorMatrix type="matrix" values="0 0 0 0 0.913725 0 0 0 0 0.741176 0 0 0 0 0.32549 0 0 0 1 0"/>
<feBlend mode="normal" in2="BackgroundImageFix" result="effect1_dropShadow_1875_6765"/>
<feBlend mode="normal" in="SourceGraphic" in2="effect1_dropShadow_1875_6765" result="shape"/>
</filter>
</defs>
</svg>
