<svg width="174" height="193" viewBox="0 0 174 193" fill="none" xmlns="http://www.w3.org/2000/svg">
<rect width="20.0967" height="50.4994" rx="10.0483" transform="matrix(0.211656 0.977344 0.977344 -0.211656 108.852 142.009)" fill="#D26334"/>
<path d="M134.266 161.822C134.266 143.323 119.27 128.327 100.772 128.327C82.273 128.327 67.277 143.323 67.277 161.822V174.336C67.277 184.5 75.5166 192.74 85.6806 192.74H115.862C126.026 192.74 134.266 184.5 134.266 174.336V161.822Z" fill="#FA8A5A"/>
<circle cx="94.1301" cy="101.317" r="37.7863" transform="rotate(-15.5008 94.1301 101.317)" fill="url(#paint0_linear_1875_6576)"/>
<ellipse cx="84.4041" cy="98.7504" rx="9.03069" ry="11.4072" transform="rotate(-15.5008 84.4041 98.7504)" fill="white"/>
<ellipse cx="105.93" cy="92.7805" rx="9.03069" ry="11.4072" transform="rotate(-15.5008 105.93 92.7805)" fill="white"/>
<ellipse cx="110.188" cy="93.6141" rx="3.08945" ry="4.04005" transform="rotate(-15.5008 110.188 93.6141)" fill="#3C4040"/>
<ellipse cx="87.2882" cy="99.9649" rx="3.08945" ry="4.04005" transform="rotate(-15.5008 87.2882 99.9649)" fill="#3C4040"/>
<path d="M90.4635 70.1995L137.585 84.4102C160.019 52.2612 130.293 48.5172 112.625 50.6639C63.4368 -5.70679 26.4605 79.9885 30.3591 124.896L49.4879 127.345L90.4635 70.1995Z" fill="#383838"/>
<path d="M106.589 116.321C103.704 123.271 94.9199 119.557 94.9199 119.557" stroke="#E78181" stroke-width="4"/>
<rect width="20.0967" height="50.4994" rx="10.0483" transform="matrix(-0.862854 0.505453 0.505453 0.862854 92.7377 138.811)" fill="#D26334"/>
<defs>
<linearGradient id="paint0_linear_1875_6576" x1="117.891" y1="124.748" x2="66.2441" y2="74.0914" gradientUnits="userSpaceOnUse">
<stop stop-color="#FFD983"/>
<stop offset="1" stop-color="#F0EFE6"/>
</linearGradient>
</defs>
</svg>
